<svg width="145" height="56" viewBox="0 0 145 56" fill="none" xmlns="http://www.w3.org/2000/svg">
<mask id="mask0_2364_25271" style="mask-type:alpha" maskUnits="userSpaceOnUse" x="8" y="8" width="40" height="40">
<rect x="8" y="8" width="40" height="40" fill="#D9D9D9"/>
</mask>
<g mask="url(#mask0_2364_25271)">
<path d="M19.792 42.167C19.0693 42.167 18.4513 41.91 17.938 41.396C17.424 40.882 17.167 40.264 17.167 39.542V17.375H15.5V15.292H22.75V14.042H33.25V15.292H40.5V17.375H38.833V39.542C38.833 40.264 38.576 40.882 38.062 41.396C37.5487 41.91 36.9307 42.167 36.208 42.167H19.792ZM23.833 36.625H25.917V20.833H23.833V36.625ZM30.083 36.625H32.167V20.833H30.083V36.625Z" fill="#2E3035"/>
</g>
<path d="M53.48 35V21H57.78C60.2467 21 62.06 21.6267 63.22 22.88C64.3933 24.1333 64.98 25.8533 64.98 28.04C64.98 30.1867 64.3933 31.8867 63.22 33.14C62.06 34.38 60.2467 35 57.78 35H53.48ZM55.16 33.6H57.74C59.1 33.6 60.18 33.38 60.98 32.94C61.7933 32.4867 62.3733 31.8467 62.72 31.02C63.0667 30.18 63.24 29.1867 63.24 28.04C63.24 26.8667 63.0667 25.86 62.72 25.02C62.3733 24.18 61.7933 23.5333 60.98 23.08C60.18 22.6267 59.1 22.4 57.74 22.4H55.16V33.6ZM71.7658 35.24C70.8191 35.24 69.9791 35.0267 69.2458 34.6C68.5124 34.16 67.9324 33.5533 67.5058 32.78C67.0924 32.0067 66.8858 31.0933 66.8858 30.04C66.8858 29 67.0924 28.0933 67.5058 27.32C67.9191 26.5333 68.4924 25.9267 69.2258 25.5C69.9724 25.06 70.8324 24.84 71.8058 24.84C72.7658 24.84 73.5924 25.06 74.2858 25.5C74.9924 25.9267 75.5324 26.4933 75.9058 27.2C76.2791 27.9067 76.4658 28.6667 76.4658 29.48C76.4658 29.6267 76.4591 29.7733 76.4458 29.92C76.4458 30.0667 76.4458 30.2333 76.4458 30.42H68.5458C68.5858 31.18 68.7591 31.8133 69.0658 32.32C69.3858 32.8133 69.7791 33.1867 70.2458 33.44C70.7258 33.6933 71.2324 33.82 71.7658 33.82C72.4591 33.82 73.0391 33.66 73.5058 33.34C73.9724 33.02 74.3124 32.5867 74.5258 32.04H76.1858C75.9191 32.96 75.4058 33.7267 74.6458 34.34C73.8991 34.94 72.9391 35.24 71.7658 35.24ZM71.7658 26.26C70.9658 26.26 70.2524 26.5067 69.6258 27C69.0124 27.48 68.6591 28.1867 68.5658 29.12H74.8058C74.7658 28.2267 74.4591 27.5267 73.8858 27.02C73.3124 26.5133 72.6058 26.26 71.7658 26.26ZM78.6925 35V20.6H80.3725V35H78.6925ZM87.5861 35.24C86.6394 35.24 85.7994 35.0267 85.0661 34.6C84.3328 34.16 83.7528 33.5533 83.3261 32.78C82.9128 32.0067 82.7061 31.0933 82.7061 30.04C82.7061 29 82.9128 28.0933 83.3261 27.32C83.7394 26.5333 84.3128 25.9267 85.0461 25.5C85.7928 25.06 86.6528 24.84 87.6261 24.84C88.5861 24.84 89.4128 25.06 90.1061 25.5C90.8128 25.9267 91.3528 26.4933 91.7261 27.2C92.0994 27.9067 92.2861 28.6667 92.2861 29.48C92.2861 29.6267 92.2794 29.7733 92.2661 29.92C92.2661 30.0667 92.2661 30.2333 92.2661 30.42H84.3661C84.4061 31.18 84.5794 31.8133 84.8861 32.32C85.2061 32.8133 85.5994 33.1867 86.0661 33.44C86.5461 33.6933 87.0528 33.82 87.5861 33.82C88.2794 33.82 88.8594 33.66 89.3261 33.34C89.7928 33.02 90.1328 32.5867 90.3461 32.04H92.0061C91.7394 32.96 91.2261 33.7267 90.4661 34.34C89.7194 34.94 88.7594 35.24 87.5861 35.24ZM87.5861 26.26C86.7861 26.26 86.0728 26.5067 85.4461 27C84.8328 27.48 84.4794 28.1867 84.3861 29.12H90.6261C90.5861 28.2267 90.2794 27.5267 89.7061 27.02C89.1328 26.5133 88.4261 26.26 87.5861 26.26ZM98.1008 35C97.1941 35 96.4808 34.78 95.9608 34.34C95.4408 33.9 95.1808 33.1067 95.1808 31.96V26.5H93.4608V25.08H95.1808L95.4008 22.7H96.8608V25.08H99.7808V26.5H96.8608V31.96C96.8608 32.5867 96.9874 33.0133 97.2408 33.24C97.4941 33.4533 97.9408 33.56 98.5808 33.56H99.6208V35H98.1008ZM106.102 35.24C105.155 35.24 104.315 35.0267 103.582 34.6C102.848 34.16 102.268 33.5533 101.842 32.78C101.428 32.0067 101.222 31.0933 101.222 30.04C101.222 29 101.428 28.0933 101.842 27.32C102.255 26.5333 102.828 25.9267 103.562 25.5C104.308 25.06 105.168 24.84 106.142 24.84C107.102 24.84 107.928 25.06 108.622 25.5C109.328 25.9267 109.868 26.4933 110.242 27.2C110.615 27.9067 110.802 28.6667 110.802 29.48C110.802 29.6267 110.795 29.7733 110.782 29.92C110.782 30.0667 110.782 30.2333 110.782 30.42H102.882C102.922 31.18 103.095 31.8133 103.402 32.32C103.722 32.8133 104.115 33.1867 104.582 33.44C105.062 33.6933 105.568 33.82 106.102 33.82C106.795 33.82 107.375 33.66 107.842 33.34C108.308 33.02 108.648 32.5867 108.862 32.04H110.522C110.255 32.96 109.742 33.7267 108.982 34.34C108.235 34.94 107.275 35.24 106.102 35.24ZM106.102 26.26C105.302 26.26 104.588 26.5067 103.962 27C103.348 27.48 102.995 28.1867 102.902 29.12H109.142C109.102 28.2267 108.795 27.5267 108.222 27.02C107.648 26.5133 106.942 26.26 106.102 26.26ZM121.621 35.24C120.795 35.24 120.108 35.1 119.561 34.82C119.015 34.54 118.608 34.1667 118.341 33.7C118.075 33.2333 117.941 32.7267 117.941 32.18C117.941 31.1667 118.328 30.3867 119.101 29.84C119.875 29.2933 120.928 29.02 122.261 29.02H124.941V28.9C124.941 28.0333 124.715 27.38 124.261 26.94C123.808 26.4867 123.201 26.26 122.441 26.26C121.788 26.26 121.221 26.4267 120.741 26.76C120.275 27.08 119.981 27.5533 119.861 28.18H118.141C118.208 27.46 118.448 26.8533 118.861 26.36C119.288 25.8667 119.815 25.4933 120.441 25.24C121.068 24.9733 121.735 24.84 122.441 24.84C123.828 24.84 124.868 25.2133 125.561 25.96C126.268 26.6933 126.621 27.6733 126.621 28.9V35H125.121L125.021 33.22C124.741 33.78 124.328 34.26 123.781 34.66C123.248 35.0467 122.528 35.24 121.621 35.24ZM121.881 33.82C122.521 33.82 123.068 33.6533 123.521 33.32C123.988 32.9867 124.341 32.5533 124.581 32.02C124.821 31.4867 124.941 30.9267 124.941 30.34V30.32H122.401C121.415 30.32 120.715 30.4933 120.301 30.84C119.901 31.1733 119.701 31.5933 119.701 32.1C119.701 32.62 119.888 33.04 120.261 33.36C120.648 33.6667 121.188 33.82 121.881 33.82ZM129.142 35V20.6H130.822V35H129.142ZM133.575 35V20.6H135.255V35H133.575Z" fill="#04060D"/>
</svg>
