<svg width="177" height="56" viewBox="0 0 177 56" fill="none" xmlns="http://www.w3.org/2000/svg">
<mask id="mask0_2364_25277" style="mask-type:alpha" maskUnits="userSpaceOnUse" x="8" y="8" width="40" height="40">
<rect x="8" y="8" width="40" height="40" fill="#D9D9D9"/>
</mask>
<g mask="url(#mask0_2364_25277)">
<path d="M18.125 40.5C17.403 40.5 16.785 40.243 16.271 39.729C15.757 39.215 15.5 38.597 15.5 37.875V32.958H17.583V37.875C17.583 38.0137 17.6387 38.1387 17.75 38.25C17.8613 38.3613 17.9863 38.417 18.125 38.417H37.875C38.0137 38.417 38.1387 38.3613 38.25 38.25C38.3613 38.1387 38.417 38.0137 38.417 37.875V32.958H40.5V37.875C40.5 38.597 40.243 39.215 39.729 39.729C39.215 40.243 38.597 40.5 37.875 40.5H18.125ZM28 34.167L21.042 27.208L22.5 25.708L26.958 30.125V15.208H29.042V30.125L33.5 25.708L34.958 27.208L28 34.167Z" fill="#2E3035"/>
</g>
<path d="M53.48 35V21H57.78C60.2467 21 62.06 21.6267 63.22 22.88C64.3933 24.1333 64.98 25.8533 64.98 28.04C64.98 30.1867 64.3933 31.8867 63.22 33.14C62.06 34.38 60.2467 35 57.78 35H53.48ZM55.16 33.6H57.74C59.1 33.6 60.18 33.38 60.98 32.94C61.7933 32.4867 62.3733 31.8467 62.72 31.02C63.0667 30.18 63.24 29.1867 63.24 28.04C63.24 26.8667 63.0667 25.86 62.72 25.02C62.3733 24.18 61.7933 23.5333 60.98 23.08C60.18 22.6267 59.1 22.4 57.74 22.4H55.16V33.6ZM71.8258 35.24C70.8924 35.24 70.0524 35.0267 69.3058 34.6C68.5591 34.1733 67.9658 33.5733 67.5258 32.8C67.0991 32.0133 66.8858 31.0933 66.8858 30.04C66.8858 28.9867 67.1058 28.0733 67.5458 27.3C67.9858 26.5133 68.5791 25.9067 69.3258 25.48C70.0858 25.0533 70.9324 24.84 71.8658 24.84C72.7991 24.84 73.6391 25.0533 74.3858 25.48C75.1324 25.9067 75.7191 26.5133 76.1458 27.3C76.5858 28.0733 76.8058 28.9867 76.8058 30.04C76.8058 31.0933 76.5858 32.0133 76.1458 32.8C75.7058 33.5733 75.1058 34.1733 74.3458 34.6C73.5991 35.0267 72.7591 35.24 71.8258 35.24ZM71.8258 33.8C72.3991 33.8 72.9324 33.66 73.4258 33.38C73.9191 33.1 74.3191 32.68 74.6258 32.12C74.9324 31.56 75.0858 30.8667 75.0858 30.04C75.0858 29.2133 74.9324 28.52 74.6258 27.96C74.3324 27.4 73.9391 26.98 73.4458 26.7C72.9524 26.42 72.4258 26.28 71.8658 26.28C71.2924 26.28 70.7591 26.42 70.2658 26.7C69.7724 26.98 69.3724 27.4 69.0658 27.96C68.7591 28.52 68.6058 29.2133 68.6058 30.04C68.6058 30.8667 68.7591 31.56 69.0658 32.12C69.3724 32.68 69.7658 33.1 70.2458 33.38C70.7391 33.66 71.2658 33.8 71.8258 33.8ZM80.7706 35L77.8706 25.08H79.5506L81.6506 32.86L83.9706 25.08H85.8706L88.2106 32.86L90.2906 25.08H91.9906L89.0906 35H87.3706L84.9306 26.82L82.4906 35H80.7706ZM93.8488 35V25.08H95.3688L95.4688 26.86C95.7888 26.2333 96.2488 25.74 96.8488 25.38C97.4488 25.02 98.1288 24.84 98.8888 24.84C100.062 24.84 100.995 25.2 101.689 25.92C102.395 26.6267 102.749 27.72 102.749 29.2V35H101.069V29.38C101.069 27.3133 100.215 26.28 98.5088 26.28C97.6554 26.28 96.9421 26.5933 96.3688 27.22C95.8088 27.8333 95.5288 28.7133 95.5288 29.86V35H93.8488ZM105.294 35V20.6H106.974V35H105.294ZM114.248 35.24C113.314 35.24 112.474 35.0267 111.728 34.6C110.981 34.1733 110.388 33.5733 109.948 32.8C109.521 32.0133 109.308 31.0933 109.308 30.04C109.308 28.9867 109.528 28.0733 109.968 27.3C110.408 26.5133 111.001 25.9067 111.748 25.48C112.508 25.0533 113.354 24.84 114.288 24.84C115.221 24.84 116.061 25.0533 116.808 25.48C117.554 25.9067 118.141 26.5133 118.568 27.3C119.008 28.0733 119.228 28.9867 119.228 30.04C119.228 31.0933 119.008 32.0133 118.568 32.8C118.128 33.5733 117.528 34.1733 116.768 34.6C116.021 35.0267 115.181 35.24 114.248 35.24ZM114.248 33.8C114.821 33.8 115.354 33.66 115.848 33.38C116.341 33.1 116.741 32.68 117.048 32.12C117.354 31.56 117.508 30.8667 117.508 30.04C117.508 29.2133 117.354 28.52 117.048 27.96C116.754 27.4 116.361 26.98 115.868 26.7C115.374 26.42 114.848 26.28 114.288 26.28C113.714 26.28 113.181 26.42 112.688 26.7C112.194 26.98 111.794 27.4 111.488 27.96C111.181 28.52 111.028 29.2133 111.028 30.04C111.028 30.8667 111.181 31.56 111.488 32.12C111.794 32.68 112.188 33.1 112.668 33.38C113.161 33.66 113.688 33.8 114.248 33.8ZM124.864 35.24C124.037 35.24 123.35 35.1 122.804 34.82C122.257 34.54 121.85 34.1667 121.584 33.7C121.317 33.2333 121.184 32.7267 121.184 32.18C121.184 31.1667 121.57 30.3867 122.344 29.84C123.117 29.2933 124.17 29.02 125.504 29.02H128.184V28.9C128.184 28.0333 127.957 27.38 127.504 26.94C127.05 26.4867 126.444 26.26 125.684 26.26C125.03 26.26 124.464 26.4267 123.984 26.76C123.517 27.08 123.224 27.5533 123.104 28.18H121.384C121.45 27.46 121.69 26.8533 122.104 26.36C122.53 25.8667 123.057 25.4933 123.684 25.24C124.31 24.9733 124.977 24.84 125.684 24.84C127.07 24.84 128.11 25.2133 128.804 25.96C129.51 26.6933 129.864 27.6733 129.864 28.9V35H128.364L128.264 33.22C127.984 33.78 127.57 34.26 127.024 34.66C126.49 35.0467 125.77 35.24 124.864 35.24ZM125.124 33.82C125.764 33.82 126.31 33.6533 126.764 33.32C127.23 32.9867 127.584 32.5533 127.824 32.02C128.064 31.4867 128.184 30.9267 128.184 30.34V30.32H125.644C124.657 30.32 123.957 30.4933 123.544 30.84C123.144 31.1733 122.944 31.5933 122.944 32.1C122.944 32.62 123.13 33.04 123.504 33.36C123.89 33.6667 124.43 33.82 125.124 33.82ZM136.884 35.24C135.897 35.24 135.031 35.0133 134.284 34.56C133.551 34.1067 132.977 33.4867 132.564 32.7C132.164 31.9133 131.964 31.02 131.964 30.02C131.964 29.02 132.171 28.1333 132.584 27.36C132.997 26.5733 133.571 25.96 134.304 25.52C135.037 25.0667 135.904 24.84 136.904 24.84C137.717 24.84 138.437 25.0067 139.064 25.34C139.691 25.6733 140.177 26.14 140.524 26.74V20.6H142.204V35H140.684L140.524 33.36C140.204 33.84 139.744 34.2733 139.144 34.66C138.544 35.0467 137.791 35.24 136.884 35.24ZM137.064 33.78C137.731 33.78 138.317 33.6267 138.824 33.32C139.344 33 139.744 32.56 140.024 32C140.317 31.44 140.464 30.7867 140.464 30.04C140.464 29.2933 140.317 28.64 140.024 28.08C139.744 27.52 139.344 27.0867 138.824 26.78C138.317 26.46 137.731 26.3 137.064 26.3C136.411 26.3 135.824 26.46 135.304 26.78C134.797 27.0867 134.397 27.52 134.104 28.08C133.824 28.64 133.684 29.2933 133.684 30.04C133.684 30.7867 133.824 31.44 134.104 32C134.397 32.56 134.797 33 135.304 33.32C135.824 33.6267 136.411 33.78 137.064 33.78ZM153.535 35.24C152.709 35.24 152.022 35.1 151.475 34.82C150.929 34.54 150.522 34.1667 150.255 33.7C149.989 33.2333 149.855 32.7267 149.855 32.18C149.855 31.1667 150.242 30.3867 151.015 29.84C151.789 29.2933 152.842 29.02 154.175 29.02H156.855V28.9C156.855 28.0333 156.629 27.38 156.175 26.94C155.722 26.4867 155.115 26.26 154.355 26.26C153.702 26.26 153.135 26.4267 152.655 26.76C152.189 27.08 151.895 27.5533 151.775 28.18H150.055C150.122 27.46 150.362 26.8533 150.775 26.36C151.202 25.8667 151.729 25.4933 152.355 25.24C152.982 24.9733 153.649 24.84 154.355 24.84C155.742 24.84 156.782 25.2133 157.475 25.96C158.182 26.6933 158.535 27.6733 158.535 28.9V35H157.035L156.935 33.22C156.655 33.78 156.242 34.26 155.695 34.66C155.162 35.0467 154.442 35.24 153.535 35.24ZM153.795 33.82C154.435 33.82 154.982 33.6533 155.435 33.32C155.902 32.9867 156.255 32.5533 156.495 32.02C156.735 31.4867 156.855 30.9267 156.855 30.34V30.32H154.315C153.329 30.32 152.629 30.4933 152.215 30.84C151.815 31.1733 151.615 31.5933 151.615 32.1C151.615 32.62 151.802 33.04 152.175 33.36C152.562 33.6667 153.102 33.82 153.795 33.82ZM161.056 35V20.6H162.736V35H161.056ZM165.489 35V20.6H167.169V35H165.489Z" fill="#04060D"/>
</svg>
