<svg width="60" height="54" viewBox="0 0 60 54" fill="none" xmlns="http://www.w3.org/2000/svg">
<g clip-path="url(#clip0_1982_15853)">
<path d="M4.54848 45.9225L7.19325 50.4906C7.74282 51.4524 8.53274 52.2082 9.46017 52.7577C12.1167 49.3858 13.9654 46.7982 15.0074 44.9951C16.0646 43.1653 17.364 40.3029 18.9057 36.4084C14.7509 35.8614 11.6025 35.588 9.46041 35.588C7.40432 35.588 4.25589 35.8614 0.0146484 36.4084C0.0146484 37.4731 0.289433 38.5378 0.839003 39.4997L4.54848 45.9225Z" fill="#0066DA"/>
<path d="M50.54 52.7577C51.4677 52.2082 52.2576 51.4524 52.8069 50.4908L53.906 48.6018L59.1614 39.4997C59.7008 38.5587 59.9849 37.493 59.9855 36.4084C55.7197 35.8614 52.5771 35.588 50.5573 35.588C48.3867 35.588 45.2439 35.8614 41.1289 36.4084C42.6523 40.3242 43.9346 43.1866 44.9759 44.9951C46.0261 46.8198 47.8807 49.4071 50.54 52.7577Z" fill="#EA4335"/>
<path d="M30.0002 17.1737C33.0737 13.4619 35.1919 10.5995 36.3545 8.58697C37.2908 6.96637 38.3213 4.37875 39.4458 0.824355C38.5183 0.274785 37.4536 0 36.3545 0H23.646C22.5468 0 21.4824 0.309221 20.5547 0.824355C21.9851 4.90092 23.199 7.8022 24.196 9.52798C25.298 11.4353 27.2327 13.9838 30.0002 17.1737Z" fill="#00832D"/>
<path d="M41.0945 36.4084H18.906L9.46071 52.7578C10.3879 53.3074 11.4526 53.5821 12.5517 53.5821H47.4487C48.5479 53.5821 49.6128 53.2729 50.54 52.7576L41.0947 36.4084H41.0945Z" fill="#2684FC"/>
<path d="M29.9999 17.1737L20.5546 0.824585C19.627 1.37415 18.8371 2.12964 18.2875 3.0915L0.839003 33.3171C0.299536 34.2581 0.0153612 35.3237 0.0146484 36.4084H18.9057L30.0002 17.1737H29.9999Z" fill="#00AC47"/>
<path d="M50.4367 18.2042L41.7122 3.09126C41.1629 2.12939 40.3727 1.37391 39.4453 0.824341L30 17.1737L41.094 36.4084H59.9508C59.9508 35.3435 59.6761 34.279 59.1265 33.3171L50.4367 18.2042Z" fill="#FFBA00"/>
</g>
<defs>
<clipPath id="clip0_1982_15853">
<rect width="60" height="53.6451" fill="white"/>
</clipPath>
</defs>
</svg>
