<svg width="96" height="101" viewBox="0 0 96 101" fill="none" xmlns="http://www.w3.org/2000/svg">
<path d="M50.3438 23.3937C56.8038 23.3937 62.0407 18.1568 62.0407 11.6968C62.0407 5.23685 56.8038 0 50.3438 0C43.8838 0 38.647 5.23685 38.647 11.6968C38.647 18.1568 43.8838 23.3937 50.3438 23.3937Z" fill="#3E8DE3"/>
<path d="M50.3435 100.004C54.2191 100.004 57.3609 96.8619 57.3609 92.9863C57.3609 89.1108 54.2191 85.969 50.3435 85.969C46.4679 85.969 43.3262 89.1108 43.3262 92.9863C43.3262 96.8619 46.4679 100.004 50.3435 100.004Z" fill="#3E8DE3"/>
<path d="M21.6026 34.1266C27.417 34.1266 32.1305 29.4131 32.1305 23.5987C32.1305 17.7843 27.417 13.0708 21.6026 13.0708C15.7882 13.0708 11.0747 17.7843 11.0747 23.5987C11.0747 29.4131 15.7882 34.1266 21.6026 34.1266Z" fill="#3E8DE3"/>
<path d="M79.0847 86.9256C82.3147 86.9256 84.9332 84.3072 84.9332 81.0772C84.9332 77.8472 82.3147 75.2288 79.0847 75.2288C75.8548 75.2288 73.2363 77.8472 73.2363 81.0772C73.2363 84.3072 75.8548 86.9256 79.0847 86.9256Z" fill="#3E8DE3"/>
<path d="M9.69699 61.6987C14.8637 61.6987 19.0522 57.5102 19.0522 52.3435C19.0522 47.1767 14.8637 42.9883 9.69699 42.9883C4.53026 42.9883 0.341797 47.1767 0.341797 52.3435C0.341797 57.5102 4.53026 61.6987 9.69699 61.6987Z" fill="#3E8DE3"/>
<path d="M90.9862 57.0155C93.5686 57.0155 95.6619 54.9221 95.6619 52.3398C95.6619 49.7574 93.5686 47.6641 90.9862 47.6641C88.4039 47.6641 86.3105 49.7574 86.3105 52.3398C86.3105 54.9221 88.4039 57.0155 90.9862 57.0155Z" fill="#3E8DE3"/>
<path d="M15.815 75.2971C12.6157 78.4964 12.6157 83.6731 15.815 86.8725C19.0106 90.0718 24.1949 90.0718 27.3904 86.8725C30.5898 83.6731 30.5898 78.4964 27.3904 75.2971C24.1949 72.0939 19.0144 72.0635 15.815 75.2971Z" fill="#3E8DE3"/>
<path d="M79.081 27.1053C81.0177 27.1053 82.5878 25.5353 82.5878 23.5986C82.5878 21.6618 81.0177 20.0918 79.081 20.0918C77.1443 20.0918 75.5742 21.6618 75.5742 23.5986C75.5742 25.5353 77.1443 27.1053 79.081 27.1053Z" fill="#3E8DE3"/>
</svg>
