<svg width="610" height="555" viewBox="0 0 610 555" fill="none" xmlns="http://www.w3.org/2000/svg">
<path d="M605.348 516.379H555.558V516.755H605.348V516.379Z" fill="#EBEBEB"/>
<path d="M426.933 520.468H413.869V520.844H426.933V520.468Z" fill="#EBEBEB"/>
<path d="M554.054 502.428H525.206V502.804H554.054V502.428Z" fill="#EBEBEB"/>
<path d="M72.7936 504.953H7.86475V505.329H72.7936V504.953Z" fill="#EBEBEB"/>
<path d="M95.7043 504.953H86.1882V505.329H95.7043V504.953Z" fill="#EBEBEB"/>
<path d="M267.475 511.297H126.643V511.673H267.475V511.297Z" fill="#EBEBEB"/>
<path d="M287.394 425.142H-2.89914C-5.17576 425.142 -7.35914 424.237 -8.96895 422.628C-10.5788 421.018 -11.4832 418.834 -11.4832 416.558V8.50885C-11.4633 6.24528 -10.5502 4.08116 -8.94253 2.48757C-7.33486 0.893974 -5.1628 -8.67811e-05 -2.89914 6.31782e-09H287.394C288.521 6.31783e-09 289.637 0.22203 290.679 0.653417C291.72 1.0848 292.667 1.7171 293.464 2.5142C294.261 3.3113 294.893 4.2576 295.324 5.29906C295.756 6.34052 295.978 7.45674 295.978 8.58401V416.558C295.978 417.685 295.756 418.801 295.324 419.843C294.893 420.884 294.261 421.83 293.464 422.628C292.667 423.425 291.72 424.057 290.679 424.488C289.637 424.92 288.521 425.142 287.394 425.142ZM-2.89914 0.300667C-5.07487 0.304641 -7.16034 1.1707 -8.69881 2.70918C-10.2373 4.24765 -11.1033 6.33312 -11.1073 8.50885V416.558C-11.1033 418.733 -10.2373 420.819 -8.69881 422.357C-7.16034 423.896 -5.07487 424.762 -2.89914 424.766H287.394C289.57 424.762 291.655 423.896 293.194 422.357C294.732 420.819 295.598 418.733 295.602 416.558V8.50885C295.598 6.33312 294.732 4.24765 293.194 2.70918C291.655 1.1707 289.57 0.304641 287.394 0.300667H-2.89914Z" fill="#EBEBEB"/>
<path d="M612.564 425.142H322.271C319.994 425.142 317.811 424.237 316.201 422.628C314.591 421.018 313.687 418.834 313.687 416.558V8.50885C313.707 6.24528 314.62 4.08116 316.228 2.48757C317.835 0.893974 320.007 -8.67811e-05 322.271 6.31782e-09H612.564C614.841 6.31784e-09 617.024 0.904385 618.634 2.5142C620.244 4.12402 621.148 6.30739 621.148 8.58401V416.558C621.148 418.834 620.244 421.018 618.634 422.628C617.024 424.237 614.841 425.142 612.564 425.142ZM322.271 0.300667C320.095 0.304641 318.01 1.1707 316.471 2.70918C314.933 4.24765 314.067 6.33312 314.063 8.50885V416.558C314.067 418.733 314.933 420.819 316.471 422.357C318.01 423.896 320.095 424.762 322.271 424.766H612.564C614.74 424.762 616.825 423.896 618.364 422.357C619.902 420.819 620.768 418.733 620.772 416.558V8.50885C620.768 6.33312 619.902 4.24765 618.364 2.70918C616.825 1.1707 614.74 0.304641 612.564 0.300667H322.271Z" fill="#EBEBEB"/>
<path d="M680.665 492.19H-71V492.566H680.665V492.19Z" fill="#EBEBEB"/>
<path d="M536.962 54.616H496.537C483.718 54.616 473.326 65.0081 473.326 77.8274V118.252C473.326 131.071 483.718 141.463 496.537 141.463H536.962C549.781 141.463 560.173 131.071 560.173 118.252V77.8274C560.173 65.0081 549.781 54.616 536.962 54.616Z" fill="#F0F0F0"/>
<path d="M527.551 85.7649C527.551 93.1613 523.793 99.1445 516.396 99.1445C509 99.1445 505.241 93.1312 505.241 85.7649C505.241 78.3986 509 72.3702 516.396 72.3702C523.793 72.3702 527.551 78.3685 527.551 85.7649Z" fill="#FAFAFA"/>
<path d="M516.396 123.694H537.037V111.427C537.037 104.647 527.791 99.1447 516.396 99.1447C505.001 99.1447 495.755 104.647 495.755 111.427V123.694H516.396Z" fill="#FAFAFA"/>
<path d="M156.739 83.7355H128.507C119.557 83.7355 112.301 90.9911 112.301 99.9414V128.174C112.301 137.124 119.557 144.38 128.507 144.38H156.739C165.69 144.38 172.945 137.124 172.945 128.174V99.9414C172.945 90.9911 165.69 83.7355 156.739 83.7355Z" fill="#E6E6E6"/>
<path d="M141.391 117.335C142.301 116.07 143.356 114.915 144.533 113.892C145.336 113.182 146.08 112.408 146.757 111.577C147.221 110.963 147.47 110.212 147.464 109.442C147.481 108.917 147.365 108.395 147.129 107.925C146.893 107.455 146.543 107.052 146.111 106.751C145.047 106.054 143.789 105.712 142.518 105.774C141.186 105.743 139.867 106.048 138.685 106.661C137.563 107.265 136.596 108.119 135.858 109.157L130.311 105.91C131.602 103.961 133.4 102.401 135.513 101.4C137.949 100.269 140.615 99.7188 143.3 99.7911C146.284 99.6502 149.24 100.432 151.764 102.031C152.775 102.713 153.598 103.64 154.156 104.725C154.713 105.811 154.986 107.02 154.951 108.24C154.975 109.374 154.76 110.501 154.319 111.547C153.954 112.426 153.446 113.239 152.816 113.952C152.215 114.614 151.448 115.366 150.501 116.222C149.594 116.993 148.764 117.849 148.02 118.778C147.486 119.498 147.211 120.378 147.239 121.274H140.308C140.253 119.88 140.631 118.504 141.391 117.335ZM140.654 131.571C140.241 131.19 139.915 130.724 139.697 130.205C139.479 129.686 139.375 129.127 139.391 128.565C139.379 128.02 139.484 127.479 139.7 126.978C139.915 126.478 140.235 126.029 140.639 125.663C141.52 124.907 142.642 124.491 143.803 124.491C144.965 124.491 146.087 124.907 146.968 125.663C147.369 126.031 147.686 126.48 147.899 126.98C148.112 127.481 148.215 128.021 148.201 128.565C148.217 129.127 148.113 129.686 147.895 130.205C147.677 130.724 147.351 131.19 146.938 131.571C146.079 132.355 144.959 132.79 143.796 132.79C142.633 132.79 141.513 132.355 140.654 131.571Z" fill="#FAFAFA"/>
<path d="M532.798 291.33H554.641C557.97 291.33 561.163 292.653 563.517 295.007C565.871 297.361 567.194 300.554 567.194 303.883V325.727C567.194 329.052 565.873 332.241 563.522 334.592C561.17 336.943 557.981 338.264 554.656 338.264H532.798C529.472 338.264 526.283 336.943 523.932 334.592C521.581 332.241 520.26 329.052 520.26 325.727V303.883C520.26 300.558 521.581 297.369 523.932 295.018C526.283 292.666 529.472 291.345 532.798 291.345V291.33Z" fill="#EBEBEB"/>
<path d="M542.75 317.338C543.456 316.36 544.273 315.467 545.185 314.677C545.811 314.125 546.389 313.522 546.914 312.873C547.272 312.403 547.463 311.826 547.455 311.234C547.471 310.828 547.382 310.424 547.198 310.061C547.014 309.697 546.74 309.387 546.403 309.16C545.582 308.612 544.607 308.343 543.622 308.393C542.614 308.363 541.615 308.587 540.717 309.044C539.818 309.501 539.049 310.177 538.48 311.009L534.181 308.498C535.174 306.977 536.568 305.76 538.21 304.981C540.092 304.109 542.149 303.682 544.223 303.733C546.536 303.621 548.826 304.23 550.777 305.477C551.564 306.006 552.202 306.727 552.634 307.571C553.065 308.415 553.275 309.355 553.243 310.302C553.26 311.178 553.097 312.048 552.762 312.858C552.479 313.541 552.082 314.171 551.589 314.722C551.026 315.341 550.429 315.929 549.8 316.481C549.104 317.081 548.46 317.74 547.876 318.45C547.472 319.015 547.262 319.695 547.275 320.39H541.923C541.876 319.311 542.165 318.245 542.75 317.338ZM542.178 328.357C541.865 328.067 541.617 327.713 541.451 327.319C541.285 326.925 541.205 326.5 541.216 326.072C541.207 325.651 541.287 325.233 541.45 324.844C541.613 324.456 541.856 324.106 542.163 323.817C542.847 323.234 543.715 322.913 544.614 322.913C545.512 322.913 546.381 323.234 547.064 323.817C547.374 324.104 547.62 324.454 547.786 324.842C547.951 325.231 548.033 325.65 548.026 326.072C548.036 326.501 547.953 326.926 547.785 327.321C547.616 327.715 547.366 328.068 547.049 328.357C546.728 328.671 546.346 328.916 545.928 329.079C545.51 329.242 545.063 329.319 544.614 329.304C544.165 329.315 543.719 329.237 543.301 329.074C542.883 328.912 542.502 328.668 542.178 328.357Z" fill="#FAFAFA"/>
<path d="M105.055 174.687H76.8224C67.8721 174.687 60.6165 181.943 60.6165 190.893V219.125C60.6165 228.076 67.8721 235.331 76.8224 235.331H105.055C114.005 235.331 121.261 228.076 121.261 219.125V190.893C121.261 181.943 114.005 174.687 105.055 174.687Z" fill="#EBEBEB"/>
<path d="M90.9387 187.916C89.1369 187.916 87.3528 188.271 85.6884 188.961C84.024 189.651 82.512 190.663 81.2386 191.937C79.9653 193.212 78.9557 194.725 78.2676 196.39C77.5795 198.055 77.2263 199.84 77.2283 201.642C77.2283 209.158 83.3619 227.379 90.9387 227.379C98.5154 227.379 104.649 209.203 104.649 201.642C104.651 199.84 104.298 198.055 103.61 196.39C102.922 194.725 101.912 193.212 100.639 191.937C99.3653 190.663 97.8533 189.651 96.1889 188.961C94.5245 188.271 92.7404 187.916 90.9387 187.916ZM90.9387 205.776C90.121 205.776 89.3217 205.533 88.6418 205.079C87.962 204.625 87.4321 203.979 87.1192 203.224C86.8063 202.468 86.7244 201.637 86.8839 200.835C87.0435 200.033 87.4372 199.297 88.0154 198.718C88.5935 198.14 89.3302 197.746 90.1321 197.587C90.9341 197.427 91.7653 197.509 92.5207 197.822C93.2761 198.135 93.9218 198.665 94.3761 199.345C94.8303 200.025 95.0728 200.824 95.0728 201.642C95.057 202.728 94.6145 203.764 93.8409 204.526C93.0673 205.289 92.0248 205.716 90.9387 205.716V205.776Z" fill="#FAFAFA"/>
<path d="M96.997 287.797C97.4381 285.014 97.4381 282.178 96.997 279.394L92.7727 278.838C92.4319 277.285 91.9279 275.774 91.2693 274.328L94.3662 271.396C93.0786 268.889 91.4101 266.597 89.4202 264.601L85.6619 266.646C84.5001 265.593 83.2302 264.665 81.8735 263.879L82.6552 259.685C80.1584 258.4 77.4745 257.518 74.7026 257.069L72.8836 260.903C72.1169 260.828 71.3803 260.783 70.5384 260.783C69.6965 260.783 68.9449 260.783 68.1782 260.903L66.3591 257.069C63.5726 257.508 60.8732 258.386 58.3614 259.67L59.1432 263.864C57.7864 264.65 56.5166 265.578 55.3548 266.631L51.5964 264.586C49.6066 266.582 47.9381 268.874 46.6505 271.381L49.7473 274.313C49.0887 275.759 48.5848 277.27 48.244 278.823L44.0347 279.379C43.5737 282.161 43.5737 285 44.0347 287.782L48.244 288.339C48.5848 289.891 49.0887 291.402 49.7473 292.849L46.6505 295.78C47.9352 298.289 49.604 300.582 51.5964 302.575L55.3548 300.531C56.5166 301.584 57.7864 302.511 59.1432 303.297L58.3614 307.491C60.8732 308.775 63.5726 309.653 66.3591 310.092L68.1782 306.258C68.9449 306.333 69.6815 306.379 70.5384 306.379C71.3953 306.379 72.0417 306.379 72.8836 306.258L74.7026 310.092C77.4892 309.653 80.1886 308.775 82.7003 307.491L81.9186 303.297C83.2753 302.511 84.5452 301.584 85.707 300.531L89.4653 302.575C91.4552 300.579 93.1237 298.287 94.4113 295.78L91.3595 292.819C92.0163 291.372 92.5201 289.86 92.8628 288.309L96.997 287.797ZM70.5384 292.954C68.6848 292.957 66.8719 292.41 65.3294 291.382C63.7869 290.354 62.5842 288.891 61.8734 287.179C61.1627 285.467 60.976 283.583 61.3369 281.765C61.6978 279.946 62.5901 278.276 63.9008 276.965C65.2115 275.655 66.8817 274.762 68.6999 274.402C70.5181 274.041 72.4024 274.227 74.1144 274.938C75.8264 275.649 77.289 276.852 78.317 278.394C79.3449 279.937 79.8921 281.749 79.8891 283.603C79.8851 286.082 78.8987 288.458 77.146 290.211C75.3932 291.963 73.0171 292.95 70.5384 292.954Z" fill="#EBEBEB"/>
<path d="M110.557 318.044C110.665 317.348 110.72 316.645 110.723 315.94C110.722 315.235 110.666 314.531 110.557 313.835L108.438 313.565C108.277 312.794 108.035 312.044 107.716 311.325L109.219 309.821C108.576 308.561 107.739 307.41 106.739 306.409L104.86 307.431C104.276 306.908 103.641 306.445 102.965 306.048L103.356 303.958C102.101 303.313 100.751 302.871 99.3574 302.65L98.4554 304.575C98.0646 304.575 97.6737 304.575 97.2828 304.575C96.892 304.575 96.4861 304.575 96.0952 304.575L95.1932 302.65C93.7993 302.871 92.4494 303.313 91.1944 303.958L91.5852 306.048C90.9094 306.445 90.2749 306.908 89.691 307.431L87.8119 306.409C86.8117 307.41 85.9747 308.561 85.3314 309.821L86.8347 311.325C86.5157 312.044 86.2739 312.794 86.1131 313.565L84.0084 313.835C83.8917 314.531 83.8364 315.235 83.8431 315.94C83.8378 316.645 83.8931 317.349 84.0084 318.044L86.1131 318.315C86.2739 319.08 86.5158 319.826 86.8347 320.54L85.3314 322.043C85.976 323.298 86.813 324.445 87.8119 325.441L89.691 324.419C90.2672 324.951 90.9028 325.415 91.5852 325.802L91.1944 327.891C92.4494 328.537 93.7993 328.978 95.1932 329.199L96.0952 327.275C96.8799 327.355 97.6707 327.355 98.4554 327.275L99.3574 329.199C100.751 328.978 102.101 328.537 103.356 327.891L102.965 325.802C103.648 325.415 104.283 324.951 104.86 324.419L106.739 325.441C107.738 324.445 108.575 323.298 109.219 322.043L107.716 320.54C108.035 319.826 108.277 319.08 108.438 318.315L110.557 318.044ZM97.3279 320.615C96.4032 320.615 95.4993 320.341 94.7305 319.827C93.9616 319.314 93.3623 318.583 93.0085 317.729C92.6546 316.875 92.562 315.935 92.7424 315.028C92.9228 314.121 93.3681 313.288 94.022 312.634C94.6758 311.98 95.5089 311.535 96.4158 311.354C97.3227 311.174 98.2628 311.266 99.1171 311.62C99.9714 311.974 100.702 312.573 101.215 313.342C101.729 314.111 102.003 315.015 102.003 315.94C101.999 317.171 101.512 318.351 100.646 319.226C99.7793 320.1 98.604 320.599 97.373 320.615H97.3279Z" fill="#E0E0E0"/>
<path d="M575.041 287.707C575.608 287.289 576.146 286.832 576.65 286.339C577.147 285.839 577.604 285.301 578.018 284.731L576.725 283.047C577.152 282.392 577.505 281.691 577.777 280.957H579.912C580.349 279.618 580.573 278.217 580.573 276.808L578.514 276.207C578.483 275.424 578.362 274.647 578.153 273.892L579.912 272.689C579.486 271.344 578.841 270.079 578.003 268.946L576.003 269.652C575.759 269.348 575.498 269.057 575.221 268.78C574.936 268.495 574.65 268.239 574.349 267.983L575.056 265.984C573.913 265.16 572.651 264.516 571.313 264.075L570.11 265.834C569.347 265.639 568.566 265.518 567.78 265.473L567.179 263.428C565.769 263.424 564.368 263.647 563.029 264.09V266.21C562.298 266.493 561.598 266.85 560.94 267.277L559.241 265.984C558.09 266.825 557.076 267.84 556.234 268.991L557.527 270.674C557.103 271.339 556.746 272.044 556.46 272.779H554.34C553.905 274.119 553.682 275.519 553.679 276.928L555.723 277.53C555.768 278.311 555.889 279.087 556.084 279.845L554.325 281.062C554.766 282.401 555.41 283.663 556.234 284.806L558.234 284.084C558.489 284.385 558.745 284.685 559.031 284.971C559.316 285.257 559.602 285.512 559.903 285.753L559.196 287.752C560.33 288.591 561.595 289.236 562.939 289.662L564.142 287.903C564.897 288.112 565.674 288.233 566.457 288.263L567.058 290.323C568.472 290.321 569.878 290.098 571.223 289.662V287.527C571.954 287.249 572.654 286.896 573.312 286.474L575.041 287.707ZM563.871 280.191C563.218 279.537 562.773 278.703 562.593 277.797C562.413 276.89 562.506 275.95 562.859 275.096C563.213 274.242 563.813 273.512 564.582 272.998C565.35 272.485 566.254 272.211 567.179 272.211C568.103 272.211 569.007 272.485 569.776 272.998C570.544 273.512 571.144 274.242 571.498 275.096C571.852 275.95 571.945 276.89 571.764 277.797C571.584 278.703 571.139 279.537 570.486 280.191C570.052 280.626 569.536 280.971 568.968 281.206C568.399 281.441 567.79 281.561 567.175 281.56C566.561 281.559 565.952 281.436 565.385 281.198C564.818 280.96 564.303 280.613 563.871 280.176V280.191Z" fill="#F0F0F0"/>
<path d="M304.832 554.293C465.813 554.293 596.313 546.674 596.313 537.275C596.313 527.877 465.813 520.258 304.832 520.258C143.852 520.258 13.3518 527.877 13.3518 537.275C13.3518 546.674 143.852 554.293 304.832 554.293Z" fill="#F5F5F5"/>
<path d="M358.291 88.3356V64.9138L369.807 63.2902V86.712L358.291 88.3356Z" fill="#263238"/>
<path d="M320.001 101.385L311.372 87.6442L318.723 82.3826L327.337 96.108L320.001 101.385Z" fill="#263238"/>
<path d="M400.745 85.78L409.374 69.6343L416.711 72.8364L408.096 88.9972L400.745 85.78Z" fill="#263238"/>
<g opacity="0.5">
<path d="M358.291 88.3356V64.9138L369.807 63.2902V86.712L358.291 88.3356Z" fill="white"/>
<path d="M320.001 101.385L311.372 87.6441L318.723 82.3824L327.337 96.1078L320.001 101.385Z" fill="white"/>
<path d="M400.745 85.7799L409.374 69.6342L416.711 72.8362L408.096 88.997L400.745 85.7799Z" fill="white"/>
</g>
<path d="M371.445 67.0635L356.652 69.1532C356.115 69.2524 355.563 69.2299 355.036 69.0874C354.509 68.9449 354.02 68.6859 353.606 68.3297C353.192 67.9734 352.863 67.5289 352.644 67.0288C352.424 66.5287 352.32 65.9858 352.338 65.4399C352.372 64.2463 352.822 63.102 353.609 62.2045C354.397 61.307 355.473 60.7127 356.652 60.5241L371.445 58.4495C371.981 58.3506 372.532 58.3728 373.058 58.5145C373.584 58.6561 374.072 58.9137 374.486 59.2683C374.899 59.6228 375.228 60.0654 375.449 60.5636C375.669 61.0618 375.776 61.6031 375.76 62.1477C375.723 63.3404 375.272 64.4833 374.485 65.3802C373.698 66.2771 372.623 66.8722 371.445 67.0635Z" fill="#263238"/>
<path d="M321.114 82.0067L310.154 89.8842C309.927 90.0747 309.662 90.2163 309.377 90.3001C309.092 90.384 308.793 90.4084 308.499 90.3717C308.204 90.335 307.92 90.2381 307.664 90.087C307.409 89.9359 307.187 89.7338 307.013 89.4933C306.723 88.9419 306.649 88.3028 306.805 87.7C306.961 87.0972 307.335 86.5737 307.854 86.2311L318.829 78.3686C319.054 78.1763 319.317 78.0331 319.602 77.9481C319.886 77.8631 320.184 77.8382 320.478 77.875C320.772 77.9118 321.056 78.0094 321.31 78.1617C321.564 78.314 321.784 78.5176 321.956 78.7595C322.244 79.3086 322.317 79.9453 322.162 80.5457C322.006 81.146 321.632 81.6668 321.114 82.0067Z" fill="#263238"/>
<path d="M417.943 74.7306L406.969 69.95C406.707 69.8171 406.476 69.6313 406.29 69.4043C406.104 69.1774 405.967 68.9142 405.888 68.6316C405.808 68.3489 405.789 68.0529 405.83 67.7623C405.871 67.4717 405.972 67.1928 406.127 66.9433C406.401 66.3807 406.874 65.9391 407.454 65.7033C408.033 65.4675 408.68 65.454 409.269 65.6655L420.228 70.4611C420.493 70.5905 420.728 70.7745 420.917 71.001C421.106 71.2276 421.244 71.4915 421.324 71.7755C421.403 72.0595 421.422 72.3572 421.378 72.6488C421.335 72.9405 421.23 73.2196 421.07 73.4678C420.796 74.0265 420.325 74.4645 419.748 74.6975C419.171 74.9306 418.528 74.9423 417.943 74.7306Z" fill="#263238"/>
<path opacity="0.7" d="M371.445 67.0635L356.652 69.1532C356.115 69.2524 355.563 69.2299 355.036 69.0874C354.509 68.9449 354.02 68.6859 353.606 68.3297C353.192 67.9734 352.863 67.5289 352.644 67.0288C352.424 66.5287 352.32 65.9858 352.338 65.4399C352.372 64.2463 352.822 63.102 353.609 62.2045C354.397 61.307 355.473 60.7127 356.652 60.5241L371.445 58.4495C371.981 58.3506 372.532 58.3728 373.058 58.5145C373.584 58.6561 374.072 58.9137 374.486 59.2683C374.899 59.6228 375.228 60.0654 375.449 60.5636C375.669 61.0618 375.776 61.6031 375.76 62.1477C375.723 63.3404 375.272 64.4833 374.485 65.3802C373.698 66.2771 372.623 66.8722 371.445 67.0635Z" fill="white"/>
<path opacity="0.7" d="M321.114 82.0067L310.154 89.8842C309.927 90.0747 309.662 90.2163 309.377 90.3001C309.092 90.384 308.793 90.4084 308.499 90.3717C308.204 90.335 307.92 90.2381 307.664 90.087C307.409 89.9359 307.187 89.7338 307.013 89.4933C306.723 88.9419 306.649 88.3028 306.805 87.7C306.961 87.0972 307.335 86.5737 307.854 86.2311L318.829 78.3686C319.054 78.1763 319.317 78.0331 319.602 77.9481C319.886 77.8631 320.184 77.8382 320.478 77.875C320.772 77.9118 321.056 78.0094 321.31 78.1617C321.564 78.314 321.784 78.5176 321.956 78.7595C322.244 79.3086 322.317 79.9453 322.162 80.5457C322.006 81.146 321.632 81.6668 321.114 82.0067Z" fill="white"/>
<path opacity="0.7" d="M417.943 74.7306L406.969 69.95C406.707 69.8171 406.476 69.6313 406.29 69.4043C406.104 69.1774 405.967 68.9142 405.888 68.6316C405.808 68.3489 405.789 68.0529 405.83 67.7623C405.871 67.4717 405.972 67.1928 406.127 66.9433C406.401 66.3807 406.874 65.9391 407.454 65.7033C408.033 65.4675 408.68 65.454 409.269 65.6655L420.228 70.4611C420.493 70.5905 420.728 70.7745 420.917 71.001C421.106 71.2276 421.244 71.4915 421.324 71.7755C421.403 72.0595 421.422 72.3572 421.378 72.6488C421.335 72.9405 421.23 73.2196 421.07 73.4678C420.796 74.0265 420.325 74.4645 419.748 74.6975C419.171 74.9306 418.528 74.9423 417.943 74.7306Z" fill="white"/>
<path d="M364.049 234.97C324.015 240.593 291.558 212.706 291.558 172.672C291.558 132.639 324.015 95.6117 364.049 89.9893C404.082 84.3668 436.539 112.254 436.539 152.287L446.431 150.904C446.431 105.398 409.54 73.7082 364.049 80.0974C318.558 86.4865 281.666 128.565 281.666 174.056C281.666 219.546 318.543 251.252 364.049 244.862V234.97Z" fill="#2211BB"/>
<path d="M335.246 213.828L329.836 223.96L331.958 225.093L337.367 214.961L335.246 213.828Z" fill="#263238"/>
<path d="M396.111 99.8538L390.701 109.985L392.823 111.118L398.233 100.987L396.111 99.8538Z" fill="#263238"/>
<path d="M307.112 136.28L306.15 138.484L315.518 142.575L316.481 140.371L307.112 136.28Z" fill="#263238"/>
<path d="M332.86 110.555L330.815 111.829L336.209 120.48L338.254 119.205L332.86 110.555Z" fill="#263238"/>
<path d="M315.325 196.012L305.944 202.742L307.346 204.697L316.727 197.966L315.325 196.012Z" fill="#263238"/>
<path d="M420.746 120.306L411.365 127.036L412.767 128.991L422.148 122.26L420.746 120.306Z" fill="#263238"/>
<path d="M311.869 167.385L297.444 169.412L298.113 174.176L312.539 172.149L311.869 167.385Z" fill="#263238"/>
<path d="M366.454 96.2131H361.644V110.645H366.454V96.2131Z" fill="#263238"/>
<path d="M366.454 214.315H361.644V228.747H366.454V214.315Z" fill="#263238"/>
<path d="M345.423 146.845C344.863 147.409 344.548 148.171 344.548 148.965C344.548 149.759 344.863 150.521 345.423 151.085L361.568 164.945L365.793 160.12L349.662 146.244C349.345 146.002 348.984 145.826 348.598 145.726C348.213 145.625 347.811 145.602 347.417 145.658C347.022 145.714 346.643 145.848 346.3 146.052C345.958 146.255 345.66 146.525 345.423 146.845Z" fill="#2211BB"/>
<path opacity="0.4" d="M345.423 146.845C344.863 147.409 344.548 148.171 344.548 148.965C344.548 149.759 344.863 150.521 345.423 151.085L361.568 164.945L365.793 160.12L349.662 146.244C349.345 146.002 348.984 145.826 348.598 145.726C348.213 145.625 347.811 145.602 347.417 145.658C347.022 145.714 346.643 145.848 346.3 146.052C345.958 146.255 345.66 146.525 345.423 146.845Z" fill="white"/>
<path d="M453.482 148.709L441.44 164.84L429.414 152.092L453.482 148.709Z" fill="#2211BB"/>
<path d="M391.515 130.7C391.198 130.458 390.836 130.282 390.451 130.181C390.065 130.08 389.664 130.057 389.269 130.113C388.875 130.169 388.495 130.303 388.153 130.507C387.811 130.711 387.512 130.981 387.275 131.301L365.417 156.226C364.246 156.078 363.057 156.225 361.957 156.653C360.857 157.081 359.881 157.776 359.118 158.676C356.652 161.503 356.652 165.517 359.118 167.696C361.583 169.876 365.612 169.2 368.138 166.434C368.917 165.566 369.463 164.516 369.726 163.38C369.989 162.244 369.96 161.061 369.641 159.939L391.5 134.999C391.787 134.72 392.016 134.386 392.172 134.018C392.329 133.649 392.41 133.253 392.412 132.852C392.413 132.452 392.335 132.055 392.181 131.685C392.026 131.316 391.8 130.981 391.515 130.7Z" fill="#2211BB"/>
<path d="M395.468 221.38L414.26 218.735L412.591 227.409L378.721 232.174L380.074 225.274L400.459 206.437C402.376 204.704 404.1 202.768 405.601 200.665C406.534 199.342 407.057 197.773 407.104 196.155C407.144 195.499 407.009 194.845 406.713 194.259C406.417 193.672 405.971 193.175 405.42 192.817C403.921 192.025 402.188 191.796 400.535 192.171C398.686 192.434 396.916 193.095 395.348 194.11C393.657 195.177 392.183 196.555 391.003 198.169L384.043 194.095C385.989 191.216 388.558 188.812 391.56 187.059C394.78 185.132 398.362 183.883 402.083 183.391C404.815 182.934 407.613 183.062 410.291 183.767C412.444 184.325 414.365 185.552 415.778 187.27C417.098 188.963 417.789 191.062 417.733 193.208C417.706 196.071 416.911 198.874 415.433 201.326C413.226 204.75 410.537 207.839 407.45 210.496L395.468 221.38Z" fill="#263238"/>
<path d="M459.044 211.489L451.708 212.526L449.844 222.177L439.756 223.59L441.636 213.924L417.582 217.322L418.92 210.166L445.244 178.085L456.564 176.506L432.014 206.858L443.785 205.205L445.439 196.591L455.09 195.238L453.422 203.837L460.773 202.814L459.044 211.489Z" fill="#263238"/>
<path d="M488.569 162.931L497.905 161.608L465.057 226.432L455.797 227.724L488.569 162.931Z" fill="#263238"/>
<path d="M531.189 166.013L529.851 172.913L505.948 214.285L494.448 215.908L517.388 176.386L502.881 178.43L501.378 185.947L492.177 187.24L495.304 171.079L531.189 166.013Z" fill="#263238"/>
<path d="M383.862 276.613C382.437 276.455 381.058 276.015 379.803 275.32L381.998 270.81C383.111 271.46 384.334 271.898 385.606 272.103C386.966 272.321 388.351 272.321 389.71 272.103C390.969 271.976 392.179 271.554 393.243 270.87C393.624 270.644 393.942 270.326 394.168 269.945C394.394 269.564 394.52 269.133 394.536 268.69C394.552 268.361 394.459 268.035 394.272 267.763C394.084 267.491 393.813 267.289 393.499 267.187C392.431 266.828 391.327 266.586 390.207 266.465C388.96 266.282 387.725 266.026 386.508 265.699C385.56 265.422 384.7 264.904 384.013 264.195C383.269 263.33 382.896 262.207 382.976 261.068C382.969 259.522 383.424 258.009 384.283 256.724C385.239 255.333 386.525 254.202 388.027 253.431C389.776 252.515 391.675 251.919 393.634 251.673C395.127 251.448 396.642 251.413 398.144 251.567C399.396 251.67 400.619 252.001 401.752 252.544L399.723 256.964C398.812 256.471 397.818 256.15 396.791 256.017C395.659 255.867 394.511 255.867 393.379 256.017C392.08 256.152 390.835 256.607 389.756 257.34C389.364 257.573 389.036 257.899 388.802 258.29C388.569 258.681 388.436 259.125 388.418 259.58C388.405 259.812 388.451 260.044 388.551 260.254C388.651 260.464 388.801 260.646 388.989 260.783C389.41 261.104 389.898 261.325 390.417 261.429C390.988 261.549 391.8 261.685 392.852 261.835C394.091 261.973 395.317 262.204 396.52 262.527C397.453 262.808 398.297 263.326 398.971 264.03C399.331 264.438 399.606 264.915 399.779 265.431C399.952 265.948 400.02 266.494 399.978 267.037C399.993 268.596 399.532 270.122 398.655 271.411C397.681 272.796 396.386 273.926 394.882 274.704C393.108 275.678 391.173 276.325 389.169 276.613C387.41 276.869 385.622 276.869 383.862 276.613Z" fill="#263238"/>
<path d="M411.479 254.063L410.471 259.279L421.31 257.776L420.484 262.106L409.615 263.609L408.547 269.171L421.28 267.382L420.378 271.892L402.338 274.433L406.999 250.38L424.648 247.899L423.746 252.409L411.479 254.063Z" fill="#263238"/>
<path d="M446.221 257.746C444.994 259.509 443.296 260.89 441.32 261.73L445.379 268.36L439.681 269.171L436.013 263.158L431.413 263.804L430.105 270.524L424.678 271.291L429.338 247.238L438.854 245.9C441.137 245.393 443.526 245.735 445.574 246.862C446.381 247.407 447.028 248.156 447.451 249.033C447.874 249.909 448.056 250.883 447.98 251.853C448.019 253.952 447.404 256.012 446.221 257.746ZM441.034 256.904C441.53 256.418 441.92 255.834 442.178 255.19C442.437 254.546 442.559 253.855 442.538 253.161C442.582 252.706 442.501 252.248 442.302 251.837C442.103 251.426 441.794 251.078 441.41 250.831C440.407 250.341 439.269 250.203 438.178 250.44L433.908 251.041L432.27 259.385L436.87 258.738C438.418 258.585 439.876 257.942 441.034 256.904Z" fill="#263238"/>
<path d="M476.287 240.683L461.525 266.089L456.218 266.826L450.776 244.276L456.353 243.494L460.112 259.595L470.635 241.465L476.287 240.683Z" fill="#263238"/>
<path d="M478.212 240.413L483.654 239.646L478.993 263.699L473.551 264.466L478.212 240.413Z" fill="#263238"/>
<path d="M490.644 261.143C489.005 260.616 487.587 259.558 486.615 258.137C485.648 256.611 485.161 254.831 485.217 253.025C485.205 250.448 485.83 247.907 487.036 245.629C488.253 243.327 490.012 241.356 492.162 239.886C494.404 238.34 496.98 237.345 499.679 236.985C501.523 236.679 503.411 236.782 505.211 237.286C506.689 237.679 507.978 238.585 508.849 239.841L504.941 243.585C504.289 242.755 503.412 242.131 502.415 241.787C501.418 241.443 500.343 241.394 499.318 241.645C497.684 241.864 496.132 242.496 494.808 243.479C493.529 244.459 492.499 245.726 491.802 247.178C491.08 248.657 490.709 250.282 490.719 251.928C490.663 252.69 490.79 253.454 491.088 254.157C491.386 254.86 491.847 255.482 492.433 255.972C493.132 256.447 493.921 256.772 494.752 256.927C495.582 257.082 496.436 257.064 497.259 256.874C499.708 256.536 501.929 255.258 503.452 253.311L506.655 256.122C505.46 257.643 503.971 258.908 502.276 259.84C500.582 260.773 498.717 261.354 496.793 261.549C494.74 261.907 492.632 261.768 490.644 261.143Z" fill="#263238"/>
<path d="M518.095 239.15L517.088 244.351L527.927 242.848L527.1 247.162L516.231 248.666L515.163 254.213L527.897 252.424L526.995 256.934L508.955 259.475L513.63 235.421L531.234 233.016L530.332 237.526L518.095 239.15Z" fill="#263238"/>
<path d="M224.359 134.503C208.289 134.503 195.27 143.989 195.27 155.685C195.27 164.179 202.17 171.5 212.107 174.867C211.042 179.745 209.21 184.424 206.68 188.728C210.286 188.191 213.723 186.842 216.731 184.782C219.739 182.722 222.24 180.005 224.044 176.837H224.359C240.43 176.837 253.449 167.366 253.449 155.67C253.449 143.974 240.43 134.503 224.359 134.503Z" fill="#2211BB"/>
<path opacity="0.7" d="M224.359 134.503C208.289 134.503 195.27 143.989 195.27 155.685C195.27 164.179 202.17 171.5 212.107 174.867C211.042 179.745 209.21 184.424 206.68 188.728C210.286 188.191 213.723 186.842 216.731 184.782C219.739 182.722 222.24 180.005 224.044 176.837H224.359C240.43 176.837 253.449 167.366 253.449 155.67C253.449 143.974 240.43 134.503 224.359 134.503Z" fill="white"/>
<path d="M211.536 159.759C213.171 159.759 214.497 158.433 214.497 156.797C214.497 155.162 213.171 153.836 211.536 153.836C209.9 153.836 208.574 155.162 208.574 156.797C208.574 158.433 209.9 159.759 211.536 159.759Z" fill="#263238"/>
<path d="M227.125 156.797C227.125 157.392 226.949 157.973 226.619 158.468C226.288 158.962 225.819 159.348 225.269 159.575C224.72 159.803 224.115 159.862 223.532 159.746C222.949 159.63 222.413 159.344 221.993 158.923C221.572 158.503 221.286 157.967 221.17 157.384C221.054 156.801 221.113 156.196 221.341 155.647C221.568 155.097 221.954 154.628 222.448 154.297C222.943 153.967 223.524 153.791 224.119 153.791C224.916 153.791 225.681 154.107 226.245 154.671C226.809 155.235 227.125 156 227.125 156.797Z" fill="#263238"/>
<path d="M236.792 159.759C238.428 159.759 239.753 158.433 239.753 156.797C239.753 155.162 238.428 153.836 236.792 153.836C235.156 153.836 233.83 155.162 233.83 156.797C233.83 158.433 235.156 159.759 236.792 159.759Z" fill="#263238"/>
<path d="M488.239 458.591C488.239 458.591 488.434 438.521 481.128 441.167C473.822 443.813 488.239 458.591 488.239 458.591Z" fill="#2211BB"/>
<path d="M496.086 440.01C496.086 440.01 505.768 423.954 497.018 421.654C488.269 419.354 496.086 440.01 496.086 440.01Z" fill="#2211BB"/>
<path d="M534.346 428.675C534.346 428.675 554.445 427.637 549.905 420.106C545.365 412.574 534.346 428.675 534.346 428.675Z" fill="#2211BB"/>
<path d="M502.551 434.011C502.551 434.011 523.597 429.261 519.658 441.077C515.72 452.893 502.551 434.011 502.551 434.011Z" fill="#2211BB"/>
<path d="M487.262 476.736C487.262 476.736 479.219 458.516 474.709 464.995C470.199 471.474 487.262 476.736 487.262 476.736Z" fill="#2211BB"/>
<path d="M510.202 430.223C510.202 430.223 531.64 424.601 524.965 416.693C518.29 408.785 510.202 430.223 510.202 430.223Z" fill="#2211BB"/>
<path d="M526.408 428.013C526.408 428.013 543.366 436.342 535.549 441.784C527.731 447.226 526.408 428.013 526.408 428.013Z" fill="#2211BB"/>
<path d="M490.358 450.518C490.358 450.518 502.099 436.387 505.722 446.654C509.345 456.922 490.358 450.518 490.358 450.518Z" fill="#2211BB"/>
<g opacity="0.4">
<path d="M487.262 476.736C487.262 476.736 479.219 458.516 474.709 464.995C470.199 471.474 487.262 476.736 487.262 476.736Z" fill="white"/>
<path d="M510.203 430.223C510.203 430.223 531.64 424.601 524.965 416.693C518.291 408.785 510.203 430.223 510.203 430.223Z" fill="white"/>
<path d="M526.408 428.013C526.408 428.013 543.366 436.342 535.549 441.784C527.731 447.226 526.408 428.013 526.408 428.013Z" fill="white"/>
<path d="M490.359 450.518C490.359 450.518 502.1 436.387 505.723 446.654C509.346 456.922 490.359 450.518 490.359 450.518Z" fill="white"/>
</g>
<path d="M487.141 468.859C487.141 468.859 495.56 450.819 502.34 459.914C509.12 469.009 487.141 468.859 487.141 468.859Z" fill="#2211BB"/>
<path d="M487.277 487.831C484.725 476.075 485.092 463.873 488.344 452.292C495.229 429.742 516.351 424.435 537.698 427.848C539.397 428.118 538.645 430.674 536.962 430.403C525.627 428.599 512.908 428.419 503.032 435.274C495.966 440.22 491.967 448.082 490.043 456.321C487.786 466.479 487.73 477.002 489.877 487.184C490.223 488.868 487.637 489.529 487.277 487.846V487.831Z" fill="#2211BB"/>
<g opacity="0.3">
<path d="M487.277 487.831C484.725 476.075 485.092 463.873 488.344 452.292C495.229 429.742 516.351 424.435 537.698 427.848C539.397 428.118 538.645 430.674 536.962 430.403C525.627 428.599 512.908 428.419 503.032 435.274C495.966 440.22 491.967 448.082 490.043 456.321C487.786 466.479 487.73 477.002 489.877 487.184C490.223 488.868 487.637 489.529 487.277 487.846V487.831Z" fill="black"/>
</g>
<path d="M470.545 452.502C470.545 452.502 460.021 427.968 453.196 434.372C446.371 440.776 470.545 452.502 470.545 452.502Z" fill="#2211BB"/>
<path d="M469.643 426.405C469.643 426.405 472.138 402.637 460.953 403.659C449.769 404.681 469.643 426.405 469.643 426.405Z" fill="#2211BB"/>
<path d="M507.211 395.917C507.211 395.917 529.535 385.89 520.365 378.704C511.195 371.518 507.211 395.917 507.211 395.917Z" fill="#2211BB"/>
<path d="M473.822 416.287C473.822 416.287 495.304 401.254 497.063 417.43C498.822 433.606 473.822 416.287 473.822 416.287Z" fill="#2211BB"/>
<path d="M479.113 474.962C479.113 474.962 460.187 456.351 458.488 466.183C456.789 476.014 479.113 474.962 479.113 474.962Z" fill="#2211BB"/>
<path d="M480.512 408.335C480.512 408.335 501.949 392.129 490.133 385.409C478.317 378.689 480.512 408.335 480.512 408.335Z" fill="#2211BB"/>
<path d="M497.815 398.578C497.815 398.578 521.553 401.329 515.524 411.356C509.496 421.383 497.815 398.578 497.815 398.578Z" fill="#2211BB"/>
<path d="M468.696 441.693C468.696 441.693 474.559 419.369 484.15 430.298C493.741 441.227 468.696 441.693 468.696 441.693Z" fill="#2211BB"/>
<g opacity="0.4">
<path d="M479.113 474.962C479.113 474.962 460.187 456.351 458.488 466.183C456.789 476.015 479.113 474.962 479.113 474.962Z" fill="white"/>
<path d="M480.512 408.335C480.512 408.335 501.949 392.129 490.133 385.409C478.317 378.689 480.512 408.335 480.512 408.335Z" fill="white"/>
<path d="M497.815 398.578C497.815 398.578 521.553 401.329 515.524 411.356C509.496 421.383 497.815 398.578 497.815 398.578Z" fill="white"/>
<path d="M468.695 441.693C468.695 441.693 474.558 419.369 484.15 430.298C493.741 441.227 468.695 441.693 468.695 441.693Z" fill="white"/>
</g>
<path d="M474.799 465.431C474.799 465.431 474.799 439.769 487.337 447.902C499.875 456.035 474.799 465.431 474.799 465.431Z" fill="#2211BB"/>
<path d="M485.007 488.462C476.197 475.578 469.402 459.899 467.357 444.745C463.238 414.318 484.435 398.608 510.578 393.436C512.653 393.031 513.149 396.443 511.104 396.894C497.229 399.63 482.541 404.997 475.024 417.625C469.597 426.72 469.207 438.04 471.386 448.894C474.287 462.359 479.792 475.126 487.592 486.478C487.719 486.649 487.81 486.844 487.861 487.051C487.912 487.258 487.922 487.473 487.89 487.684C487.857 487.895 487.784 488.097 487.674 488.28C487.563 488.462 487.418 488.621 487.247 488.748C487.075 488.874 486.88 488.965 486.673 489.016C486.466 489.067 486.251 489.077 486.04 489.045C485.829 489.013 485.627 488.939 485.444 488.829C485.262 488.719 485.103 488.574 484.976 488.402L485.007 488.462Z" fill="#2211BB"/>
<g opacity="0.3">
<path d="M485.007 488.462C476.197 475.578 469.402 459.899 467.357 444.745C463.238 414.318 484.435 398.608 510.578 393.436C512.653 393.031 513.149 396.443 511.104 396.894C497.229 399.63 482.541 404.997 475.024 417.625C469.597 426.72 469.207 438.04 471.386 448.894C474.287 462.359 479.792 475.126 487.592 486.478C487.719 486.649 487.81 486.844 487.861 487.051C487.912 487.258 487.922 487.473 487.89 487.684C487.857 487.895 487.784 488.097 487.674 488.28C487.563 488.462 487.418 488.621 487.247 488.748C487.075 488.874 486.88 488.965 486.673 489.016C486.466 489.067 486.251 489.077 486.04 489.045C485.829 489.013 485.627 488.939 485.444 488.829C485.262 488.719 485.103 488.574 484.976 488.402L485.007 488.462Z" fill="black"/>
</g>
<path d="M468.049 458.952C468.049 458.952 473.04 442.31 478.392 446.369C483.744 450.428 468.049 458.952 468.049 458.952Z" fill="#2211BB"/>
<path d="M466.305 441.573C466.305 441.573 462.442 425.803 470.259 426.164C478.076 426.525 466.305 441.573 466.305 441.573Z" fill="#2211BB"/>
<path d="M437.607 422.436C437.607 422.436 421.265 416.422 426.963 411.356C432.661 406.29 437.607 422.436 437.607 422.436Z" fill="#2211BB"/>
<path d="M462.517 434.944C462.517 434.944 446.311 425.608 446.566 436.447C446.822 447.286 462.517 434.944 462.517 434.944Z" fill="#2211BB"/>
<path d="M464.186 474.18C464.186 474.18 475.581 461.237 477.64 467.731C479.7 474.225 464.186 474.18 464.186 474.18Z" fill="#2211BB"/>
<path d="M457.165 429.847C457.165 429.847 440.899 419.685 448.446 414.814C455.992 409.943 457.165 429.847 457.165 429.847Z" fill="#2211BB"/>
<path d="M444.326 423.939C444.326 423.939 428.181 426.465 433.247 432.959C438.313 439.453 444.326 423.939 444.326 423.939Z" fill="#2211BB"/>
<path d="M468.35 451.721C468.35 451.721 462.336 437.018 456.639 444.58C450.941 452.141 468.35 451.721 468.35 451.721Z" fill="#2211BB"/>
<g opacity="0.4">
<path d="M464.185 474.18C464.185 474.18 475.581 461.237 477.64 467.731C479.7 474.225 464.185 474.18 464.185 474.18Z" fill="white"/>
<path d="M457.165 429.847C457.165 429.847 440.899 419.685 448.446 414.814C455.992 409.943 457.165 429.847 457.165 429.847Z" fill="white"/>
<path d="M444.326 423.939C444.326 423.939 428.181 426.465 433.247 432.959C438.313 439.453 444.326 423.939 444.326 423.939Z" fill="white"/>
<path d="M468.35 451.721C468.35 451.721 462.336 437.018 456.639 444.58C450.941 452.141 468.35 451.721 468.35 451.721Z" fill="white"/>
</g>
<path d="M466.275 467.701C466.275 467.701 463.975 450.608 456.022 456.396C448.07 462.184 466.275 467.701 466.275 467.701Z" fill="#2211BB"/>
<path d="M461.299 483.336C466.431 474.283 469.26 464.108 469.537 453.705C469.642 433.32 453.572 423.488 435.051 420.812C433.548 420.602 433.548 422.917 435.051 423.127C444.883 424.54 455.481 427.637 461.825 435.875C466.335 441.768 467.688 449.3 467.162 456.591C466.414 465.569 463.754 474.283 459.36 482.148C458.638 483.441 460.607 484.658 461.344 483.351L461.299 483.336Z" fill="#2211BB"/>
<g opacity="0.3">
<path d="M461.299 483.336C466.431 474.283 469.26 464.108 469.537 453.705C469.642 433.32 453.572 423.488 435.051 420.812C433.548 420.602 433.548 422.917 435.051 423.127C444.883 424.54 455.481 427.637 461.825 435.875C466.335 441.768 467.688 449.3 467.162 456.591C466.414 465.569 463.754 474.283 459.36 482.148C458.638 483.441 460.607 484.658 461.344 483.351L461.299 483.336Z" fill="black"/>
</g>
<path d="M508.083 479.111L502.265 522.994C501.901 525.722 500.559 528.226 498.488 530.04C496.417 531.854 493.758 532.854 491.005 532.855H454.82C452.067 532.854 449.408 531.854 447.337 530.04C445.266 528.226 443.924 525.722 443.56 522.994L437.742 479.111H508.083Z" fill="#2211BB"/>
<path opacity="0.3" d="M508.083 479.111L502.265 522.994C501.901 525.722 500.559 528.226 498.488 530.04C496.417 531.854 493.758 532.854 491.005 532.855H454.82C452.067 532.854 449.408 531.854 447.337 530.04C445.266 528.226 443.924 525.722 443.56 522.994L437.742 479.111H508.083Z" fill="white"/>
<path d="M181.364 394.82H171.487V459.733H181.364V394.82Z" fill="#263238"/>
<path opacity="0.5" d="M181.364 394.82H171.487V459.733H181.364V394.82Z" fill="white"/>
<path d="M206.44 508.351L183.303 504.172V457.719C183.305 457.377 183.239 457.038 183.109 456.721C182.979 456.405 182.788 456.117 182.546 455.876C182.304 455.634 182.017 455.442 181.7 455.312C181.384 455.182 181.045 455.116 180.703 455.118H172.149C171.806 455.116 171.466 455.182 171.149 455.312C170.831 455.442 170.543 455.633 170.3 455.875C170.057 456.116 169.864 456.404 169.732 456.72C169.601 457.037 169.533 457.376 169.533 457.719V504.172L146.412 508.351C144.788 508.641 143.319 509.492 142.261 510.757C141.202 512.021 140.623 513.618 140.624 515.266L176.418 512.034L212.227 515.266C212.225 513.618 211.645 512.023 210.587 510.76C209.529 509.496 208.061 508.643 206.44 508.351Z" fill="#263238"/>
<path d="M148.14 522.287C148.14 523.774 147.7 525.227 146.874 526.463C146.048 527.699 144.874 528.663 143.5 529.231C142.127 529.8 140.616 529.949 139.157 529.659C137.699 529.369 136.36 528.653 135.309 527.602C134.258 526.551 133.542 525.212 133.252 523.753C132.962 522.295 133.11 520.784 133.679 519.411C134.248 518.037 135.212 516.863 136.448 516.037C137.684 515.211 139.137 514.77 140.624 514.77C142.617 514.77 144.529 515.562 145.939 516.972C147.349 518.382 148.14 520.293 148.14 522.287Z" fill="#2211BB"/>
<path d="M219.744 522.287C219.744 523.774 219.303 525.227 218.477 526.463C217.651 527.699 216.478 528.663 215.104 529.231C213.731 529.8 212.219 529.949 210.761 529.659C209.303 529.369 207.964 528.653 206.913 527.602C205.861 526.551 205.145 525.212 204.855 523.753C204.565 522.295 204.714 520.784 205.283 519.411C205.852 518.037 206.815 516.863 208.052 516.037C209.288 515.211 210.741 514.77 212.228 514.77C213.215 514.77 214.192 514.965 215.104 515.343C216.016 515.72 216.845 516.274 217.543 516.972C218.241 517.67 218.794 518.499 219.172 519.411C219.55 520.322 219.744 521.3 219.744 522.287Z" fill="#2211BB"/>
<path d="M182.296 522.287C182.296 526.436 180.582 529.804 176.418 529.804C172.254 529.804 170.555 526.436 170.555 522.287C170.555 518.138 172.269 514.77 176.418 514.77C180.567 514.77 182.296 518.138 182.296 522.287Z" fill="#2211BB"/>
<g opacity="0.5">
<path d="M183.529 504.202V512.681L186.325 512.936V504.713L183.529 504.202Z" fill="black"/>
<path d="M166.586 504.698V512.921L169.383 512.681V504.202L166.586 504.698Z" fill="black"/>
</g>
<path d="M111.94 335.694C111.317 335.694 110.702 335.832 110.138 336.097C109.574 336.362 109.075 336.747 108.676 337.226C108.277 337.705 107.989 338.266 107.831 338.869C107.672 339.472 107.649 340.102 107.761 340.715L116.931 390.129C117.346 392.375 118.534 394.404 120.288 395.865C122.043 397.326 124.254 398.126 126.538 398.127H271.053C271.905 398.127 272.749 397.959 273.536 397.632C274.323 397.306 275.038 396.827 275.64 396.224C276.242 395.621 276.718 394.905 277.043 394.117C277.368 393.329 277.534 392.485 277.532 391.633C277.532 389.188 276.561 386.844 274.833 385.116C273.105 383.388 270.761 382.417 268.317 382.417H185.859C183.674 382.418 181.551 381.687 179.829 380.341C178.107 378.995 176.885 377.112 176.358 374.991L168.977 345.195C168.305 342.484 166.746 340.076 164.548 338.354C162.349 336.632 159.637 335.696 156.845 335.694H111.94Z" fill="#263238"/>
<path d="M131.454 374.991L124.072 345.195C123.401 342.484 121.842 340.076 119.643 338.354C117.445 336.632 114.733 335.696 111.94 335.694C111.317 335.694 110.702 335.832 110.138 336.097C109.574 336.362 109.075 336.747 108.676 337.226C108.277 337.705 107.989 338.266 107.831 338.869C107.672 339.472 107.649 340.102 107.761 340.715L116.931 390.129C117.346 392.375 118.534 394.404 120.288 395.865C122.043 397.326 124.254 398.126 126.538 398.127H226.133C226.987 398.129 227.832 397.962 228.621 397.637C229.41 397.311 230.126 396.833 230.73 396.229C231.333 395.626 231.812 394.909 232.137 394.12C232.463 393.331 232.63 392.486 232.628 391.633C232.624 389.19 231.651 386.848 229.924 385.121C228.197 383.393 225.855 382.421 223.412 382.417H140.97C138.781 382.424 136.653 381.696 134.928 380.349C133.202 379.002 131.979 377.115 131.454 374.991Z" fill="#263238"/>
<path opacity="0.2" d="M131.454 374.991L124.072 345.195C123.401 342.484 121.842 340.076 119.643 338.354C117.445 336.632 114.733 335.696 111.94 335.694C111.317 335.694 110.702 335.832 110.138 336.097C109.574 336.362 109.075 336.747 108.676 337.226C108.277 337.705 107.989 338.266 107.831 338.869C107.672 339.472 107.649 340.102 107.761 340.715L116.931 390.129C117.346 392.375 118.534 394.404 120.288 395.865C122.043 397.326 124.254 398.126 126.538 398.127H226.133C226.987 398.129 227.832 397.962 228.621 397.637C229.41 397.311 230.126 396.833 230.73 396.229C231.333 395.626 231.812 394.909 232.137 394.12C232.463 393.331 232.63 392.486 232.628 391.633C232.624 389.19 231.651 386.848 229.924 385.121C228.197 383.393 225.855 382.421 223.412 382.417H140.97C138.781 382.424 136.653 381.696 134.928 380.349C133.202 379.002 131.979 377.115 131.454 374.991Z" fill="white"/>
<path d="M192.504 194.305C192.504 194.305 208.95 199.206 201.268 211.368L194.127 200.965L192.504 194.305Z" fill="#263238"/>
<path d="M251.75 256.994L258.921 246.471L266.017 248.726L267.309 251.582L258.47 264.225L251.75 256.994Z" fill="#DBB178"/>
<path d="M262.379 259.745C255.193 271.02 243.858 287.467 239.528 286.49C226.81 283.648 209.326 271.607 200.351 258.377C198.996 256.381 198.441 253.95 198.794 251.563C199.148 249.177 200.385 247.011 202.26 245.494V245.404C203.239 244.605 204.366 244.007 205.576 243.644C206.786 243.281 208.056 243.16 209.312 243.289C210.569 243.417 211.788 243.792 212.9 244.392C214.011 244.993 214.994 245.806 215.79 246.787C215.956 246.982 216.106 247.193 216.256 247.403C224.209 258.813 234.296 269.637 235.95 270.554C237.889 271.667 242.925 266.901 253.584 253.431L262.379 259.745Z" fill="#2211BB"/>
<path opacity="0.6" d="M262.379 259.745C255.193 271.02 243.858 287.467 239.528 286.49C226.81 283.648 209.326 271.607 200.351 258.377C198.996 256.381 198.441 253.95 198.794 251.563C199.148 249.177 200.385 247.011 202.26 245.494V245.404C203.239 244.605 204.366 244.007 205.576 243.644C206.786 243.281 208.056 243.16 209.312 243.289C210.569 243.417 211.788 243.792 212.9 244.392C214.011 244.993 214.994 245.806 215.79 246.787C215.956 246.982 216.106 247.193 216.256 247.403C224.209 258.813 234.296 269.637 235.95 270.554C237.889 271.667 242.925 266.901 253.584 253.431L262.379 259.745Z" fill="white"/>
<path d="M262.544 250.65L276.75 253.431L270.136 241.525C270.136 241.525 261.537 241.525 258.921 246.471L262.544 250.65Z" fill="#DBB178"/>
<path opacity="0.2" d="M221.398 278.266C211.1 271.231 209.732 254.724 209.732 254.724L203.899 252.063L201.103 259.49C206.69 266.912 213.564 273.272 221.398 278.266Z" fill="black"/>
<path d="M286.793 248.335L280.719 238.654L270.151 241.525L276.751 253.431L286.793 248.335Z" fill="#DBB178"/>
<path d="M207.898 314.407L157.506 317.714C157.506 317.714 157.146 304.184 155.387 291.721C154.841 287.384 153.977 283.093 152.801 278.883C151.493 274.583 149.794 269.758 147.84 264.15C147.584 263.459 147.329 262.767 147.043 262.045C146.382 260.302 145.705 258.483 144.939 256.588V256.498C144.258 254.647 144.331 252.603 145.144 250.806C145.957 249.009 147.443 247.603 149.283 246.892C149.63 246.757 149.987 246.652 150.351 246.576C153.553 245.9 156.785 245.283 160.062 244.772L162.888 244.351C170.434 243.227 178.039 242.544 185.664 242.307C189.617 242.307 193.842 242.427 197.45 242.592L200.456 242.743C204.275 242.968 206.921 243.209 206.921 243.209C206.921 243.209 208.574 243.54 209.552 252.394C209.574 252.898 209.624 253.4 209.702 253.897C209.822 255.732 209.927 258.047 209.973 260.828C210.123 272.193 209.446 291.27 207.898 314.407Z" fill="#2211BB"/>
<path opacity="0.6" d="M207.898 314.407L157.506 317.714C157.506 317.714 157.146 304.184 155.387 291.721C154.841 287.384 153.977 283.093 152.801 278.883C151.493 274.583 149.794 269.758 147.84 264.15C147.584 263.459 147.329 262.767 147.043 262.045C146.382 260.302 145.705 258.483 144.939 256.588V256.498C144.258 254.647 144.331 252.603 145.144 250.806C145.957 249.009 147.443 247.603 149.283 246.892C149.63 246.757 149.987 246.652 150.351 246.576C153.553 245.9 156.785 245.283 160.062 244.772L162.888 244.351C170.434 243.227 178.039 242.544 185.664 242.307C189.617 242.307 193.842 242.427 197.45 242.592L200.456 242.743C204.275 242.968 206.921 243.209 206.921 243.209C206.921 243.209 208.574 243.54 209.552 252.394C209.574 252.898 209.624 253.4 209.702 253.897C209.822 255.732 209.927 258.047 209.973 260.828C210.123 272.193 209.446 291.27 207.898 314.407Z" fill="white"/>
<path d="M164.647 244.111L177.215 260.858L186.235 253.131L197.961 258.783L191.617 242.382C189.662 242.382 187.648 242.382 185.709 242.382C178.662 242.573 171.631 243.15 164.647 244.111Z" fill="#2211BB"/>
<path opacity="0.9" d="M164.647 244.111L177.215 260.858L186.235 253.131L197.961 258.783L191.617 242.382C189.662 242.382 187.648 242.382 185.709 242.382C178.662 242.573 171.631 243.15 164.647 244.111Z" fill="white"/>
<path d="M275.878 516.499H265.16L270.045 435.59H290.1L275.878 516.499Z" fill="#DBB178"/>
<path d="M263.972 515.477C263.852 514.455 276.645 513.492 276.645 513.492C276.645 513.492 285.545 520.348 293.362 521.009C301.179 521.671 297.586 526.857 289.123 528.03L268.181 531.036C262.168 531.923 265.205 526.166 263.972 515.477Z" fill="#263238"/>
<path d="M283.064 515.913C281.433 515.817 279.821 515.509 278.269 514.996C278.207 514.981 278.15 514.95 278.103 514.906C278.073 514.803 278.073 514.693 278.103 514.59C278.103 514.455 278.81 511.283 280.449 510.35C280.694 510.201 280.969 510.106 281.254 510.072C281.54 510.039 281.829 510.067 282.102 510.155C282.899 510.396 283.11 510.847 283.125 511.162C283.125 511.809 282.508 512.53 281.621 513.192C282.477 512.951 283.382 512.951 284.237 513.192C284.423 513.262 284.593 513.369 284.738 513.506C284.882 513.643 284.998 513.807 285.079 513.989C285.204 514.225 285.258 514.493 285.234 514.76C285.21 515.027 285.109 515.281 284.944 515.492C284.397 515.873 283.722 516.024 283.064 515.913ZM279.622 514.56C281.546 515.056 283.801 515.387 284.297 514.845C284.417 514.74 284.387 514.515 284.297 514.244C284.261 514.156 284.205 514.077 284.135 514.012C284.065 513.947 283.982 513.898 283.891 513.868C282.431 513.695 280.952 513.935 279.622 514.56ZM281.366 510.801C281.142 510.801 280.924 510.864 280.734 510.982C279.878 511.727 279.274 512.72 279.005 513.823C280.659 512.876 282.313 511.688 282.313 511.177C282.313 511.087 282.132 510.967 281.847 510.862C281.69 510.818 281.528 510.798 281.366 510.801Z" fill="#2211BB"/>
<path opacity="0.2" d="M269.189 449.736L287.514 450.292L290.1 435.59H270.046L269.189 449.736Z" fill="black"/>
<path d="M224.434 517.867L214.167 516.499L230.418 426.916L250.683 432.704L224.434 517.867Z" fill="#DBB178"/>
<path d="M212.829 515.071C212.829 514.019 225.637 515.071 225.637 515.071C225.637 515.071 233.409 523.174 241.031 524.993C248.653 526.812 244.339 531.427 235.8 531.307L214.633 531.051C208.514 530.991 212.423 525.865 212.829 515.071Z" fill="#263238"/>
<path d="M232.372 518.408C230.5 518.177 228.683 517.617 227.005 516.755L226.9 516.664C226.893 516.648 226.889 516.63 226.889 516.612C226.889 516.594 226.893 516.576 226.9 516.559C226.877 516.512 226.865 516.461 226.865 516.409C226.865 516.357 226.877 516.305 226.9 516.259C226.9 516.138 228.072 513.132 229.907 512.425C230.166 512.306 230.448 512.245 230.733 512.245C231.019 512.245 231.301 512.306 231.56 512.425C232.312 512.801 232.447 513.252 232.417 513.568C232.417 514.214 231.605 514.83 230.658 515.342C231.541 515.234 232.437 515.374 233.244 515.747C233.417 515.839 233.568 515.968 233.688 516.123C233.807 516.279 233.892 516.458 233.935 516.649C234.032 516.894 234.05 517.163 233.988 517.418C233.927 517.674 233.787 517.904 233.59 518.078C233.237 518.331 232.804 518.448 232.372 518.408ZM228.358 516.484C230.192 517.266 232.372 517.987 232.868 517.476C232.988 517.386 233.018 517.176 232.868 516.875C232.845 516.786 232.804 516.702 232.747 516.63C232.69 516.557 232.619 516.497 232.537 516.454C231.166 516.098 229.725 516.109 228.358 516.484ZM230.463 513.026C230.297 513.032 230.134 513.068 229.982 513.132C229.035 513.732 228.295 514.608 227.862 515.642C229.696 514.966 231.425 513.989 231.455 513.507C231.455 513.417 231.305 513.267 231.049 513.147C230.889 513.067 230.716 513.016 230.538 512.996L230.463 513.026Z" fill="#2211BB"/>
<path opacity="0.2" d="M250.683 432.704L230.418 426.916L227.216 444.58L245.977 447.962L250.683 432.704Z" fill="black"/>
<path d="M264.739 442.535L290.521 443.888C297.121 413.491 303.705 379.982 302.397 372.63C299.917 358.544 280.779 344.202 206.485 332.041L171.908 383.996C171.908 383.996 222.48 381.635 268.572 381.635C268.557 381.665 265.987 410.59 264.739 442.535Z" fill="#2211BB"/>
<path opacity="0.1" d="M264.739 442.535L290.521 443.888C297.121 413.491 303.705 379.982 302.397 372.63C299.917 358.544 280.779 344.202 206.485 332.041L171.908 383.996C171.908 383.996 222.48 381.635 268.572 381.635C268.557 381.665 265.987 410.59 264.739 442.535Z" fill="black"/>
<path d="M263.01 438.491L263.777 445.241L292.024 446.203L293.407 439.995L263.01 438.491Z" fill="#2211BB"/>
<path d="M190.023 242.352H185.664C179.41 242.547 173.171 243.058 166.962 243.855C169.668 247.087 178.102 252.124 183.754 252.124C191.647 252.063 189.888 246.2 190.023 242.352Z" fill="#DBB178"/>
<path d="M224.66 437.304L251.013 441.588C261.717 411.627 272.421 379.741 272.24 372.555C271.88 358.244 268.738 350.817 216.978 339.271C216.978 339.271 214.227 335.258 207.958 314.467L157.506 317.774C157.506 317.774 134.49 360.168 152.305 378.268C156.243 382.297 163.986 384.101 171.848 384.026C171.848 384.026 190.038 384.116 234.988 382.011C235.003 382.011 229.666 407.658 224.66 437.304Z" fill="#2211BB"/>
<path d="M223.608 432.703L254.14 437.86L251.239 444.279L223.472 439.724L223.608 432.703Z" fill="#2211BB"/>
<path opacity="0.1" d="M263.01 438.491L263.777 445.241L292.024 446.203L293.407 439.995L263.01 438.491Z" fill="black"/>
<path d="M186.205 238.007C185.625 241.719 185.778 245.509 186.656 249.162L172.84 247.132C172.543 247.088 172.259 246.976 172.012 246.805C171.765 246.634 171.56 246.407 171.415 246.144C171.269 245.881 171.187 245.587 171.173 245.287C171.16 244.986 171.216 244.687 171.337 244.411C173.231 240.112 173.983 231.453 174.449 227.469C174.704 225.064 174.81 222.869 174.825 221.335C174.84 219.802 174.825 219.231 174.825 219.231L181.003 222.057L191.091 226.672C188.765 230.11 187.108 233.956 186.205 238.007Z" fill="#DBB178"/>
<path opacity="0.2" d="M191.121 226.672C188.773 230.107 187.09 233.952 186.16 238.007C181.119 236.008 176.956 232.277 174.419 227.484C174.689 225.079 174.795 222.884 174.81 221.35C177.004 221.576 179.049 221.801 181.003 222.072L191.121 226.672Z" fill="black"/>
<path d="M191.857 216.81C191.452 221.426 193.812 225.154 197.119 225.154C200.426 225.154 203.448 221.426 203.854 216.81C204.26 212.195 201.9 208.452 198.592 208.452C195.285 208.452 192.263 212.195 191.857 216.81Z" fill="#2211BB"/>
<path opacity="0.5" d="M191.271 216.81C190.865 221.426 193.225 225.154 196.533 225.154C199.84 225.154 202.847 221.426 203.253 216.81C203.658 212.195 201.298 208.452 197.991 208.452C194.684 208.452 191.662 212.195 191.271 216.81Z" fill="black"/>
<path d="M168.135 208.692C170.6 219.997 171.457 226.732 178.132 231.889C180.284 233.598 182.863 234.684 185.589 235.03C188.315 235.376 191.084 234.968 193.594 233.851C196.105 232.734 198.261 230.95 199.829 228.693C201.396 226.436 202.315 223.792 202.486 221.05C203.373 210.526 199.194 193.794 187.287 190.592C184.728 189.828 182.013 189.751 179.415 190.369C176.816 190.987 174.427 192.279 172.485 194.113C170.544 195.947 169.12 198.26 168.357 200.82C167.593 203.379 167.516 206.094 168.135 208.692Z" fill="#DBB178"/>
<path d="M165.519 220.493C167.35 222.703 169.889 224.212 172.705 224.763C176.268 225.364 177.08 222.072 175.261 218.87C173.637 215.998 169.803 212.225 166.616 213.067C163.429 213.909 163.219 217.712 165.519 220.493Z" fill="#DBB178"/>
<path d="M185.979 209.805C186.13 210.737 186.731 211.428 187.347 211.308C187.964 211.188 188.324 210.421 188.189 209.504C188.054 208.587 187.437 207.881 186.821 208.001C186.205 208.121 185.844 208.873 185.979 209.805Z" fill="#263238"/>
<path d="M196.593 208.557C196.728 209.489 197.344 210.181 197.946 210.06C198.547 209.94 198.938 209.173 198.803 208.241C198.667 207.309 198.036 206.633 197.435 206.738C196.833 206.843 196.367 207.625 196.593 208.557Z" fill="#263238"/>
<path d="M193.24 209.414C194.796 212.123 196.702 214.614 198.908 216.825C198.333 217.355 197.648 217.75 196.902 217.984C196.156 218.218 195.368 218.285 194.593 218.178L193.24 209.414Z" fill="#C0854B"/>
<path d="M182.206 206.813C182.117 206.833 182.024 206.833 181.935 206.813C181.871 206.779 181.814 206.732 181.769 206.675C181.723 206.618 181.69 206.552 181.67 206.482C181.65 206.412 181.645 206.338 181.654 206.266C181.664 206.194 181.688 206.124 181.725 206.061C182.129 205.294 182.717 204.639 183.435 204.154C184.154 203.669 184.981 203.369 185.844 203.28C185.916 203.274 185.988 203.283 186.056 203.305C186.124 203.328 186.187 203.364 186.24 203.412C186.294 203.46 186.337 203.519 186.367 203.584C186.397 203.649 186.413 203.72 186.415 203.791C186.421 203.864 186.413 203.937 186.39 204.005C186.368 204.074 186.332 204.138 186.284 204.193C186.236 204.248 186.178 204.292 186.113 204.324C186.048 204.356 185.977 204.374 185.904 204.378C185.226 204.454 184.577 204.697 184.016 205.086C183.454 205.474 182.998 205.995 182.687 206.603C182.63 206.675 182.557 206.731 182.473 206.768C182.389 206.805 182.297 206.82 182.206 206.813Z" fill="#263238"/>
<path d="M200.487 204.453C200.397 204.456 200.308 204.435 200.229 204.393C200.15 204.351 200.083 204.288 200.036 204.212C199.654 203.618 199.141 203.119 198.536 202.754C197.932 202.39 197.251 202.168 196.548 202.108C196.418 202.086 196.3 202.019 196.215 201.919C196.129 201.818 196.083 201.691 196.083 201.559C196.083 201.427 196.129 201.3 196.215 201.199C196.3 201.099 196.418 201.032 196.548 201.01C197.431 201.069 198.287 201.333 199.05 201.782C199.812 202.231 200.458 202.852 200.938 203.596C201.02 203.716 201.052 203.864 201.026 204.007C201.001 204.15 200.921 204.278 200.802 204.363C200.707 204.42 200.598 204.451 200.487 204.453Z" fill="#263238"/>
<path d="M170.345 223.56C170.345 223.56 177.531 216.209 174.013 198.169C174.013 198.169 179.801 203.085 193.24 199.447C193.24 199.447 185.288 200.229 181.65 196.44C181.65 196.44 189.061 199.883 201.043 196.44C201.043 196.44 198.908 184.308 186.009 183.692C186.009 183.692 190.174 180.189 194.187 180.866C194.187 180.866 190.083 177.333 179.665 184.203L175.546 185.887C175.546 185.887 163.94 181.708 157.506 191.539C152.38 199.312 154.951 223.786 170.345 223.56Z" fill="#263238"/>
<path d="M196.698 220.238C196.698 220.238 193.06 219.321 182.807 219.095C183.95 222.207 186.13 224.778 191.391 224.838C192.047 224.911 192.711 224.847 193.34 224.651C193.97 224.455 194.553 224.131 195.051 223.699C195.55 223.267 195.953 222.736 196.237 222.141C196.52 221.545 196.677 220.897 196.698 220.238Z" fill="#263238"/>
<path d="M189.076 222.358C191.097 222.284 193.09 222.846 194.774 223.966C193.79 224.595 192.632 224.896 191.466 224.823C189.454 224.907 187.467 224.343 185.799 223.214C186.774 222.591 187.921 222.291 189.076 222.358Z" fill="#A02724"/>
<path d="M196.232 220.148C196.125 220.526 195.915 220.866 195.626 221.132C195.336 221.397 194.979 221.577 194.593 221.651C191.565 221.581 188.548 221.259 185.573 220.689C185.098 220.647 184.64 220.488 184.241 220.225C183.843 219.963 183.515 219.606 183.288 219.186C187.621 219.172 191.949 219.493 196.232 220.148Z" fill="white"/>
<path d="M164.767 212.586V200.454C164.766 196.863 165.925 193.368 168.07 190.489C170.215 187.61 173.233 185.5 176.674 184.474L180.733 183.752C177.205 184.804 174.111 186.968 171.911 189.92C169.712 192.873 168.524 196.457 168.526 200.138V212.586H164.767Z" fill="#2211BB"/>
<path d="M174.193 218.464C174.599 223.079 172.239 226.807 168.932 226.807C165.624 226.807 162.603 223.079 162.212 218.464C161.821 213.849 164.166 210.105 167.473 210.105C170.781 210.105 173.787 213.849 174.193 218.464Z" fill="#2211BB"/>
<path opacity="0.5" d="M174.193 218.464C174.599 223.079 172.239 226.807 168.932 226.807C165.624 226.807 162.603 223.079 162.212 218.464C161.821 213.849 164.166 210.105 167.473 210.105C170.781 210.105 173.787 213.849 174.193 218.464Z" fill="black"/>
<path d="M172.194 218.464C172.585 223.079 170.24 226.807 166.917 226.807C163.595 226.807 160.603 223.079 160.197 218.464C159.791 213.849 162.152 210.105 165.459 210.105C168.766 210.105 171.788 213.849 172.194 218.464Z" fill="#2211BB"/>
<path opacity="0.3" d="M168.03 219.682L167.759 217.246H168.225C167.624 214.856 165.94 213.067 164.091 213.067C162.242 213.067 160.889 214.856 160.693 217.246H161.009L161.28 219.682H160.919C161.52 222.072 163.204 223.846 165.038 223.846C166.872 223.846 168.255 222.072 168.436 219.682H168.03Z" fill="white"/>
<path d="M146.427 219.486L152.996 206.558L158.303 219.095C158.303 219.095 152.981 225.86 147.494 224.883L146.427 219.486Z" fill="#DBB178"/>
<path d="M163.204 201.792L167.068 212.541L158.288 219.095L152.996 206.558L163.204 201.792Z" fill="#DBB178"/>
<path d="M148.156 233.407L154.47 222.778L153.808 218.449L148.246 216.479L140.323 228.807L148.156 233.407Z" fill="#DBB178"/>
<path d="M152.711 226.792L141.18 252.169C141.18 252.169 146.788 247.132 149.884 246.411C154.815 245.253 169.698 249.748 154.62 266.119C154.62 266.119 124.764 284.776 118.675 277.545C113.94 271.922 134.054 237.752 143.27 222.778L152.711 226.792Z" fill="#2211BB"/>
<path opacity="0.6" d="M152.711 226.792L141.18 252.169C141.18 252.169 146.788 247.132 149.884 246.411C154.815 245.253 169.698 249.748 154.62 266.119C154.62 266.119 124.764 284.776 118.675 277.545C113.94 271.922 134.054 237.752 143.27 222.778L152.711 226.792Z" fill="white"/>
<path opacity="0.2" d="M141.18 252.169L137.963 262.076L147.404 247.553C145.202 248.912 143.12 250.456 141.18 252.169Z" fill="black"/>
<path d="M184.371 229.664C183.108 229.696 181.846 229.615 180.597 229.423C177.38 228.266 174.267 226.838 171.292 225.154L171.893 224.071C174.782 225.692 177.799 227.075 180.913 228.206C184.115 228.471 187.333 228.471 190.534 228.206L190.625 229.453C190.384 229.453 187.227 229.664 184.371 229.664Z" fill="#2211BB"/>
<path d="M185.724 229.919L191.737 229.468C191.737 229.468 191.572 227.604 188.731 227.679C185.889 227.755 185.724 229.919 185.724 229.919Z" fill="#2211BB"/>
<g opacity="0.5">
<path d="M184.371 229.664C183.108 229.696 181.846 229.615 180.597 229.423C177.38 228.266 174.267 226.838 171.292 225.154L171.893 224.071C174.782 225.692 177.799 227.075 180.913 228.206C184.115 228.471 187.333 228.471 190.534 228.206L190.625 229.453C190.384 229.453 187.227 229.664 184.371 229.664Z" fill="black"/>
<path d="M185.724 229.919L191.737 229.468C191.737 229.468 191.572 227.604 188.73 227.679C185.889 227.755 185.724 229.919 185.724 229.919Z" fill="black"/>
</g>
<path d="M425.189 531.487C424.873 531.499 424.558 531.449 424.261 531.339C423.965 531.229 423.693 531.062 423.461 530.847C423.23 530.632 423.042 530.374 422.911 530.086C422.779 529.799 422.705 529.488 422.694 529.172L407.66 355.117C407.634 353.615 407.047 352.178 406.015 351.088C404.983 349.997 403.58 349.332 402.083 349.224H331.066C329.568 349.332 328.165 349.997 327.133 351.088C326.101 352.178 325.514 353.615 325.488 355.117L310.455 529.172C310.453 529.495 310.387 529.813 310.259 530.109C310.132 530.406 309.946 530.673 309.713 530.896C309.481 531.119 309.205 531.293 308.904 531.407C308.603 531.522 308.282 531.575 307.959 531.563C307.31 531.431 306.735 531.055 306.355 530.512C305.974 529.97 305.817 529.302 305.915 528.646L320.948 354.575C321.474 348.487 325.819 343.902 331.066 343.902H402.083C407.33 343.902 411.674 348.487 412.2 354.575L427.234 528.646C427.332 529.302 427.174 529.97 426.794 530.512C426.413 531.055 425.839 531.431 425.189 531.563V531.487Z" fill="#2211BB"/>
<g opacity="0.4">
<path d="M425.189 531.487C424.873 531.499 424.558 531.449 424.261 531.339C423.965 531.229 423.693 531.062 423.461 530.847C423.23 530.632 423.042 530.374 422.911 530.086C422.779 529.799 422.705 529.488 422.694 529.172L407.66 355.117C407.634 353.615 407.047 352.178 406.015 351.088C404.983 349.997 403.58 349.332 402.083 349.224H331.066C329.568 349.332 328.165 349.997 327.133 351.088C326.101 352.178 325.514 353.615 325.488 355.117L310.455 529.172C310.453 529.495 310.387 529.813 310.259 530.109C310.132 530.406 309.946 530.673 309.713 530.896C309.481 531.119 309.205 531.293 308.904 531.407C308.603 531.522 308.282 531.575 307.959 531.563C307.31 531.431 306.735 531.055 306.355 530.512C305.974 529.97 305.817 529.302 305.915 528.646L320.948 354.575C321.474 348.487 325.819 343.902 331.066 343.902H402.083C407.33 343.902 411.674 348.487 412.2 354.575L427.234 528.646C427.332 529.302 427.174 529.97 426.794 530.512C426.413 531.055 425.839 531.431 425.189 531.563V531.487Z" fill="black"/>
</g>
<path d="M424.197 336.37H231.154C229.469 336.37 228.103 337.736 228.103 339.422V349.314C228.103 350.999 229.469 352.366 231.154 352.366H424.197C425.882 352.366 427.249 350.999 427.249 349.314V339.422C427.249 337.736 425.882 336.37 424.197 336.37Z" fill="#263238"/>
<path opacity="0.2" d="M339.86 336.37H424.197C424.994 336.37 425.759 336.687 426.323 337.251C426.887 337.815 427.204 338.579 427.204 339.377V349.269C427.204 350.066 426.887 350.831 426.323 351.395C425.759 351.959 424.994 352.275 424.197 352.275H339.86V336.37Z" fill="white"/>
<path d="M347.407 531.487C347.084 531.502 346.761 531.45 346.458 531.337C346.154 531.223 345.877 531.05 345.643 530.826C345.409 530.603 345.222 530.335 345.093 530.038C344.965 529.741 344.898 529.421 344.896 529.097L329.863 355.042C329.837 353.54 329.25 352.103 328.218 351.013C327.186 349.922 325.783 349.257 324.286 349.148H253.268C251.773 349.261 250.374 349.927 249.345 351.017C248.316 352.108 247.732 353.543 247.706 355.042L232.673 529.172C232.671 529.495 232.604 529.813 232.477 530.109C232.35 530.406 232.164 530.673 231.931 530.896C231.698 531.119 231.423 531.293 231.122 531.407C230.821 531.522 230.499 531.575 230.177 531.563C229.518 531.424 228.939 531.035 228.562 530.476C228.186 529.917 228.043 529.234 228.163 528.571L243.196 354.5C243.722 348.412 248.082 343.827 253.313 343.827H324.331C329.577 343.827 333.922 348.412 334.448 354.5L349.481 528.571C349.58 529.224 349.424 529.891 349.047 530.433C348.67 530.975 348.099 531.353 347.452 531.487H347.407Z" fill="#2211BB"/>
<g opacity="0.4">
<path d="M347.407 531.487C347.084 531.502 346.761 531.45 346.458 531.337C346.154 531.223 345.877 531.05 345.643 530.826C345.409 530.603 345.222 530.335 345.093 530.038C344.965 529.741 344.898 529.421 344.896 529.097L329.863 355.042C329.837 353.54 329.25 352.103 328.218 351.013C327.186 349.922 325.783 349.257 324.286 349.148H253.268C251.773 349.261 250.374 349.927 249.345 351.017C248.316 352.108 247.732 353.543 247.706 355.042L232.673 529.172C232.671 529.495 232.604 529.813 232.477 530.109C232.35 530.406 232.164 530.673 231.931 530.896C231.698 531.119 231.423 531.293 231.122 531.407C230.821 531.522 230.499 531.575 230.177 531.563C229.518 531.424 228.939 531.035 228.562 530.476C228.186 529.917 228.043 529.234 228.163 528.571L243.196 354.5C243.722 348.412 248.082 343.827 253.313 343.827H324.331C329.577 343.827 333.922 348.412 334.448 354.5L349.481 528.571C349.58 529.224 349.424 529.891 349.047 530.433C348.67 530.975 348.099 531.353 347.452 531.487H347.407Z" fill="black"/>
</g>
<path d="M291.799 328.493H347.512V333.739C347.512 334.437 347.235 335.106 346.741 335.6C346.248 336.093 345.579 336.37 344.881 336.37H294.429C293.732 336.37 293.063 336.093 292.569 335.6C292.076 335.106 291.799 334.437 291.799 333.739V328.523V328.493Z" fill="#263238"/>
<path opacity="0.2" d="M291.799 328.493H347.512V333.739C347.512 334.437 347.235 335.106 346.741 335.6C346.248 336.093 345.579 336.37 344.881 336.37H294.429C293.732 336.37 293.063 336.093 292.569 335.6C292.076 335.106 291.799 334.437 291.799 333.739V328.523V328.493Z" fill="white"/>
<path d="M252.396 328.493H308.11V333.739C308.11 334.437 307.832 335.106 307.339 335.6C306.846 336.093 306.177 336.37 305.479 336.37H255.027C254.329 336.37 253.66 336.093 253.167 335.6C252.673 335.106 252.396 334.437 252.396 333.739V328.523V328.493Z" fill="#263238"/>
<path opacity="0.6" d="M252.396 328.493H308.11V333.739C308.11 334.437 307.832 335.106 307.339 335.6C306.846 336.093 306.177 336.37 305.479 336.37H255.027C254.329 336.37 253.66 336.093 253.167 335.6C252.673 335.106 252.396 334.437 252.396 333.739V328.523V328.493Z" fill="white"/>
<path d="M301.66 331.484H296.489V333.348H301.66V331.484Z" fill="#263238"/>
<path d="M293.377 331.484H288.206V333.348H293.377V331.484Z" fill="#263238"/>
<path d="M351.436 336.37H354.097C354.825 336.355 355.524 336.085 356.074 335.607C356.623 335.129 356.987 334.473 357.103 333.754L366.123 278.296C366.194 277.856 366.17 277.406 366.053 276.976C365.935 276.546 365.727 276.146 365.442 275.802C365.158 275.459 364.803 275.181 364.402 274.986C364.001 274.792 363.562 274.685 363.117 274.673L319.866 274.598L308.17 336.235H310.831L351.436 336.37Z" fill="#263238"/>
<path opacity="0.6" d="M351.436 336.37H354.097C354.825 336.355 355.524 336.085 356.074 335.607C356.623 335.129 356.987 334.473 357.103 333.754L366.123 278.296C366.194 277.856 366.17 277.406 366.053 276.976C365.935 276.546 365.727 276.146 365.442 275.802C365.158 275.459 364.803 275.181 364.402 274.986C364.001 274.792 363.562 274.685 363.117 274.673L319.866 274.598L308.17 336.235H310.831L351.436 336.37Z" fill="white"/>
<path opacity="0.2" d="M308.846 332.356L308.095 336.295H310.756L351.346 336.37H354.006C354.734 336.355 355.434 336.085 355.983 335.607C356.533 335.129 356.897 334.473 357.013 333.754L357.224 332.446L308.846 332.356Z" fill="black"/>
<path d="M308.155 336.34H310.846C311.574 336.325 312.273 336.055 312.823 335.577C313.372 335.099 313.736 334.443 313.852 333.724L322.872 278.236C322.943 277.797 322.919 277.347 322.802 276.918C322.684 276.489 322.476 276.089 322.191 275.747C321.906 275.405 321.551 275.129 321.15 274.936C320.749 274.743 320.311 274.638 319.866 274.628L308.155 336.34Z" fill="#263238"/>
<path opacity="0.3" d="M308.155 336.34H310.846C311.574 336.325 312.273 336.055 312.823 335.577C313.372 335.099 313.736 334.443 313.852 333.724L322.872 278.236C322.943 277.797 322.919 277.347 322.802 276.918C322.684 276.489 322.476 276.089 322.191 275.747C321.906 275.405 321.551 275.129 321.15 274.936C320.749 274.743 320.311 274.638 319.866 274.628L308.155 336.34Z" fill="white"/>
</svg>
