<svg width="40" height="40" viewBox="0 0 40 40" fill="none" xmlns="http://www.w3.org/2000/svg">
<mask id="mask0_2552_26459" style="mask-type:alpha" maskUnits="userSpaceOnUse" x="0" y="0" width="40" height="40">
<rect width="40" height="40" fill="#D9D9D9"/>
</mask>
<g mask="url(#mask0_2552_26459)">
<path d="M12.1667 34.1667C11.3333 34.1667 10.625 33.875 10.0417 33.2917C9.45833 32.7083 9.16667 32 9.16667 31.1667V10H7.5V7.50001H15V6.04167H25V7.50001H32.5V10H30.8333V31.1667C30.8333 32 30.5417 32.7083 29.9583 33.2917C29.375 33.875 28.6667 34.1667 27.8333 34.1667H12.1667ZM28.3333 10H11.6667V31.1667C11.6667 31.2778 11.7222 31.3889 11.8333 31.5C11.9444 31.6111 12.0556 31.6667 12.1667 31.6667H27.8333C27.9444 31.6667 28.0556 31.6111 28.1667 31.5C28.2778 31.3889 28.3333 31.2778 28.3333 31.1667V10ZM15.6667 28.3333H18.1667V13.3333H15.6667V28.3333ZM21.8333 28.3333H24.3333V13.3333H21.8333V28.3333ZM11.6667 10V31.6667V31.1667V10Z" fill="#2E3035"/>
</g>
</svg>
