<svg width="40" height="40" viewBox="0 0 40 40" fill="none" xmlns="http://www.w3.org/2000/svg">
<mask id="mask0_2552_26462" style="mask-type:alpha" maskUnits="userSpaceOnUse" x="0" y="0" width="40" height="40">
<rect width="40" height="40" fill="#D9D9D9"/>
</mask>
<g mask="url(#mask0_2552_26462)">
<path d="M20 25.4167C19.8056 25.4167 19.6183 25.3822 19.4383 25.3133C19.2572 25.2433 19.0972 25.125 18.9583 24.9583L13.75 19.7917C13.5278 19.5694 13.4167 19.2778 13.4167 18.9167C13.4167 18.5556 13.5278 18.2639 13.75 18.0417C14 17.7917 14.2983 17.6594 14.645 17.645C14.9928 17.6317 15.2917 17.75 15.5417 18L18.75 21.2083V8.45833C18.75 8.09722 18.8683 7.79833 19.105 7.56166C19.3406 7.32611 19.6389 7.20833 20 7.20833C20.3611 7.20833 20.66 7.32611 20.8967 7.56166C21.1322 7.79833 21.25 8.09722 21.25 8.45833V21.2083L24.4583 18C24.6806 17.7778 24.9722 17.6667 25.3333 17.6667C25.6944 17.6667 26 17.7917 26.25 18.0417C26.4722 18.2639 26.5833 18.5483 26.5833 18.895C26.5833 19.2428 26.4722 19.5417 26.25 19.7917L21.0417 24.9583C20.9028 25.125 20.7433 25.2433 20.5633 25.3133C20.3822 25.3822 20.1944 25.4167 20 25.4167ZM10.5 32.5C9.66667 32.5 8.95833 32.2083 8.375 31.625C7.79167 31.0417 7.5 30.3333 7.5 29.5V26.25C7.5 25.8889 7.61833 25.59 7.855 25.3533C8.09056 25.1178 8.38889 25 8.75 25C9.11111 25 9.40944 25.1178 9.645 25.3533C9.88167 25.59 10 25.8889 10 26.25V29.5C10 29.6111 10.0556 29.7222 10.1667 29.8333C10.2778 29.9444 10.3889 30 10.5 30H29.5C29.6111 30 29.7222 29.9444 29.8333 29.8333C29.9444 29.7222 30 29.6111 30 29.5V26.25C30 25.8889 30.1178 25.59 30.3533 25.3533C30.59 25.1178 30.8889 25 31.25 25C31.6111 25 31.91 25.1178 32.1467 25.3533C32.3822 25.59 32.5 25.8889 32.5 26.25V29.5C32.5 30.3333 32.2083 31.0417 31.625 31.625C31.0417 32.2083 30.3333 32.5 29.5 32.5H10.5Z" fill="#2E3035"/>
</g>
</svg>
