<svg width="226" height="45" viewBox="0 0 226 45" fill="none" xmlns="http://www.w3.org/2000/svg">
<g clip-path="url(#clip0_1973_6144)">
<path d="M59.1124 42.5431C56.4251 42.5431 54.1182 41.9664 52.1915 40.8131C50.2649 39.6597 48.7818 38.0497 47.7422 35.9832C46.7039 33.9175 46.1848 31.5282 46.1848 28.8152C46.1848 26.1022 46.7039 23.7065 47.7422 21.6282C48.7804 19.5495 50.2636 17.9269 52.1915 16.7604C54.1195 15.594 56.4265 15.0107 59.1124 15.0107C62.307 15.0107 64.9252 15.803 66.967 17.3874C69.0087 18.9719 70.2826 21.1967 70.7886 24.0618H65.4272C65.0972 22.6173 64.3937 21.4826 63.3166 20.6579C62.2395 19.8332 60.8135 19.4213 59.0386 19.4222C56.5793 19.4222 54.6526 20.2586 53.2587 21.9316C51.8647 23.6045 51.1673 25.899 51.1664 28.8152C51.1664 31.7309 51.8638 34.0188 53.2587 35.6791C54.6535 37.3394 56.5802 38.1698 59.0386 38.1703C60.8126 38.1703 62.2386 37.7836 63.3166 37.0104C64.3946 36.2371 65.0981 35.1659 65.4272 33.7967H70.7893C70.2824 36.5341 69.0083 38.6754 66.967 40.2206C64.9257 41.7658 62.3075 42.5399 59.1124 42.5431Z" fill="#3B5BB1"/>
<path d="M74.9727 42.0875V14.7075H79.8405V26.1163C80.4639 25.086 81.3494 24.2395 82.4068 23.6631C83.4843 23.0681 84.7202 22.7702 86.1147 22.7693C88.4467 22.7693 90.2523 23.5047 91.5316 24.9754C92.8109 26.4461 93.451 28.6009 93.4519 31.4398V42.0875H88.6227V31.8962C88.6227 30.2743 88.2993 29.0329 87.6524 28.172C87.0055 27.3112 85.9853 26.8803 84.5918 26.8794C83.2227 26.8794 82.0881 27.3611 81.1879 28.3244C80.2878 29.2877 79.838 30.6313 79.8384 32.3553V42.0875H74.9727Z" fill="#3B5BB1"/>
<path d="M105.166 42.5433C102.809 42.5433 100.99 41.8082 99.7094 40.3379C98.4287 38.8677 97.7886 36.7126 97.7891 33.8728V23.2251H102.618V33.4164C102.618 35.0415 102.948 36.2829 103.608 37.1406C104.267 37.9983 105.306 38.4294 106.726 38.4339C108.069 38.4339 109.178 37.9522 110.053 36.9889C110.928 36.0256 111.365 34.682 111.365 32.958V23.2251H116.232V42.0869H111.935L111.556 38.893C110.98 40.0006 110.103 40.9233 109.027 41.5547C107.923 42.2133 106.637 42.5429 105.166 42.5433Z" fill="#3B5BB1"/>
<path d="M121.214 42.0873V23.2254H125.511L125.891 26.4194C126.467 25.3119 127.343 24.3893 128.42 23.7576C129.523 23.0986 130.822 22.769 132.318 22.769C134.65 22.769 136.463 23.5044 137.756 24.9751C139.049 26.4458 139.696 28.6006 139.695 31.4396V42.0873H134.827V31.8959C134.827 30.274 134.498 29.0326 133.839 28.1718C133.181 27.3109 132.154 26.8801 130.759 26.8792C129.39 26.8792 128.269 27.3608 127.393 28.3241C126.518 29.2874 126.08 30.6302 126.08 32.3523V42.0873H121.214Z" fill="#3B5BB1"/>
<path d="M144.334 42.0875V14.7075H149.202V30.8697L155.894 23.2257H161.675L153.956 31.8204L162.93 42.0875H156.846L149.202 32.6187V42.0875H144.334Z" fill="#3B5BB1"/>
<path d="M166.049 42.0874V15.4678H183.237V19.3849H170.913V26.838H180.877V30.6793H170.916V42.0874H166.049Z" fill="#3B5BB1"/>
<path d="M189.512 20.2978C188.624 20.2978 187.895 20.0315 187.325 19.4988C186.755 18.9661 186.47 18.2944 186.469 17.4837C186.469 16.6712 186.755 16.0056 187.325 15.4869C187.896 14.9682 188.625 14.7084 189.512 14.7075C190.399 14.7075 191.127 14.9673 191.698 15.4869C192.269 16.0065 192.554 16.6721 192.554 17.4837C192.554 18.2963 192.269 18.968 191.698 19.4988C191.127 20.0297 190.399 20.296 189.512 20.2978ZM187.078 42.0875V23.2257H191.945V42.0875H187.078Z" fill="#3B5BB1"/>
<path d="M197.042 42.0875V14.7075H201.91V42.0875H197.042Z" fill="#3B5BB1"/>
<path d="M216.055 42.5437C214.153 42.5437 212.467 42.1374 210.996 41.3249C209.544 40.5318 208.345 39.3455 207.536 37.9021C206.699 36.4323 206.281 34.7338 206.281 32.8067C206.281 30.8548 206.693 29.1182 207.517 27.597C208.303 26.1149 209.489 24.8828 210.94 24.0408C212.398 23.1925 214.115 22.768 216.092 22.7671C217.943 22.7671 219.579 23.1734 220.998 23.9859C222.391 24.7702 223.541 25.9209 224.326 27.3133C225.124 28.7203 225.523 30.286 225.523 32.0104C225.523 32.2894 225.517 32.5808 225.504 32.8846C225.492 33.1886 225.473 33.5062 225.448 33.8326H211.111C211.212 35.3033 211.725 36.4569 212.651 37.2933C213.578 38.1298 214.699 38.548 216.017 38.548C217.005 38.548 217.835 38.3264 218.507 37.8831C219.161 37.4614 219.681 36.8635 220.01 36.1585H224.953C224.595 37.3529 223.993 38.4598 223.185 39.4087C222.352 40.3909 221.313 41.1771 220.142 41.7109C218.938 42.2656 217.576 42.5433 216.055 42.5437ZM216.092 26.7242C214.901 26.7242 213.849 27.06 212.936 27.7317C212.024 28.4034 211.441 29.4239 211.187 30.793H220.58C220.504 29.5511 220.048 28.5626 219.211 27.8272C218.375 27.0919 217.335 26.7242 216.092 26.7242V26.7242Z" fill="#3B5BB1"/>
<path d="M0 11.0918C2.39795 11.1236 4.80002 11.1595 7.20003 11.1866C8.53329 11.1995 9.86724 11.1866 11.3005 11.1866C16.6487 17.0755 21.176 23.4242 22.7819 31.4941C23.3259 29.6733 23.7521 27.8072 24.4461 26.0439C25.1691 24.2369 26.0263 22.4852 27.0106 20.803C27.9841 19.1184 29.1009 17.5034 30.2697 15.9413C31.4385 14.3792 32.7465 12.9221 34.0379 11.362H45C43.4461 12.7839 41.773 14.1327 40.3103 15.6779C34.8375 21.4598 31.009 28.1281 29.3763 35.9509C28.7522 38.941 28.2116 41.9285 28.5377 44.9999H16.9946C17.2995 42.5169 16.8946 40.0874 16.4822 37.6491C15.5415 32.0927 13.5498 26.9364 10.3598 22.2785C8.74473 19.9442 6.98683 17.7096 5.09599 15.5872C3.64489 13.9486 1.98208 12.463 0 11.4087V11.0918Z" fill="#3B5BB1"/>
<path d="M28.5378 0C28.0829 1.54789 27.5786 3.08292 27.1819 4.64504C25.7562 10.2611 24.3667 15.8852 22.9561 21.5053C22.9369 21.5818 22.8273 21.636 22.6388 21.8154C22.1668 19.9466 21.7132 18.1495 21.259 16.3531C19.9668 11.2449 18.6726 6.13718 17.3764 1.0299C17.2866 0.677119 17.1236 0.342622 16.9948 0H28.5378Z" fill="#3B5BB1"/>
</g>
<defs>
<clipPath id="clip0_1973_6144">
<rect width="225.523" height="45" fill="white"/>
</clipPath>
</defs>
</svg>
