<svg width="241" height="48" viewBox="0 0 241 48" fill="rgb(59, 91, 177)" xmlns="http://www.w3.org/2000/svg">
<path d="M63.0533 45.3796C60.1869 45.3796 57.7262 44.7645 55.6711 43.5342C53.616 42.304 52.034 40.5867 50.9251 38.3824C49.8176 36.179 49.2639 33.6304 49.2639 30.7365C49.2639 27.8426 49.8176 25.2873 50.9251 23.0704C52.0326 20.8531 53.6146 19.1223 55.6711 17.8781C57.7276 16.6339 60.1883 16.0118 63.0533 16.0118C66.4609 16.0118 69.2537 16.8568 71.4315 18.5469C73.6094 20.237 74.9682 22.6101 75.508 25.6662H69.7891C69.4371 24.1254 68.6867 22.9151 67.5378 22.0354C66.389 21.1557 64.8679 20.7163 62.9746 20.7173C60.3513 20.7173 58.2963 21.6095 56.8094 23.394C55.3225 25.1785 54.5786 27.626 54.5776 30.7365C54.5776 33.8466 55.3215 36.2871 56.8094 38.0581C58.2972 39.829 60.3523 40.7148 62.9746 40.7153C64.8669 40.7153 66.388 40.3029 67.5378 39.478C68.6877 38.6532 69.4381 37.5106 69.7891 36.0502H75.5087C74.968 38.97 73.6089 41.2541 71.4315 42.9023C69.2542 44.5505 66.4614 45.3762 63.0533 45.3796Z" fill="rgb(59, 91, 177)"/>
<path d="M79.9709 44.8928V15.6875H85.1633V27.8569C85.8282 26.7579 86.7728 25.8549 87.9006 25.2401C89.05 24.6055 90.3684 24.2877 91.8557 24.2867C94.3432 24.2867 96.2692 25.0711 97.6338 26.6399C98.9984 28.2086 99.6812 30.5071 99.6822 33.5353V44.8928H94.531V34.0221C94.531 32.292 94.186 30.9679 93.496 30.0497C92.806 29.1314 91.7178 28.6718 90.2314 28.6709C88.771 28.6709 87.5607 29.1846 86.6006 30.2122C85.6405 31.2397 85.1606 32.6729 85.1611 34.5118V44.8928H79.9709Z" fill="rgb(59, 91, 177)"/>
<path d="M112.177 45.3797C109.663 45.3797 107.722 44.5955 106.356 43.0273C104.99 41.459 104.308 39.1603 104.308 36.1311V24.7736H109.459V35.6443C109.459 37.3777 109.811 38.7019 110.514 39.6167C111.218 40.5316 112.327 40.9914 113.841 40.9963C115.273 40.9963 116.457 40.4825 117.39 39.455C118.323 38.4274 118.789 36.9942 118.789 35.1553V24.7736H123.981V44.8929H119.398L118.992 41.486C118.378 42.6674 117.443 43.6516 116.295 44.3252C115.118 45.0277 113.745 45.3792 112.177 45.3797Z" fill="rgb(59, 91, 177)"/>
<path d="M129.295 44.8928V24.7735H133.878L134.284 28.1805C134.898 26.9991 135.833 26.015 136.981 25.3412C138.157 24.6382 139.543 24.2867 141.139 24.2867C143.627 24.2867 145.56 25.0711 146.94 26.6399C148.319 28.2086 149.009 30.5071 149.008 33.5353V44.8928H143.816V34.0221C143.816 32.292 143.464 30.9679 142.762 30.0497C142.059 29.1314 140.964 28.6718 139.476 28.6709C138.016 28.6709 136.82 29.1846 135.886 30.2122C134.952 31.2397 134.485 32.6719 134.485 34.5089V44.8928H129.295Z" fill="rgb(59, 91, 177)"/>
<path d="M153.956 44.8928V15.6875H159.149V32.9271L166.287 24.7735H172.453L164.22 33.9412L173.792 44.8928H167.302L159.149 34.7927V44.8928H153.956Z" fill="rgb(59, 91, 177)"/>
<path d="M177.119 44.8928V16.4986H195.453V20.6769H182.307V28.6268H192.935V32.7242H182.31V44.8928H177.119Z" fill="rgb(59, 91, 177)"/>
<path d="M202.146 21.6505C201.199 21.6505 200.421 21.3664 199.813 20.7982C199.205 20.23 198.901 19.5136 198.9 18.6488C198.9 17.7821 199.205 17.0721 199.813 16.5188C200.422 15.9656 201.199 15.6885 202.146 15.6875C203.092 15.6875 203.869 15.9646 204.478 16.5188C205.086 17.073 205.391 17.783 205.391 18.6488C205.391 19.5155 205.086 20.232 204.478 20.7982C203.869 21.3645 203.092 21.6486 202.146 21.6505ZM199.55 44.8928V24.7735H204.741V44.8928H199.55Z" fill="rgb(59, 91, 177)"/>
<path d="M210.178 44.8928V15.6875H215.37V44.8928H210.178Z" fill="rgb(59, 91, 177)"/>
<path d="M230.458 45.3796C228.43 45.3796 226.632 44.9463 225.063 44.0795C223.514 43.2336 222.235 41.9682 221.372 40.4285C220.48 38.8607 220.033 37.0491 220.033 34.9935C220.033 32.9115 220.473 31.0591 221.352 29.4364C222.19 27.8555 223.455 26.5413 225.002 25.6431C226.558 24.7384 228.39 24.2855 230.499 24.2845C232.473 24.2845 234.217 24.7179 235.732 25.5846C237.217 26.4212 238.444 27.6487 239.281 29.1338C240.132 30.6347 240.558 32.3048 240.558 34.1441C240.558 34.4417 240.552 34.7525 240.538 35.0766C240.524 35.4009 240.504 35.7396 240.478 36.0877H225.185C225.292 37.6565 225.84 38.887 226.828 39.7792C227.816 40.6714 229.013 41.1176 230.418 41.1176C231.472 41.1176 232.358 40.8811 233.074 40.4083C233.771 39.9585 234.327 39.3208 234.677 38.5687H239.95C239.569 39.8427 238.926 41.0234 238.064 42.0355C237.176 43.0833 236.068 43.9219 234.818 44.4912C233.534 45.083 232.081 45.3791 230.458 45.3796ZM230.499 28.5054C229.228 28.5054 228.105 28.8637 227.132 29.5802C226.159 30.2966 225.537 31.3851 225.266 32.8455H235.285C235.204 31.5209 234.718 30.4664 233.825 29.682C232.933 28.8976 231.824 28.5054 230.499 28.5054Z" fill="rgb(59, 91, 177)"/>
<path d="M0 11.8314C2.55782 11.8653 5.12002 11.9036 7.68003 11.9325C9.10218 11.9462 10.5251 11.9325 12.0539 11.9325C17.7586 18.214 22.5877 24.9859 24.3007 33.5938C24.881 31.6516 25.3355 29.6611 26.0759 27.7803C26.8471 25.8528 27.7613 23.9843 28.8113 22.19C29.8497 20.393 31.0409 18.6704 32.2877 17.0042C33.5344 15.3379 34.9296 13.7836 36.3071 12.1195H48C46.3425 13.6363 44.5579 15.075 42.9976 16.7232C37.16 22.8906 33.0762 30.0034 31.3347 38.3477C30.669 41.5372 30.0924 44.7238 30.4402 48H18.1276C18.4528 45.3515 18.0209 42.76 17.581 40.1591C16.5776 34.2323 14.4531 28.7323 11.0505 23.7638C9.32771 21.2739 7.45262 18.8904 5.43573 16.6264C3.88788 14.8786 2.11422 13.2939 0 12.1694V11.8314Z" fill="rgb(59, 91, 177)"/>
<path d="M30.4403 0C29.955 1.65109 29.4172 3.28845 28.994 4.95471C27.4732 10.9451 25.9911 16.9442 24.4864 22.939C24.466 23.0206 24.349 23.0784 24.1481 23.2698C23.6445 21.2764 23.1607 19.3595 22.6762 17.4433C21.2979 11.9946 19.9174 6.54633 18.5347 1.09856C18.439 0.722261 18.2651 0.365464 18.1277 0H30.4403Z" fill="rgb(59, 91, 177)"/>
</svg>
