<svg width="610" height="575" viewBox="0 0 610 575" fill="none" xmlns="http://www.w3.org/2000/svg">
<path d="M374.273 571.79H585.11" stroke="#263238" stroke-miterlimit="10"/>
<path d="M34.4216 571.79H358.154" stroke="#263238" stroke-miterlimit="10"/>
<path d="M2.15869 571.79H25.2018" stroke="#263238" stroke-miterlimit="10"/>
<g opacity="0.3">
<path d="M225.12 466.022H197.512V400.355H240.63L246.756 409.106V414.571" stroke="black" stroke-linecap="round" stroke-linejoin="round"/>
<path d="M240.63 400.355V409.879H246.756L240.63 400.355Z" stroke="black" stroke-linecap="round" stroke-linejoin="round"/>
<path d="M205.07 419.149H219.553" stroke="black" stroke-linecap="round" stroke-linejoin="round"/>
<path d="M205.07 428.433H219.553" stroke="black" stroke-linecap="round" stroke-linejoin="round"/>
<path d="M205.07 437.703H219.553" stroke="black" stroke-linecap="round" stroke-linejoin="round"/>
<path d="M205.07 446.986H219.553" stroke="black" stroke-linecap="round" stroke-linejoin="round"/>
</g>
<path opacity="0.3" d="M225.12 418.376H219.769V465.375H225.12V418.376Z" fill="black"/>
<g opacity="0.3">
<path d="M274.2 481.101H225.678V415.434H268.074L274.2 424.171V481.101Z" stroke="black" stroke-linecap="round" stroke-linejoin="round"/>
<path d="M268.074 415.434V424.945H274.199L268.074 415.434Z" stroke="black" stroke-linecap="round" stroke-linejoin="round"/>
<path d="M232.514 434.228H266.92" stroke="black" stroke-linecap="round" stroke-linejoin="round"/>
<path d="M232.514 443.499H266.92" stroke="black" stroke-linecap="round" stroke-linejoin="round"/>
<path d="M232.514 452.782H266.92" stroke="black" stroke-linecap="round" stroke-linejoin="round"/>
<path d="M232.514 462.052H266.92" stroke="black" stroke-linecap="round" stroke-linejoin="round"/>
</g>
<path opacity="0.3" d="M121.813 27.8855L119.48 21.1768H91.7441V27.8855V60.884V67.58H150.17V27.8855H121.813Z" stroke="black" stroke-linecap="round" stroke-linejoin="round"/>
<path opacity="0.3" d="M54.586 27.8855L52.2652 21.1768H24.5298V27.8855V60.884V67.58H82.9556V27.8855H54.586Z" stroke="black" stroke-linecap="round" stroke-linejoin="round"/>
<path opacity="0.3" d="M490.44 368.98L488.106 362.271H460.383V368.98V401.978V408.687H518.809V368.98H490.44Z" stroke="black" stroke-linecap="round" stroke-linejoin="round"/>
<path opacity="0.3" d="M423.225 368.98L420.892 362.271H393.169V368.98V401.978V408.687H451.595V368.98H423.225Z" stroke="black" stroke-linecap="round" stroke-linejoin="round"/>
<path opacity="0.3" d="M54.586 90.0271L52.2652 83.3184H24.5298V90.0271V123.026V129.722H82.9556V90.0271H54.586Z" stroke="black" stroke-linecap="round" stroke-linejoin="round"/>
<path d="M600.037 144.395H533.089V157.787H600.037V144.395Z" stroke="#ABABAB" stroke-miterlimit="10"/>
<path d="M600.037 161.135H533.089V174.527H600.037V161.135Z" stroke="#ABABAB" stroke-miterlimit="10"/>
<path d="M600.037 177.888H533.089V191.28H600.037V177.888Z" stroke="#ABABAB" stroke-miterlimit="10"/>
<path d="M600.037 194.628H533.089V208.02H600.037V194.628Z" stroke="#ABABAB" stroke-miterlimit="10"/>
<path d="M600.037 211.368H533.089V224.76H600.037V211.368Z" stroke="#ABABAB" stroke-miterlimit="10"/>
<path d="M580.304 151.471C580.306 150.984 580.164 150.506 579.895 150.1C579.625 149.693 579.241 149.376 578.791 149.188C578.341 149 577.845 148.951 577.367 149.045C576.888 149.14 576.449 149.374 576.104 149.719C575.759 150.064 575.524 150.504 575.43 150.982C575.335 151.46 575.385 151.956 575.573 152.406C575.761 152.856 576.078 153.24 576.485 153.51C576.891 153.779 577.369 153.922 577.856 153.919C578.505 153.919 579.128 153.661 579.587 153.202C580.046 152.743 580.304 152.121 580.304 151.471V151.471Z" stroke="#ABABAB" stroke-miterlimit="10"/>
<path d="M588.877 151.472C588.877 150.987 588.733 150.514 588.464 150.112C588.195 149.709 587.813 149.395 587.366 149.21C586.919 149.025 586.427 148.977 585.952 149.071C585.477 149.165 585.041 149.399 584.699 149.741C584.356 150.083 584.123 150.519 584.029 150.994C583.934 151.469 583.983 151.961 584.168 152.408C584.353 152.855 584.667 153.238 585.069 153.507C585.472 153.776 585.945 153.919 586.429 153.919C586.751 153.921 587.07 153.859 587.368 153.736C587.666 153.614 587.936 153.434 588.164 153.206C588.391 152.978 588.572 152.708 588.694 152.41C588.816 152.112 588.879 151.793 588.877 151.472Z" stroke="#ABABAB" stroke-miterlimit="10"/>
<path d="M577.856 170.254C579.208 170.254 580.304 169.158 580.304 167.806C580.304 166.454 579.208 165.358 577.856 165.358C576.505 165.358 575.409 166.454 575.409 167.806C575.409 169.158 576.505 170.254 577.856 170.254Z" stroke="#ABABAB" stroke-miterlimit="10"/>
<path d="M586.429 170.254C587.781 170.254 588.877 169.158 588.877 167.806C588.877 166.454 587.781 165.358 586.429 165.358C585.078 165.358 583.982 166.454 583.982 167.806C583.982 169.158 585.078 170.254 586.429 170.254Z" stroke="#ABABAB" stroke-miterlimit="10"/>
<path d="M577.856 186.588C579.208 186.588 580.304 185.492 580.304 184.14C580.304 182.788 579.208 181.692 577.856 181.692C576.505 181.692 575.409 182.788 575.409 184.14C575.409 185.492 576.505 186.588 577.856 186.588Z" stroke="#ABABAB" stroke-miterlimit="10"/>
<path d="M586.429 186.588C587.781 186.588 588.877 185.492 588.877 184.14C588.877 182.788 587.781 181.692 586.429 181.692C585.078 181.692 583.982 182.788 583.982 184.14C583.982 185.492 585.078 186.588 586.429 186.588Z" stroke="#ABABAB" stroke-miterlimit="10"/>
<path d="M580.304 200.487C580.306 199.999 580.164 199.522 579.895 199.115C579.625 198.709 579.241 198.392 578.791 198.204C578.341 198.016 577.845 197.966 577.367 198.061C576.888 198.155 576.449 198.39 576.104 198.735C575.759 199.08 575.524 199.519 575.43 199.998C575.335 200.476 575.385 200.972 575.573 201.422C575.761 201.872 576.078 202.256 576.485 202.525C576.891 202.795 577.369 202.937 577.856 202.935C578.504 202.931 579.125 202.672 579.583 202.214C580.042 201.756 580.301 201.135 580.304 200.487V200.487Z" stroke="#ABABAB" stroke-miterlimit="10"/>
<path d="M588.877 200.487C588.877 200.003 588.733 199.53 588.464 199.127C588.195 198.725 587.813 198.411 587.366 198.226C586.919 198.041 586.427 197.992 585.952 198.087C585.477 198.181 585.041 198.414 584.699 198.756C584.356 199.099 584.123 199.535 584.029 200.01C583.934 200.484 583.983 200.977 584.168 201.424C584.353 201.871 584.667 202.253 585.069 202.522C585.472 202.791 585.945 202.935 586.429 202.935C587.078 202.935 587.701 202.677 588.16 202.218C588.619 201.759 588.877 201.136 588.877 200.487V200.487Z" stroke="#ABABAB" stroke-miterlimit="10"/>
<path d="M577.856 219.269C579.208 219.269 580.304 218.173 580.304 216.822C580.304 215.47 579.208 214.374 577.856 214.374C576.505 214.374 575.409 215.47 575.409 216.822C575.409 218.173 576.505 219.269 577.856 219.269Z" stroke="#ABABAB" stroke-miterlimit="10"/>
<path d="M586.429 219.269C587.781 219.269 588.877 218.173 588.877 216.822C588.877 215.47 587.781 214.374 586.429 214.374C585.078 214.374 583.982 215.47 583.982 216.822C583.982 218.173 585.078 219.269 586.429 219.269Z" stroke="#ABABAB" stroke-miterlimit="10"/>
<path d="M563.234 144.002V1H354.552V432.136H562.131V225.572" stroke="#ABABAB" stroke-miterlimit="10"/>
<path d="M477.428 495.241C484.775 495.241 490.731 479.621 490.731 460.353C490.731 441.085 484.775 425.465 477.428 425.465C470.081 425.465 464.124 441.085 464.124 460.353C464.124 479.621 470.081 495.241 477.428 495.241Z" fill="#2211BB" stroke="#263238" stroke-miterlimit="10"/>
<path d="M518.765 438.892C522.925 425.802 521.681 413.724 515.987 411.914C510.293 410.105 502.305 419.249 498.146 432.339C493.986 445.429 495.229 457.507 500.923 459.317C506.617 461.126 514.605 451.982 518.765 438.892Z" fill="#2211BB" stroke="#263238" stroke-miterlimit="10"/>
<path d="M421.145 517.764C407.601 515.469 397.43 508.887 398.432 502.939C399.434 496.991 411.215 494.125 424.76 496.421C438.304 498.716 448.462 505.298 447.473 511.246C446.484 517.194 434.69 520.06 421.145 517.764Z" fill="#2211BB" stroke="#263238" stroke-miterlimit="10"/>
<path d="M531.289 485.533C542.599 474.318 547.573 460.997 542.399 455.78C537.226 450.563 523.864 455.425 512.554 466.64C501.245 477.855 496.271 491.176 501.444 496.393C506.618 501.61 519.98 496.748 531.289 485.533Z" fill="#2211BB" stroke="#263238" stroke-miterlimit="10"/>
<path d="M460.641 492.044C467.555 487.278 464.295 470.554 453.36 454.69C442.424 438.825 427.953 429.829 421.039 434.595C414.125 439.361 417.385 456.086 428.321 471.95C439.257 487.814 453.727 496.81 460.641 492.044Z" fill="#2211BB" stroke="#263238" stroke-miterlimit="10"/>
<path d="M478.354 493.516L479.381 541.479" stroke="#263238" stroke-miterlimit="10" stroke-linecap="round"/>
<path d="M477.111 447.379L478.354 493.516" stroke="#263238" stroke-miterlimit="10" stroke-linecap="round"/>
<path d="M477.2 439.859L477.111 443.397" stroke="#263238" stroke-miterlimit="10" stroke-linecap="round"/>
<path d="M460.599 489.838C468.232 505.594 472.696 522.696 473.737 540.173" stroke="#263238" stroke-miterlimit="10" stroke-linecap="round"/>
<path d="M437.771 454.913C446.892 465.507 454.568 477.265 460.599 489.877" stroke="#263238" stroke-miterlimit="10" stroke-linecap="round"/>
<path d="M430.53 447.303C430.53 447.303 431.912 448.571 434.182 450.968" stroke="#263238" stroke-miterlimit="10" stroke-linecap="round"/>
<path d="M502.259 494.759C492.932 507.843 485.661 522.278 480.7 537.561" stroke="#263238" stroke-miterlimit="10" stroke-linecap="round"/>
<path d="M517.566 477.169C511.931 482.547 506.807 488.436 502.259 494.759" stroke="#263238" stroke-miterlimit="10" stroke-linecap="round"/>
<path d="M533.901 464.715C529.743 467.066 525.838 469.837 522.246 472.984" stroke="#263238" stroke-miterlimit="10" stroke-linecap="round"/>
<path d="M501.701 456.016C494.333 479.211 484.441 513.478 479.825 543.229" stroke="#263238" stroke-miterlimit="10" stroke-linecap="round"/>
<path d="M506.254 442.23C504.986 446.137 503.413 450.778 501.764 455.978" stroke="#263238" stroke-miterlimit="10" stroke-linecap="round"/>
<path d="M510.794 428.953C510.794 428.953 509.526 432.504 507.433 438.591" stroke="#263238" stroke-miterlimit="10" stroke-linecap="round"/>
<path d="M446.788 508.037C452.057 509.88 456.832 512.91 460.744 516.893C464.656 520.875 467.6 525.703 469.349 531.004" stroke="#263238" stroke-miterlimit="10" stroke-linecap="round"/>
<path d="M429.782 504.575C435.592 504.87 441.325 506.037 446.788 508.037" stroke="#263238" stroke-miterlimit="10" stroke-linecap="round"/>
<path d="M418.748 504.854C418.748 504.854 420.384 504.613 423.086 504.512" stroke="#263238" stroke-miterlimit="10" stroke-linecap="round"/>
<path d="M537.02 517.764C550.565 515.469 560.736 508.887 559.734 502.939C558.732 496.991 546.95 494.125 533.406 496.421C519.862 498.716 509.703 505.298 510.693 511.246C511.682 517.194 523.476 520.06 537.02 517.764Z" fill="#2211BB" stroke="#263238" stroke-miterlimit="10"/>
<path d="M511.669 507.923C502.36 511.385 493.229 518.132 488.841 531.017" stroke="#263238" stroke-miterlimit="10" stroke-linecap="round"/>
<path d="M529.817 504.512C523.626 504.687 517.501 505.839 511.669 507.923" stroke="#263238" stroke-miterlimit="10" stroke-linecap="round"/>
<path d="M539.404 504.854C539.404 504.854 538.326 504.689 536.475 504.575" stroke="#263238" stroke-miterlimit="10" stroke-linecap="round"/>
<path d="M511.479 571.789C515.587 563.211 517.752 553.831 517.82 544.32C517.825 538.627 516.97 532.966 515.283 527.529H444.391C442.704 532.966 441.849 538.627 441.855 544.32C441.916 553.832 444.081 563.213 448.196 571.789H511.479Z" fill="#263238"/>
<path d="M442.578 535.379C442.375 536.648 442.21 537.979 442.096 539.311H517.541C517.427 537.979 517.274 536.673 517.072 535.379H442.578Z" fill="#7A7A7A"/>
<path d="M516.742 555.442C516.97 554.174 517.186 552.83 517.338 551.511H442.299C442.464 552.779 442.666 554.136 442.907 555.442H516.742Z" fill="#7A7A7A"/>
<path d="M451.037 544.536C451.037 545.14 450.857 545.731 450.522 546.234C450.186 546.736 449.708 547.128 449.15 547.36C448.591 547.591 447.977 547.651 447.384 547.533C446.791 547.416 446.247 547.124 445.819 546.697C445.392 546.27 445.101 545.725 444.983 545.132C444.865 544.539 444.925 543.925 445.157 543.366C445.388 542.808 445.78 542.33 446.282 541.995C446.785 541.659 447.376 541.479 447.98 541.479C448.382 541.479 448.779 541.559 449.15 541.712C449.521 541.866 449.858 542.091 450.141 542.375C450.425 542.658 450.65 542.995 450.804 543.366C450.958 543.737 451.037 544.134 451.037 544.536Z" fill="#8C8C8C"/>
<path d="M466.306 544.536C466.306 545.14 466.126 545.731 465.791 546.234C465.455 546.736 464.977 547.128 464.419 547.36C463.86 547.591 463.246 547.651 462.653 547.533C462.06 547.416 461.516 547.124 461.088 546.697C460.661 546.27 460.37 545.725 460.252 545.132C460.134 544.539 460.194 543.925 460.426 543.366C460.657 542.808 461.049 542.33 461.551 541.995C462.054 541.659 462.645 541.479 463.249 541.479C463.651 541.479 464.048 541.559 464.419 541.712C464.79 541.866 465.127 542.091 465.41 542.375C465.694 542.658 465.919 542.995 466.073 543.366C466.227 543.737 466.306 544.134 466.306 544.536Z" fill="#8C8C8C"/>
<path d="M481.562 544.536C481.562 545.141 481.382 545.732 481.046 546.235C480.71 546.738 480.232 547.13 479.672 547.361C479.113 547.592 478.498 547.651 477.905 547.533C477.312 547.414 476.767 547.121 476.34 546.693C475.913 546.264 475.623 545.718 475.507 545.124C475.39 544.531 475.452 543.916 475.686 543.357C475.919 542.799 476.313 542.323 476.817 541.988C477.321 541.654 477.913 541.477 478.518 541.48C479.327 541.483 480.101 541.806 480.671 542.379C481.242 542.952 481.562 543.727 481.562 544.536Z" fill="#8C8C8C"/>
<path d="M496.831 544.536C496.831 545.14 496.652 545.731 496.316 546.234C495.98 546.736 495.503 547.128 494.944 547.36C494.386 547.591 493.771 547.651 493.179 547.533C492.586 547.416 492.041 547.124 491.614 546.697C491.186 546.27 490.895 545.725 490.777 545.132C490.659 544.539 490.72 543.925 490.951 543.366C491.182 542.808 491.574 542.33 492.077 541.995C492.579 541.659 493.17 541.479 493.775 541.479C494.176 541.479 494.574 541.559 494.944 541.712C495.315 541.866 495.652 542.091 495.936 542.375C496.22 542.658 496.445 542.995 496.599 543.366C496.752 543.737 496.831 544.134 496.831 544.536Z" fill="#8C8C8C"/>
<path d="M512.1 544.536C512.1 545.14 511.921 545.731 511.585 546.234C511.249 546.736 510.772 547.128 510.214 547.36C509.655 547.591 509.041 547.651 508.448 547.533C507.855 547.416 507.31 547.124 506.883 546.697C506.455 546.27 506.164 545.725 506.046 545.132C505.928 544.539 505.989 543.925 506.22 543.366C506.452 542.808 506.843 542.33 507.346 541.995C507.849 541.659 508.439 541.479 509.044 541.479C509.445 541.479 509.843 541.559 510.214 541.712C510.584 541.866 510.921 542.091 511.205 542.375C511.489 542.658 511.714 542.995 511.868 543.366C512.021 543.737 512.1 544.134 512.1 544.536Z" fill="#8C8C8C"/>
<path d="M526.152 25.3623H200.948V354.802H526.152V25.3623Z" fill="#263238" stroke="#263238" stroke-linecap="round" stroke-linejoin="round"/>
<path d="M521.485 18.3618H189.928V348.384H521.485V18.3618Z" fill="white" stroke="#263238" stroke-linecap="round" stroke-linejoin="round"/>
<path d="M521.497 18.3618H512.595V348.384H521.497V18.3618Z" fill="#DEDEDE" stroke="#263238" stroke-linecap="round" stroke-linejoin="round"/>
<path d="M521.497 64.3086H512.595V130.889H521.497V64.3086Z" fill="#B8B8B8" stroke="#263238" stroke-linecap="round" stroke-linejoin="round"/>
<path d="M306.754 18.3618H297.851V348.384H306.754V18.3618Z" fill="#DEDEDE" stroke="#263238" stroke-linecap="round" stroke-linejoin="round"/>
<path d="M306.754 64.3086H297.851V199.371H306.754V64.3086Z" fill="#B8B8B8" stroke="#263238" stroke-linecap="round" stroke-linejoin="round"/>
<path d="M298.143 18.3618H189.928V348.384H298.143V18.3618Z" fill="white" stroke="#263238" stroke-linecap="round" stroke-linejoin="round"/>
<path d="M521.485 18.3618H189.928V47.822H521.485V18.3618Z" fill="#DEDEDE" stroke="#263238" stroke-linecap="round" stroke-linejoin="round"/>
<path d="M296.329 124.231H192.667V180.095H296.329V124.231Z" fill="#2211BB"/>
<path d="M521.485 18.3618H189.928V33.9479H521.485V18.3618Z" fill="#263238" stroke="#263238" stroke-linecap="round" stroke-linejoin="round"/>
<path d="M487.32 26.7701C487.32 26.0477 487.105 25.3415 486.704 24.7409C486.303 24.1403 485.732 23.6721 485.065 23.3957C484.398 23.1193 483.663 23.0469 482.955 23.1879C482.246 23.3288 481.595 23.6766 481.085 24.1874C480.574 24.6982 480.226 25.349 480.085 26.0575C479.944 26.766 480.016 27.5004 480.293 28.1678C480.569 28.8352 481.038 29.4056 481.638 29.8069C482.239 30.2083 482.945 30.4225 483.667 30.4225C484.147 30.4242 484.623 30.3308 485.067 30.1479C485.511 29.9649 485.914 29.6959 486.254 29.3565C486.593 29.017 486.862 28.6137 487.045 28.1698C487.228 27.7259 487.321 27.2502 487.32 26.7701Z" fill="white" stroke="#263238" stroke-linecap="round" stroke-linejoin="round"/>
<path d="M498.391 26.7701C498.391 26.0477 498.177 25.3415 497.775 24.7409C497.374 24.1403 496.804 23.6721 496.136 23.3957C495.469 23.1193 494.735 23.0469 494.026 23.1879C493.318 23.3288 492.667 23.6766 492.156 24.1874C491.645 24.6982 491.297 25.349 491.156 26.0575C491.015 26.766 491.088 27.5004 491.364 28.1678C491.641 28.8352 492.109 29.4056 492.709 29.8069C493.31 30.2083 494.016 30.4225 494.739 30.4225C495.219 30.4242 495.694 30.3308 496.138 30.1479C496.582 29.9649 496.985 29.6959 497.325 29.3565C497.664 29.017 497.933 28.6137 498.116 28.1698C498.299 27.7259 498.393 27.2502 498.391 26.7701Z" fill="white" stroke="#263238" stroke-linecap="round" stroke-linejoin="round"/>
<path d="M509.462 26.7701C509.462 26.0477 509.248 25.3415 508.847 24.7409C508.446 24.1403 507.875 23.6721 507.208 23.3957C506.54 23.1193 505.806 23.0469 505.097 23.1879C504.389 23.3288 503.738 23.6766 503.227 24.1874C502.717 24.6982 502.369 25.349 502.228 26.0575C502.087 26.766 502.159 27.5004 502.436 28.1678C502.712 28.8352 503.18 29.4056 503.781 29.8069C504.381 30.2083 505.088 30.4225 505.81 30.4225C506.29 30.4242 506.766 30.3308 507.21 30.1479C507.654 29.9649 508.057 29.6959 508.396 29.3565C508.736 29.017 509.005 28.6137 509.188 28.1698C509.371 27.7259 509.464 27.2502 509.462 26.7701Z" fill="white" stroke="#263238" stroke-linecap="round" stroke-linejoin="round"/>
<path d="M247.073 79.603L244.968 73.5537H220.009V79.603V109.304V115.353H272.614V79.603H247.073Z" fill="white" stroke="#263238" stroke-linecap="round" stroke-linejoin="round"/>
<path d="M270.293 83.103H222.318V109.494H270.293V83.103Z" fill="white" stroke="#263238" stroke-linecap="round" stroke-linejoin="round"/>
<path d="M272.614 88.9624H220.009V115.354H272.614V88.9624Z" fill="white" stroke="#263238" stroke-linecap="round" stroke-linejoin="round"/>
<path d="M247.073 201.984L244.968 195.947H220.009V201.984V231.698V237.734H272.614V201.984H247.073Z" fill="white" stroke="#263238" stroke-linecap="round" stroke-linejoin="round"/>
<path d="M270.293 205.484H222.318V231.875H270.293V205.484Z" fill="white" stroke="#263238" stroke-linecap="round" stroke-linejoin="round"/>
<path d="M272.614 211.343H220.009V237.734H272.614V211.343Z" fill="white" stroke="#263238" stroke-linecap="round" stroke-linejoin="round"/>
<path d="M247.073 264.442L244.968 258.406H220.009V264.442V294.156V300.193H272.614V264.442H247.073Z" fill="white" stroke="#263238" stroke-linecap="round" stroke-linejoin="round"/>
<path d="M270.293 267.943H222.318V294.334H270.293V267.943Z" fill="white" stroke="#263238" stroke-linecap="round" stroke-linejoin="round"/>
<path d="M272.614 273.802H220.009V300.193H272.614V273.802Z" fill="white" stroke="#263238" stroke-linecap="round" stroke-linejoin="round"/>
<path d="M247.073 137.94L244.968 131.891H220.009V137.94V167.641V173.69H272.614V137.94H247.073Z" fill="#2211BB" stroke="#263238" stroke-linecap="round" stroke-linejoin="round"/>
<path d="M270.293 141.44H222.318V167.832H270.293V141.44Z" fill="white" stroke="#263238" stroke-linecap="round" stroke-linejoin="round"/>
<path d="M272.614 147.299H220.009V173.69H272.614V147.299Z" fill="#2211BB" stroke="#263238" stroke-linecap="round" stroke-linejoin="round"/>
<path d="M366.752 76.1406H318.345V138.308H366.752V76.1406Z" fill="white" stroke="#263238" stroke-linecap="round" stroke-linejoin="round"/>
<path d="M324.826 88.6074H359.841" stroke="#263238" stroke-linecap="round" stroke-linejoin="round"/>
<path d="M324.826 99.4121H359.841" stroke="#263238" stroke-linecap="round" stroke-linejoin="round"/>
<path d="M324.826 110.217H359.841" stroke="#263238" stroke-linecap="round" stroke-linejoin="round"/>
<path d="M324.826 121.022H359.841" stroke="#263238" stroke-linecap="round" stroke-linejoin="round"/>
<path d="M430.796 76.1406H382.389V138.308H430.796V76.1406Z" fill="white" stroke="#263238" stroke-linecap="round" stroke-linejoin="round"/>
<path d="M388.87 88.6074H423.884" stroke="#263238" stroke-linecap="round" stroke-linejoin="round"/>
<path d="M388.87 99.4121H423.884" stroke="#263238" stroke-linecap="round" stroke-linejoin="round"/>
<path d="M388.87 110.217H423.884" stroke="#263238" stroke-linecap="round" stroke-linejoin="round"/>
<path d="M388.87 121.022H423.884" stroke="#263238" stroke-linecap="round" stroke-linejoin="round"/>
<path d="M494.84 76.1406H446.433V138.308H494.84V76.1406Z" fill="white" stroke="#263238" stroke-linecap="round" stroke-linejoin="round"/>
<path d="M452.913 88.6074H487.928" stroke="#263238" stroke-linecap="round" stroke-linejoin="round"/>
<path d="M452.913 99.4121H487.928" stroke="#263238" stroke-linecap="round" stroke-linejoin="round"/>
<path d="M452.913 110.217H487.928" stroke="#263238" stroke-linecap="round" stroke-linejoin="round"/>
<path d="M452.913 121.022H487.928" stroke="#263238" stroke-linecap="round" stroke-linejoin="round"/>
<path d="M319.829 151.814H364.85" stroke="#263238" stroke-linecap="round" stroke-linejoin="round"/>
<path d="M384.507 151.814H429.528" stroke="#263238" stroke-linecap="round" stroke-linejoin="round"/>
<path d="M449.185 151.814H494.206" stroke="#263238" stroke-linecap="round" stroke-linejoin="round"/>
<path d="M366.752 168.719H318.345V230.886H366.752V168.719Z" fill="white" stroke="#263238" stroke-linecap="round" stroke-linejoin="round"/>
<path d="M324.826 181.186H359.841" stroke="#263238" stroke-linecap="round" stroke-linejoin="round"/>
<path d="M324.826 191.99H359.841" stroke="#263238" stroke-linecap="round" stroke-linejoin="round"/>
<path d="M324.826 202.795H359.841" stroke="#263238" stroke-linecap="round" stroke-linejoin="round"/>
<path d="M324.826 213.601H359.841" stroke="#263238" stroke-linecap="round" stroke-linejoin="round"/>
<path d="M430.796 168.719H382.389V230.886H430.796V168.719Z" fill="white" stroke="#263238" stroke-linecap="round" stroke-linejoin="round"/>
<path d="M388.87 181.186H423.884" stroke="#263238" stroke-linecap="round" stroke-linejoin="round"/>
<path d="M388.87 191.99H423.884" stroke="#263238" stroke-linecap="round" stroke-linejoin="round"/>
<path d="M388.87 202.795H423.884" stroke="#263238" stroke-linecap="round" stroke-linejoin="round"/>
<path d="M388.87 213.601H423.884" stroke="#263238" stroke-linecap="round" stroke-linejoin="round"/>
<path d="M494.84 168.719H446.433V230.886H494.84V168.719Z" fill="white" stroke="#263238" stroke-linecap="round" stroke-linejoin="round"/>
<path d="M452.913 181.186H487.928" stroke="#263238" stroke-linecap="round" stroke-linejoin="round"/>
<path d="M452.913 191.99H487.928" stroke="#263238" stroke-linecap="round" stroke-linejoin="round"/>
<path d="M452.913 202.795H487.928" stroke="#263238" stroke-linecap="round" stroke-linejoin="round"/>
<path d="M452.913 213.601H487.928" stroke="#263238" stroke-linecap="round" stroke-linejoin="round"/>
<path d="M319.829 244.393H364.85" stroke="#263238" stroke-linecap="round" stroke-linejoin="round"/>
<path d="M384.507 244.393H429.528" stroke="#263238" stroke-linecap="round" stroke-linejoin="round"/>
<path d="M449.185 244.393H494.206" stroke="#263238" stroke-linecap="round" stroke-linejoin="round"/>
<path d="M366.752 261.297H318.345V323.464H366.752V261.297Z" fill="white" stroke="#263238" stroke-linecap="round" stroke-linejoin="round"/>
<path d="M324.826 273.764H359.841" stroke="#263238" stroke-linecap="round" stroke-linejoin="round"/>
<path d="M324.826 284.569H359.841" stroke="#263238" stroke-linecap="round" stroke-linejoin="round"/>
<path d="M324.826 295.374H359.841" stroke="#263238" stroke-linecap="round" stroke-linejoin="round"/>
<path d="M324.826 306.179H359.841" stroke="#263238" stroke-linecap="round" stroke-linejoin="round"/>
<path d="M430.796 261.297H382.389V323.464H430.796V261.297Z" fill="white" stroke="#263238" stroke-linecap="round" stroke-linejoin="round"/>
<path d="M388.87 273.764H423.884" stroke="#263238" stroke-linecap="round" stroke-linejoin="round"/>
<path d="M388.87 284.569H423.884" stroke="#263238" stroke-linecap="round" stroke-linejoin="round"/>
<path d="M388.87 295.374H423.884" stroke="#263238" stroke-linecap="round" stroke-linejoin="round"/>
<path d="M388.87 306.179H423.884" stroke="#263238" stroke-linecap="round" stroke-linejoin="round"/>
<path d="M494.84 261.297H446.433V323.464H494.84V261.297Z" fill="white" stroke="#263238" stroke-linecap="round" stroke-linejoin="round"/>
<path d="M452.913 273.764H487.928" stroke="#263238" stroke-linecap="round" stroke-linejoin="round"/>
<path d="M452.913 284.569H487.928" stroke="#263238" stroke-linecap="round" stroke-linejoin="round"/>
<path d="M452.913 295.374H487.928" stroke="#263238" stroke-linecap="round" stroke-linejoin="round"/>
<path d="M452.913 306.179H487.928" stroke="#263238" stroke-linecap="round" stroke-linejoin="round"/>
<path d="M319.829 336.971H364.85" stroke="#263238" stroke-linecap="round" stroke-linejoin="round"/>
<path d="M384.507 336.971H429.528" stroke="#263238" stroke-linecap="round" stroke-linejoin="round"/>
<path d="M449.185 336.971H494.206" stroke="#263238" stroke-linecap="round" stroke-linejoin="round"/>
<path d="M387.677 37.6763H248.81V44.0172H387.677V37.6763Z" fill="white" stroke="#263238" stroke-linecap="round" stroke-linejoin="round"/>
<path d="M439.039 37.6763H397.189V44.0172H439.039V37.6763Z" fill="white" stroke="#263238" stroke-linecap="round" stroke-linejoin="round"/>
<path d="M324.356 65.5767H323.215L321.452 57.1051V65.5767H320.425V54.9238H322.086L323.824 63.4334L325.523 54.9238H327.172V65.5767H326.056V57.0164L324.356 65.5767Z" fill="#263238"/>
<path d="M330.279 61.7721L328.034 54.9365H329.302L330.964 60.1742L332.638 54.9365H333.779L331.458 61.7721V65.5767H330.279V61.7721Z" fill="#263238"/>
<path d="M340.564 59.8825V60.9731H338.116V65.5767H336.937V54.9238H341.16V56.0145H338.116V59.8825H340.564Z" fill="#263238"/>
<path d="M343.291 54.9238V65.5767H342.111V54.9238H343.291Z" fill="#263238"/>
<path d="M344.508 65.5767V54.9238H345.7V64.4987H348.744V65.5767H344.508Z" fill="#263238"/>
<path d="M353.424 59.6415V60.7068H350.824V64.5114H354.07V65.5767H349.695V54.9238H354.07V56.0145H350.875V59.6415H353.424Z" fill="#263238"/>
<path d="M359.726 57.4854V57.7771H358.598V57.422C358.598 56.4709 358.243 55.9002 357.33 55.9002C356.416 55.9002 356.061 56.4709 356.061 57.4093C356.061 59.7935 359.638 60.0218 359.638 63.0274C359.638 64.6381 358.864 65.678 357.241 65.678C355.617 65.678 354.857 64.6381 354.857 63.0274V62.4187H355.96V63.0401C355.96 64.004 356.353 64.562 357.228 64.562C358.103 64.562 358.496 64.004 358.496 63.0401C358.496 60.6686 354.933 60.5037 354.933 57.4474C354.933 55.7987 355.694 54.7842 357.292 54.7842C358.889 54.7842 359.726 55.8748 359.726 57.4854Z" fill="#263238"/>
<path d="M192.489 226.637L228.874 183.709C228.874 183.709 229.242 173.88 228.519 172.067C227.796 170.253 230.332 162.606 231.055 160.057C231.778 157.508 229.609 153.145 232.146 153.145C234.682 153.145 235.43 160.057 235.43 161.148V162.238C235.43 162.238 241.607 146.956 242.342 145.511C243.078 144.065 245.246 142.594 245.982 145.511C246.717 148.428 242.342 159.423 242.342 159.423C243.273 159.229 244.239 159.295 245.134 159.615C246.029 159.935 246.818 160.496 247.415 161.236C249.241 163.773 250.687 162.695 251.422 164.521C251.851 165.589 252.215 166.682 252.513 167.793C252.513 167.793 257.243 169.974 257.586 171.433C257.928 172.891 249.977 172.523 249.977 172.523C249.977 172.523 242.367 184.888 239.425 186.347C237.484 187.364 235.656 188.584 233.972 189.986C233.972 189.986 212.146 239.091 208.139 245.647C204.131 252.204 191.399 247.829 191.399 247.829L192.489 226.637Z" fill="white" stroke="#263238" stroke-linecap="round" stroke-linejoin="round"/>
<path d="M60.0644 407.482L65.1372 439.187C65.1372 439.187 52.0367 469.015 55.6764 484.297C59.3162 499.578 71.3133 548.328 71.3133 548.328C71.3133 548.328 69.4998 567.972 70.5904 569.798C71.6811 571.624 80.0512 571.244 82.2325 570.521C84.4138 569.798 87.3052 568.34 87.3052 562.519C87.3052 556.698 84.0206 547.237 84.0206 543.242C84.0206 539.247 83.6655 496.319 90.5772 469.383C94.8388 452.261 96.6744 434.626 96.0304 416.993C96.0812 415.116 60.0644 407.482 60.0644 407.482Z" fill="white" stroke="#263238" stroke-linecap="round" stroke-linejoin="round"/>
<path d="M70.6286 557.37C70.2735 562.773 70.0325 568.784 70.6286 569.748C71.7192 571.561 80.0893 571.193 82.2706 570.471C84.4519 569.748 87.3434 568.289 87.3434 562.468C87.2642 560.128 86.9584 557.8 86.4303 555.519C84.0768 556.926 81.4517 557.819 78.7279 558.138C76.0042 558.458 73.2437 558.196 70.6286 557.37Z" fill="#263238" stroke="#263238" stroke-linecap="round" stroke-linejoin="round"/>
<path d="M82.2577 570.47C83.2588 570.211 84.1836 569.717 84.9556 569.029C85.7275 568.341 86.3243 567.478 86.6964 566.514C81.2657 567.32 75.7645 567.545 70.286 567.186C70.238 568.044 70.3498 568.904 70.6157 569.722C71.7063 571.586 80.1398 571.193 82.2577 570.47Z" fill="white" stroke="#263238" stroke-linecap="round" stroke-linejoin="round"/>
<path d="M133.188 412.58L144.108 431.857C144.108 431.857 144.831 458.058 153.936 479.148C163.042 500.238 187.404 544.638 187.759 546.096C188.114 547.554 187.759 553.375 187.759 558.778C187.759 564.18 188.494 569.329 190.676 569.697C192.857 570.065 200.137 571.878 209.229 573.337C218.322 574.795 221.594 572.601 222.33 570.8C223.066 569 214.721 563.191 210.688 558.423C206.655 553.654 200.542 545.741 198.006 537.333C195.47 528.925 188.545 473.289 184.906 462.015C181.266 450.74 175.813 429.27 175.813 429.27L172.173 403.082L133.188 412.58Z" fill="white" stroke="#263238" stroke-linecap="round" stroke-linejoin="round"/>
<path d="M222.33 570.838C222.622 570.09 221.392 568.67 219.553 566.932C214.087 569.557 205.501 563.483 198.678 558.055C197.206 556.779 195.452 555.871 193.56 555.408C191.667 554.945 189.692 554.939 187.797 555.392C187.797 556.508 187.797 557.649 187.797 558.778C187.797 564.231 188.533 569.329 190.714 569.697C192.895 570.065 200.175 571.878 209.268 573.337C218.361 574.795 221.595 572.652 222.33 570.838Z" fill="#263238" stroke="#263238" stroke-linecap="round" stroke-linejoin="round"/>
<path d="M221.265 572.195C215.558 574.466 209.471 570.357 202.318 567.567C197.747 565.854 192.956 564.799 188.089 564.434C188.495 567.364 189.294 569.507 190.625 569.748C192.806 570.103 200.086 571.929 209.179 573.388C216.065 574.478 219.641 573.514 221.265 572.195Z" fill="white" stroke="#263238" stroke-linecap="round" stroke-linejoin="round"/>
<path d="M77.1596 279.788C77.1596 279.788 57.5152 306.699 54.9662 327.079C52.4171 347.459 56.7924 412.935 56.7924 412.935C56.7924 412.935 65.1625 419.492 100.444 422.028C135.725 424.565 175.762 407.482 175.762 407.482C175.762 407.482 164.843 345.265 158.654 326.711C152.465 308.157 138.287 280.878 138.287 280.878L77.1596 279.788Z" fill="#263238" stroke="#263238" stroke-linecap="round" stroke-linejoin="round"/>
<path d="M95.8276 356.691C106.062 366.481 122.029 380.787 134.799 388.13" stroke="#878787" stroke-linecap="round" stroke-linejoin="round"/>
<path d="M85.5298 346.482C85.5298 346.482 87.2672 348.295 90.1967 351.2" stroke="#878787" stroke-linecap="round" stroke-linejoin="round"/>
<path d="M106.645 372.29C106.645 372.29 125.998 389.296 133.632 393.405" stroke="#878787" stroke-linecap="round" stroke-linejoin="round"/>
<path d="M82.6763 180.817C82.6763 180.817 53.5078 198.28 54.9663 201.565C56.4247 204.85 77.1597 279.787 77.1597 279.787C77.1597 279.787 84.0713 284.15 105.542 284.15C127.012 284.15 138.287 280.878 138.287 280.878L152.11 235.756L186.351 251.037C186.351 251.037 188.888 240.486 188.888 236.491C188.888 232.496 186.351 223.809 186.351 223.809C186.351 223.809 151.78 196.518 148.153 193.613C144.526 190.709 125.592 183.062 125.592 183.062L82.6763 180.817Z" fill="white" stroke="#263238" stroke-linecap="round" stroke-linejoin="round"/>
<path d="M113.975 247.385C115.264 249.091 116.703 250.679 118.275 252.128" stroke="#263238" stroke-linecap="round" stroke-linejoin="round"/>
<path d="M98.6301 216.847C98.6301 216.847 103.83 232.002 111.223 243.479" stroke="#263238" stroke-linecap="round" stroke-linejoin="round"/>
<path d="M103.361 241.222C103.361 241.222 111.731 253.904 118.275 258.685" stroke="#263238" stroke-linecap="round" stroke-linejoin="round"/>
<path d="M152.11 235.756L139.377 230.67" stroke="#263238" stroke-linecap="round" stroke-linejoin="round"/>
<path d="M135.738 118.245C136.481 123.528 137.574 128.756 139.01 133.894C140.836 139.348 145.921 140.07 145.921 142.987C145.921 145.904 139.745 151.713 139.745 151.713C139.745 151.713 137.209 167.73 134.672 169.543C132.136 171.357 121.99 167.007 121.99 167.007L119.454 178.294L100.9 177.926C100.9 177.926 101.991 166.284 99.442 159.74C96.8929 153.196 94.7116 148.453 94.7116 148.453C94.7116 148.453 88.1677 126.995 105.999 120.084C123.829 113.172 135.738 118.245 135.738 118.245Z" fill="white" stroke="#263238" stroke-linecap="round" stroke-linejoin="round"/>
<path d="M122.282 141.161C122.282 141.161 122.637 138.98 126.277 135.708C129.917 132.436 128.458 128.428 128.813 123.698C129.168 118.967 132.821 120.071 135.002 120.426C137.183 120.781 143.004 117.154 135.002 106.97C127 96.7867 101.522 97.1418 93.8873 102.608C86.2527 108.074 73.1523 115.696 82.9681 134.617C92.7839 153.538 98.2626 159.727 101.902 161.959C105.542 164.191 115.003 157.229 117.121 155.403C119.239 153.577 122.282 141.161 122.282 141.161Z" fill="#263238" stroke="#263238" stroke-linecap="round" stroke-linejoin="round"/>
<path d="M97.8946 109.875C97.8946 109.875 94.9777 120.02 88.0661 123.343C81.1544 126.666 68.7895 128.796 64.4142 121.884C60.0389 114.973 60.0516 96.7868 71.6937 91.6887C83.3357 86.5905 93.8871 93.1471 96.4362 99.2978C98.9852 105.449 97.8946 109.875 97.8946 109.875Z" fill="#263238" stroke="#263238" stroke-linecap="round" stroke-linejoin="round"/>
<path d="M125.186 144.078C125.186 144.078 118.642 130.622 118.642 137.889C118.642 145.156 119.733 152.448 120.824 153.539C121.914 154.629 124.818 152.08 124.818 152.08" fill="white"/>
<path d="M125.186 144.078C125.186 144.078 118.642 130.622 118.642 137.889C118.642 145.156 119.733 152.448 120.824 153.539C121.914 154.629 124.818 152.08 124.818 152.08" stroke="#263238" stroke-linecap="round" stroke-linejoin="round"/>
<path d="M137.272 136.316C137.272 137.585 136.892 138.713 136.41 138.713C135.928 138.713 135.535 137.635 135.535 136.316C135.535 134.997 135.928 133.919 136.41 133.919C136.892 133.919 137.272 134.985 137.272 136.316Z" fill="#263238"/>
<path d="M134.672 131.954C134.672 131.954 135.332 129.342 137.285 130.204" stroke="#263238" stroke-linecap="round" stroke-linejoin="round"/>
<path d="M129.194 184.102L80.0764 182.644L89.5372 173.183L125.186 174.997L129.194 184.102Z" fill="white" stroke="#263238" stroke-linecap="round" stroke-linejoin="round"/>
<path d="M42.2336 271.024C42.2336 271.024 35.7531 277.961 34.9668 292.584C34.1805 307.206 30.5916 350.426 30.5916 355.157C30.5916 359.887 30.5916 375.892 31.6822 378.073C32.7729 380.254 40.0523 383.539 40.0523 383.539L39.6972 377.35V368.549C39.6972 368.549 41.5107 374.737 42.9691 373.279C44.4276 371.821 42.6014 366.012 42.6014 363.818C42.6014 361.624 43.3242 355.816 42.6014 351.821C41.8648 348.498 40.8943 345.23 39.6972 342.043C39.6972 342.043 51.3392 308.208 53.8756 299.838C55.6435 293.73 57.1038 287.538 58.2509 281.284L42.2336 271.024Z" fill="white" stroke="#263238" stroke-linecap="round" stroke-linejoin="round"/>
<path d="M54.9663 201.565L42.2336 271.049L60.4322 280.51L70.9836 257.226L54.9663 201.565Z" fill="white" stroke="#263238" stroke-linecap="round" stroke-linejoin="round"/>
<path d="M60.0898 239.104L70.9836 257.227L55.1438 240.651" stroke="#263238" stroke-linecap="round" stroke-linejoin="round"/>
<path d="M55.1438 230.898L58.1241 235.857" stroke="#263238" stroke-linecap="round" stroke-linejoin="round"/>
<path d="M42.6013 257.594L68.0667 271.418L60.0644 284.505L40.0522 273.599L42.6013 257.594Z" fill="white" stroke="#263238" stroke-linecap="round" stroke-linejoin="round"/>
<path d="M184.855 220.842L177.575 253.219H195.774L193.948 225.572L184.855 220.842Z" fill="white" stroke="#263238" stroke-linecap="round" stroke-linejoin="round"/>
</svg>
