<svg width="24" height="24" viewBox="0 0 24 24" fill="none" xmlns="http://www.w3.org/2000/svg">
<path d="M0.800049 6.32111C1.99466 6.33713 3.18926 6.35635 4.38387 6.36818C5.04776 6.37484 5.7119 6.36942 6.42518 6.36942C9.08823 9.2998 11.3413 12.4599 12.1403 16.476C12.4109 15.5697 12.6234 14.6408 12.9688 13.763C13.3222 12.8651 13.7612 11.9918 14.2452 11.1543C14.7293 10.3168 15.286 9.51177 15.8663 8.73413C16.4467 7.95649 17.0991 7.23061 17.7435 6.4547H23.2001C22.4269 7.16135 21.5937 7.83498 20.8657 8.60301C18.1413 11.4821 16.2357 14.8017 15.4229 18.6956C15.1124 20.1838 14.8435 21.6711 15.0056 23.2H9.25956C9.41144 21.9639 9.20968 20.7544 9.00443 19.5408C8.53631 16.775 7.54496 14.2084 5.95706 11.8915C5.15899 10.7286 4.27189 9.61776 3.33691 8.55963C2.6144 7.74156 1.78666 7.00385 0.800049 6.47885V6.32111Z" fill="white"/>
<path d="M15.0056 0.799988C14.7792 1.57023 14.528 2.33457 14.3307 3.11221C13.6207 5.90752 12.9291 8.70728 12.2271 11.5048C12.2176 11.543 12.1627 11.5699 12.0692 11.6594C11.834 10.7289 11.6083 9.83541 11.3821 8.9402C10.7387 6.39736 10.0945 3.85476 9.44956 1.31242C9.40417 1.13692 9.32362 0.970551 9.25952 0.799988H15.0056Z" fill="white"/>
</svg>
