<svg width="100" height="101" viewBox="0 0 100 101" fill="none" xmlns="http://www.w3.org/2000/svg">
<g clip-path="url(#clip0_1982_23137)">
<path d="M52.3438 23.3937C58.8038 23.3937 64.0407 18.1568 64.0407 11.6968C64.0407 5.23685 58.8038 0 52.3438 0C45.8838 0 40.647 5.23685 40.647 11.6968C40.647 18.1568 45.8838 23.3937 52.3438 23.3937Z" fill="#3E8DE3"/>
<path d="M52.3435 100.004C56.2191 100.004 59.3609 96.862 59.3609 92.9865C59.3609 89.1109 56.2191 85.9691 52.3435 85.9691C48.4679 85.9691 45.3262 89.1109 45.3262 92.9865C45.3262 96.862 48.4679 100.004 52.3435 100.004Z" fill="#3E8DE3"/>
<path d="M23.6026 34.1265C29.417 34.1265 34.1305 29.413 34.1305 23.5986C34.1305 17.7842 29.417 13.0707 23.6026 13.0707C17.7882 13.0707 13.0747 17.7842 13.0747 23.5986C13.0747 29.413 17.7882 34.1265 23.6026 34.1265Z" fill="#3E8DE3"/>
<path d="M81.0847 86.9255C84.3147 86.9255 86.9332 84.307 86.9332 81.0771C86.9332 77.8471 84.3147 75.2286 81.0847 75.2286C77.8548 75.2286 75.2363 77.8471 75.2363 81.0771C75.2363 84.307 77.8548 86.9255 81.0847 86.9255Z" fill="#3E8DE3"/>
<path d="M11.697 61.6988C16.8637 61.6988 21.0522 57.5103 21.0522 52.3436C21.0522 47.1769 16.8637 42.9884 11.697 42.9884C6.53026 42.9884 2.3418 47.1769 2.3418 52.3436C2.3418 57.5103 6.53026 61.6988 11.697 61.6988Z" fill="#3E8DE3"/>
<path d="M92.9867 57.0155C95.5691 57.0155 97.6624 54.9221 97.6624 52.3398C97.6624 49.7574 95.5691 47.6641 92.9867 47.6641C90.4044 47.6641 88.311 49.7574 88.311 52.3398C88.311 54.9221 90.4044 57.0155 92.9867 57.0155Z" fill="#3E8DE3"/>
<path d="M17.815 75.2969C14.6157 78.4963 14.6157 83.673 17.815 86.8723C21.0106 90.0717 26.1949 90.0717 29.3904 86.8723C32.5898 83.673 32.5898 78.4963 29.3904 75.2969C26.1949 72.0938 21.0144 72.0634 17.815 75.2969Z" fill="#3E8DE3"/>
<path d="M81.081 27.1053C83.0177 27.1053 84.5878 25.5353 84.5878 23.5986C84.5878 21.6618 83.0177 20.0918 81.081 20.0918C79.1443 20.0918 77.5742 21.6618 77.5742 23.5986C77.5742 25.5353 79.1443 27.1053 81.081 27.1053Z" fill="#3E8DE3"/>
</g>
<defs>
<clipPath id="clip0_1982_23137">
<rect width="100" height="100.004" fill="white"/>
</clipPath>
</defs>
</svg>
