<svg width="263" height="246" viewBox="0 0 263 246" fill="none" xmlns="http://www.w3.org/2000/svg">
<path d="M14.7081 66.4759C15.9778 64.9945 17.44 63.6896 19.0558 62.596L18.4395 57.227L26.8725 54.2715L29.7253 58.836C31.6711 58.6856 33.6282 58.795 35.5451 59.1612L38.9 54.9333L46.9678 58.7961L45.7582 64.0567C47.2412 65.3243 48.5479 66.7845 49.6437 68.3987L55.007 67.7824L57.9625 76.2154L53.398 79.0682C53.5505 81.0118 53.4431 82.9671 53.0785 84.8823L57.3064 88.2429L53.4323 96.2935L48.1717 95.0897C46.9036 96.5727 45.4412 97.8777 43.824 98.9695L44.4402 104.339L36.0072 107.294L33.1544 102.73C31.2105 102.88 29.2553 102.77 27.3404 102.404L23.9854 106.632L15.9005 102.787L17.1101 97.526C15.6271 96.2584 14.3204 94.7981 13.2246 93.184L7.86129 93.8002L4.90576 85.3672L9.47028 82.5144C9.31487 80.5709 9.42235 78.6152 9.78979 76.7004L5.56191 73.3397L9.43604 65.2891L14.6966 66.493L14.7081 66.4759ZM20.5678 75.5764C19.5339 77.7251 19.1604 80.1321 19.4946 82.4931C19.8287 84.8541 20.8555 87.063 22.4451 88.8404C24.0346 90.6178 26.1156 91.8839 28.4247 92.4786C30.7339 93.0734 33.1675 92.97 35.4179 92.1815C37.6683 91.3931 39.6344 89.955 41.0674 88.0492C42.5005 86.1434 43.3363 83.8554 43.469 81.4746C43.6017 79.0937 43.0254 76.727 41.813 74.6737C40.6006 72.6205 38.8065 70.9728 36.6577 69.9392C33.7762 68.5548 30.463 68.3709 27.4461 69.4279C24.4291 70.4849 21.9552 72.6964 20.5678 75.5764Z" fill="#EBEBEB"/>
<path d="M218.862 149.813C220.112 148.354 221.551 147.069 223.141 145.99L222.536 140.701L230.849 137.785L233.673 142.298C235.59 142.147 237.519 142.252 239.408 142.612L242.717 138.447L250.653 142.264L249.467 147.451C250.925 148.701 252.21 150.14 253.29 151.73L258.579 151.125L261.494 159.438L256.981 162.262C257.132 164.179 257.027 166.108 256.667 167.997L260.832 171.306L257.038 179.242L251.829 178.044C250.578 179.502 249.139 180.788 247.55 181.867L248.154 187.156L239.841 190.072L237.017 185.559C235.1 185.71 233.172 185.604 231.283 185.245L227.974 189.41L220.037 185.593L221.224 180.406C219.766 179.156 218.48 177.717 217.401 176.127L212.112 176.732L209.196 168.419L213.709 165.594C213.558 163.678 213.664 161.749 214.023 159.86L209.858 156.551L213.675 148.626L218.862 149.813ZM224.636 158.782C223.616 160.9 223.247 163.273 223.577 165.601C223.906 167.929 224.918 170.107 226.485 171.859C228.052 173.612 230.104 174.86 232.381 175.446C234.657 176.033 237.057 175.931 239.275 175.153C241.494 174.375 243.432 172.957 244.845 171.078C246.257 169.199 247.081 166.943 247.211 164.595C247.341 162.248 246.772 159.915 245.576 157.891C244.38 155.867 242.611 154.243 240.492 153.225C237.652 151.862 234.387 151.681 231.414 152.723C228.441 153.765 226.003 155.944 224.636 158.782Z" fill="#E0E0E0"/>
<path d="M214.246 70.059C215.211 68.9297 216.324 67.9356 217.555 67.1035L217.087 63.0125L223.517 60.7588L225.703 64.2449C227.185 64.1304 228.676 64.2129 230.136 64.4903L232.698 61.2666L238.837 64.2221L237.913 68.2161C239.044 69.1815 240.04 70.2945 240.874 71.5253L244.965 71.0575L247.219 77.4877L243.727 79.673C243.844 81.1551 243.762 82.6462 243.482 84.1063L246.705 86.6681L243.755 92.8074L239.761 91.8831C238.794 93.0141 237.679 94.01 236.446 94.8443L236.92 98.9353L230.49 101.218L228.305 97.7314C226.822 97.8468 225.331 97.7624 223.871 97.4803L221.309 100.704L215.17 97.7542L216.089 93.7602C214.961 92.7933 213.967 91.6804 213.133 90.451L209.042 90.9188L206.783 84.4714L210.269 82.2862C210.154 80.8041 210.237 79.3133 210.514 77.8529L207.291 75.2911L210.252 69.1404L214.246 70.059ZM218.713 76.997C217.924 78.6353 217.639 80.4707 217.893 82.2713C218.147 84.0718 218.93 85.7564 220.142 87.1121C221.354 88.4677 222.94 89.4335 224.701 89.8871C226.462 90.3408 228.318 90.262 230.034 89.6607C231.75 89.0594 233.249 87.9626 234.342 86.5091C235.435 85.0556 236.071 83.3106 236.172 81.4951C236.273 79.6795 235.833 77.8748 234.908 76.3094C233.982 74.744 232.614 73.4881 230.975 72.7007C228.78 71.6494 226.258 71.5113 223.962 72.3167C221.665 73.1221 219.782 74.8052 218.725 76.997H218.713Z" fill="#EBEBEB"/>
<path d="M198.036 40.3442C198.685 39.5836 199.433 38.9138 200.261 38.3529L199.947 35.6028L204.267 34.0908L205.739 36.4358C206.734 36.3545 207.736 36.4102 208.717 36.6013L210.429 34.4332L214.554 36.4187L213.938 39.1118C214.695 39.7637 215.365 40.5117 215.929 41.337L218.673 41.0232L220.191 45.3424L217.852 46.8144C217.927 47.8102 217.872 48.8115 217.686 49.7928L219.854 51.5044L217.869 55.6296L215.17 55.0077C214.522 55.7697 213.774 56.4396 212.945 56.999L213.264 59.7491L208.945 61.2611L207.473 58.9161C206.477 58.9947 205.476 58.9391 204.495 58.7506L202.783 60.9188L198.658 58.9332L199.28 56.2401C198.521 55.5898 197.851 54.8415 197.289 54.0149L194.538 54.3287L193.026 50.0096L195.36 48.5261C195.279 47.5304 195.334 46.5283 195.526 45.5478L193.357 43.8361L195.343 39.7109L198.036 40.3328V40.3442ZM201.037 45.0057C200.508 46.106 200.318 47.3383 200.489 48.5469C200.661 49.7555 201.186 50.8862 202 51.796C202.814 52.7058 203.88 53.3538 205.062 53.6583C206.244 53.9628 207.49 53.91 208.642 53.5065C209.794 53.1031 210.801 52.3671 211.534 51.3917C212.268 50.4163 212.697 49.2452 212.765 48.0264C212.834 46.8076 212.539 45.5958 211.919 44.5443C211.299 43.4928 210.382 42.6487 209.282 42.1187C208.551 41.7664 207.758 41.5617 206.948 41.5161C206.138 41.4706 205.327 41.5852 204.561 41.8533C203.795 42.1215 203.09 42.5379 202.485 43.0788C201.881 43.6197 201.389 44.2745 201.037 45.0057Z" fill="#F5F5F5"/>
<path d="M47.7893 190.066C48.4412 189.308 49.1892 188.639 50.0145 188.075L49.7007 185.325L54.0198 183.812L55.4919 186.158C56.4876 186.082 57.489 186.138 58.4702 186.323L60.1819 184.155L64.3071 186.14L63.6852 188.839C64.4472 189.487 65.1171 190.235 65.6765 191.064L68.4266 190.745L69.9386 195.064L67.6107 196.536C67.6922 197.532 67.6365 198.534 67.4452 199.514L69.6134 201.226L67.6107 205.363L64.9176 204.741C64.2673 205.5 63.519 206.17 62.6924 206.732L63.0062 209.482L58.6871 210.994L57.215 208.649C56.2193 208.731 55.2172 208.675 54.2367 208.484L52.525 210.652L48.3941 208.666L49.016 205.973C48.2554 205.324 47.5856 204.576 47.0247 203.748L44.2746 204.062L42.7683 199.726L45.1133 198.254C45.0349 197.258 45.0905 196.256 45.2788 195.275L43.1106 193.563L45.0962 189.455L47.7893 190.072V190.066ZM50.7962 194.727C50.2685 195.827 50.0787 197.059 50.2506 198.267C50.4226 199.475 50.9486 200.605 51.7622 201.514C52.5758 202.423 53.6406 203.071 54.822 203.375C56.0035 203.68 57.2487 203.627 58.4004 203.225C59.552 202.822 60.5586 202.087 61.2928 201.113C62.0271 200.138 62.4562 198.968 62.526 197.75C62.5957 196.532 62.303 195.321 61.6847 194.269C61.0665 193.217 60.1504 192.372 59.0522 191.84C58.3208 191.486 57.5267 191.28 56.7155 191.234C55.9042 191.187 55.0918 191.301 54.3247 191.57C53.5577 191.838 52.8512 192.255 52.2457 192.797C51.6401 193.339 51.1476 193.995 50.7962 194.727Z" fill="#F5F5F5"/>
<path d="M80.4941 205.072C81.4744 203.931 82.6004 202.924 83.8434 202.076L83.3698 197.94L89.8742 195.657L92.088 199.189C93.5872 199.072 95.0953 199.154 96.5726 199.435L99.163 196.177L105.376 199.155L104.446 203.217C105.59 204.195 106.598 205.321 107.442 206.567L111.578 206.093L113.861 212.598L110.329 214.811C110.444 216.311 110.36 217.819 110.078 219.296L113.342 221.886L110.352 228.1L106.295 227.164C105.319 228.309 104.192 229.317 102.946 230.16L103.419 234.302L96.915 236.584L94.7012 233.058C93.2018 233.173 91.6937 233.089 90.2166 232.807L87.6262 236.071L81.4128 233.081L82.3428 229.024C81.2018 228.042 80.1947 226.914 79.3473 225.669L75.2107 226.148L72.9285 219.644L76.4603 217.43C76.3449 215.929 76.4294 214.419 76.7113 212.94L73.4477 210.355L76.4374 204.142L80.4941 205.072ZM85.013 212.09C84.2151 213.747 83.9266 215.604 84.1842 217.426C84.4417 219.247 85.2336 220.951 86.4598 222.323C87.686 223.694 89.2913 224.671 91.0727 225.13C92.8542 225.589 94.7317 225.509 96.4678 224.901C98.2039 224.293 99.7207 223.183 100.826 221.713C101.932 220.242 102.576 218.477 102.679 216.641C102.781 214.804 102.336 212.978 101.401 211.394C100.465 209.81 99.0807 208.539 97.4228 207.742C95.2005 206.674 92.6449 206.531 90.3178 207.347C87.9907 208.162 86.0826 209.868 85.013 212.09Z" fill="#EBEBEB"/>
<path d="M39.6816 115.813C39.5543 115.873 39.4202 115.917 39.2822 115.944C39.014 116.012 38.626 116.132 38.1068 116.241C36.6586 116.564 35.1881 116.778 33.7078 116.88C28.7953 117.249 23.8648 116.46 19.3124 114.577C14.7601 112.694 10.7129 109.77 7.49604 106.039C6.52511 104.917 5.64013 103.723 4.84862 102.467C4.55763 102.028 4.36935 101.663 4.22671 101.429C4.15076 101.309 4.08583 101.183 4.03271 101.052C4.12739 101.157 4.20971 101.271 4.27806 101.395C4.43782 101.623 4.64322 101.965 4.94562 102.404C8.07071 107.093 12.3724 110.878 17.42 113.381C22.4677 115.884 28.0843 117.018 33.7078 116.669C35.1812 116.574 36.6469 116.384 38.0954 116.098C38.6146 116.012 39.0083 115.904 39.2765 115.853C39.4102 115.829 39.5457 115.815 39.6816 115.813Z" fill="#E0E0E0"/>
<path d="M28.4186 119.967C28.2138 119.988 28.0072 119.988 27.8024 119.967C27.4087 119.967 26.8382 119.927 26.1364 119.847C24.3065 119.653 22.5016 119.27 20.7502 118.706C19.0017 118.131 17.3157 117.382 15.7178 116.469C15.1073 116.115 14.6224 115.807 14.3028 115.579C14.1273 115.472 13.9646 115.346 13.8179 115.202C13.8464 115.157 14.5824 115.625 15.8206 116.281C17.4239 117.135 19.0981 117.849 20.8244 118.415C22.5588 118.978 24.3376 119.394 26.1421 119.658C27.5514 119.847 28.4186 119.915 28.4186 119.967Z" fill="#E0E0E0"/>
<path d="M95.2433 58.6252C100.733 55.3102 106.642 52.7428 112.811 50.9911L116.428 33.6003L145.812 33.0811L150.04 50.3349C156.27 51.8677 162.266 54.226 167.87 57.3472L182.705 47.6133L203.85 68.0281L194.647 83.2051C197.961 88.6978 200.528 94.6076 202.281 100.779L219.666 104.402L220.186 133.78L202.932 138.014C201.398 144.241 199.04 150.235 195.919 155.838L205.653 170.673L185.244 191.812L170.073 182.609C164.58 185.923 158.67 188.49 152.499 190.243L148.882 207.634L119.498 208.147L115.27 190.893C109.04 189.363 103.043 187.005 97.44 183.881L82.6053 193.615L61.4488 173.223L70.6577 158.04C67.3482 152.548 64.7884 146.638 63.0464 140.467L45.627 136.85L45.1135 107.466L62.3674 103.238C63.9002 97.0103 66.2585 91.0157 69.3796 85.4132L59.6458 70.5785L80.0549 49.4391L95.2433 58.6423V58.6252ZM104.127 93.093C98.6829 98.7334 95.0336 105.861 93.6404 113.576C92.2473 121.29 93.1729 129.244 96.3002 136.433C99.4275 143.621 104.616 149.721 111.21 153.96C117.804 158.2 125.507 160.389 133.344 160.251C141.182 160.113 148.803 157.654 155.244 153.185C161.684 148.716 166.655 142.437 169.527 135.143C172.399 127.849 173.044 119.867 171.381 112.207C169.717 104.546 165.819 97.5512 160.179 92.1059C156.434 88.4898 152.014 85.6469 147.17 83.7394C142.326 81.832 137.154 80.8974 131.949 80.989C126.744 81.0807 121.608 82.1968 116.834 84.2736C112.06 86.3505 107.742 89.3473 104.127 93.093Z" fill="#EBEBEB"/>
<path d="M104.127 93.0926C104.127 93.0926 104.697 92.4479 105.924 91.3124C108.992 88.4701 112.501 86.1443 116.314 84.4257C118.21 83.5593 120.174 82.8495 122.185 82.3032C127.103 80.9662 132.231 80.5789 137.294 81.1621C143.444 81.879 149.34 84.0286 154.508 87.4383C158.881 90.3326 162.65 94.0493 165.605 98.3817C166.637 99.9139 167.565 101.513 168.384 103.169C171.841 110.245 173.124 118.187 172.07 125.991C171.798 128.027 171.364 130.038 170.775 132.005C170.193 134.009 169.443 135.959 168.532 137.836C164.82 145.587 158.699 151.928 151.084 155.912C149.239 156.887 147.315 157.706 145.333 158.359C143.388 159.016 141.394 159.52 139.371 159.866C131.607 161.202 123.622 160.21 116.423 157.013C114.742 156.25 113.112 155.379 111.544 154.405C107.111 151.602 103.265 147.965 100.219 143.696C96.639 138.648 94.2939 132.83 93.3717 126.71C92.6128 121.671 92.8219 116.534 93.9879 111.573C94.4622 109.527 95.1034 107.523 95.905 105.582C96.5608 103.963 97.3232 102.388 98.1873 100.869C99.4095 98.7699 100.825 96.7891 102.415 94.9526C103.511 93.7031 104.127 93.0926 104.127 93.0926L103.699 93.5719C103.425 93.8971 102.974 94.3421 102.455 94.9869C100.899 96.8374 99.5105 98.8233 98.3071 100.921C97.442 102.437 96.6796 104.01 96.0249 105.628C95.2385 107.55 94.6089 109.532 94.142 111.556C92.9958 116.495 92.8021 121.607 93.5714 126.619C94.507 132.701 96.8517 138.481 100.418 143.496C102.401 146.279 104.734 148.793 107.362 150.976C108.732 152.119 110.177 153.169 111.687 154.12C113.246 155.086 114.866 155.95 116.537 156.705C125.601 160.733 135.846 161.222 145.253 158.074C147.219 157.422 149.128 156.607 150.959 155.638C158.516 151.681 164.59 145.387 168.275 137.694C169.182 135.832 169.928 133.896 170.506 131.908C171.09 129.956 171.52 127.96 171.79 125.94C172.838 118.192 171.572 110.307 168.15 103.277C167.337 101.634 166.416 100.046 165.394 98.5244C164.395 97.0451 163.295 95.6362 162.102 94.3079C159.828 91.7588 157.233 89.5149 154.382 87.6323C149.244 84.2351 143.382 82.0858 137.265 81.3561C132.229 80.7676 127.127 81.1413 122.231 82.4573C120.223 82.9917 118.263 83.6921 116.371 84.5512C112.563 86.2493 109.05 88.5432 105.964 91.3467C105.336 91.8887 104.909 92.3566 104.595 92.6419L104.127 93.0926Z" fill="#263238"/>
<path d="M95.2432 58.6249L80.032 49.4616H80.089C74.9026 54.8535 68.0273 61.9855 59.7028 70.6239V70.5326L69.448 85.3673L69.4765 85.4129L69.448 85.4585C66.3479 91.0584 64.0034 97.0444 62.4757 103.26V103.317H62.4187L45.1705 107.551L45.2504 107.448C45.4158 116.697 45.5927 126.516 45.7753 136.832L45.684 136.718L63.0463 140.347H63.1147V140.415C64.8673 146.575 67.4327 152.473 70.7432 157.954L70.7831 158.023L70.7432 158.091L61.5628 173.291V173.126L82.7079 193.535H82.5368L97.3714 183.801L97.4399 183.75L97.5141 183.795C103.111 186.903 109.095 189.255 115.31 190.79H115.396V190.87C116.725 196.279 118.169 202.173 119.629 208.124L119.487 208.016L148.865 207.497L148.722 207.616C149.863 202.122 151.101 196.205 152.345 190.226V190.134H152.431C158.583 188.385 164.475 185.825 169.953 182.523L170.033 182.472L170.107 182.523L185.29 191.726H185.107L205.516 170.587V170.769L195.788 155.935L195.737 155.86L195.782 155.781C198.915 150.187 201.287 144.2 202.835 137.979V137.893H202.92L220.174 133.666L220.066 133.808C219.891 123.778 219.719 113.983 219.552 104.424L219.66 104.555L202.264 100.909H202.184V100.835C200.44 94.6732 197.878 88.7725 194.567 83.2904L194.527 83.2219L194.567 83.1592L203.776 67.9822V68.1305L182.665 47.7157H182.802L167.967 57.4438L167.916 57.4781L167.859 57.4495C162.263 54.3307 156.277 51.9724 150.057 50.4373H150V50.3802C148.471 44.104 147.09 38.4612 145.784 33.1264L145.869 33.1948L116.485 33.6855L116.554 33.6342C115.093 40.6008 113.901 46.3007 112.914 51.0193C108.273 52.3292 103.775 54.1012 99.4882 56.3084C98.0732 57.033 97.0405 57.6264 96.3558 58.0201C95.6712 58.4138 95.3345 58.5907 95.3345 58.5907L96.3444 57.9802C97.0234 57.5808 98.0561 56.9817 99.4654 56.2685C103.747 54.0366 108.246 52.2472 112.891 50.928L112.857 50.9622C113.832 46.2379 115.013 40.538 116.457 33.5657V33.5144H116.508L145.892 32.978H145.961V33.0465C147.267 38.3756 148.659 44.0242 150.2 50.2947L150.126 50.2205C156.364 51.757 162.369 54.1171 167.984 57.2384H167.876C172.595 54.1346 177.496 50.9223 182.711 47.4989L182.791 47.4475L182.853 47.5103L203.976 67.9251L204.044 67.9936L203.993 68.0792L194.767 83.2733V83.142C198.09 88.6424 200.663 94.562 202.418 100.744L202.315 100.653L219.706 104.264H219.815V104.373C219.986 113.924 220.161 123.719 220.339 133.757V133.871H220.231L202.977 138.105L203.086 138.002C201.549 144.241 199.184 150.247 196.056 155.86V155.712C199.267 160.611 202.511 165.556 205.79 170.547L205.859 170.644L205.773 170.729L185.364 191.84L185.284 191.926L185.181 191.863L169.999 182.66H170.153C164.654 185.975 158.738 188.544 152.562 190.3L152.671 190.186C151.427 196.159 150.189 202.088 149.047 207.576V207.691H148.928L119.549 208.204H119.429L119.401 208.09C117.946 202.139 116.497 196.245 115.173 190.836L115.281 190.944C109.042 189.402 103.035 187.038 97.4171 183.915H97.5654L82.7308 193.649L82.6395 193.706L82.5596 193.632L61.4487 173.211L61.3745 173.143L61.4316 173.052L70.6348 157.869V158.006C67.3172 152.502 64.7479 146.581 62.9949 140.398L63.0862 140.484L45.6041 136.963H45.5128V136.866C45.336 126.556 45.1648 116.737 45.0107 107.488V107.402H45.0963L62.3502 103.18L62.276 103.254C63.8205 97.0057 66.1901 90.9904 69.3225 85.3673V85.4585L59.6229 70.6239L59.5887 70.5725L59.6343 70.5326L80.0605 49.4217H80.089H80.1233L95.2432 58.6249Z" fill="#263238"/>
<path d="M109.016 31.1008C112.44 26.9072 117.82 24.6706 123.195 24.0372C125.477 23.7691 126.904 24.1627 129.1 24.7561C131.304 25.2809 133.25 26.5684 134.595 28.3906C136.153 30.5987 137.448 33.075 137.756 35.768C138.145 38.5208 138.279 41.3037 138.155 44.0812C138.028 46.8721 137.132 49.5735 135.565 51.8865L128.513 53.0904C124.621 53.2216 120.673 53.3528 116.879 52.4627C113.085 51.5727 109.399 49.5357 107.368 46.1865C104.549 41.6163 105.593 35.2888 109.016 31.1008Z" fill="#263238"/>
<path d="M133.226 55.9887C133.226 55.9887 133.34 56.1599 133.648 56.3596C134.089 56.6274 134.584 56.7949 135.097 56.8503C135.874 56.9352 136.658 56.7756 137.339 56.3938C138.167 55.8923 138.769 55.0916 139.022 54.1579C139.275 53.2242 139.158 52.2289 138.697 51.3786C138.299 50.7048 137.701 50.1722 136.986 49.8551C136.515 49.6414 136.002 49.5361 135.485 49.547C135.289 49.5317 135.092 49.5692 134.914 49.6554C135.579 49.6893 136.231 49.848 136.837 50.1233C137.467 50.4487 137.988 50.9502 138.338 51.5668C138.728 52.3337 138.819 53.2181 138.595 54.0486C138.37 54.8792 137.846 55.5969 137.123 56.0629C136.51 56.4168 135.809 56.5872 135.103 56.5536C134.447 56.4838 133.811 56.2922 133.226 55.9887Z" fill="#2211BB"/>
<path d="M102.312 50.734C102.377 49.93 102.626 49.1516 103.039 48.4591C103.453 47.7665 104.02 47.1784 104.697 46.7401C105.384 46.324 106.185 46.1368 106.985 46.2056C107.785 46.2743 108.542 46.5953 109.148 47.1223L110.26 48.446C111.114 48.8444 111.823 49.4969 112.29 50.3141C112.758 51.1313 112.962 52.0731 112.874 53.0106C112.745 53.9492 112.352 54.8317 111.739 55.5544C111.127 56.277 110.321 56.8098 109.416 57.0901C108.504 57.3462 107.542 57.3637 106.622 57.1409C105.702 56.9181 104.854 56.4625 104.161 55.8177C103.488 55.166 102.971 54.3697 102.651 53.4889C102.331 52.6082 102.215 51.6661 102.312 50.734Z" fill="#263238"/>
<path d="M103.71 55.4867C103.44 55.0704 103.308 54.5791 103.334 54.0832C103.391 53.1817 104.047 52.0006 104.943 50.9165C105.729 49.9814 106.688 49.2065 107.767 48.6343C108.594 48.1892 109.165 48.0295 109.148 47.9724C108.629 48.0176 108.124 48.1671 107.664 48.4117C106.512 48.9408 105.493 49.7205 104.68 50.694C104.229 51.2143 103.846 51.7894 103.539 52.4057C103.266 52.9143 103.112 53.478 103.088 54.0546C103.074 54.4581 103.184 54.8563 103.402 55.1958C103.556 55.424 103.699 55.5039 103.71 55.4867Z" fill="#455A64"/>
<path d="M107.122 57.5695C107.237 57.5695 106.757 55.4298 107.436 52.9136C108.115 50.3975 109.542 48.7656 109.445 48.7029C109.068 48.9872 108.75 49.3418 108.509 49.747C107.865 50.6849 107.388 51.7273 107.1 52.8281C106.81 53.9271 106.716 55.0684 106.82 56.2001C106.833 56.6716 106.936 57.1362 107.122 57.5695Z" fill="#455A64"/>
<path d="M128.513 64.553C128.467 62.0767 128.41 60.0512 128.41 60.0626C128.41 60.0741 134.161 59.4293 135.747 52.0747C136.535 48.4117 136.683 42.3409 136.643 37.3713C136.609 32.8924 132.798 26.7987 127.275 26.7816L124.815 26.4963L115.418 30.2335C114.764 30.2661 114.145 30.5434 113.686 31.0105C113.226 31.4776 112.958 32.1004 112.936 32.7554L112.902 64.707L122.288 88.1002L128.256 77.4363L128.513 64.553Z" fill="#A8605D"/>
<path d="M124.696 50.3403C124.737 50.0728 124.846 49.8202 125.011 49.606C125.177 49.3919 125.394 49.2231 125.642 49.1154C125.891 49.0078 126.162 48.9647 126.432 48.9903C126.701 49.016 126.96 49.1094 127.183 49.2619C127.486 49.495 127.721 49.8044 127.864 50.1583C128.008 50.5123 128.054 50.8981 127.999 51.276C127.837 51.5028 127.629 51.6924 127.388 51.8321C127.147 51.9718 126.879 52.0584 126.601 52.0862C126.514 52.0919 126.426 52.0919 126.339 52.0862C125.9 52.0875 125.477 51.92 125.158 51.6183C124.989 51.4546 124.859 51.2543 124.779 51.0328C124.699 50.8113 124.67 50.5744 124.696 50.3403Z" fill="#844949"/>
<path d="M134.475 43.1568C134.465 43.4056 134.358 43.6403 134.176 43.8109C133.995 43.9815 133.754 44.0744 133.505 44.0697C133.384 44.0728 133.262 44.0514 133.149 44.0069C133.036 43.9624 132.932 43.8956 132.845 43.8106C132.758 43.7255 132.688 43.6238 132.641 43.5115C132.594 43.3993 132.57 43.2787 132.57 43.1568C132.58 42.9081 132.687 42.6734 132.869 42.5028C133.05 42.3321 133.291 42.2392 133.54 42.2439C133.661 42.2409 133.782 42.2623 133.896 42.3068C134.009 42.3513 134.113 42.418 134.2 42.5031C134.287 42.5882 134.356 42.6899 134.404 42.8021C134.451 42.9144 134.475 43.035 134.475 43.1568Z" fill="#263238"/>
<path d="M134.812 40.1159C134.692 40.2357 133.996 39.6594 132.969 39.6081C131.942 39.5567 131.166 40.0246 131.063 39.8934C130.961 39.7621 131.143 39.6195 131.48 39.397C131.941 39.1118 132.479 38.9782 133.02 39.0147C133.555 39.046 134.066 39.2457 134.481 39.5853C134.783 39.8363 134.875 40.0645 134.812 40.1159Z" fill="#263238"/>
<path d="M128.37 47.8867C128.921 47.7485 129.486 47.6776 130.053 47.6755C130.316 47.6755 130.567 47.6242 130.624 47.453C130.662 47.1833 130.616 46.9085 130.493 46.6656C130.283 46.0152 130.061 45.3362 129.825 44.6287C128.906 41.7303 128.256 39.351 128.376 39.3168C128.496 39.2825 129.334 41.599 130.253 44.4975L130.881 46.5458C131.031 46.869 131.06 47.236 130.96 47.5786C130.918 47.6693 130.856 47.7491 130.777 47.8115C130.699 47.8739 130.608 47.9172 130.51 47.938C130.364 47.972 130.214 47.9855 130.065 47.9779C129.498 48.0199 128.929 47.9892 128.37 47.8867Z" fill="#263238"/>
<path d="M128.41 60.0629C124.907 59.9258 121.511 58.8176 118.602 56.8621C118.602 56.8621 120.97 62.1626 128.45 61.8716L128.41 60.0629Z" fill="#844949"/>
<path d="M125.312 48.4288C125.477 48.4288 125.42 49.5699 126.328 50.3858C127.235 51.2017 128.427 51.1732 128.433 51.3273C128.433 51.3957 128.153 51.527 127.651 51.5156C126.998 51.4886 126.376 51.232 125.894 50.7909C125.431 50.3693 125.151 49.784 125.112 49.1591C125.095 48.6913 125.238 48.4231 125.312 48.4288Z" fill="#263238"/>
<path d="M134.566 36.4301C134.372 36.6526 133.676 36.3731 132.855 36.316C132.033 36.2589 131.274 36.3845 131.143 36.1334C131.08 36.0079 131.206 35.7797 131.531 35.5629C131.969 35.3229 132.468 35.2176 132.965 35.2602C133.463 35.3029 133.936 35.4915 134.327 35.8025C134.566 36.0764 134.652 36.3217 134.566 36.4301Z" fill="#263238"/>
<path d="M123.201 42.6664C123.194 42.9153 123.286 43.1568 123.455 43.3391C123.625 43.5214 123.859 43.6302 124.108 43.642C124.229 43.6538 124.351 43.6413 124.467 43.6053C124.583 43.5693 124.69 43.5105 124.783 43.4324C124.876 43.3543 124.953 43.2584 125.008 43.1504C125.064 43.0424 125.097 42.9244 125.106 42.8033C125.113 42.5538 125.021 42.3117 124.852 42.1284C124.683 41.9452 124.448 41.8352 124.199 41.8219C124.078 41.8094 123.955 41.8215 123.838 41.8575C123.722 41.8936 123.614 41.9528 123.52 42.0316C123.427 42.1105 123.351 42.2074 123.296 42.3164C123.241 42.4255 123.209 42.5445 123.201 42.6664Z" fill="#263238"/>
<path d="M120.759 39.7507C120.873 39.8763 121.609 39.3513 122.636 39.3742C123.663 39.397 124.405 39.9447 124.519 39.7964C124.633 39.648 124.456 39.5168 124.131 39.2715C123.695 38.954 123.17 38.7805 122.63 38.7751C122.095 38.7654 121.569 38.9252 121.13 39.2315C120.81 39.4712 120.702 39.6937 120.759 39.7507Z" fill="#263238"/>
<path d="M121.495 37.6853C121.672 37.9249 122.385 37.6853 123.235 37.6853C124.085 37.6853 124.804 37.8679 124.947 37.6282C125.027 37.5084 124.913 37.2745 124.604 37.0577C124.187 36.7818 123.695 36.6404 123.195 36.6526C122.698 36.6608 122.216 36.8222 121.814 37.1147C121.518 37.3544 121.415 37.594 121.495 37.6853Z" fill="#263238"/>
<path d="M112.925 43.2426L114.209 44.5777C119.766 39.2544 130.63 25.9374 130.025 26.7305C127.491 25.7821 124.76 25.4858 122.082 25.8689C117.952 26.5707 110.101 28.6362 110.232 33.5145C110.363 38.3928 112.925 43.2426 112.925 43.2426Z" fill="#263238"/>
<path d="M109.205 47.4531C109.247 47.0629 109.264 46.6703 109.256 46.2778C109.303 45.2137 109.444 44.1558 109.678 43.1169C110.5 39.6882 112.145 36.5116 114.471 33.8623C116.822 31.2361 119.562 28.9865 122.596 27.1924C123.737 26.4849 124.707 25.9543 125.369 25.5891C125.723 25.4243 126.064 25.2336 126.39 25.0186C126.29 25.0365 126.194 25.0713 126.105 25.1213C125.922 25.2068 125.648 25.321 125.306 25.4921C124.621 25.8173 123.646 26.3251 122.453 27.0041C119.353 28.7531 116.562 31.0008 114.192 33.6569C111.826 36.3446 110.185 39.5904 109.422 43.0883C109.206 44.1435 109.099 45.218 109.102 46.2949C109.102 46.6772 109.136 46.9739 109.148 47.1736C109.155 47.2688 109.174 47.3627 109.205 47.4531Z" fill="#455A64"/>
<path d="M123.201 24.699C123.098 24.7159 122.998 24.7486 122.904 24.796C122.716 24.8644 122.436 24.9843 122.088 25.144C121.381 25.4578 120.377 25.9428 119.167 26.6161C117.753 27.4051 116.383 28.2717 115.065 29.2121C113.422 30.3397 111.919 31.6573 110.586 33.1376C109.898 33.9241 109.322 34.8015 108.874 35.7451C108.472 36.6274 108.192 37.5603 108.041 38.518C107.805 40.1318 107.805 41.7712 108.041 43.385C108.191 44.4656 108.397 45.5378 108.657 46.5972C108.743 46.9738 108.823 47.2591 108.874 47.4588C108.893 47.5604 108.928 47.6585 108.977 47.7498C108.943 47.352 108.88 46.9573 108.788 46.5687C108.651 45.8099 108.44 44.7144 108.286 43.3507C108.084 41.762 108.103 40.1529 108.343 38.5694C108.498 37.6425 108.776 36.7406 109.171 35.8877C109.603 34.9741 110.158 34.1237 110.82 33.3601C112.133 31.9011 113.609 30.5974 115.219 29.4746C116.529 28.5297 117.887 27.6519 119.287 26.8443C120.474 26.1482 121.461 25.6347 122.14 25.281C122.505 25.1085 122.859 24.9142 123.201 24.699Z" fill="#455A64"/>
<path d="M112.822 43.3907C113.062 43.1966 113.284 42.9807 113.484 42.746L115.196 40.9145C116.628 39.3625 118.585 37.1944 120.736 34.7923C122.887 32.3902 124.816 30.1936 126.202 28.596L127.828 26.6903C128.041 26.4659 128.233 26.2213 128.399 25.96C128.159 26.15 127.939 26.3641 127.743 26.599L126.031 28.4305C124.599 29.9881 122.607 32.1506 120.491 34.5584C118.374 36.9661 116.405 39.1571 115.025 40.7547L113.399 42.6604C113.183 42.884 112.989 43.1286 112.822 43.3907Z" fill="#455A64"/>
<path d="M114.02 45.3879C114.02 44.8173 113.45 43.4936 112.942 43.3738C111.493 43.0657 108.857 43.0428 108.629 46.7458C108.315 51.8124 113.467 51.0821 113.484 50.9337C113.501 50.7854 113.918 47.2992 114.02 45.3879Z" fill="#A8605D"/>
<path d="M112.389 48.8513C112.389 48.8513 112.297 48.9027 112.143 48.9655C111.933 49.0496 111.698 49.0496 111.487 48.9655C110.962 48.7372 110.563 47.8586 110.597 46.9457C110.608 46.5098 110.72 46.0823 110.922 45.6961C110.978 45.5411 111.072 45.4022 111.194 45.2917C111.316 45.1813 111.464 45.1026 111.624 45.0628C111.727 45.0426 111.833 45.0582 111.925 45.107C112.018 45.1558 112.091 45.2349 112.132 45.331C112.189 45.4793 112.132 45.5763 112.177 45.5877C112.223 45.5991 112.292 45.5135 112.263 45.2967C112.242 45.1717 112.18 45.0572 112.086 44.9715C112.02 44.9138 111.943 44.87 111.86 44.8425C111.777 44.8151 111.689 44.8046 111.601 44.8117C111.391 44.8405 111.191 44.9227 111.021 45.0505C110.851 45.1784 110.717 45.3476 110.631 45.5421C110.391 45.9679 110.258 46.4456 110.243 46.9342C110.209 47.9556 110.677 48.9426 111.384 49.2165C111.518 49.2635 111.661 49.2802 111.802 49.2654C111.943 49.2506 112.079 49.2047 112.2 49.1309C112.371 48.9712 112.406 48.857 112.389 48.8513Z" fill="#844949"/>
<path d="M113.045 56.4168C113.045 56.4168 112.925 56.5937 112.622 56.7877C112.18 57.0563 111.683 57.2239 111.168 57.2784C110.391 57.3621 109.607 57.2026 108.925 56.8219C108.097 56.3214 107.494 55.5204 107.242 54.5859C106.99 53.6514 107.108 52.6557 107.573 51.8067C107.971 51.1329 108.569 50.6003 109.285 50.2833C109.755 50.0695 110.268 49.9642 110.785 49.9751C111.15 49.9751 111.356 50.0607 111.356 50.0836C110.691 50.1174 110.039 50.2761 109.433 50.5514C108.805 50.8771 108.286 51.3787 107.938 51.9949C107.536 52.7581 107.442 53.6465 107.676 54.4769C107.897 55.3104 108.425 56.0297 109.153 56.491C109.765 56.8474 110.467 57.0179 111.173 56.9817C111.826 56.9099 112.461 56.7184 113.045 56.4168Z" fill="#2211BB"/>
<path d="M141.55 206.07L139.782 190.745L125.574 194.722L129.158 209.419L141.55 206.07Z" fill="#A8605D"/>
<path d="M141.71 206.002L144.112 223.866L150.086 237.446C150.187 237.677 150.239 237.927 150.24 238.18C150.241 238.433 150.19 238.683 150.091 238.916C149.992 239.148 149.846 239.358 149.662 239.532C149.479 239.706 149.262 239.841 149.025 239.928C148.747 240.027 148.451 240.058 148.159 240.02C147.867 239.981 147.589 239.873 147.347 239.705C144.22 237.531 132.752 229.469 132.649 228.151C132.53 226.622 128.861 209.477 128.861 209.477L141.71 206.002Z" fill="#2211BB"/>
<g opacity="0.6">
<path d="M149.025 239.95L132.478 226.97L132.598 227.723C132.694 228.371 133.018 228.964 133.511 229.395C134.852 230.536 138.618 233.64 147.29 239.733C147.537 239.904 147.822 240.013 148.12 240.049C148.418 240.086 148.721 240.05 149.002 239.945L149.025 239.95Z" fill="white"/>
</g>
<g opacity="0.6">
<path d="M135.205 220.654C135.446 220.784 135.632 220.996 135.729 221.251C135.827 221.507 135.829 221.789 135.736 222.046C135.618 222.295 135.409 222.489 135.152 222.589C134.896 222.689 134.61 222.686 134.355 222.582C134.095 222.45 133.893 222.225 133.787 221.953C133.682 221.68 133.681 221.378 133.785 221.105C133.938 220.862 134.177 220.687 134.454 220.613C134.731 220.539 135.026 220.572 135.28 220.705" fill="white"/>
</g>
<path d="M143.724 232.818C143.832 232.852 144.089 231.854 145.071 231.186C146.052 230.519 147.05 230.582 147.056 230.473C147.062 230.365 146.817 230.319 146.389 230.331C145.832 230.35 145.294 230.535 144.842 230.861C144.383 231.181 144.027 231.627 143.815 232.145C143.667 232.539 143.678 232.818 143.724 232.818Z" fill="#263238"/>
<path d="M145.367 234.998C145.464 235.061 145.938 234.393 146.828 233.982C147.718 233.571 148.54 233.6 148.54 233.48C148.54 233.36 147.661 233.143 146.668 233.623C145.675 234.102 145.27 234.964 145.367 234.998Z" fill="#263238"/>
<path d="M140.883 230.131C140.98 230.199 141.71 229.167 143.022 228.419C144.335 227.672 145.584 227.506 145.567 227.386C145.55 227.267 144.22 227.249 142.823 228.077C141.425 228.904 140.791 230.091 140.883 230.131Z" fill="#263238"/>
<path d="M139.696 224.762C139.764 224.859 140.683 224.294 141.978 224.043C143.273 223.792 144.312 223.946 144.335 223.826C144.357 223.706 143.262 223.375 141.898 223.655C140.535 223.935 139.627 224.688 139.696 224.762Z" fill="#263238"/>
<path d="M138.863 219.535C138.931 219.627 139.827 218.879 141.191 218.725C142.554 218.571 143.598 219.056 143.644 218.948C143.69 218.839 143.439 218.714 142.988 218.543C142.398 218.325 141.763 218.255 141.139 218.337C140.517 218.413 139.921 218.633 139.399 218.982C139.005 219.256 138.829 219.501 138.863 219.535Z" fill="#263238"/>
<path d="M141.002 217.738C141.024 217.509 140.995 217.277 140.917 217.059C140.759 216.453 140.484 215.883 140.107 215.382C139.861 214.99 139.491 214.691 139.057 214.532C138.91 214.493 138.754 214.499 138.612 214.552C138.469 214.604 138.345 214.698 138.258 214.823C138.104 215.078 138.049 215.38 138.104 215.673C138.239 216.265 138.576 216.792 139.057 217.162C139.538 217.533 140.133 217.725 140.74 217.704C141.339 217.67 141.914 217.458 142.392 217.096C142.87 216.735 143.231 216.239 143.427 215.673C143.478 215.531 143.496 215.38 143.482 215.23C143.467 215.08 143.419 214.935 143.342 214.806C143.252 214.681 143.125 214.589 142.98 214.542C142.834 214.494 142.677 214.495 142.532 214.543C142.108 214.707 141.736 214.981 141.453 215.336C141.03 215.798 140.692 216.331 140.455 216.911C140.355 217.117 140.295 217.339 140.278 217.567C140.639 216.826 141.104 216.14 141.659 215.53C141.916 215.23 142.243 214.999 142.611 214.857C142.691 214.831 142.777 214.831 142.857 214.856C142.937 214.882 143.007 214.932 143.056 215C143.095 215.09 143.115 215.187 143.115 215.285C143.115 215.383 143.095 215.48 143.056 215.57C142.869 216.05 142.548 216.466 142.131 216.77C141.715 217.073 141.22 217.251 140.706 217.282C140.187 217.298 139.679 217.138 139.264 216.827C138.849 216.516 138.553 216.072 138.423 215.57C138.385 215.376 138.415 215.174 138.509 215C138.555 214.928 138.622 214.873 138.701 214.842C138.78 214.812 138.866 214.807 138.948 214.829C139.311 214.966 139.623 215.211 139.844 215.53C140.357 216.192 140.749 216.94 141.002 217.738Z" fill="#263238"/>
<path d="M185.718 119.772C173.165 117.49 147.341 123.8 147.341 123.8L141.813 117.473H112.714L107.659 129.329L121.444 149.87L124.667 161.971C124.667 161.971 138.304 159.814 137.727 159.883C137.151 159.951 146.474 157.949 147.039 157.875C169.782 154.771 181.912 145.185 188.69 138.407C195.605 131.457 190.505 120.64 185.718 119.772Z" fill="#263238"/>
<path d="M127.029 163.934C126.967 163.523 126.784 162.422 126.413 160.163C126.214 158.953 125.963 157.481 125.643 155.786C125.478 154.942 125.301 154.04 125.072 153.093C124.964 152.62 124.85 152.129 124.713 151.633C124.639 151.387 124.565 151.136 124.473 150.885C124.396 150.615 124.266 150.363 124.091 150.143L124.051 150.326C129.46 148.403 136.216 145.87 143.422 142.829C147.855 140.946 152.032 139.04 155.712 137.06C157.468 136.147 159.152 135.102 160.75 133.934C162.245 132.833 163.574 131.731 164.824 130.767C166.728 129.169 168.889 127.904 171.214 127.024C171.587 126.891 171.968 126.78 172.355 126.693C172.631 126.615 172.911 126.554 173.194 126.511L173.713 126.419C173.774 126.412 173.833 126.396 173.89 126.374C173.829 126.37 173.768 126.37 173.707 126.374L173.182 126.442C172.898 126.475 172.616 126.526 172.338 126.596C171.952 126.677 171.571 126.78 171.197 126.904C170.173 127.236 169.188 127.676 168.258 128.217C167.026 128.927 165.846 129.724 164.727 130.602C163.466 131.554 162.125 132.644 160.636 133.734C159.038 134.885 157.358 135.917 155.609 136.821C151.935 138.784 147.758 140.678 143.336 142.561C136.136 145.596 129.386 148.152 123.994 150.098L123.846 150.155L123.96 150.286C124.105 150.485 124.217 150.707 124.291 150.942C124.382 151.188 124.456 151.433 124.525 151.678C124.667 152.163 124.787 152.648 124.896 153.122C125.118 154.063 125.306 154.965 125.466 155.803C125.803 157.515 126.071 158.959 126.288 160.163C126.505 161.366 126.687 162.291 126.807 162.947C126.87 163.266 126.921 163.517 126.961 163.672C127.001 163.826 127.029 163.934 127.029 163.934Z" fill="#455A64"/>
<path d="M109.102 119.847L108.845 123.709C108.845 123.709 105.576 129.894 105.279 135.429C105.102 138.647 105.034 143.388 105.005 146.794C104.98 149.538 105.738 152.232 107.191 154.56L115.801 162.548L121.13 182.226L127.976 206.025L142.241 202.339L140.158 152.34C140.107 145.493 136.991 137.506 133.094 129.198L131.754 118.203L109.102 119.847Z" fill="#263238"/>
<path d="M142.246 195.241C142.228 195.172 142.217 195.101 142.212 195.03C142.212 194.864 142.183 194.659 142.161 194.402C142.126 193.831 142.075 193.016 142.007 191.994C141.887 189.866 141.721 186.859 141.51 183.133C141.134 175.619 140.609 165.292 140.032 153.886C139.85 151.033 139.918 148.221 139.314 145.613C138.75 143.101 137.773 140.7 136.421 138.51C135.19 136.531 133.662 134.752 131.89 133.238C130.335 131.928 128.607 130.838 126.755 129.997C124.073 128.763 121.18 128.054 118.231 127.908C117.431 127.868 116.629 127.868 115.829 127.908L115.201 127.937H114.968C116.043 127.769 117.132 127.706 118.22 127.749C121.201 127.838 124.136 128.511 126.858 129.729C128.741 130.563 130.5 131.653 132.084 132.969C133.896 134.496 135.459 136.296 136.717 138.304C138.104 140.527 139.106 142.967 139.684 145.522C140.306 148.192 140.255 151.016 140.42 153.858C140.951 165.269 141.43 175.596 141.778 183.111C141.932 186.831 142.058 189.855 142.144 191.977C142.178 193.004 142.206 193.809 142.223 194.391C142.223 194.647 142.223 194.853 142.223 195.018C142.24 195.091 142.248 195.166 142.246 195.241Z" fill="#455A64"/>
<path d="M132.358 164.002C132.256 163.951 133.14 161.897 134.327 159.404C135.514 156.91 136.569 154.936 136.672 154.982C136.775 155.027 135.89 157.093 134.698 159.58C133.505 162.068 132.461 164.054 132.358 164.002Z" fill="#455A64"/>
<path d="M122.425 157.196C122.533 157.156 122.995 158.114 123.429 159.335C123.863 160.556 124.154 161.577 124.051 161.617C123.948 161.657 123.48 160.699 123.041 159.478C122.602 158.257 122.317 157.235 122.425 157.196Z" fill="#455A64"/>
<path d="M115.282 151.29C115.313 151.421 115.33 151.555 115.333 151.69C115.333 151.998 115.373 152.374 115.401 152.831C115.458 153.881 115.533 155.301 115.624 157.024C115.681 160.579 116.765 165.366 117.957 170.644C119.15 175.922 120.451 180.652 121.466 184.046C121.963 185.758 122.419 187.11 122.739 188.04C122.934 188.517 123.1 189.004 123.235 189.501C123.158 189.391 123.095 189.272 123.047 189.147C122.938 188.913 122.773 188.577 122.59 188.097C122.225 187.173 121.723 185.815 121.187 184.132C120.103 180.743 118.796 176.013 117.558 170.729C116.32 165.446 115.316 160.608 115.333 157.036C115.27 155.256 115.247 153.824 115.242 152.825C115.242 152.369 115.242 151.992 115.242 151.684C115.233 151.551 115.247 151.418 115.282 151.29Z" fill="#455A64"/>
<path d="M147.541 126.693C147.575 126.762 146.748 127.11 145.624 127.988C144.173 129.143 142.989 130.599 142.155 132.256C141.335 133.923 140.795 135.714 140.557 137.557C140.369 138.972 140.358 139.867 140.289 139.867C140.231 139.664 140.208 139.451 140.221 139.24C140.202 138.669 140.219 138.097 140.272 137.528C140.427 135.63 140.942 133.779 141.79 132.074C142.646 130.362 143.903 128.882 145.453 127.76C145.92 127.426 146.419 127.139 146.942 126.904C147.127 126.799 147.33 126.727 147.541 126.693Z" fill="#455A64"/>
<path d="M168.875 125.581C168.949 125.678 167.682 126.722 166.421 128.268C165.16 129.814 164.39 131.264 164.281 131.206C164.173 131.149 164.795 129.597 166.102 128.006C167.408 126.414 168.817 125.495 168.875 125.581Z" fill="#455A64"/>
<path d="M135.12 136.393C135.051 136.393 135.12 135.377 135.074 133.757C134.978 131.638 134.73 129.529 134.333 127.446L133.146 121.17C132.947 120.307 132.817 119.429 132.758 118.545C133.049 119.38 133.274 120.237 133.431 121.107C133.785 122.705 134.293 124.901 134.738 127.383C135.143 129.484 135.353 131.617 135.365 133.757C135.363 134.405 135.327 135.052 135.257 135.697C135.246 135.934 135.2 136.169 135.12 136.393Z" fill="#455A64"/>
<path d="M135.069 119.544C135.069 119.544 135.137 119.441 135.331 119.39C135.607 119.331 135.896 119.369 136.147 119.498C136.344 119.598 136.51 119.749 136.626 119.936C136.743 120.123 136.806 120.339 136.809 120.56C136.807 120.834 136.722 121.101 136.565 121.326C136.408 121.551 136.187 121.724 135.93 121.821C135.668 121.907 135.385 121.906 135.123 121.817C134.862 121.729 134.637 121.558 134.481 121.33C134.351 121.15 134.275 120.938 134.261 120.717C134.247 120.496 134.295 120.275 134.401 120.08C134.533 119.828 134.755 119.635 135.023 119.538C135.211 119.476 135.32 119.498 135.325 119.538C135.331 119.578 134.897 119.681 134.663 120.223C134.599 120.386 134.582 120.564 134.614 120.736C134.647 120.908 134.728 121.067 134.847 121.195C134.967 121.323 135.12 121.414 135.29 121.458C135.459 121.502 135.638 121.497 135.805 121.444C135.982 121.374 136.135 121.255 136.247 121.1C136.358 120.945 136.422 120.761 136.432 120.571C136.44 120.412 136.404 120.255 136.33 120.114C136.256 119.974 136.145 119.856 136.01 119.772C135.724 119.609 135.398 119.53 135.069 119.544Z" fill="#455A64"/>
<path d="M136.649 66.2991C136.649 66.2991 145.909 69.557 146.919 75.3482C147.929 81.1395 152.67 101.948 152.67 101.948L180.628 105.571L177.376 113.131C177.376 113.131 145.926 114.723 144.46 113.131C142.994 111.539 136.649 66.2991 136.649 66.2991Z" fill="#455A64"/>
<path d="M108.303 120.035C108.697 118.039 109.217 116.07 109.861 114.141L105.177 78.7032L101.925 66.8982L112.4 64.0454C116.246 69.9622 127.537 70.4414 129.169 64.0454L136.649 66.2991C136.649 66.2991 147.661 86.229 147.147 93.1898C146.577 100.824 149.013 113.16 149.013 113.16C149.013 113.16 149.281 117.228 146.457 119.133L108.303 120.035Z" fill="#455A64"/>
<path d="M101.924 66.8809C101.924 66.8809 96.0306 69.9448 94.6384 75.7303C93.6342 79.8954 92.436 105.81 94.6384 110.312C96.8408 114.814 98.5696 117.678 103.317 118.483C108.064 119.287 137.288 118.089 137.288 118.089L138.857 106.803L107.653 102.159C107.653 102.159 106.871 78.9426 106.512 77.3336" fill="#455A64"/>
<path d="M112.4 64.0796C112.4 64.0796 111.892 61.6775 112.4 61.455C112.908 61.2325 129.34 61.9057 129.454 62.4649C129.513 63.2702 129.513 64.0788 129.454 64.8841C129.454 64.8841 127.657 69.3231 123.526 69.6369C119.395 69.9507 112.617 65.6829 112.4 64.0796Z" fill="#455A64"/>
<path d="M142.355 108.241L150.48 107.671L154.377 110.312L157.731 114.831C157.579 115.048 157.355 115.205 157.098 115.275C156.842 115.345 156.57 115.323 156.328 115.214L157.577 116.726C157.509 116.862 157.414 116.983 157.297 117.08C157.18 117.178 157.044 117.251 156.898 117.294C156.752 117.336 156.598 117.349 156.447 117.329C156.296 117.31 156.151 117.26 156.02 117.182L156.79 118.374C156.366 118.517 155.906 118.514 155.483 118.367C155.061 118.219 154.699 117.935 154.456 117.559C153.662 116.426 152.791 115.348 151.849 114.335L148.876 113.348L151.775 116.229L153.384 118.785C153.384 118.785 153.093 119.59 152.505 119.219C151.703 118.489 150.965 117.693 150.297 116.84L146.874 114.66C146.874 114.66 144.454 115.756 143.701 115.767C142.948 115.778 140.512 114.221 140.512 114.221L138.195 115.756L138.817 107.671L142.355 108.241Z" fill="#A8605D"/>
<path d="M157.6 116.697C157.23 116.352 156.898 115.97 156.607 115.556C156.037 114.82 155.238 113.793 154.382 112.64L153.566 111.539L153.606 111.574C152.67 111.003 151.86 110.495 151.295 110.124C150.979 109.948 150.684 109.736 150.417 109.491C150.757 109.611 151.083 109.77 151.387 109.965C151.957 110.29 152.807 110.763 153.76 111.322L154.588 112.424C155.443 113.565 156.202 114.62 156.739 115.391C157.072 115.794 157.361 116.232 157.6 116.697Z" fill="#844949"/>
<path d="M156.619 118.061C156.293 117.735 156.002 117.375 155.752 116.988C155.25 116.303 154.565 115.345 153.829 114.272L153.104 113.199L153.161 113.251C152.117 112.796 151.108 112.264 150.143 111.659C151.221 112.026 152.272 112.47 153.287 112.988H153.321V113.023L154.057 114.084C154.793 115.151 155.443 116.132 155.906 116.851C156.19 117.225 156.429 117.631 156.619 118.061Z" fill="#844949"/>
<path d="M108.121 118.625C108.166 118.618 108.212 118.618 108.258 118.625H108.68L110.306 118.58L116.434 118.454L137.921 118.095L137.79 118.22C138.075 114.683 138.389 110.837 138.714 106.809L138.84 106.969L131.326 105.828L107.636 102.279H107.522V102.159C107.775 96.1558 107.674 90.1431 107.219 84.1519C107.048 81.978 106.86 80.2778 106.729 79.1195C106.66 78.5489 106.609 78.1096 106.575 77.7958C106.575 77.6532 106.575 77.5391 106.535 77.4535C106.495 77.3679 106.535 77.3394 106.535 77.3394C106.535 77.3394 106.535 77.3736 106.535 77.4478C106.535 77.5219 106.569 77.6475 106.592 77.7901C106.637 78.0982 106.7 78.5432 106.786 79.1081C106.94 80.2492 107.151 81.9609 107.356 84.1405C107.872 90.132 108.013 96.1498 107.778 102.159L107.67 102.028L131.366 105.537L138.88 106.678H139.011V106.815C138.68 110.809 138.361 114.671 138.064 118.226V118.346H137.938L116.445 118.597L110.317 118.648H108.121V118.625Z" fill="#263238"/>
<path d="M129.454 62.4648C129.509 62.7332 129.534 63.0069 129.528 63.2808C129.528 63.5432 129.528 63.8513 129.528 64.245C129.527 64.6832 129.442 65.117 129.277 65.5231C128.911 65.9243 128.432 66.2049 127.902 66.3276C127.329 66.4813 126.748 66.6032 126.162 66.6927C124.827 66.9132 123.475 67.0182 122.122 67.0065C119.657 66.9852 117.207 66.6007 114.853 65.8654C114.129 65.6652 113.447 65.3367 112.839 64.8955C112.677 64.772 112.528 64.6325 112.394 64.4789C112.342 64.4279 112.3 64.368 112.269 64.3021C112.269 64.3021 112.48 64.5132 112.908 64.8042C113.527 65.197 114.205 65.4879 114.916 65.6657C117.262 66.3267 119.685 66.6721 122.122 66.6927C123.459 66.7041 124.795 66.6087 126.116 66.4074C126.692 66.3254 127.264 66.213 127.828 66.0708C128.079 66.0072 128.322 65.9154 128.553 65.7969C128.66 65.745 128.764 65.684 128.861 65.6144C128.951 65.5587 129.029 65.4849 129.089 65.3976C129.247 65.0205 129.337 64.6189 129.357 64.2108C129.391 63.8456 129.409 63.5261 129.42 63.2636C129.412 62.9969 129.423 62.7299 129.454 62.4648Z" fill="#263238"/>
<path d="M115.082 65.8312C114.567 65.254 114.268 64.5158 114.237 63.7429C114.109 62.9778 114.254 62.1919 114.648 61.5234C114.547 62.2491 114.509 62.9822 114.534 63.7144C114.657 64.434 114.841 65.1421 115.082 65.8312Z" fill="#263238"/>
<path d="M118.465 61.5405C118.556 61.5405 118.362 62.6817 118.402 64.0453C118.442 65.409 118.682 66.5273 118.596 66.5501C117.987 64.9432 117.941 63.1771 118.465 61.5405Z" fill="#263238"/>
<path d="M122.733 66.7838C122.599 65.9618 122.561 65.127 122.619 64.2962C122.585 63.4646 122.647 62.6319 122.801 61.8142C122.942 62.6355 122.981 63.4711 122.916 64.3019C122.953 65.1335 122.892 65.9666 122.733 66.7838Z" fill="#263238"/>
<path d="M127.4 62.2197C127.618 62.9375 127.655 63.6979 127.509 64.4335C127.446 65.1811 127.197 65.901 126.784 66.5275C126.699 66.4933 127.047 65.5746 127.212 64.3936C127.377 63.2125 127.309 62.2197 127.4 62.2197Z" fill="#263238"/>
<path d="M141.784 97.8798C141.779 97.6122 141.8 97.3447 141.847 97.081C141.91 96.5675 142.024 95.8315 142.155 94.9243C142.585 92.5725 142.691 90.1728 142.469 87.7922C142.175 85.4206 141.679 83.0784 140.985 80.7914C140.746 79.947 140.546 79.2452 140.386 78.6917C140.302 78.4387 140.239 78.1792 140.198 77.9158C140.323 78.1516 140.423 78.4003 140.495 78.6575C140.666 79.1425 140.911 79.85 141.185 80.7287C141.946 83.0149 142.475 85.3717 142.766 87.7637C142.995 90.1684 142.86 92.594 142.366 94.9585C142.201 95.8201 142.069 96.539 141.961 97.0982C141.928 97.364 141.869 97.6259 141.784 97.8798Z" fill="#263238"/>
<path d="M185.997 95.6717L174.677 120.714C174.372 121.258 173.935 121.717 173.405 122.047C172.875 122.377 172.271 122.568 171.648 122.602L119.424 122.534C119.486 122.004 119.738 121.514 120.133 121.155C120.529 120.796 121.041 120.593 121.575 120.583L141.391 120.143L151.535 95.8029C151.692 95.4226 151.958 95.0969 152.299 94.8665C152.64 94.6362 153.041 94.5114 153.452 94.5077L185.084 94.2681C185.251 94.2666 185.416 94.3071 185.563 94.386C185.71 94.4649 185.835 94.5797 185.926 94.7196C186.017 94.8595 186.071 95.02 186.083 95.1865C186.096 95.3529 186.066 95.5198 185.997 95.6717Z" fill="#E0E0E0"/>
<path d="M185.997 95.6718C186.049 95.5829 186.08 95.4834 186.088 95.3808C186.11 95.2289 186.096 95.074 186.048 94.9284C185.999 94.7828 185.917 94.6505 185.809 94.542C185.649 94.3741 185.435 94.2688 185.204 94.2454C184.953 94.2454 184.691 94.2454 184.4 94.2454H182.385L169.365 94.2967L160.236 94.3481H155.101H153.76C153.283 94.3095 152.806 94.4107 152.385 94.6391C151.959 94.8878 151.624 95.2682 151.432 95.7231C151.25 96.151 151.073 96.5847 150.89 97.0183C147.98 103.985 144.74 111.739 141.271 120.052L141.408 119.955L130.698 120.189L125.118 120.309L122.265 120.372H121.546C120.978 120.389 120.435 120.611 120.016 120.995C119.598 121.379 119.331 121.901 119.264 122.465V122.642H119.447L151.969 122.677H171.008C171.271 122.677 171.528 122.677 171.796 122.677C172.065 122.657 172.332 122.606 172.589 122.523C173.086 122.371 173.546 122.118 173.94 121.778C174.333 121.438 174.65 121.019 174.871 120.548C175.271 119.647 175.67 118.763 176.058 117.907C179.139 111.031 181.638 105.468 183.367 101.611L185.335 97.1838L185.837 96.0426C185.951 95.7802 186.003 95.6432 186.003 95.6432L185.809 96.0312C185.683 96.2937 185.506 96.676 185.278 97.1724C184.81 98.188 184.137 99.6714 183.253 101.577L175.835 117.827L174.637 120.463C174.429 120.905 174.129 121.298 173.757 121.616C173.385 121.934 172.95 122.169 172.48 122.306C171.99 122.44 171.481 122.489 170.974 122.448H166.113L151.934 122.414L119.412 122.357L119.572 122.534C119.61 122.226 119.715 121.93 119.88 121.667C120.124 121.292 120.482 121.006 120.901 120.851C121.108 120.775 121.326 120.732 121.546 120.725H122.259L125.112 120.662L130.692 120.543L141.408 120.303H141.505L141.544 120.212C145.002 111.893 148.231 104.128 151.124 97.1609C151.307 96.7273 151.484 96.2937 151.666 95.8658C151.832 95.4619 152.127 95.1246 152.505 94.9072C152.887 94.7006 153.321 94.6076 153.755 94.6391H155.095L160.23 94.5934L169.359 94.5078L182.38 94.3595L184.394 94.3309C184.685 94.3309 184.964 94.3309 185.193 94.3309C185.409 94.3527 185.611 94.4496 185.763 94.6048C185.869 94.7076 185.95 94.8326 186.002 94.9708C186.053 95.1089 186.073 95.2568 186.06 95.4036C186.045 95.4943 186.024 95.5839 185.997 95.6718Z" fill="#263238"/>
<path d="M142.355 122.819C142.418 122.736 142.47 122.643 142.509 122.546C142.611 122.329 142.731 122.061 142.885 121.735C143.216 120.982 143.667 119.972 144.209 118.74C145.316 116.201 146.811 112.68 148.426 108.778C150.04 104.875 151.484 101.315 152.454 98.7358C152.944 97.4407 153.338 96.3908 153.595 95.6605C153.709 95.3239 153.8 95.0443 153.88 94.8161C153.921 94.7194 153.947 94.6177 153.96 94.5137C153.897 94.5981 153.849 94.6926 153.817 94.7932L153.475 95.6149L152.243 98.6503C151.17 101.252 149.726 104.772 148.135 108.658C146.543 112.544 145.076 116.075 144.004 118.654C143.502 119.904 143.085 120.937 142.771 121.695L142.452 122.528C142.406 122.62 142.373 122.718 142.355 122.819Z" fill="#455A64"/>
<path d="M162.844 107.813C162.844 108.134 162.939 108.448 163.117 108.714C163.295 108.981 163.549 109.188 163.845 109.311C164.142 109.433 164.468 109.465 164.782 109.402C165.097 109.339 165.385 109.184 165.612 108.957C165.838 108.73 165.992 108.441 166.054 108.126C166.116 107.811 166.083 107.485 165.959 107.189C165.836 106.893 165.627 106.641 165.36 106.463C165.093 106.286 164.779 106.192 164.458 106.193C164.246 106.193 164.035 106.235 163.839 106.316C163.643 106.398 163.465 106.517 163.315 106.668C163.165 106.818 163.046 106.997 162.965 107.194C162.884 107.39 162.843 107.601 162.844 107.813Z" fill="white"/>
<path d="M178.871 111.608C179.627 111.472 180.362 111.236 181.056 110.906C181.277 110.751 181.451 110.539 181.562 110.293C181.672 110.047 181.714 109.776 181.684 109.508L181.564 109.109C181.564 109.109 182.905 107.967 182.705 107.003C182.705 107.003 184.012 105.913 183.567 104.892C183.567 104.892 184.765 104.139 184.365 103.403C184.13 103.058 183.82 102.772 183.459 102.564C183.097 102.357 182.693 102.234 182.277 102.205C181.644 102.176 179.635 101.748 179.459 102.056C179.459 102.056 178.968 102.872 179.379 103.197L179.989 103.682C179.989 103.682 178.198 103.249 177.929 103.603C177.661 103.956 177.359 104.744 178.066 105.097C178.066 105.097 177.353 105.212 177.347 105.668C177.342 106.124 177.393 106.661 177.861 106.809C178.329 106.957 178.774 107.174 178.774 107.174C178.774 107.174 178.032 107.072 178.021 107.46C178.009 107.848 177.832 108.161 178.3 108.601C178.768 109.04 179.607 109.976 179.607 109.976L178.871 111.608Z" fill="#A8605D"/>
<path d="M178.837 107.225C178.837 107.225 179.042 107.225 179.367 107.3C179.777 107.377 180.166 107.54 180.508 107.779C180.852 108.025 181.136 108.345 181.341 108.715C181.501 109 181.564 109.2 181.587 109.194C181.582 109.008 181.533 108.826 181.444 108.663C181.253 108.26 180.963 107.912 180.6 107.653C180.235 107.393 179.808 107.234 179.361 107.191C179.186 107.159 179.006 107.171 178.837 107.225Z" fill="#844949"/>
<path d="M182.773 106.912C182.611 106.718 182.419 106.553 182.203 106.421C181.72 106.075 181.195 105.793 180.64 105.582C180.078 105.366 179.491 105.223 178.894 105.154C178.648 105.119 178.398 105.119 178.152 105.154C178.979 105.265 179.793 105.456 180.582 105.725C181.351 106.045 182.086 106.442 182.773 106.912Z" fill="#844949"/>
<path d="M183.601 104.852C182.517 104.154 181.275 103.742 179.989 103.654C179.989 103.7 180.828 103.842 181.821 104.173C182.813 104.504 183.578 104.892 183.601 104.852Z" fill="#844949"/>
<path d="M202.27 1.06641H157.577V66.8696H161.897L165.828 74.5665L170.849 66.8696H202.27V1.06641Z" fill="#FAFAFA"/>
<path d="M202.264 1.06629C202.264 1.06629 202.264 1.16328 202.264 1.36869C202.264 1.57409 202.264 1.88219 202.264 2.27588C202.264 3.08609 202.264 4.27857 202.264 5.8248C202.264 8.94578 202.264 13.4989 202.298 19.273C202.298 30.8612 202.338 47.3219 202.367 66.8695V67.0007H202.264H170.843L170.969 66.938L165.942 74.6349L165.805 74.8517L165.685 74.6235C164.458 72.21 163.14 69.6367 161.817 67.0407L161.754 66.9208L161.891 67.0064H157.423V66.8581C157.423 41.9644 157.423 19.1418 157.458 1.05488V0.935059H157.572L190.202 0.997821L199.149 1.02635H201.477C202.002 1.02635 202.264 1.02635 202.264 1.02635H201.454H199.097L190.128 1.06058L157.572 1.11764L157.692 1.00353C157.692 19.0904 157.691 41.913 157.72 66.8067L157.572 66.6584H161.982L162.022 66.7383L162.079 66.8524L165.953 74.4352H165.697C167.408 71.7878 169.12 69.1746 170.723 66.7383L170.763 66.6698H170.843H202.264L202.127 66.8067C202.156 47.2934 202.178 30.8612 202.196 19.3015C202.196 13.5103 202.224 8.94578 202.23 5.81909C202.23 4.26145 202.23 3.05756 202.23 2.24165C202.23 1.84226 202.23 1.53415 202.23 1.31734C202.23 1.10052 202.264 1.06629 202.264 1.06629Z" fill="#263238"/>
<path d="M170.084 12.4834H169.936C169.265 12.4834 168.72 13.0275 168.72 13.6987V54.8421C168.72 55.5133 169.265 56.0574 169.936 56.0574H170.084C170.755 56.0574 171.299 55.5133 171.299 54.8421V13.6987C171.299 13.0275 170.755 12.4834 170.084 12.4834Z" fill="#E0E0E0"/>
<path d="M170.084 56.0573C170.386 56.0387 170.673 55.9156 170.894 55.7092C171.425 55.3041 171.208 54.3285 171.242 53.2102C171.242 50.9279 171.214 47.6129 171.197 43.5106C171.18 39.4082 171.197 34.5698 171.162 29.178C171.162 26.4792 171.162 23.6492 171.162 20.7108V13.9725C171.175 13.793 171.164 13.6125 171.128 13.4361C171.084 13.271 171.002 13.1186 170.889 12.9911C170.772 12.8618 170.626 12.7618 170.464 12.6994C170.301 12.6369 170.126 12.6137 169.953 12.6316C169.781 12.632 169.613 12.6736 169.461 12.7531C169.309 12.8325 169.178 12.9474 169.08 13.0881C168.98 13.2265 168.916 13.3871 168.892 13.5559C168.892 13.71 168.892 13.9211 168.892 14.1265V20.882C168.892 23.8147 168.892 26.6504 168.892 29.3492C168.892 34.741 168.892 39.6193 168.863 43.6817C168.835 47.7442 168.829 51.0534 168.817 53.3471C168.817 53.9177 168.817 54.4255 168.817 54.8648C168.82 55.045 168.864 55.2223 168.945 55.3833C169.026 55.5443 169.142 55.685 169.285 55.7948C169.465 55.9306 169.678 56.0154 169.902 56.0402H170.135C170.058 56.0488 169.979 56.0488 169.902 56.0402C169.667 56.0312 169.44 55.9516 169.251 55.8119C169.095 55.7006 168.967 55.5546 168.877 55.3853C168.786 55.2159 168.737 55.028 168.732 54.8363C168.732 54.3969 168.732 53.8891 168.732 53.3186C168.732 51.0363 168.703 47.727 168.686 43.6532C168.669 39.5794 168.686 34.7125 168.652 29.3206C168.652 26.6219 168.652 23.7862 168.652 20.8535C168.652 19.3814 168.652 17.8884 168.652 16.3745V14.0923C168.641 13.8927 168.641 13.6927 168.652 13.4932C168.685 13.2865 168.767 13.0909 168.892 12.9226C169.022 12.7427 169.194 12.597 169.392 12.4976C169.591 12.3983 169.811 12.3484 170.033 12.352C170.245 12.3391 170.457 12.3733 170.655 12.4522C170.852 12.5311 171.029 12.6528 171.174 12.8085C171.32 12.9707 171.424 13.1667 171.476 13.3791C171.519 13.5796 171.534 13.7849 171.522 13.9896V16.2718C171.522 17.7933 171.522 19.2863 171.522 20.7508C171.522 23.6892 171.522 26.5192 171.522 29.2179C171.522 34.6098 171.522 39.4881 171.488 43.5505C171.453 47.6129 171.453 50.9222 171.442 53.2501V54.7621C171.454 54.953 171.423 55.1441 171.352 55.3217C171.281 55.4992 171.171 55.6589 171.031 55.7891C170.905 55.905 170.754 55.9896 170.59 56.0362C170.425 56.0828 170.252 56.09 170.084 56.0573Z" fill="#263238"/>
<path d="M180.001 12.4834H179.852C179.181 12.4834 178.637 13.0275 178.637 13.6987V54.8421C178.637 55.5133 179.181 56.0574 179.852 56.0574H180.001C180.672 56.0574 181.216 55.5133 181.216 54.8421V13.6987C181.216 13.0275 180.672 12.4834 180.001 12.4834Z" fill="#E0E0E0"/>
<path d="M180.012 56.0574C180.314 56.0393 180.601 55.9162 180.822 55.7094C181.353 55.3043 181.142 54.3286 181.17 53.2103C181.17 50.9281 181.17 47.6131 181.125 43.5107C181.079 39.4084 181.125 34.57 181.09 29.1781C181.09 26.4794 181.09 23.6494 181.09 20.711V16.2606C181.09 15.5074 181.09 14.7429 181.09 13.9783C181.103 13.7988 181.092 13.6184 181.056 13.442C181.017 13.2764 180.936 13.1233 180.822 12.9969C180.704 12.8697 180.558 12.7712 180.396 12.709C180.234 12.6467 180.059 12.6222 179.886 12.6375C179.714 12.6378 179.544 12.6795 179.392 12.7589C179.239 12.8383 179.107 12.9532 179.008 13.0939C178.91 13.2327 178.847 13.3933 178.825 13.5618C178.825 13.7158 178.825 13.9269 178.825 14.1324V16.4146C178.825 17.9361 178.825 19.4291 178.825 20.8935C178.825 23.8262 178.825 26.662 178.825 29.3607C178.825 34.7526 178.825 39.6309 178.791 43.6933C178.757 47.7557 178.757 51.065 178.745 53.3587V54.8764C178.747 55.0568 178.79 55.2345 178.871 55.3957C178.952 55.5569 179.069 55.6974 179.213 55.8064C179.391 55.942 179.602 56.0268 179.824 56.0517H180.058C179.98 56.0604 179.901 56.0604 179.824 56.0517C179.589 56.0417 179.363 55.9622 179.173 55.8235C179.018 55.7113 178.89 55.565 178.8 55.3959C178.71 55.2268 178.66 55.0393 178.654 54.8478C178.654 54.4085 178.654 53.9007 178.654 53.3301C178.654 51.0479 178.625 47.7386 178.603 43.6648C178.58 39.5909 178.603 34.724 178.603 29.3322C178.603 26.6334 178.603 23.7977 178.603 20.865V14.1095C178.603 13.9155 178.603 13.7387 178.603 13.5104C178.64 13.3052 178.722 13.1105 178.842 12.9399C178.973 12.7607 179.145 12.6154 179.344 12.5162C179.542 12.4169 179.762 12.3666 179.983 12.3693C180.196 12.3547 180.409 12.3881 180.606 12.4672C180.804 12.5462 180.981 12.6688 181.125 12.8258C181.271 12.989 181.376 13.1845 181.433 13.3963C181.473 13.5971 181.487 13.8025 181.473 14.0068V20.7395C181.473 23.6779 181.473 26.5079 181.473 29.2067C181.473 34.5985 181.473 39.4768 181.473 43.5392C181.473 47.6017 181.438 50.9109 181.427 53.2388C181.427 53.8094 181.427 54.3115 181.427 54.7508C181.441 54.942 181.412 55.134 181.341 55.312C181.27 55.4901 181.159 55.6494 181.016 55.7779C180.886 55.9051 180.725 55.9974 180.55 56.0463C180.374 56.0951 180.189 56.099 180.012 56.0574Z" fill="#263238"/>
<path d="M189.911 12.4834H189.763C189.092 12.4834 188.548 13.0275 188.548 13.6987V54.8421C188.548 55.5133 189.092 56.0574 189.763 56.0574H189.911C190.582 56.0574 191.127 55.5133 191.127 54.8421V13.6987C191.127 13.0275 190.582 12.4834 189.911 12.4834Z" fill="#E0E0E0"/>
<path d="M189.911 56.0573C190.214 56.0387 190.5 55.9156 190.721 55.7092C191.252 55.3041 191.035 54.3285 191.07 53.2102C191.07 50.9279 191.041 47.6129 191.024 43.5106C191.007 39.4082 191.024 34.5698 190.99 29.178C190.99 26.4792 190.99 23.6492 190.99 20.7108V13.9725C191.002 13.793 190.991 13.6125 190.955 13.4361C190.911 13.271 190.829 13.1186 190.716 12.9911C190.599 12.8618 190.454 12.7618 190.291 12.6994C190.128 12.6369 189.953 12.6137 189.78 12.6316C189.609 12.632 189.44 12.6736 189.288 12.7531C189.136 12.8325 189.005 12.9474 188.907 13.0881C188.807 13.2265 188.743 13.3871 188.719 13.5559C188.719 13.71 188.719 13.9211 188.719 14.1265V20.882C188.719 23.8147 188.719 26.6504 188.719 29.3492C188.719 34.741 188.719 39.6193 188.69 43.6817C188.662 47.7442 188.65 51.0534 188.645 53.3471C188.645 53.9177 188.645 54.4255 188.645 54.8648C188.648 55.045 188.691 55.2223 188.772 55.3833C188.853 55.5443 188.97 55.685 189.112 55.7948C189.292 55.9306 189.505 56.0154 189.729 56.0402H189.963C189.885 56.0488 189.806 56.0488 189.729 56.0402C189.494 56.0312 189.267 55.9516 189.078 55.8119C188.922 55.7006 188.794 55.5546 188.704 55.3853C188.614 55.2159 188.564 55.028 188.559 54.8363C188.559 54.3969 188.559 53.8891 188.559 53.3186C188.559 51.0363 188.53 47.727 188.513 43.6532C188.496 39.5794 188.513 34.7125 188.479 29.3206C188.479 26.6219 188.479 23.7862 188.479 20.8535C188.479 19.3814 188.479 17.8884 188.479 16.3745V14.0923C188.468 13.8927 188.468 13.6927 188.479 13.4932C188.512 13.2865 188.594 13.0909 188.719 12.9226C188.849 12.7427 189.021 12.597 189.219 12.4976C189.418 12.3983 189.638 12.3484 189.86 12.352C190.072 12.3391 190.284 12.3733 190.482 12.4522C190.679 12.5311 190.856 12.6528 191.001 12.8085C191.148 12.9707 191.252 13.1667 191.303 13.3791C191.343 13.58 191.358 13.785 191.349 13.9896V16.2718C191.349 17.7933 191.349 19.2863 191.349 20.7508C191.349 23.6892 191.349 26.5192 191.349 29.2179C191.349 34.6098 191.349 39.4881 191.315 43.5505C191.281 47.6129 191.281 50.9222 191.269 53.2501C191.269 53.8207 191.269 54.3228 191.269 54.7621C191.281 54.953 191.25 55.1441 191.179 55.3217C191.108 55.4992 190.998 55.6589 190.858 55.7891C190.733 55.905 190.581 55.9896 190.417 56.0362C190.252 56.0828 190.079 56.09 189.911 56.0573Z" fill="#263238"/>
<path d="M169.981 27.8943H169.234C167.926 27.8943 166.866 28.9544 166.866 30.2621V30.536C166.866 31.8437 167.926 32.9038 169.234 32.9038H169.981C171.289 32.9038 172.349 31.8437 172.349 30.536V30.2621C172.349 28.9544 171.289 27.8943 169.981 27.8943Z" fill="#2211BB"/>
<path d="M180.543 37.343H179.795C178.487 37.343 177.427 38.4031 177.427 39.7109V39.9847C177.427 41.2925 178.487 42.3526 179.795 42.3526H180.543C181.85 42.3526 182.91 41.2925 182.91 39.9847V39.7109C182.91 38.4031 181.85 37.343 180.543 37.343Z" fill="#2211BB"/>
<path d="M190.1 19.5354H189.352C188.044 19.5354 186.984 20.5955 186.984 21.9032V22.1771C186.984 23.4848 188.044 24.545 189.352 24.545H190.1C191.407 24.545 192.467 23.4848 192.467 22.1771V21.9032C192.467 20.5955 191.407 19.5354 190.1 19.5354Z" fill="#2211BB"/>
<path d="M101.16 20.2318C100.989 15.58 99.2698 11.1185 96.2747 7.55511C93.2796 3.99171 89.1804 1.53051 84.6273 0.562005C80.0742 -0.406502 75.3282 0.173147 71.142 2.20899C66.9559 4.24483 63.5695 7.62027 61.52 11.7998C59.4706 15.9793 58.8755 20.7235 59.8292 25.2796C60.7829 29.8358 63.2308 33.9431 66.7845 36.9497C70.3381 39.9564 74.794 41.6902 79.4452 41.8762C84.0965 42.0622 88.6766 40.6897 92.459 37.9764L100.036 40.7721L97.4229 32.9383C100.022 29.2244 101.335 24.7617 101.16 20.2318Z" fill="#FAFAFA"/>
<path d="M101.16 20.2317C101.164 20.3077 101.164 20.3839 101.16 20.4599C101.16 20.6197 101.16 20.8479 101.16 21.1389C101.16 22.02 101.106 22.9002 101 23.7749C100.577 27.0882 99.3612 30.2508 97.457 32.9952V32.9153L100.133 40.7435L100.201 40.9546L99.996 40.8804L92.4132 38.0961H92.3505V38.0333L92.5387 38.1075C90.0841 39.8757 87.2751 41.0904 84.3055 41.6678C83.5209 41.82 82.7285 41.9286 81.932 41.993C81.1275 42.0672 80.3058 42.033 79.4842 42.0273C79.2788 42.0273 79.0734 42.0273 78.8623 42.0273L78.2461 41.9588L76.9966 41.8161C76.5801 41.7591 76.175 41.645 75.7584 41.5651C75.3419 41.4852 74.9197 41.411 74.5146 41.2684C73.6875 41.0268 72.8758 40.7353 72.084 40.3954C71.6846 40.2186 71.2795 40.0531 70.8858 39.8648L69.7447 39.2201L69.1741 38.8949L68.6036 38.5126L67.4967 37.6853L66.4697 36.8351L65.9504 36.3958L65.4769 35.9108C65.1574 35.5856 64.8378 35.2661 64.524 34.9351L63.6625 33.8625C63.5198 33.6799 63.3658 33.5087 63.2346 33.2919L62.8523 32.7214C62.6012 32.3277 62.3274 31.9511 62.0991 31.5802C61.6349 30.7668 61.2233 29.9244 60.8667 29.0583C60.7013 28.619 60.4901 28.1968 60.3589 27.7403C60.2277 27.2839 60.0907 26.8331 59.9538 26.3824C58.7362 21.7417 59.1387 16.8244 61.0949 12.4435C62.009 10.3785 63.2455 8.47184 64.758 6.7949C66.238 5.21008 67.9409 3.84926 69.8132 2.7553C71.6008 1.74594 73.5215 0.993029 75.5188 0.518692L76.9852 0.244821C77.4689 0.166236 77.9565 0.11291 78.4458 0.0850614C79.3942 -0.000650961 80.3474 -0.0216184 81.2986 0.0223011C84.4857 0.185765 87.5929 1.07709 90.382 2.6279C93.1711 4.17872 95.5679 6.3478 97.3885 8.96875C97.7252 9.50508 98.0903 10.0015 98.3756 10.515L99.2258 12.0099C99.4483 12.5005 99.6309 12.9912 99.7963 13.4477C99.8819 13.6759 99.9903 13.8984 100.059 14.1209C100.127 14.3435 100.19 14.566 100.247 14.7828C100.373 15.205 100.492 15.6101 100.601 15.9924L100.806 17.0765C100.869 17.4131 100.926 17.7269 100.977 18.0122C101.029 18.2975 101.023 18.5828 101.046 18.7939C101.08 19.256 101.103 19.6041 101.12 19.8551C101.137 20.1062 101.12 20.2203 101.12 20.2203C101.12 20.2203 101.12 20.0948 101.074 19.8608C101.029 19.6269 101.012 19.256 100.966 18.7996C100.966 18.5656 100.926 18.3089 100.886 18.0236C100.846 17.7383 100.766 17.453 100.704 17.0936L100.527 16.0038C100.413 15.6272 100.293 15.2278 100.161 14.8056C100.099 14.5888 100.03 14.372 99.9618 14.1495C99.8933 13.927 99.7906 13.7101 99.6993 13.4819C99.5053 13.0312 99.3228 12.5462 99.0945 12.0555L98.3072 10.572C98.0162 10.0642 97.6567 9.57355 97.3144 9.04292C95.4986 6.45535 93.1151 4.31734 90.3461 2.79242C87.5771 1.26751 84.496 0.396091 81.3386 0.244821C80.3872 0.20415 79.4341 0.227023 78.4857 0.313288C78.0021 0.341138 77.5203 0.394464 77.0422 0.473045L75.5987 0.752623C73.6153 1.21694 71.709 1.96444 69.9387 2.97212C68.0935 4.05735 66.414 5.40245 64.952 6.96607C63.4553 8.63331 62.2342 10.5286 61.3346 12.5804C59.4018 16.8969 58.9993 21.7435 60.1934 26.3196C60.3247 26.7704 60.4559 27.2154 60.5928 27.6661C60.7298 28.1169 60.9295 28.5277 61.0949 28.9613C61.459 29.804 61.8784 30.6217 62.3502 31.409C62.5784 31.8027 62.8466 32.1736 63.0919 32.5502L63.4685 33.1207C63.594 33.3033 63.7481 33.4745 63.885 33.6514L64.7408 34.7069C65.0547 35.0321 65.3628 35.3574 65.6766 35.6769L66.1444 36.1561L66.6579 36.5898L67.6735 37.4456L68.7519 38.2558L69.2882 38.6324L69.8588 38.9519L70.9999 39.5909C71.3879 39.7735 71.7873 39.939 72.1753 40.1159C72.9576 40.4519 73.7598 40.7396 74.5774 40.9774C74.9768 41.1201 75.3933 41.1714 75.8041 41.2741C76.2149 41.3768 76.6143 41.4681 77.0251 41.5195L78.2575 41.6621L78.868 41.7363C79.0677 41.7363 79.2731 41.7363 79.4785 41.7363C80.2887 41.7363 81.0989 41.7819 81.892 41.7363C82.6787 41.6732 83.4615 41.5685 84.237 41.4225C87.1738 40.856 89.9533 39.6609 92.3847 37.9192L92.5273 37.8165L92.573 37.9877L92.4988 37.9021L100.07 40.715L99.9276 40.8462L97.3372 33.0066V32.9667V32.9268C99.2418 30.2116 100.474 27.0826 100.932 23.7977C101.047 22.9272 101.114 22.051 101.131 21.1731C101.131 20.8821 101.131 20.6596 101.131 20.4942C101.131 20.3287 101.16 20.2317 101.16 20.2317Z" fill="#263238"/>
<path d="M71.9927 9.13989L74.3662 11.0969L74.7942 12.626L81.9548 20.3515L81.1674 21.1103L74.1951 13.3963L72.6717 12.723L70.8516 10.224L71.9927 9.13989Z" fill="#E0E0E0"/>
<path d="M71.9928 9.15698C71.9035 9.26672 71.8083 9.37148 71.7075 9.47079L70.8916 10.2981V10.2182L72.7459 12.666L72.7003 12.6317L74.2294 13.2879L81.0762 20.8193L81.2245 20.9791H81.0134L81.875 20.243V20.4485C79.0849 17.4188 76.5915 14.7029 74.7486 12.6945C74.5946 12.1239 74.4576 11.6218 74.3378 11.1597L74.3663 11.1996L72.6547 9.73896L72.1982 9.33386C72.1408 9.28697 72.0874 9.23545 72.0384 9.17981C72.2587 9.32297 72.4702 9.47921 72.6718 9.64767L74.4691 11.0684C74.6003 11.5305 74.7486 12.0326 74.9084 12.5918V12.5518L82.1032 20.243L82.2059 20.3515L82.0975 20.4485L81.3101 21.213L81.2017 21.3157L81.099 21.2016L80.9507 21.0418L74.1096 13.4762L74.1495 13.5047L72.6318 12.82H72.6033L70.8174 10.2981L70.7832 10.2525L70.8231 10.2125L71.7075 9.41944C71.7951 9.32414 71.8905 9.23634 71.9928 9.15698Z" fill="#263238"/>
<path d="M82.2857 18.2463L83.016 19.0279C82.964 19.1421 82.9455 19.2687 82.9627 19.3929C82.9799 19.5172 83.032 19.634 83.113 19.7297C83.2154 19.8136 83.3346 19.8743 83.4627 19.9078C83.5907 19.9413 83.7244 19.9467 83.8547 19.9237L91.061 27.8489C91.232 28.0381 91.3639 28.2595 91.4488 28.5C91.5337 28.7406 91.5701 28.9957 91.5558 29.2504C91.5414 29.5051 91.4767 29.7545 91.3653 29.984C91.254 30.2135 91.0981 30.4187 90.9069 30.5876L90.479 30.9699C90.0999 31.3013 89.6064 31.4719 89.1035 31.4453C88.6006 31.4186 88.1279 31.1969 87.7859 30.8272L80.5626 22.9534C80.6017 22.8204 80.5992 22.6785 80.5554 22.5469C80.5115 22.4153 80.4284 22.3003 80.3172 22.2174C80.2261 22.1428 80.1186 22.091 80.0035 22.0661C79.8884 22.0413 79.7691 22.0443 79.6554 22.0747L78.9764 21.2988C78.8523 21.1588 78.7882 20.9758 78.7978 20.789C78.8074 20.6023 78.89 20.4268 79.0277 20.3003L81.3043 18.2177C81.441 18.0972 81.6184 18.0331 81.8006 18.0384C81.9828 18.0437 82.1562 18.118 82.2857 18.2463Z" fill="#2211BB"/>
<g opacity="0.3">
<path d="M90.2965 28.79L83.5866 21.4639C83.5525 21.4305 83.5254 21.3905 83.5068 21.3464C83.4883 21.3023 83.4788 21.255 83.4788 21.2072C83.4788 21.1594 83.4883 21.112 83.5068 21.0679C83.5254 21.0238 83.5525 20.9839 83.5866 20.9504C83.6201 20.9163 83.6601 20.8891 83.7042 20.8706C83.7482 20.8521 83.7956 20.8425 83.8434 20.8425C83.8912 20.8425 83.9386 20.8521 83.9827 20.8706C84.0267 20.8891 84.0667 20.9163 84.1002 20.9504L90.8214 28.2765C90.889 28.3448 90.9269 28.4371 90.9269 28.5332C90.9269 28.6294 90.889 28.7216 90.8214 28.79C90.7878 28.8259 90.7471 28.8545 90.702 28.8741C90.6568 28.8937 90.6082 28.9038 90.5589 28.9038C90.5097 28.9038 90.461 28.8937 90.4159 28.8741C90.3708 28.8545 90.3301 28.8259 90.2965 28.79Z" fill="black"/>
</g>
<g opacity="0.3">
<path d="M89.3265 29.6975L82.6053 22.3486C82.538 22.2812 82.5002 22.1899 82.5002 22.0947C82.5002 21.9995 82.538 21.9082 82.6053 21.8408C82.6387 21.8066 82.6787 21.7795 82.7228 21.761C82.7669 21.7425 82.8142 21.7329 82.862 21.7329C82.9098 21.7329 82.9572 21.7425 83.0013 21.761C83.0454 21.7795 83.0853 21.8066 83.1188 21.8408L89.8628 29.1897C89.8968 29.2226 89.9239 29.2621 89.9423 29.3057C89.9608 29.3493 89.9703 29.3962 89.9703 29.4436C89.9703 29.4909 89.9608 29.5378 89.9423 29.5814C89.9239 29.625 89.8968 29.6645 89.8628 29.6975C89.8286 29.7345 89.7872 29.764 89.741 29.7842C89.6949 29.8044 89.645 29.8148 89.5947 29.8148C89.5443 29.8148 89.4945 29.8044 89.4483 29.7842C89.4022 29.764 89.3607 29.7345 89.3265 29.6975Z" fill="black"/>
</g>
<g opacity="0.3">
<path d="M88.2936 30.6272L81.5666 23.3011C81.5325 23.2677 81.5053 23.2277 81.4868 23.1836C81.4683 23.1396 81.4587 23.0922 81.4587 23.0444C81.4587 22.9966 81.4683 22.9492 81.4868 22.9051C81.5053 22.861 81.5325 22.8211 81.5666 22.7876C81.635 22.72 81.7273 22.6821 81.8234 22.6821C81.9195 22.6821 82.0118 22.72 82.0801 22.7876L88.8014 30.1137C88.869 30.182 88.9069 30.2743 88.9069 30.3704C88.9069 30.4666 88.869 30.5588 88.8014 30.6272C88.734 30.6944 88.6427 30.7322 88.5475 30.7322C88.4523 30.7322 88.361 30.6944 88.2936 30.6272Z" fill="black"/>
</g>
<path d="M83.016 19.028C83.016 19.028 82.2743 19.7241 81.3443 20.5628C80.4142 21.4015 79.6326 22.0748 79.6326 22.0634C79.6326 22.052 80.3743 21.3673 81.3043 20.5286C82.2343 19.6898 83.016 19.0166 83.016 19.028Z" fill="#263238"/>
<path d="M83.8719 19.9292C83.8719 19.9292 83.1473 20.6253 82.2287 21.4583C81.3101 22.2914 80.5626 22.9589 80.5569 22.9532C80.5512 22.9475 81.3044 22.28 82.1944 21.4241C83.0845 20.5683 83.8605 19.9235 83.8719 19.9292Z" fill="#263238"/>
<path d="M80.9278 22.5137C80.8965 22.464 80.8679 22.4126 80.8423 22.3597C80.7733 22.2342 80.6825 22.1221 80.5741 22.0287C80.4674 21.9352 80.3459 21.86 80.2146 21.8062C80.1559 21.7903 80.0986 21.7693 80.0435 21.7434C80.1038 21.7327 80.1657 21.7327 80.226 21.7434C80.3668 21.792 80.4966 21.8676 80.6083 21.966C80.7211 22.0619 80.8125 22.1805 80.8765 22.314C80.9098 22.3753 80.9275 22.4439 80.9278 22.5137Z" fill="#263238"/>
<path d="M81.2188 22.1773C81.2188 22.1773 81.0705 21.9891 80.8651 21.7779C80.6597 21.5668 80.4771 21.4128 80.4828 21.4014C80.6397 21.4916 80.7804 21.6073 80.8993 21.7437C81.0313 21.8676 81.1396 22.0146 81.2188 22.1773Z" fill="#263238"/>
<path d="M81.5326 21.9377C81.3933 21.8185 81.2654 21.6867 81.1503 21.544C81.0204 21.4111 80.9039 21.2659 80.8022 21.1104C80.9423 21.2308 81.0703 21.3646 81.1845 21.5097C81.3134 21.6414 81.4299 21.7847 81.5326 21.9377Z" fill="#263238"/>
<path d="M81.909 21.5667C81.7628 21.46 81.6305 21.3354 81.5153 21.1958C81.3872 21.0675 81.2707 20.9281 81.1672 20.7793C81.3048 20.8962 81.4326 21.024 81.5495 21.1616C81.6807 21.286 81.801 21.4216 81.909 21.5667Z" fill="#263238"/>
<path d="M82.2116 21.23C82.0527 21.1631 81.9133 21.0571 81.8065 20.9219C81.6872 20.7966 81.601 20.6437 81.5554 20.4768C81.5554 20.4768 81.6638 20.6822 81.8464 20.8876C81.9594 21.0106 82.0815 21.1251 82.2116 21.23Z" fill="#263238"/>
<path d="M82.7137 20.905C82.5327 20.8379 82.3718 20.726 82.2458 20.5798C82.1088 20.4435 82.0087 20.2747 81.9548 20.0891C82.0555 20.248 82.166 20.4005 82.2858 20.5456C82.4179 20.6774 82.561 20.7976 82.7137 20.905Z" fill="#263238"/>
<path d="M82.8789 20.443C82.7301 20.398 82.6012 20.3034 82.5138 20.1748C82.4122 20.0582 82.3503 19.9124 82.3369 19.7583C82.3975 19.8938 82.47 20.0237 82.5537 20.1463C82.6523 20.2554 82.7612 20.3548 82.8789 20.443Z" fill="#263238"/>
<path d="M83.5467 20.2488C83.4849 20.2645 83.4202 20.2645 83.3584 20.2488C83.2095 20.2182 83.0704 20.1516 82.9533 20.0548C82.8363 19.9572 82.746 19.8316 82.6908 19.6897C82.6644 19.6324 82.6508 19.5701 82.6509 19.5071C82.6509 19.5071 82.6509 19.5755 82.7251 19.6783C82.7977 19.8046 82.897 19.9136 83.016 19.9978C83.1273 20.0915 83.2578 20.1597 83.3983 20.1975L83.5467 20.2488Z" fill="#263238"/>
<path d="M92.8695 11.2224L92.6584 10.9884L89.9482 13.8013L87.4777 11.3251L90.0852 8.6206L89.8741 8.38667C89.0658 8.28635 88.2452 8.39049 87.4876 8.68954C86.73 8.98859 86.0596 9.473 85.5378 10.0984C83.9687 11.8728 84.7789 14.2121 84.7789 14.2121L81.8748 17.1049L84.3852 19.4613L87.2951 16.6085C87.2951 16.6085 90.011 17.4415 91.7512 15.5244C93.3431 13.7557 92.8695 11.2224 92.8695 11.2224Z" fill="#263238"/>
<path d="M79.895 23.638L77.3845 21.293L74.138 24.511C74.138 24.511 71.1597 23.9404 69.6819 25.5893C68.7294 26.6947 68.2426 28.1264 68.324 29.5833C68.324 29.7773 68.5693 29.84 68.5693 29.84L71.4906 27.2668L73.9611 29.7373L71.1083 32.2079L71.3479 32.4418C72.1679 32.657 73.0322 32.635 73.8402 32.3785C74.6482 32.1219 75.3668 31.6413 75.9125 30.9926C77.4872 29.2181 76.677 26.8845 76.677 26.8845L79.895 23.638Z" fill="#263238"/>
<path d="M92.6585 10.9887L89.7429 13.5676L87.2666 11.0914L89.8627 8.38691C89.0427 8.17174 88.1785 8.19369 87.3705 8.45024C86.5625 8.70678 85.8439 9.18736 85.2982 9.83614C83.7291 11.6106 84.5393 13.9499 84.5393 13.9499L81.6409 16.8712L84.1514 19.2276L87.0612 16.3748C87.0612 16.3748 89.7771 17.2078 91.5173 15.2907C93.132 13.5277 92.6585 10.9887 92.6585 10.9887Z" fill="#455A64"/>
<path d="M79.6497 23.4209L77.1449 21.0759L73.887 24.2768C73.887 24.2768 70.9029 23.7062 69.4309 25.3609C68.9386 25.9469 68.5812 26.634 68.384 27.3735C68.1868 28.113 68.1546 28.8868 68.2897 29.6401L71.211 27.0611L73.6816 29.5317L71.0741 32.2362C71.8936 32.4513 72.7572 32.4299 73.5651 32.1744C74.3729 31.9189 75.0918 31.4399 75.6386 30.7926C77.2076 29.0125 76.3974 26.6789 76.3974 26.6789L79.6497 23.4209Z" fill="#455A64"/>
</svg>
