<svg xmlns="http://www.w3.org/2000/svg" xmlns:xlink="http://www.w3.org/1999/xlink" version="1.1" width="256" height="256" viewBox="0 0 256 256" xml:space="preserve">

<defs>
</defs>
<g style="stroke: none; stroke-width: 0; stroke-dasharray: none; stroke-linecap: butt; stroke-linejoin: miter; stroke-miterlimit: 10; fill: none; fill-rule: nonzero; opacity: 1;" transform="translate(1.4065934065934016 1.4065934065934016) scale(2.81 2.81)" >
	<linearGradient id="SVGID_7" gradientUnits="userSpaceOnUse" x1="45" y1="90" x2="45" y2="-9.094947e-13">
<stop offset="0%" style="stop-color:#3c5a99;stop-opacity: 1"/>
<stop offset="100%" style="stop-color:#3c5a99;stop-opacity: 1"/>
</linearGradient>
<path d="M 90 63.718 C 90 78.233 78.233 90 63.718 90 H 26.282 C 11.767 90 0 78.233 0 63.718 V 26.282 C 0 11.767 11.767 0 26.282 0 h 37.436 C 78.233 0 90 11.767 90 26.282 V 63.718 z" style="stroke: none; stroke-width: 1; stroke-dasharray: none; stroke-linecap: butt; stroke-linejoin: miter; stroke-miterlimit: 10; fill: url(#SVGID_7); fill-rule: nonzero; opacity: 1;" transform=" matrix(1 0 0 1 0 0) " stroke-linecap="round" />
	<path d="M 26.9 10.581 c -0.056 -1.235 -0.253 -2.079 -0.539 -2.817 c -0.291 -0.774 -0.748 -1.476 -1.338 -2.055 c -0.579 -0.59 -1.281 -1.047 -2.055 -1.339 c -0.738 -0.286 -1.581 -0.482 -2.817 -0.539 c -1.237 -0.056 -1.633 -0.07 -4.784 -0.07 s -3.547 0.014 -4.784 0.07 C 9.346 3.888 8.503 4.084 7.765 4.371 C 6.99 4.662 6.289 5.119 5.709 5.709 C 5.119 6.289 4.662 6.99 4.371 7.765 c -0.286 0.738 -0.482 1.582 -0.539 2.817 c -0.057 1.238 -0.07 1.633 -0.07 4.784 c 0 3.152 0.013 3.547 0.07 4.784 c 0.056 1.235 0.252 2.079 0.539 2.817 c 0.291 0.774 0.748 1.476 1.338 2.055 c 0.579 0.59 1.281 1.047 2.055 1.338 c 0.738 0.287 1.581 0.483 2.817 0.539 c 1.237 0.056 1.633 0.07 4.784 0.07 s 3.547 -0.013 4.784 -0.07 c 1.235 -0.056 2.079 -0.252 2.817 -0.539 c 1.559 -0.603 2.791 -1.835 3.393 -3.393 c 0.287 -0.738 0.483 -1.582 0.539 -2.817 c 0.056 -1.238 0.07 -1.633 0.07 -4.784 S 26.956 11.819 26.9 10.581 z M 24.811 20.055 c -0.052 1.132 -0.241 1.746 -0.399 2.155 c -0.39 1.012 -1.19 1.812 -2.202 2.202 c -0.409 0.159 -1.023 0.348 -2.155 0.399 c -1.223 0.056 -1.59 0.068 -4.689 0.068 c -3.099 0 -3.466 -0.012 -4.689 -0.068 c -1.131 -0.052 -1.746 -0.241 -2.155 -0.399 c -0.504 -0.186 -0.96 -0.483 -1.334 -0.868 c -0.386 -0.374 -0.682 -0.83 -0.868 -1.334 c -0.159 -0.409 -0.348 -1.023 -0.399 -2.155 c -0.056 -1.224 -0.068 -1.59 -0.068 -4.689 S 5.864 11.9 5.92 10.677 C 5.972 9.545 6.161 8.931 6.32 8.522 c 0.186 -0.504 0.483 -0.96 0.868 -1.334 c 0.374 -0.386 0.83 -0.682 1.334 -0.868 c 0.409 -0.159 1.023 -0.348 2.155 -0.4 c 1.223 -0.055 1.59 -0.067 4.689 -0.067 h 0 c 3.098 0 3.465 0.012 4.689 0.068 c 1.132 0.052 1.746 0.241 2.155 0.399 c 0.504 0.186 0.96 0.483 1.334 0.868 c 0.386 0.374 0.682 0.83 0.868 1.334 c 0.159 0.409 0.348 1.023 0.4 2.155 c 0.056 1.224 0.068 1.59 0.068 4.689 S 24.867 18.831 24.811 20.055 z" style="stroke: none; stroke-width: 1; stroke-dasharray: none; stroke-linecap: butt; stroke-linejoin: miter; stroke-miterlimit: 10; fill: rgb(255,255,255); fill-rule: nonzero; opacity: 1;" transform=" matrix(2.8008 0 0 2.8008 1.9639999999999986 1.9639999999999702) " stroke-linecap="round" />
	<path d="M 15.365 9.407 c -3.291 0 -5.959 2.668 -5.959 5.959 s 2.668 5.959 5.959 5.959 c 3.291 0 5.959 -2.668 5.959 -5.959 S 18.656 9.407 15.365 9.407 z M 15.365 19.234 c -2.136 0 -3.868 -1.732 -3.868 -3.868 s 1.732 -3.868 3.868 -3.868 c 2.136 0 3.868 1.732 3.868 3.868 S 17.502 19.234 15.365 19.234 z" style="stroke: none; stroke-width: 1; stroke-dasharray: none; stroke-linecap: butt; stroke-linejoin: miter; stroke-miterlimit: 10; fill: rgb(255,255,255); fill-rule: nonzero; opacity: 1;" transform=" matrix(2.8008 0 0 2.8008 1.9639999999999986 1.9639999999999702) " stroke-linecap="round" />
	<path d="M 22.952 9.171 c 0 0.769 -0.624 1.392 -1.392 1.392 c -0.769 0 -1.392 -0.624 -1.392 -1.392 c 0 -0.769 0.624 -1.392 1.392 -1.392 S 22.952 8.403 22.952 9.171 z" style="stroke: none; stroke-width: 1; stroke-dasharray: none; stroke-linecap: butt; stroke-linejoin: miter; stroke-miterlimit: 10; fill: rgb(255,255,255); fill-rule: nonzero; opacity: 1;" transform=" matrix(2.8008 0 0 2.8008 1.9639999999999986 1.9639999999999702) " stroke-linecap="round" />
</g>
</svg>