<svg data-v-fde0c5aa="" xmlns="http://www.w3.org/2000/svg" viewBox="0 0 300 300" class="iconLeft"><!----><defs data-v-fde0c5aa=""><!----></defs><rect data-v-fde0c5aa="" fill="transparent" x="0" y="0" width="300px" height="300px" class="logo-background-square"></rect><defs data-v-fde0c5aa=""><!----></defs><g data-v-fde0c5aa="" id="43085328-3957-4e9a-bf30-14c559ecf766" fill="#071850" transform="matrix(3.2875407888326453,0,0,3.2875407888326453,97.98999648682367,125.68863592928744)"><path d="M4.07 10.57L4.07 10.57L4.07 9.17L5.94 9.17L5.94 10.35L5.94 10.35Q5.94 12.19 4.20 12.19L4.20 12.19L2.44 12.19L2.44 12.19Q0.70 12.19 0.70 10.35L0.70 10.35L0.70 4.70L0.70 4.70Q0.70 2.86 2.44 2.86L2.44 2.86L4.20 2.86L4.20 2.86Q5.94 2.86 5.94 4.70L5.94 4.70L5.94 5.56L4.07 5.56L4.07 4.47L4.07 4.47Q4.07 4.35 4.00 4.27L4.00 4.27L4.00 4.27Q3.92 4.19 3.81 4.19L3.81 4.19L2.93 4.19L2.93 4.19Q2.81 4.19 2.74 4.27L2.74 4.27L2.74 4.27Q2.66 4.35 2.66 4.47L2.66 4.47L2.66 10.57L2.66 10.57Q2.66 10.68 2.74 10.77L2.74 10.77L2.74 10.77Q2.81 10.85 2.93 10.85L2.93 10.85L3.81 10.85L3.81 10.85Q3.92 10.85 4.00 10.77L4.00 10.77L4.00 10.77Q4.07 10.68 4.07 10.57ZM8.92 6.68L8.92 12.05L7.04 12.05L7.04 3.00L8.92 3.00L8.92 5.42L8.92 5.42Q9.34 5.08 10.07 5.08L10.07 5.08L10.36 5.08L10.36 5.08Q12.10 5.08 12.10 6.93L12.10 6.93L12.10 12.05L10.22 12.05L10.22 6.71L10.22 6.71Q10.22 6.59 10.14 6.51L10.14 6.51L10.14 6.51Q10.07 6.43 9.95 6.43L9.95 6.43L9.18 6.43L9.18 6.43Q8.95 6.43 8.92 6.68L8.92 6.68ZM16.55 10.57L16.55 5.22L18.42 5.22L18.42 12.05L16.72 12.05L16.72 11.70L16.72 11.70Q16.28 12.19 15.40 12.19L15.40 12.19L15.11 12.19L15.11 12.19Q13.37 12.19 13.37 10.35L13.37 10.35L13.37 5.22L15.25 5.22L15.25 10.57L15.25 10.57Q15.25 10.68 15.32 10.77L15.32 10.77L15.32 10.77Q15.40 10.85 15.51 10.85L15.51 10.85L16.28 10.85L16.28 10.85Q16.39 10.85 16.47 10.77L16.47 10.77L16.47 10.77Q16.55 10.68 16.55 10.57L16.55 10.57ZM21.57 6.71L21.57 12.05L19.70 12.05L19.70 5.22L21.41 5.22L21.41 5.57L21.41 5.57Q21.84 5.08 22.72 5.08L22.72 5.08L23.02 5.08L23.02 5.08Q24.75 5.08 24.75 6.93L24.75 6.93L24.75 12.05L22.88 12.05L22.88 6.71L22.88 6.71Q22.88 6.59 22.80 6.51L22.80 6.51L22.80 6.51Q22.72 6.43 22.61 6.43L22.61 6.43L21.84 6.43L21.84 6.43Q21.73 6.43 21.65 6.51L21.65 6.51L21.65 6.51Q21.57 6.59 21.57 6.71L21.57 6.71ZM29.55 5.22L31.40 5.22L30.00 8.43L31.63 12.05L29.75 12.05L28.46 9.21L27.90 9.21L27.90 12.05L26.03 12.05L26.03 3.00L27.90 3.00L27.90 7.67L28.53 7.67L29.55 5.22ZM36.43 8.50L34.44 8.50L34.44 12.05L32.48 12.05L32.48 3.00L36.57 3.00L36.57 4.69L34.44 4.69L34.44 6.86L36.43 6.86L36.43 8.50ZM39.56 4.37L39.56 4.37L39.56 4.37Q39.26 4.66 38.84 4.66L38.84 4.66L38.84 4.66Q38.42 4.66 38.11 4.36L38.11 4.36L38.11 4.36Q37.80 4.06 37.80 3.63L37.80 3.63L37.80 3.63Q37.80 3.21 38.11 2.90L38.11 2.90L38.11 2.90Q38.42 2.60 38.84 2.60L38.84 2.60L38.84 2.60Q39.26 2.60 39.56 2.90L39.56 2.90L39.56 2.90Q39.86 3.21 39.86 3.64L39.86 3.64L39.86 3.64Q39.86 4.07 39.56 4.37ZM39.77 12.05L37.90 12.05L37.90 5.22L39.77 5.22L39.77 12.05ZM42.97 3.00L42.97 12.05L41.09 12.05L41.09 3.00L42.97 3.00ZM45.96 5.08L47.54 5.08L47.54 5.08Q49.28 5.08 49.28 6.93L49.28 6.93L49.28 9.14L46.10 9.14L46.10 10.57L46.10 10.57Q46.10 10.68 46.18 10.77L46.18 10.77L46.18 10.77Q46.26 10.85 46.37 10.85L46.37 10.85L47.14 10.85L47.14 10.85Q47.25 10.85 47.33 10.77L47.33 10.77L47.33 10.77Q47.40 10.68 47.40 10.57L47.40 10.57L47.40 9.81L49.28 9.81L49.28 10.35L49.28 10.35Q49.28 12.19 47.54 12.19L47.54 12.19L45.96 12.19L45.96 12.19Q44.23 12.19 44.23 10.35L44.23 10.35L44.23 6.93L44.23 6.93Q44.23 5.08 45.96 5.08L45.96 5.08ZM46.10 6.65L46.10 7.91L47.40 7.91L47.40 6.65L47.40 6.65Q47.40 6.54 47.33 6.45L47.33 6.45L47.33 6.45Q47.25 6.37 47.14 6.37L47.14 6.37L46.37 6.37L46.37 6.37Q46.26 6.37 46.18 6.45L46.18 6.45L46.18 6.45Q46.10 6.54 46.10 6.65L46.10 6.65Z"></path></g><defs data-v-fde0c5aa=""><linearGradient data-v-fde0c5aa="" gradientTransform="rotate(25)" id="1d2c7b51-a334-44a3-9eee-5e3ccd89e205" x1="0%" y1="0%" x2="100%" y2="0%"><stop data-v-fde0c5aa="" offset="0%" stop-color="#120870" stop-opacity="1"></stop><stop data-v-fde0c5aa="" offset="100%" stop-color="#3ECDDF" stop-opacity="1"></stop></linearGradient></defs><g data-v-fde0c5aa="" id="fa82ebb1-d70d-44ee-b4ab-46e3c9c3cf3e" stroke="none" fill="url(#1d2c7b51-a334-44a3-9eee-5e3ccd89e205)" transform="matrix(0.6568232638863329,0,0,0.6568232638863329,30.476062673648173,116.83042517374018)"><path d="M59.5 14.5h-18l9 36z"></path><path d="M68.5 32.5s-18 18-18 36c0-18-18-36-18-36h-18s27 18 27 54h18c0-36 27-54 27-54h-18z"></path></g><!----></svg>