<svg xmlns="http://www.w3.org/2000/svg" xmlns:xlink="http://www.w3.org/1999/xlink" width="1em" height="1em" preserveAspectRatio="xMidYMid meet" viewBox="0 0 24 24" style="-ms-transform: rotate(360deg); -webkit-transform: rotate(360deg); transform: rotate(360deg);"><g fill="none" stroke="white" stroke-linecap="round" stroke-linejoin="round" stroke-width="1.5"><path d="M21 9.6v10.8a.6.6 0 0 1-.6.6H9.6a.6.6 0 0 1-.6-.6V9.6a.6.6 0 0 1 .6-.6h10.8a.6.6 0 0 1 .6.6Z"/><path d="M15 3.6v10.8a.6.6 0 0 1-.6.6H3.6a.6.6 0 0 1-.6-.6V3.6a.6.6 0 0 1 .6-.6h10.8a.6.6 0 0 1 .6.6Z"/></g></svg>