<svg width="295" height="258" viewBox="0 0 295 258" fill="none" xmlns="http://www.w3.org/2000/svg">
<path d="M320.253 226.727H-26V226.9H320.253V226.727Z" fill="#E6E6E6"/>
<path d="M52.8488 232.28H29.0266V232.453H52.8488V232.28Z" fill="#E6E6E6"/>
<path d="M64.5313 232.28H57.4124V232.453H64.5313V232.28Z" fill="#E6E6E6"/>
<path d="M99.6552 228.88H86.2483V229.053H99.6552V228.88Z" fill="#E6E6E6"/>
<path d="M272.2 236.124H242.291V236.297H272.2V236.124Z" fill="#E6E6E6"/>
<path d="M282.754 236.124H278.37V236.297H282.754V236.124Z" fill="#E6E6E6"/>
<path d="M249.86 230.044H184.986V230.217H249.86V230.044Z" fill="#E6E6E6"/>
<path d="M138.124 195.841H4.40798C3.36046 195.839 2.35647 195.421 1.61641 194.68C0.876345 193.939 0.460692 192.934 0.460693 191.886V3.91958C0.469812 2.87807 0.889489 1.88222 1.62857 1.14833C2.36764 0.414436 3.36643 0.00178416 4.40798 0H138.124C139.173 0 140.178 0.416603 140.92 1.15816C141.662 1.89972 142.078 2.90549 142.078 3.95421V191.886C142.078 192.935 141.662 193.941 140.92 194.683C140.178 195.424 139.173 195.841 138.124 195.841ZM4.40798 0.138502C3.40637 0.140336 2.44642 0.539507 1.73882 1.2484C1.03123 1.95729 0.633818 2.91798 0.63382 3.91958V191.886C0.633818 192.888 1.03123 193.849 1.73882 194.558C2.44642 195.267 3.40637 195.666 4.40798 195.668H138.124C139.126 195.666 140.087 195.267 140.796 194.558C141.504 193.849 141.903 192.889 141.905 191.886V3.91958C141.903 2.91734 141.504 1.95667 140.796 1.24798C140.087 0.539282 139.126 0.140332 138.124 0.138502H4.40798Z" fill="#E6E6E6"/>
<path d="M287.92 195.841H154.197C153.149 195.839 152.144 195.422 151.403 194.68C150.662 193.939 150.245 192.935 150.243 191.886V3.91958C150.254 2.87744 150.675 1.88159 151.415 1.14789C152.155 0.414194 153.155 0.00176471 154.197 0H287.92C288.96 0.00360414 289.957 0.417061 290.695 1.15076C291.432 1.88445 291.851 2.87927 291.86 3.91958V191.886C291.86 192.933 291.445 193.936 290.707 194.678C289.968 195.419 288.966 195.837 287.92 195.841ZM154.197 0.138502C153.195 0.140332 152.234 0.539282 151.525 1.24798C150.817 1.95667 150.418 2.91734 150.416 3.91958V191.886C150.418 192.889 150.817 193.849 151.525 194.558C152.234 195.267 153.195 195.666 154.197 195.668H287.92C288.922 195.666 289.883 195.267 290.591 194.558C291.3 193.849 291.699 192.889 291.701 191.886V3.91958C291.699 2.91734 291.3 1.95667 290.591 1.24798C289.883 0.539282 288.922 0.140332 287.92 0.138502H154.197Z" fill="#E6E6E6"/>
<path d="M264.174 132.345H215.65V226.727H264.174V132.345Z" fill="#F5F5F5"/>
<path d="M264.174 132.345H260.171V226.727H264.174V132.345Z" fill="#F0F0F0"/>
<path d="M107.667 155.426H219.389V135.039H107.667V155.426Z" fill="#E0E0E0"/>
<path d="M154.252 226.796H106.352C106.168 226.796 105.992 226.723 105.862 226.593C105.732 226.463 105.659 226.287 105.659 226.103C105.659 225.919 105.732 225.743 105.862 225.613C105.992 225.483 106.168 225.41 106.352 225.41H154.252C161.177 225.41 162.098 223.388 162.098 215.369V114.263C162.098 114.08 162.171 113.904 162.301 113.774C162.431 113.644 162.607 113.571 162.791 113.571C162.975 113.571 163.151 113.644 163.281 113.774C163.41 113.904 163.483 114.08 163.483 114.263V215.369C163.483 223.942 162.154 226.796 154.252 226.796Z" fill="#E0E0E0"/>
<path d="M111.961 139.789L263.08 139.789V132.712L111.961 132.712V139.789Z" fill="#F0F0F0"/>
<path d="M113.055 132.345H64.5312V226.727H113.055V132.345Z" fill="#F5F5F5"/>
<path d="M113.048 132.345H109.046V226.727H113.048V132.345Z" fill="#F0F0F0"/>
<path d="M78.6931 226.726L78.6931 58.6553H37.0527L37.0527 226.726H78.6931Z" fill="#FAFAFA"/>
<path d="M76.4077 100.635V63.5652H39.3379V100.635H76.4077Z" fill="#F5F5F5"/>
<path d="M49.6633 63.0667H66.1034C66.1034 64.086 65.6985 65.0636 64.9777 65.7843C64.2569 66.5051 63.2793 66.91 62.26 66.91H53.5344C53.0274 66.9137 52.5246 66.817 52.0551 66.6255C51.5856 66.434 51.1586 66.1514 50.7988 65.7942C50.439 65.4369 50.1534 65.012 49.9585 64.5439C49.7636 64.0758 49.6633 63.5737 49.6633 63.0667Z" fill="#E0E0E0"/>
<path d="M76.4009 141.029V103.959H39.331V141.029H76.4009Z" fill="#F5F5F5"/>
<path d="M76.4077 181.423V144.353H39.3379V181.423H76.4077Z" fill="#F5F5F5"/>
<path d="M76.4077 221.824V184.754H39.3379V221.824H76.4077Z" fill="#F5F5F5"/>
<path d="M49.6633 103.467H66.1034C66.1016 104.486 65.6961 105.463 64.9757 106.183C64.2553 106.903 63.2788 107.309 62.26 107.311H53.5344C53.0276 107.313 52.5253 107.216 52.0562 107.024C51.5871 106.832 51.1605 106.55 50.8009 106.193C50.4412 105.836 50.1556 105.411 49.9604 104.943C49.7652 104.476 49.6642 103.974 49.6633 103.467Z" fill="#E0E0E0"/>
<path d="M49.6633 143.861H66.1034C66.1034 144.88 65.6985 145.858 64.9777 146.579C64.2569 147.3 63.2793 147.705 62.26 147.705H53.5344C53.0274 147.708 52.5246 147.611 52.0551 147.42C51.5856 147.228 51.1586 146.946 50.7988 146.589C50.439 146.231 50.1534 145.806 49.9585 145.338C49.7636 144.87 49.6633 144.368 49.6633 143.861Z" fill="#E0E0E0"/>
<path d="M49.6633 184.255H66.1034C66.1034 185.274 65.6985 186.252 64.9777 186.973C64.2569 187.694 63.2793 188.099 62.26 188.099H53.5344C53.0274 188.102 52.5246 188.005 52.0551 187.814C51.5856 187.622 51.1586 187.34 50.7988 186.983C50.439 186.625 50.1534 186.2 49.9585 185.732C49.7636 185.264 49.6633 184.762 49.6633 184.255Z" fill="#E0E0E0"/>
<path d="M37.0527 226.726L37.0527 58.6553H16.2568L16.2568 226.726H37.0527Z" fill="#F0F0F0"/>
<path d="M157.092 132.345H146.628L149.169 111.971H159.64L157.092 132.345Z" fill="#F0F0F0"/>
<path d="M159.412 132.345H148.941L151.489 111.971H161.953L159.412 132.345Z" fill="#F5F5F5"/>
<path d="M181.863 132.345H174.294L172.846 130.039H180.408L181.863 132.345Z" fill="#F0F0F0"/>
<path d="M222.416 132.345H176.607L175.159 130.039H216.239L222.416 132.345Z" fill="#FAFAFA"/>
<path d="M123.9 126.5H127.21C128.76 126.5 130.247 127.116 131.343 128.212C132.439 129.308 133.055 130.795 133.055 132.345H118.041C118.041 131.576 118.193 130.815 118.487 130.105C118.782 129.395 119.214 128.75 119.758 128.207C120.302 127.664 120.948 127.234 121.659 126.941C122.37 126.648 123.131 126.498 123.9 126.5Z" fill="#F0F0F0"/>
<path d="M160.679 122.158H150.215L151.489 111.971H161.953L160.679 122.158Z" fill="#F0F0F0"/>
<path d="M122.196 119.72H196.295C196.44 119.721 196.585 119.69 196.718 119.63C196.85 119.57 196.969 119.482 197.065 119.373C197.162 119.263 197.234 119.134 197.276 118.995C197.319 118.855 197.331 118.709 197.313 118.564L191.606 72.9139C191.576 72.6654 191.455 72.4367 191.268 72.2708C191.08 72.105 190.839 72.0135 190.588 72.0137H116.511C116.366 72.0136 116.222 72.0443 116.09 72.1039C115.957 72.1634 115.839 72.2504 115.743 72.3591C115.647 72.4678 115.575 72.5957 115.532 72.7343C115.488 72.8729 115.475 73.0191 115.493 73.1632L121.199 118.82C121.229 119.065 121.347 119.291 121.53 119.456C121.713 119.622 121.95 119.716 122.196 119.72Z" fill="#F0F0F0"/>
<path d="M123.318 119.72H197.368C197.513 119.721 197.658 119.69 197.791 119.63C197.924 119.57 198.042 119.482 198.139 119.373C198.235 119.263 198.307 119.134 198.349 118.995C198.392 118.855 198.404 118.709 198.386 118.564L192.679 72.9139C192.648 72.666 192.527 72.4381 192.34 72.2725C192.152 72.107 191.911 72.015 191.661 72.0137H117.612C117.467 72.0136 117.323 72.0443 117.191 72.1039C117.058 72.1634 116.94 72.2504 116.844 72.3591C116.748 72.4678 116.675 72.5957 116.632 72.7343C116.589 72.8729 116.576 73.0191 116.594 73.1632L122.3 118.82C122.33 119.069 122.451 119.297 122.638 119.463C122.826 119.629 123.068 119.721 123.318 119.72Z" fill="#F5F5F5"/>
<path d="M195.997 117.193L190.657 74.4651C190.647 74.3953 190.612 74.3316 190.559 74.2858C190.505 74.2399 190.437 74.215 190.367 74.2158H119.267C119.226 74.2143 119.186 74.2218 119.148 74.2378C119.111 74.2538 119.077 74.2778 119.05 74.3083C119.023 74.3387 119.003 74.3747 118.991 74.4138C118.98 74.4529 118.977 74.494 118.983 74.5343L124.322 117.269C124.331 117.338 124.364 117.402 124.417 117.448C124.469 117.494 124.537 117.519 124.606 117.518H195.713C195.754 117.517 195.794 117.508 195.831 117.491C195.867 117.474 195.9 117.449 195.927 117.419C195.954 117.388 195.974 117.352 195.986 117.313C195.998 117.274 196.002 117.233 195.997 117.193Z" fill="#E0E0E0"/>
<path d="M168.934 132.345H151.884V132.13C151.884 131.68 152.063 131.249 152.381 130.931C152.699 130.612 153.131 130.434 153.581 130.434H167.237C167.687 130.434 168.118 130.612 168.437 130.931C168.755 131.249 168.934 131.68 168.934 132.13V132.345Z" fill="#FAFAFA"/>
<path d="M153.872 132.345H142.307V132.13C142.307 131.68 142.485 131.249 142.804 130.931C143.122 130.612 143.553 130.434 144.003 130.434H152.175C152.625 130.434 153.056 130.612 153.375 130.931C153.693 131.249 153.872 131.68 153.872 132.13V132.345Z" fill="#F0F0F0"/>
<path d="M54.6492 39.6736V39.639C54.8085 39.1058 54.9608 38.5656 55.0924 38.0255C55.3269 38.3989 55.6458 38.7119 56.0236 38.9392C56.4013 39.1666 56.8272 39.3019 57.2669 39.3343H57.4539C58.6103 39.2235 59.7184 38.1017 60.4178 36.3358C60.4313 36.304 60.4383 36.2699 60.4383 36.2353C60.4383 36.2008 60.4313 36.1667 60.4178 36.1349C60.3842 36.0717 60.3269 36.0244 60.2585 36.0034C59.4284 35.793 58.5633 35.7601 57.7196 35.9069C56.8759 36.0536 56.0727 36.3768 55.3625 36.8551C55.4664 36.3427 55.5564 35.8233 55.6326 35.3109C55.8152 35.3461 56.0006 35.3646 56.1866 35.3663C58.0702 35.3663 59.4552 33.6835 59.5244 33.6004C59.5488 33.5698 59.5657 33.534 59.5737 33.4958C59.5817 33.4575 59.5806 33.418 59.5705 33.3802C59.5604 33.3425 59.5416 33.3076 59.5155 33.2785C59.4895 33.2494 59.457 33.2268 59.4206 33.2126C58.983 32.9953 58.5044 32.8732 58.0163 32.8541C57.5281 32.835 57.0414 32.9194 56.5882 33.1018C56.1045 33.3478 55.7133 33.7438 55.4733 34.2305C55.1204 33.1469 54.4753 32.1817 53.609 31.4412C52.7427 30.7008 51.6888 30.2138 50.5634 30.034C50.5285 30.0257 50.4921 30.0258 50.4572 30.0342C50.4223 30.0426 50.3899 30.0592 50.3626 30.0824C50.3336 30.1029 50.3097 30.1298 50.2929 30.161C50.276 30.1923 50.2667 30.227 50.2656 30.2625C50.1687 31.973 50.2241 34.0713 51.5052 35.0685C52.0411 35.4637 52.6959 35.664 53.3611 35.6363C53.9571 35.622 54.5486 35.5288 55.1201 35.3593C54.9372 36.5969 54.6711 37.8208 54.3237 39.0227C53.0705 37.3151 51.2924 36.0648 49.2615 35.4632C49.1973 35.4483 49.1298 35.4586 49.0731 35.4922C49.0163 35.5257 48.9747 35.5798 48.9568 35.6433C48.569 37.1183 48.7698 38.3163 49.5316 39.1058C49.919 39.4538 50.3725 39.7202 50.865 39.8892C51.3576 40.0581 51.8791 40.1261 52.3986 40.0891C52.9569 40.0856 53.5135 40.0276 54.0606 39.916C53.742 40.9271 53.3681 41.9174 53.0149 42.8592C52.2462 42.1667 49.9817 40.4492 47.5164 41.1695C47.4502 41.1914 47.3954 41.2387 47.364 41.301C47.3505 41.3328 47.3435 41.3669 47.3435 41.4014C47.3435 41.436 47.3505 41.4701 47.364 41.5019C48.0566 43.1362 48.7975 44.0434 49.7532 44.355C50.0079 44.439 50.2745 44.4811 50.5426 44.4796C51.2744 44.4486 51.9876 44.2394 52.6202 43.8702C52.0939 45.1237 51.5329 46.294 50.9997 47.3328C50.3668 46.6873 49.5716 46.2245 48.6978 45.9929C47.824 45.7614 46.9039 45.7697 46.0344 46.017C45.9751 46.0288 45.9223 46.0623 45.8864 46.111C45.8506 46.1597 45.8342 46.22 45.8405 46.2802C45.9018 46.8039 46.0998 47.3023 46.4146 47.7253C46.7295 48.1483 47.15 48.481 47.6341 48.6901C47.9994 48.8471 48.393 48.9273 48.7906 48.9255C49.3422 48.9186 49.8839 48.7784 50.3695 48.5169C49.8294 49.5211 49.3308 50.359 48.943 50.9961H44.2339C43.486 49.715 42.6204 48.1222 41.7755 46.3356C42.169 46.453 42.5768 46.5159 42.9874 46.5225C43.4924 46.5288 43.9921 46.4187 44.4477 46.2008C44.9033 45.9828 45.3026 45.6629 45.6146 45.2658C45.9267 44.8687 46.1431 44.4051 46.2471 43.9109C46.3512 43.4167 46.34 42.9052 46.2145 42.416C46.1983 42.3592 46.1619 42.3102 46.1122 42.2783C46.0625 42.2464 46.0028 42.2338 45.9444 42.2428C44.9828 42.3366 44.0578 42.6606 43.2478 43.1873C42.4378 43.7141 41.7665 44.4281 41.2908 45.2691C40.7368 44.0226 40.1966 42.6999 39.7257 41.3357C40.3251 41.6767 40.9966 41.8713 41.6855 41.9035C41.9589 41.9066 42.2307 41.8621 42.4888 41.7719C43.8738 41.3149 44.6702 39.6459 45.3489 37.9147C45.3641 37.8834 45.3721 37.8491 45.3721 37.8143C45.3721 37.7795 45.3641 37.7451 45.3489 37.7139C45.3329 37.6821 45.3105 37.654 45.2831 37.6313C45.2556 37.6086 45.2238 37.5919 45.1896 37.5823C42.4196 36.8067 40.1412 39.4728 39.4349 40.4285C39.0655 39.2754 38.7581 38.1034 38.5138 36.9175C39.0957 37.0314 39.6868 37.0916 40.2797 37.0975C40.8689 37.1406 41.4607 37.062 42.0182 36.8666C42.5758 36.6712 43.0872 36.3633 43.5206 35.9618C44.3586 35.0754 44.5594 33.7458 44.1093 32.1253C44.1013 32.0936 44.087 32.0637 44.0671 32.0377C44.0473 32.0116 44.0224 31.9898 43.9939 31.9736C43.9654 31.9574 43.934 31.9472 43.9014 31.9435C43.8689 31.9398 43.8359 31.9428 43.8046 31.9522C41.5946 32.6418 39.6709 34.0354 38.3268 35.9203L38.223 35.2901C38.2157 35.2356 38.1914 35.1847 38.1537 35.1447C38.0395 34.7349 37.8406 34.3537 37.5698 34.0257C37.299 33.6976 36.9624 33.4301 36.5817 33.2403C36.0821 33.0475 35.5474 32.9627 35.0127 32.9913C34.478 33.02 33.9554 33.1614 33.4793 33.4065C33.4427 33.4223 33.4101 33.446 33.3837 33.476C33.3574 33.5059 33.338 33.5413 33.3269 33.5796C33.3184 33.6172 33.319 33.6563 33.3287 33.6936C33.3383 33.731 33.3567 33.7655 33.3824 33.7943C33.4516 33.8843 34.9751 35.6848 37.0249 35.6848C37.2459 35.682 37.4661 35.6588 37.6828 35.6156C37.7728 36.2042 37.8836 36.7928 38.0083 37.3745C37.2186 36.8546 36.3276 36.5081 35.3941 36.3577C34.4607 36.2073 33.506 36.2564 32.5929 36.502C32.5245 36.523 32.4672 36.5703 32.4336 36.6335C32.4199 36.6665 32.4128 36.7018 32.4128 36.7374C32.4128 36.7731 32.4199 36.8084 32.4336 36.8413C33.23 38.7665 34.4627 39.9853 35.7369 40.0891H35.91C36.554 40.0891 37.4266 39.7914 38.313 38.6072C38.6621 39.9537 39.0828 41.2806 39.5734 42.5822C38.3753 42.0143 35.6815 41.0379 33.7563 42.5268C33.7298 42.5459 33.7075 42.5702 33.6907 42.5982C33.6738 42.6261 33.6628 42.6572 33.6583 42.6896C33.6538 42.7219 33.6558 42.7548 33.6643 42.7863C33.6728 42.8179 33.6876 42.8474 33.7078 42.873C34.9543 44.5697 36.1039 45.3937 37.2327 45.3937C38.1676 45.3937 39.0609 44.8051 39.9542 43.6417C40.4667 44.9159 41.0207 46.1347 41.5678 47.2566C40.3697 46.5156 39.054 46.6333 37.5028 47.6098C37.4669 47.6313 37.4372 47.6617 37.4165 47.6981C37.3959 47.7345 37.3851 47.7757 37.385 47.8175C37.3822 47.8583 37.3903 47.899 37.4086 47.9356C37.4269 47.9721 37.4546 48.0031 37.4889 48.0253C38.4128 48.6912 39.5038 49.0868 40.6398 49.1679C41.2259 49.1795 41.8005 49.005 42.2811 48.6693C42.7243 49.5211 43.1605 50.3036 43.5622 51.003H41.4223V52.2219H42.198L42.842 58.676H52.3224L52.9595 52.2219H53.742V51.003H49.4831C49.954 50.2205 50.5565 49.1748 51.2005 47.9491C51.2198 47.9244 51.2339 47.8962 51.2421 47.866C51.4083 47.5544 51.5676 47.2358 51.7338 46.9034C52.0154 47.3295 52.395 47.682 52.8408 47.9314C53.2865 48.1808 53.7855 48.3198 54.296 48.3369C54.4021 48.3438 54.5085 48.3438 54.6146 48.3369C55.1787 48.273 55.7141 48.0541 56.1615 47.7045C56.6089 47.3549 56.9507 46.8883 57.1492 46.3563C57.1696 46.3017 57.1697 46.2415 57.1493 46.1868C57.129 46.132 57.0896 46.0865 57.0384 46.0585C56.3122 45.6484 55.499 45.4169 54.6657 45.3832C53.8324 45.3494 53.0031 45.5145 52.2462 45.8646C52.6063 45.1098 52.9387 44.2996 53.2988 43.4617C53.326 43.4306 53.3429 43.3919 53.3473 43.3508C53.4442 43.1154 53.5343 42.8799 53.6312 42.6583C54.4553 43.6971 55.2725 44.2096 56.1242 44.2096C57.1561 44.2096 58.2018 43.4478 59.3236 41.8758C59.3626 41.8233 59.3793 41.7575 59.3703 41.6928C59.3612 41.628 59.327 41.5694 59.2751 41.5296C57.5093 40.2069 55.1201 41.1141 53.9982 41.6404C54.2268 41.0171 54.4345 40.3869 54.6284 39.7429L54.6492 39.6736Z" fill="#E0E0E0"/>
<path d="M252.713 36.7512H217.298V75.6354H252.713V36.7512Z" fill="#E0E0E0"/>
<path d="M248.343 38.3441C248.314 38.3511 248.283 38.3511 248.253 38.3441C248.17 38.2887 239.805 33.3165 237.173 33.3165C234.542 33.3165 226.543 38.2887 226.46 38.3371C226.441 38.3496 226.42 38.3581 226.398 38.3621C226.375 38.3661 226.352 38.3654 226.33 38.3603C226.308 38.3551 226.288 38.3454 226.269 38.3319C226.251 38.3184 226.236 38.3013 226.225 38.2817C226.201 38.243 226.194 38.1967 226.204 38.1527C226.215 38.1087 226.242 38.0705 226.28 38.0463C226.612 37.8385 234.417 32.9702 237.173 32.9702C239.929 32.9702 248.115 37.8178 248.461 38.0463C248.481 38.0576 248.498 38.0729 248.511 38.0911C248.525 38.1092 248.534 38.13 248.539 38.1521C248.545 38.1741 248.545 38.197 248.541 38.2193C248.537 38.2416 248.529 38.2628 248.516 38.2817C248.497 38.308 248.47 38.328 248.439 38.339C248.408 38.3501 248.375 38.3519 248.343 38.3441Z" fill="#EBEBEB"/>
<path d="M256.543 36.7512H219.964V75.6354H256.543V36.7512Z" fill="#F5F5F5"/>
<path d="M253.481 72.5675V39.812H223.032V72.5675H253.481Z" fill="white"/>
<path d="M244.154 62.0908C247.413 58.832 247.413 53.5484 244.154 50.2896C240.895 47.0308 235.612 47.0308 232.353 50.2896C229.094 53.5484 229.094 58.832 232.353 62.0908C235.612 65.3496 240.895 65.3496 244.154 62.0908Z" fill="#E0E0E0"/>
<path d="M237.547 179.532H268.585C271.433 179.535 274.168 178.419 276.202 176.426C278.237 174.433 279.408 171.722 279.464 168.874L280.628 112.047C280.649 110.993 280.459 109.945 280.07 108.964C279.681 107.984 279.101 107.091 278.362 106.337C277.624 105.584 276.743 104.986 275.77 104.577C274.798 104.169 273.753 103.959 272.698 103.959H253.239C251.292 103.958 249.413 104.675 247.961 105.971C246.509 107.268 245.585 109.054 245.365 110.988L237.547 179.532Z" fill="#E6E6E6"/>
<path d="M254.486 179.532H221.412C221 179.532 220.606 179.369 220.315 179.078C220.024 178.787 219.86 178.392 219.86 177.981V177.836C219.86 176.708 220.308 175.626 221.106 174.829C221.903 174.032 222.985 173.584 224.112 173.584H254.486V179.532Z" fill="#E6E6E6"/>
<path d="M251.875 227.502C251.714 227.506 251.557 227.453 251.43 227.353C251.304 227.253 251.216 227.113 251.182 226.955L241.487 180.225H224.59L214.895 226.955C214.857 227.139 214.748 227.3 214.592 227.403C214.435 227.506 214.244 227.543 214.061 227.506C213.877 227.468 213.716 227.359 213.612 227.202C213.509 227.046 213.472 226.855 213.51 226.671L223.33 179.394C223.362 179.235 223.449 179.093 223.576 178.991C223.702 178.89 223.86 178.836 224.022 178.84H242.027C242.189 178.836 242.347 178.89 242.474 178.991C242.601 179.093 242.688 179.235 242.72 179.394L252.533 226.671C252.57 226.85 252.534 227.036 252.434 227.19C252.335 227.343 252.178 227.45 252 227.488C251.959 227.498 251.917 227.503 251.875 227.502Z" fill="#E6E6E6"/>
<path d="M241.342 227.502C241.296 227.509 241.249 227.509 241.203 227.502C241.114 227.484 241.03 227.448 240.954 227.397C240.879 227.346 240.814 227.281 240.764 227.205C240.714 227.129 240.679 227.044 240.662 226.955C240.645 226.866 240.645 226.774 240.663 226.685L250.483 179.407C250.515 179.249 250.602 179.106 250.729 179.005C250.855 178.904 251.013 178.85 251.175 178.853H269.181C269.343 178.85 269.501 178.904 269.627 179.005C269.754 179.106 269.841 179.249 269.873 179.407L279.686 226.685C279.705 226.776 279.705 226.869 279.688 226.961C279.67 227.052 279.635 227.139 279.583 227.216C279.532 227.294 279.466 227.36 279.39 227.412C279.313 227.464 279.226 227.501 279.135 227.519C279.044 227.538 278.951 227.538 278.86 227.521C278.768 227.503 278.682 227.468 278.604 227.417C278.527 227.366 278.46 227.3 278.408 227.223C278.356 227.146 278.32 227.06 278.301 226.969L268.606 180.238H251.695L242 226.969C241.965 227.118 241.881 227.251 241.762 227.348C241.643 227.444 241.495 227.498 241.342 227.502Z" fill="#E6E6E6"/>
<path d="M147.126 258C221.282 258 281.396 254.49 281.396 250.161C281.396 245.831 221.282 242.322 147.126 242.322C72.9712 242.322 12.8564 245.831 12.8564 250.161C12.8564 254.49 72.9712 258 147.126 258Z" fill="#F5F5F5"/>
<path d="M158.975 243.762C158.758 243.762 158.548 243.686 158.38 243.549C158.212 243.411 158.097 243.22 158.054 243.007L144.896 178.217H121.981L108.824 243.007C108.761 243.238 108.613 243.437 108.409 243.562C108.206 243.688 107.962 243.731 107.728 243.684C107.493 243.636 107.286 243.501 107.147 243.306C107.009 243.111 106.949 242.871 106.982 242.634L120.292 177.088C120.336 176.876 120.451 176.685 120.619 176.548C120.787 176.411 120.996 176.335 121.213 176.333H145.658C145.875 176.333 146.085 176.409 146.253 176.546C146.421 176.684 146.536 176.875 146.579 177.088L159.896 242.634C159.945 242.878 159.895 243.131 159.758 243.339C159.62 243.547 159.406 243.691 159.162 243.742L158.975 243.762Z" fill="#2211BB"/>
<path d="M122.196 243.762C121.98 243.761 121.77 243.685 121.603 243.547C121.435 243.41 121.319 243.22 121.275 243.007L108.118 178.217H85.2025L72.0449 243.007C72.0276 243.135 71.9842 243.258 71.9175 243.368C71.8508 243.478 71.7622 243.574 71.6571 243.648C71.5521 243.723 71.4329 243.775 71.3068 243.802C71.1808 243.829 71.0506 243.829 70.9244 243.803C70.7981 243.778 70.6784 243.727 70.5728 243.653C70.4671 243.579 70.3777 243.484 70.3101 243.375C70.2425 243.265 70.1981 243.143 70.1796 243.015C70.1612 242.888 70.1691 242.758 70.2029 242.634L83.5197 177.088C83.5628 176.875 83.678 176.684 83.8458 176.546C84.0136 176.409 84.2238 176.333 84.4408 176.333H108.886C109.102 176.334 109.312 176.409 109.478 176.547C109.645 176.685 109.759 176.876 109.8 177.088L123.117 242.634C123.166 242.878 123.117 243.131 122.979 243.339C122.841 243.547 122.627 243.691 122.383 243.742L122.196 243.762Z" fill="#2211BB"/>
<path d="M127.341 177.282H85.2371C81.3724 177.282 77.6615 175.768 74.9011 173.063C72.1407 170.358 70.5508 166.679 70.4729 162.815L68.9078 98.8275C68.8783 97.3973 69.1345 95.9755 69.6613 94.6454C70.1881 93.3154 70.975 92.1038 71.9759 91.0817C72.9768 90.0595 74.1715 89.2473 75.4902 88.6926C76.8088 88.138 78.2249 87.8519 79.6555 87.8513H106.054C108.696 87.853 111.245 88.8265 113.215 90.5862C115.186 92.346 116.44 94.7691 116.739 97.394L127.341 177.282Z" fill="#2211BB"/>
<path d="M104.378 169.179H145.582C147.112 169.179 148.579 169.787 149.661 170.869C150.743 171.951 151.351 173.418 151.351 174.948V175.149C151.351 175.7 151.132 176.228 150.742 176.618C150.353 177.007 149.824 177.226 149.273 177.226H104.378V169.179Z" fill="#2211BB"/>
<g opacity="0.3">
<path d="M158.975 243.762C158.758 243.762 158.548 243.686 158.38 243.549C158.212 243.411 158.097 243.22 158.054 243.007L144.896 178.216H121.981L108.824 243.007C108.761 243.238 108.613 243.436 108.409 243.562C108.206 243.688 107.962 243.731 107.728 243.683C107.493 243.636 107.286 243.501 107.147 243.306C107.009 243.111 106.949 242.87 106.982 242.633L120.292 177.088C120.336 176.876 120.451 176.685 120.619 176.548C120.787 176.41 120.996 176.335 121.213 176.333H145.658C145.875 176.333 146.085 176.409 146.253 176.546C146.421 176.684 146.536 176.875 146.579 177.088L159.896 242.633C159.945 242.877 159.895 243.131 159.758 243.339C159.62 243.547 159.406 243.691 159.162 243.741L158.975 243.762Z" fill="black"/>
<path d="M122.196 243.762C121.98 243.76 121.77 243.684 121.603 243.547C121.435 243.41 121.319 243.219 121.275 243.007L108.118 178.216H85.2025L72.0449 243.007C72.0276 243.135 71.9842 243.258 71.9175 243.368C71.8508 243.478 71.7622 243.573 71.6571 243.648C71.5521 243.723 71.4329 243.775 71.3068 243.802C71.1808 243.828 71.0506 243.829 70.9244 243.803C70.7981 243.778 70.6784 243.726 70.5728 243.653C70.4671 243.579 70.3777 243.484 70.3101 243.375C70.2425 243.265 70.1981 243.143 70.1796 243.015C70.1612 242.888 70.1691 242.758 70.2029 242.633L83.5197 177.088C83.5628 176.875 83.678 176.684 83.8458 176.546C84.0136 176.409 84.2238 176.333 84.4408 176.333H108.886C109.102 176.334 109.312 176.409 109.478 176.547C109.645 176.684 109.759 176.876 109.8 177.088L123.117 242.633C123.166 242.877 123.117 243.131 122.979 243.339C122.841 243.547 122.627 243.691 122.383 243.741L122.196 243.762Z" fill="black"/>
<path d="M127.341 177.282H85.2371C81.3724 177.282 77.6615 175.768 74.9011 173.063C72.1407 170.358 70.5508 166.679 70.4729 162.815L68.9078 98.8275C68.8783 97.3973 69.1345 95.9755 69.6613 94.6454C70.1881 93.3154 70.975 92.1038 71.9759 91.0817C72.9768 90.0595 74.1715 89.2473 75.4902 88.6926C76.8088 88.138 78.2249 87.8519 79.6555 87.8513H106.054C108.696 87.853 111.245 88.8265 113.215 90.5862C115.186 92.346 116.44 94.7691 116.739 97.394L127.341 177.282Z" fill="black"/>
<path d="M104.378 169.179H145.582C147.112 169.179 148.579 169.787 149.661 170.869C150.743 171.951 151.351 173.418 151.351 174.948V175.149C151.351 175.7 151.132 176.228 150.742 176.618C150.353 177.007 149.824 177.226 149.273 177.226H104.378V169.179Z" fill="black"/>
</g>
<path d="M115.624 84.3198C115.624 84.3198 121.51 92.0066 117.702 107.311C113.893 122.615 94.2396 114.305 93.0485 100.511C91.6635 84.2505 109.918 95.4622 113.131 81.0027L115.624 84.3198Z" fill="#263238"/>
<path d="M111.351 79.7561C108.796 81.5566 107.785 84.1743 110.61 86.7366C113.436 89.2988 117.466 89.2157 118.685 88.1631C119.904 87.1105 119.662 81.7644 119.662 81.7644L111.351 79.7561Z" fill="#2211BB"/>
<path opacity="0.8" d="M111.351 79.7561C108.796 81.5566 107.785 84.1743 110.61 86.7366C113.436 89.2988 117.466 89.2157 118.685 88.1631C119.904 87.1105 119.662 81.7644 119.662 81.7644L111.351 79.7561Z" fill="white"/>
<path d="M143.622 113.82C143.692 114.132 143.809 114.617 143.92 115.025L144.253 116.327C144.488 117.2 144.744 118.072 145.014 118.945C145.527 120.704 146.095 122.456 146.69 124.208C147.286 125.96 147.895 127.67 148.56 129.443C148.885 130.309 149.211 131.181 149.557 132.047L149.959 133.086C150.039 133.264 150.144 133.429 150.27 133.578C151.256 134.575 152.457 135.333 153.781 135.794C155.399 136.444 157.066 136.963 158.767 137.345C160.526 137.753 162.334 138.093 164.162 138.377C165.99 138.661 167.867 138.889 169.667 139.069L169.73 142.795C165.779 143.203 161.797 143.203 157.846 142.795C155.782 142.582 153.74 142.186 151.745 141.611C150.665 141.284 149.614 140.87 148.601 140.371C147.436 139.805 146.37 139.054 145.444 138.148C144.906 137.613 144.441 137.01 144.059 136.354C143.955 136.188 143.865 136.001 143.768 135.828L143.588 135.454L143.269 134.762C142.84 133.882 142.41 133.003 142.016 132.109C141.212 130.323 140.43 128.522 139.73 126.687C139.031 124.852 138.345 123.003 137.764 121.147C137.48 120.191 137.203 119.243 136.947 118.266L136.566 116.805C136.455 116.279 136.351 115.842 136.24 115.219L143.622 113.82Z" fill="#E58A7B"/>
<path d="M141.268 105.954C144.238 106.708 146.309 118.924 146.309 118.924L138.131 124.464C138.131 124.464 130.284 112.138 132.591 108.876C134.952 105.524 136.933 104.873 141.268 105.954Z" fill="#2211BB"/>
<path opacity="0.5" d="M141.268 105.954C144.238 106.708 146.309 118.924 146.309 118.924L138.131 124.464C138.131 124.464 130.284 112.138 132.591 108.876C134.952 105.524 136.933 104.873 141.268 105.954Z" fill="white"/>
<path opacity="0.2" d="M140.201 109.028L133.089 114.665C134.474 118.09 136.159 121.385 138.124 124.513L143.796 120.655L140.201 109.028Z" fill="#2211BB"/>
<path d="M141.268 105.953C141.268 105.953 144.73 107.158 137.805 149.422H108.568C109.059 137.518 109.073 130.177 103.388 105.739C107.482 104.896 111.631 104.349 115.804 104.105C120.228 103.789 124.669 103.789 129.094 104.105C134.8 104.652 141.268 105.953 141.268 105.953Z" fill="#2211BB"/>
<path opacity="0.5" d="M141.268 105.953C141.268 105.953 144.73 107.158 137.805 149.422H108.568C109.059 137.518 109.073 130.177 103.388 105.739C107.482 104.896 111.631 104.349 115.804 104.105C120.228 103.789 124.669 103.789 129.094 104.105C134.8 104.652 141.268 105.953 141.268 105.953Z" fill="white"/>
<path d="M168.594 139.034L173.698 133.854L174.39 141.154C174.39 141.154 170.561 143.743 167.915 142.352L168.594 139.034Z" fill="#E58A7B"/>
<path d="M179.723 133.086L179.951 139.221L174.383 141.153L173.712 133.854L179.723 133.086Z" fill="#E58A7B"/>
<path d="M170.99 237.045H178.192L179.3 220.362H172.098L170.99 237.045Z" fill="#E58A7B"/>
<path d="M143.117 237.045H150.319L152.632 220.362H145.43L143.117 237.045Z" fill="#E58A7B"/>
<path d="M150.769 236.207H142.673C142.534 236.204 142.398 236.252 142.292 236.343C142.186 236.434 142.117 236.56 142.099 236.699L141.178 243.104C141.161 243.266 141.179 243.43 141.229 243.584C141.28 243.739 141.362 243.881 141.471 244.002C141.58 244.122 141.713 244.219 141.862 244.285C142.011 244.351 142.171 244.385 142.334 244.385C145.153 244.337 146.489 244.171 150.069 244.171C152.258 244.171 157.874 244.399 160.9 244.399C163.926 244.399 164.086 241.408 162.825 241.138C157.181 239.919 153.871 238.25 151.967 236.65C151.633 236.365 151.208 236.208 150.769 236.207Z" fill="#263238"/>
<path d="M178.753 236.207H170.671C170.532 236.205 170.397 236.254 170.292 236.345C170.186 236.435 170.117 236.561 170.097 236.698L169.176 243.104C169.159 243.266 169.177 243.429 169.227 243.584C169.278 243.739 169.361 243.881 169.469 244.001C169.578 244.122 169.712 244.219 169.86 244.285C170.009 244.351 170.17 244.385 170.332 244.385C173.151 244.337 174.487 244.171 178.067 244.171C180.263 244.171 184.785 244.399 187.811 244.399C190.837 244.399 190.997 241.408 189.736 241.137C184.092 239.919 181.869 238.25 179.972 236.65C179.631 236.362 179.199 236.205 178.753 236.207Z" fill="#263238"/>
<path d="M135.527 74.5969C138.117 74.7631 139.433 87.7545 131.836 86.9997C124.239 86.2449 135.527 74.5969 135.527 74.5969Z" fill="#263238"/>
<path d="M179.3 220.362L178.725 228.963H171.523L172.091 220.362H179.3Z" fill="#CF6F64"/>
<path d="M145.43 220.362H152.639L151.441 228.963H144.232L145.43 220.362Z" fill="#CF6F64"/>
<path opacity="0.2" d="M106.31 119.326C107.003 122.871 107.494 125.932 107.868 128.688L109.579 115.455L106.31 119.326Z" fill="#2211BB"/>
<path d="M117.12 89.1738C117.958 93.4466 118.796 101.279 115.804 104.132C115.804 104.132 116.975 108.467 124.918 108.467C133.65 108.467 129.073 104.132 129.073 104.132C124.301 102.996 124.426 99.4575 125.257 96.1404L117.12 89.1738Z" fill="#E58A7B"/>
<path d="M123.339 109.395L125.998 108.44L125.645 107.712L123.339 109.395Z" fill="#263238"/>
<path d="M128.498 108.841L125.998 108.44L126.538 107.629L128.498 108.841Z" fill="#263238"/>
<path d="M116.774 102.117L114.966 103.876C114.912 103.931 114.882 104.006 114.882 104.084C114.882 104.161 114.912 104.236 114.966 104.291L122.584 112.968C122.946 110.908 124.05 109.051 125.686 107.747C119.384 105.365 117.743 102.899 117.182 102.207C117.169 102.167 117.146 102.131 117.115 102.102C117.083 102.074 117.045 102.054 117.004 102.045C116.963 102.036 116.92 102.038 116.879 102.05C116.839 102.063 116.802 102.086 116.774 102.117Z" fill="#2211BB"/>
<path d="M127.66 103.447L129.904 104.056C129.971 104.075 130.032 104.111 130.08 104.161C130.129 104.21 130.164 104.272 130.181 104.34C130.815 107.186 130.695 110.148 129.834 112.934C129.516 111.757 128.449 108.938 126.538 107.629C128.616 106.196 127.778 104.347 127.48 103.647C127.47 103.621 127.468 103.593 127.473 103.566C127.478 103.539 127.491 103.513 127.509 103.493C127.528 103.472 127.552 103.457 127.578 103.449C127.605 103.44 127.633 103.44 127.66 103.447Z" fill="#2211BB"/>
<path d="M120.451 92.0132L125.299 96.1336C125.097 96.9057 124.961 97.6933 124.89 98.4881C123.069 98.225 120.569 96.2305 120.375 94.3331C120.256 93.5617 120.282 92.7751 120.451 92.0132Z" fill="#CF6F64"/>
<path d="M116.656 77.9137C115.832 85.0119 115.326 88.0036 118.235 92.2417C122.598 98.6197 131.503 98.0795 134.433 91.3691C137.071 85.3305 137.971 74.749 131.6 70.7048C130.199 69.8102 128.592 69.2888 126.932 69.1903C125.273 69.0917 123.615 69.4191 122.118 70.1415C120.62 70.8639 119.332 71.9572 118.376 73.3175C117.42 74.6779 116.828 76.2601 116.656 77.9137Z" fill="#E58A7B"/>
<path d="M132.888 66.1898C121.15 61.557 112.335 66.7854 110.514 74.216C107.653 85.7531 116.788 86.5634 116.788 86.5634L117.93 83.6133C119.571 84.6036 124.163 84.1673 122.778 75.601C121.961 70.7534 128.096 77.5054 135.88 76.7506C137.951 76.5497 140.783 69.3061 132.888 66.1898Z" fill="#263238"/>
<path d="M136.884 69.0428C135.34 66.6675 132.182 64.6315 125.638 63.6689C125.638 63.6689 129.038 64.4376 130.139 66.9237C131.24 69.4098 138.747 71.9028 136.884 69.0428Z" fill="#263238"/>
<path d="M114.399 84.0565C114.351 84.7392 114.438 85.4245 114.655 86.0734C114.873 86.7222 115.216 87.3217 115.666 87.8376C116.878 89.2226 118.47 88.3709 118.969 86.7088C119.412 85.2061 119.322 82.6854 117.702 81.9236C116.081 81.1619 114.53 82.3668 114.399 84.0565Z" fill="#E58A7B"/>
<path d="M137.826 149.45C137.826 149.45 186.121 153.944 185.65 175.904C185.159 198.756 180.27 227.301 180.27 227.301H170.291C170.291 227.301 169.439 203.147 169.148 180.647C169.003 168.93 122.335 166.583 122.335 166.583L116.31 149.45H137.826Z" fill="#263238"/>
<path d="M130.098 149.45C130.098 149.45 161.309 159.803 162.098 172.614C163.546 196.201 153.179 227.322 153.179 227.322H143.352C143.352 227.322 143.913 206.686 145.083 185.315C146.565 158.459 99.1841 184.941 108.568 149.471L130.098 149.45Z" fill="#263238"/>
<path d="M126.926 81.7852C126.822 82.3531 127.044 82.8725 127.418 82.9417C127.792 83.011 128.173 82.5955 128.276 82.0276C128.38 81.4597 128.159 80.9334 127.785 80.8711C127.411 80.8088 127.044 81.2104 126.926 81.7852Z" fill="#263238"/>
<path d="M133.387 82.9412C133.283 83.5091 133.505 84.0285 133.879 84.0977C134.253 84.167 134.64 83.7515 134.744 83.1836C134.848 82.6158 134.627 82.0894 134.253 82.0271C133.879 81.9648 133.491 82.3665 133.387 82.9412Z" fill="#263238"/>
<path d="M134.08 82.0274L135.527 81.875C135.527 81.875 134.661 82.8237 134.08 82.0274Z" fill="#263238"/>
<path d="M131.504 83.6133C131.781 85.0088 132.247 86.3601 132.889 87.6298C132.562 87.7783 132.208 87.8552 131.85 87.8552C131.491 87.8552 131.137 87.7783 130.811 87.6298L131.504 83.6133Z" fill="#DF5753"/>
<path d="M128.429 89.4787C127.669 89.3582 126.948 89.0602 126.325 88.609C125.701 88.1579 125.193 87.5661 124.841 86.8818C124.83 86.8552 124.829 86.825 124.839 86.7978C124.85 86.7705 124.87 86.7485 124.897 86.7364C124.924 86.7269 124.955 86.728 124.982 86.7395C125.008 86.751 125.03 86.7721 125.042 86.7987C125.375 87.4454 125.855 88.0052 126.443 88.4333C127.031 88.8614 127.711 89.1459 128.429 89.2641C128.457 89.2707 128.483 89.2879 128.499 89.3123C128.516 89.3367 128.523 89.3664 128.519 89.3956C128.513 89.4168 128.502 89.436 128.486 89.4508C128.47 89.4655 128.45 89.4753 128.429 89.4787Z" fill="#263238"/>
<path d="M125.409 79.2298C125.379 79.2309 125.349 79.2253 125.322 79.2133C125.294 79.2013 125.27 79.1833 125.25 79.1605C125.229 79.1411 125.212 79.1175 125.201 79.0913C125.19 79.0651 125.184 79.0368 125.184 79.0082C125.184 78.9796 125.19 78.9513 125.201 78.9251C125.212 78.8989 125.229 78.8753 125.25 78.8558C125.623 78.4913 126.078 78.2218 126.577 78.07C127.076 77.9181 127.604 77.8884 128.117 77.9833C128.171 77.9994 128.217 78.0357 128.246 78.0846C128.274 78.1335 128.282 78.1914 128.269 78.2464C128.263 78.2744 128.251 78.3007 128.234 78.3239C128.217 78.3471 128.196 78.3668 128.171 78.3816C128.147 78.3964 128.12 78.4062 128.091 78.4104C128.063 78.4145 128.034 78.4129 128.006 78.4057C127.564 78.3275 127.109 78.3565 126.68 78.4903C126.251 78.624 125.861 78.8586 125.541 79.1744C125.504 79.206 125.458 79.2254 125.409 79.2298Z" fill="#263238"/>
<path d="M136.919 80.3655C136.876 80.367 136.834 80.3552 136.798 80.3316C136.762 80.3081 136.734 80.2739 136.718 80.2339C136.549 79.8182 136.284 79.4485 135.944 79.1548C135.605 78.8612 135.201 78.6519 134.765 78.5442C134.709 78.534 134.659 78.5024 134.625 78.4559C134.591 78.4094 134.577 78.3517 134.585 78.2949C134.595 78.2371 134.628 78.1856 134.676 78.1519C134.724 78.1181 134.784 78.1048 134.841 78.1148C135.349 78.2324 135.82 78.4707 136.216 78.8094C136.611 79.1482 136.919 79.5775 137.113 80.0608C137.136 80.1141 137.138 80.1745 137.117 80.2289C137.096 80.2834 137.055 80.3274 137.002 80.3516L136.919 80.3655Z" fill="#263238"/>
<path d="M107.757 116.189C107.127 118.266 106.449 120.344 105.846 122.477C105.244 124.61 104.607 126.687 104.059 128.799C103.512 130.912 102.993 133.003 102.605 135.032C102.418 136.057 102.245 137.075 102.148 138.03C102.093 138.508 102.065 138.958 102.058 139.374C102.058 139.471 102.058 139.374 101.989 139.215C101.904 139.027 101.787 138.856 101.643 138.709C101.289 138.404 101.158 138.46 101.317 138.508C101.607 138.579 101.905 138.609 102.204 138.598C103.136 138.566 104.063 138.448 104.974 138.245C107.036 137.791 109.069 137.21 111.061 136.507C115.153 135.122 119.308 133.432 123.353 131.708L125.139 134.97C121.302 137.485 117.292 139.725 113.138 141.673C110.987 142.688 108.768 143.551 106.497 144.256C105.233 144.641 103.934 144.903 102.619 145.039C101.798 145.123 100.97 145.102 100.154 144.976C99.6124 144.895 99.084 144.744 98.5818 144.526C97.9327 144.246 97.3446 143.841 96.8505 143.335C95.8902 142.323 95.3398 140.99 95.3062 139.596C95.2716 138.903 95.2647 138.211 95.3062 137.587C95.3547 136.306 95.4724 135.094 95.6317 133.91C95.9641 131.542 96.3934 129.256 96.9198 126.985C97.4461 124.714 98.007 122.518 98.6233 120.316C99.2397 118.114 99.9045 115.953 100.701 113.751L107.757 116.189Z" fill="#E58A7B"/>
<path d="M153.234 237.419C152.596 237.403 151.962 237.315 151.344 237.156C151.321 237.151 151.299 237.14 151.283 237.123C151.266 237.107 151.255 237.085 151.25 237.062C151.246 237.039 151.248 237.015 151.258 236.994C151.267 236.972 151.282 236.954 151.302 236.941C151.545 236.782 153.705 235.383 154.529 235.75C154.616 235.789 154.69 235.851 154.743 235.929C154.797 236.007 154.828 236.098 154.834 236.193C154.868 236.347 154.862 236.507 154.816 236.657C154.77 236.808 154.685 236.944 154.571 237.052C154.182 237.328 153.709 237.458 153.234 237.419ZM151.676 236.989C153.013 237.266 154.017 237.232 154.405 236.872C154.489 236.79 154.551 236.688 154.585 236.575C154.619 236.462 154.624 236.343 154.598 236.228C154.596 236.173 154.578 236.121 154.548 236.075C154.517 236.03 154.475 235.994 154.425 235.971C153.899 235.736 152.438 236.519 151.676 236.989Z" fill="#2211BB"/>
<path d="M151.372 237.163H151.309C151.29 237.152 151.274 237.135 151.263 237.116C151.252 237.096 151.246 237.074 151.247 237.052C151.247 236.969 151.247 234.919 152.022 234.24C152.113 234.153 152.223 234.088 152.343 234.051C152.464 234.014 152.591 234.005 152.715 234.026C152.84 234.025 152.961 234.067 153.058 234.145C153.156 234.223 153.223 234.333 153.248 234.455C153.394 235.203 152.189 236.733 151.434 237.163H151.372ZM152.59 234.24C152.438 234.241 152.292 234.301 152.182 234.407C151.635 234.891 151.524 236.262 151.489 236.81C152.182 236.311 153.11 235.051 152.992 234.49C152.992 234.4 152.923 234.282 152.673 234.247L152.59 234.24Z" fill="#2211BB"/>
<path d="M181.461 237.419C180.7 237.402 179.942 237.316 179.196 237.163C179.172 237.156 179.15 237.143 179.133 237.125C179.115 237.107 179.104 237.084 179.099 237.059C179.096 237.033 179.1 237.007 179.113 236.985C179.125 236.962 179.145 236.944 179.169 236.934C179.487 236.768 182.333 235.314 183.199 235.785C183.274 235.826 183.338 235.886 183.384 235.959C183.43 236.031 183.457 236.114 183.462 236.2C183.482 236.344 183.465 236.491 183.415 236.628C183.364 236.764 183.28 236.886 183.171 236.983C182.668 237.319 182.064 237.473 181.461 237.419ZM179.598 236.99C180.526 237.149 182.368 237.377 183.005 236.809C183.085 236.735 183.145 236.643 183.183 236.541C183.22 236.439 183.233 236.329 183.22 236.221C183.219 236.174 183.206 236.128 183.182 236.088C183.157 236.048 183.123 236.015 183.081 235.992C182.513 235.688 180.602 236.498 179.598 236.99Z" fill="#2211BB"/>
<path d="M179.224 237.163C179.201 237.169 179.177 237.169 179.155 237.163C179.138 237.149 179.124 237.132 179.115 237.113C179.105 237.094 179.1 237.073 179.099 237.052C179.099 236.969 179.272 235.05 180.159 234.282C180.283 234.176 180.428 234.097 180.584 234.049C180.74 234.001 180.904 233.986 181.066 234.005C181.509 234.046 181.634 234.268 181.669 234.441C181.793 235.237 180.117 236.761 179.272 237.142L179.224 237.163ZM180.935 234.24C180.707 234.239 180.487 234.323 180.318 234.476C179.667 235.016 179.439 236.311 179.369 236.83C180.277 236.325 181.516 235.023 181.447 234.489C181.447 234.434 181.447 234.282 181.066 234.247L180.935 234.24Z" fill="#2211BB"/>
<path d="M123.186 131.819L130.014 130.087L126.76 136.645C126.76 136.645 122.141 136.846 120.617 134.27L123.186 131.819Z" fill="#E58A7B"/>
<path d="M135.534 132.573L132.514 137.92L126.76 136.645L130.015 130.087L135.534 132.573Z" fill="#E58A7B"/>
<path d="M127.612 80.8711L129.059 80.7188C129.059 80.7188 128.166 81.6675 127.612 80.8711Z" fill="#263238"/>
<path d="M108.131 147.732L107.896 150.35C107.799 150.558 108.034 150.766 108.374 150.766H137.971C138.234 150.766 138.449 150.634 138.47 150.468L138.733 147.85C138.733 147.67 138.518 147.518 138.234 147.518H108.609C108.518 147.51 108.426 147.526 108.342 147.563C108.259 147.601 108.186 147.659 108.131 147.732Z" fill="#2211BB"/>
<path d="M112.113 151.049H111.317C111.158 151.049 111.04 150.966 111.047 150.869L111.421 147.462C111.421 147.365 111.573 147.282 111.733 147.282H112.501C112.66 147.282 112.778 147.365 112.771 147.462L112.397 150.869C112.404 150.966 112.266 151.049 112.113 151.049Z" fill="#263238"/>
<path d="M135.742 151.049H134.945C134.786 151.049 134.668 150.966 134.675 150.869L135.049 147.462C135.049 147.365 135.201 147.282 135.361 147.282H136.15C136.309 147.282 136.427 147.365 136.42 147.462L136.046 150.869C136.046 150.966 135.894 151.049 135.742 151.049Z" fill="#263238"/>
<path d="M123.927 151.049H123.131C122.972 151.049 122.854 150.966 122.861 150.869L123.235 147.462C123.235 147.365 123.387 147.282 123.546 147.282H124.336C124.495 147.282 124.613 147.365 124.606 147.462L124.232 150.869C124.218 150.966 124.087 151.049 123.927 151.049Z" fill="#263238"/>
<path d="M103.388 105.766C100.452 106.66 96.9336 116.749 96.9336 116.749L106.386 125.981C106.386 125.981 112.453 116.459 111.234 112.671C109.939 108.723 106.733 104.755 103.388 105.766Z" fill="#2211BB"/>
<path opacity="0.5" d="M103.388 105.766C100.452 106.66 96.9336 116.749 96.9336 116.749L106.386 125.981C106.386 125.981 112.453 116.459 111.234 112.671C109.939 108.723 106.733 104.755 103.388 105.766Z" fill="white"/>
<path d="M260.462 142.255H205.366V249.42H260.462V142.255Z" fill="#2211BB"/>
<path opacity="0.6" d="M260.462 142.255H205.366V249.42H260.462V142.255Z" fill="white"/>
<path d="M153.726 142.255H98.6304V249.42H153.726V142.255Z" fill="#2211BB"/>
<path opacity="0.6" d="M153.726 142.255H98.6304V249.42H153.726V142.255Z" fill="white"/>
<path d="M262.526 142.255H257.983V249.42H262.526V142.255Z" fill="#2211BB"/>
<path opacity="0.3" d="M262.526 142.255H257.983V249.42H262.526V142.255Z" fill="black"/>
<path d="M154.384 150.295H263.932V142.255H154.384V150.295Z" fill="#2211BB"/>
<path opacity="0.3" d="M154.384 150.295H263.932V142.255H154.384V150.295Z" fill="black"/>
<path d="M155.797 142.255H151.254V249.42H155.797V142.255Z" fill="#2211BB"/>
<path opacity="0.3" d="M155.797 142.255H151.254V249.42H155.797V142.255Z" fill="black"/>
<path d="M154.121 167.891H260.254V144.741H154.121V167.891Z" fill="#2211BB"/>
<path opacity="0.3" d="M154.121 167.891H260.254V144.741H154.121V167.891Z" fill="black"/>
<path d="M260.49 252.536H229.902C227.825 252.534 225.834 251.708 224.366 250.24C222.897 248.772 222.071 246.78 222.069 244.704V148.196C222.069 146.36 221.34 144.598 220.041 143.299C218.742 142.001 216.981 141.271 215.144 141.271H205.99V140.579H215.137C217.158 140.579 219.095 141.381 220.524 142.81C221.953 144.238 222.755 146.176 222.755 148.196V244.704C222.757 246.597 223.51 248.412 224.848 249.75C226.187 251.089 228.002 251.842 229.895 251.844H260.49C261.01 251.845 261.518 251.681 261.94 251.377C262.363 251.072 262.678 250.642 262.842 250.148C263.005 249.653 263.008 249.12 262.851 248.624C262.693 248.127 262.383 247.693 261.965 247.384L262.373 246.83C262.908 247.226 263.303 247.781 263.504 248.416C263.705 249.05 263.701 249.731 263.493 250.363C263.284 250.995 262.882 251.545 262.343 251.935C261.803 252.325 261.155 252.536 260.49 252.536Z" fill="#2211BB"/>
<path opacity="0.3" d="M260.49 252.536H229.902C227.825 252.534 225.834 251.708 224.366 250.24C222.897 248.772 222.071 246.78 222.069 244.704V148.196C222.069 146.36 221.34 144.598 220.041 143.299C218.742 142.001 216.981 141.271 215.144 141.271H205.99V140.579H215.137C217.158 140.579 219.095 141.381 220.524 142.81C221.953 144.238 222.755 146.176 222.755 148.196V244.704C222.757 246.597 223.51 248.412 224.848 249.75C226.187 251.089 228.002 251.842 229.895 251.844H260.49C261.01 251.845 261.518 251.681 261.94 251.377C262.363 251.072 262.678 250.642 262.842 250.148C263.005 249.653 263.008 249.12 262.851 248.624C262.693 248.127 262.383 247.693 261.965 247.384L262.373 246.83C262.908 247.226 263.303 247.781 263.504 248.416C263.705 249.05 263.701 249.731 263.493 250.363C263.284 250.995 262.882 251.545 262.343 251.935C261.803 252.325 261.155 252.536 260.49 252.536Z" fill="black"/>
<path d="M264.95 173.874H264.257V187.26H264.95V173.874Z" fill="#2211BB"/>
<path opacity="0.3" d="M264.95 173.874H264.257V187.26H264.95V173.874Z" fill="black"/>
<path d="M264.95 165.973H264.257V169.491H264.95V165.973Z" fill="#2211BB"/>
<path opacity="0.3" d="M264.95 165.973H264.257V169.491H264.95V165.973Z" fill="black"/>
<path d="M214.23 110.261H162.888L155.45 140.579H206.786L214.23 110.261Z" fill="#2211BB"/>
<path opacity="0.4" d="M214.23 110.261H162.888L155.45 140.579H206.786L214.23 110.261Z" fill="white"/>
<path d="M157.022 140.579L156.815 142.255H136.67L136.877 140.579H157.022Z" fill="#2211BB"/>
<path opacity="0.4" d="M157.022 140.579L156.815 142.255H136.67L136.877 140.579H157.022Z" fill="white"/>
<path d="M208.365 140.579L208.157 142.255H156.815L157.022 140.579H208.365Z" fill="#2211BB"/>
<path opacity="0.5" d="M208.365 140.579L208.157 142.255H156.815L157.022 140.579H208.365Z" fill="black"/>
<path d="M215.809 110.261H164.467L157.029 140.579H208.365L215.809 110.261Z" fill="#2211BB"/>
<path opacity="0.5" d="M215.809 110.261H164.467L157.029 140.579H208.365L215.809 110.261Z" fill="black"/>
<path d="M235.636 134.616C235.636 134.616 228.08 121.59 238.537 111.223C238.537 111.223 241.273 113.01 241.231 115.378C241.189 117.747 238.302 118.384 238.918 120.378C239.534 122.373 242.27 124.346 240.476 126.001C238.683 127.657 240.767 129.125 240.642 131.147C240.518 133.169 235.636 134.616 235.636 134.616Z" fill="#2211BB"/>
<path d="M236.211 135.808C236.211 135.808 239.271 121.064 226.058 114.534C226.058 114.534 224.022 117.089 224.819 119.381C225.615 121.674 228.544 121.307 228.586 123.405C228.628 125.503 226.661 128.218 228.884 129.222C231.107 130.226 229.576 132.283 230.345 134.166C231.114 136.05 236.211 135.808 236.211 135.808Z" fill="#2211BB"/>
<path opacity="0.5" d="M236.211 135.808C236.211 135.808 239.271 121.064 226.058 114.534C226.058 114.534 224.022 117.089 224.819 119.381C225.615 121.674 228.544 121.307 228.586 123.405C228.628 125.503 226.661 128.218 228.884 129.222C231.107 130.226 229.576 132.283 230.345 134.166C231.114 136.05 236.211 135.808 236.211 135.808Z" fill="black"/>
<path d="M224.632 132.539C224.632 132.539 224.888 142.234 234.521 142.234C244.154 142.234 244.403 132.539 244.403 132.539H224.632Z" fill="#2211BB"/>
<path opacity="0.5" d="M224.632 132.539C224.632 132.539 224.888 142.234 234.521 142.234C244.154 142.234 244.403 132.539 244.403 132.539H224.632Z" fill="black"/>
<path d="M172.853 69.015L164.626 58.385L156.399 69.015H160.27V82.7751H168.982V69.015H172.853Z" fill="#2211BB"/>
<path d="M196.987 81.5149C196.987 76.3723 199.03 71.4404 202.666 67.804C206.302 64.1676 211.234 62.1248 216.377 62.1248V67.1731C214.495 67.1722 212.631 67.5421 210.892 68.2618C209.153 68.9814 207.572 70.0367 206.241 71.3672C204.91 72.6978 203.854 74.2776 203.133 76.0164C202.413 77.7552 202.042 79.6189 202.042 81.5011L196.987 81.5149Z" fill="#2211BB"/>
<path d="M196.987 81.5149H202.042C202.042 85.3167 203.552 88.9629 206.241 91.6512C208.929 94.3395 212.575 95.8498 216.377 95.8498C218.892 95.8544 221.364 95.1899 223.537 93.9246L226.072 98.3359C223.124 100.038 219.781 100.934 216.377 100.934C212.973 100.934 209.629 100.038 206.682 98.3356C203.734 96.6337 201.286 94.1858 199.584 91.238C197.882 88.2902 196.987 84.9463 196.987 81.5426V81.5149Z" fill="#2211BB"/>
<path opacity="0.5" d="M196.987 81.5149H202.042C202.042 85.3167 203.552 88.9629 206.241 91.6512C208.929 94.3395 212.575 95.8498 216.377 95.8498C218.892 95.8544 221.364 95.1899 223.537 93.9246L226.072 98.3359C223.124 100.038 219.781 100.934 216.377 100.934C212.973 100.934 209.629 100.038 206.682 98.3356C203.734 96.6337 201.286 94.1858 199.584 91.238C197.882 88.2902 196.987 84.9463 196.987 81.5426V81.5149Z" fill="white"/>
<path d="M216.377 67.1732V62.111C220.659 62.0946 224.826 63.4962 228.228 66.0969C231.63 68.6977 234.075 72.3514 235.182 76.4879C236.289 80.6245 235.996 85.0111 234.348 88.9634C232.7 92.9157 229.79 96.2113 226.072 98.336L223.545 93.9524C226.298 92.3849 228.454 89.9491 229.676 87.0259C230.897 84.1026 231.116 80.857 230.297 77.7965C229.477 74.736 227.667 72.0333 225.149 70.1111C222.63 68.189 219.545 67.1558 216.377 67.1732Z" fill="#2211BB"/>
<path opacity="0.7" d="M216.377 67.1732V62.111C220.659 62.0946 224.826 63.4962 228.228 66.0969C231.63 68.6977 234.075 72.3514 235.182 76.4879C236.289 80.6245 235.996 85.0111 234.348 88.9634C232.7 92.9157 229.79 96.2113 226.072 98.336L223.545 93.9524C226.298 92.3849 228.454 89.9491 229.676 87.0259C230.897 84.1026 231.116 80.857 230.297 77.7965C229.477 74.736 227.667 72.0333 225.149 70.1111C222.63 68.189 219.545 67.1558 216.377 67.1732Z" fill="black"/>
<path d="M198.171 33.9329H180.505C179.875 33.9329 179.271 34.1831 178.826 34.6286C178.38 35.074 178.13 35.6782 178.13 36.3082V68.9737C178.135 69.6 178.388 70.1989 178.833 70.6398C179.278 71.0808 179.879 71.3282 180.505 71.3282H203.116C203.744 71.3263 204.347 71.0753 204.791 70.63C205.235 70.1848 205.484 69.5817 205.484 68.9529V41.2526L198.171 33.9329Z" fill="#263238"/>
<path d="M197.132 68.0804H182.444C182.169 68.0804 181.905 67.9709 181.71 67.7761C181.515 67.5813 181.406 67.3171 181.406 67.0416C181.407 66.7673 181.518 66.5049 181.712 66.3116C181.907 66.1182 182.17 66.0098 182.444 66.0098H197.139C197.414 66.0098 197.677 66.1182 197.871 66.3116C198.066 66.5049 198.176 66.7673 198.178 67.0416C198.176 67.3177 198.065 67.5819 197.869 67.7765C197.673 67.9711 197.408 68.0804 197.132 68.0804Z" fill="#2211BB"/>
<path d="M190.207 39.2859H182.444C182.17 39.2859 181.907 39.1774 181.712 38.9841C181.518 38.7908 181.407 38.5284 181.406 38.2541C181.406 37.9786 181.515 37.7144 181.71 37.5196C181.905 37.3248 182.169 37.2153 182.444 37.2153H190.214C190.49 37.2153 190.754 37.3248 190.949 37.5196C191.144 37.7144 191.253 37.9786 191.253 38.2541C191.252 38.3905 191.224 38.5254 191.171 38.6511C191.118 38.7768 191.041 38.8908 190.944 38.9866C190.847 39.0824 190.732 39.1581 190.605 39.2095C190.479 39.2609 190.344 39.2868 190.207 39.2859Z" fill="#2211BB"/>
<path d="M195.283 43.3994H182.444C182.17 43.3995 181.907 43.291 181.712 43.0977C181.518 42.9043 181.407 42.6419 181.406 42.3676C181.406 42.0921 181.515 41.8279 181.71 41.6331C181.905 41.4383 182.169 41.3289 182.444 41.3289H195.29C195.565 41.3307 195.827 41.4409 196.02 41.6355C196.214 41.8301 196.322 42.0933 196.322 42.3676C196.322 42.5037 196.295 42.6384 196.243 42.7641C196.191 42.8897 196.114 43.0038 196.017 43.0997C195.921 43.1956 195.806 43.2715 195.68 43.3229C195.554 43.3743 195.419 43.4004 195.283 43.3994Z" fill="#2211BB"/>
<path d="M201.183 47.5127H182.444C182.17 47.5127 181.907 47.4042 181.712 47.2109C181.518 47.0176 181.407 46.7552 181.406 46.4809C181.406 46.2054 181.515 45.9412 181.71 45.7464C181.905 45.5516 182.169 45.4421 182.444 45.4421H201.19C201.466 45.4421 201.73 45.5516 201.925 45.7464C202.12 45.9412 202.229 46.2054 202.229 46.4809C202.228 46.6173 202.2 46.7522 202.147 46.8779C202.094 47.0036 202.017 47.1176 201.92 47.2134C201.823 47.3092 201.708 47.385 201.582 47.4363C201.455 47.4877 201.32 47.5136 201.183 47.5127Z" fill="#2211BB"/>
<path d="M201.183 51.6263H190.283C190.009 51.6263 189.746 51.5178 189.551 51.3245C189.357 51.1312 189.246 50.8687 189.245 50.5944C189.245 50.3189 189.354 50.0547 189.549 49.8599C189.744 49.6651 190.008 49.5557 190.283 49.5557H201.183C201.459 49.5557 201.723 49.6651 201.918 49.8599C202.113 50.0547 202.222 50.3189 202.222 50.5944C202.22 50.8687 202.11 51.1312 201.915 51.3245C201.721 51.5178 201.458 51.6263 201.183 51.6263Z" fill="#2211BB"/>
<path d="M185.284 51.6263H182.444C182.17 51.6263 181.907 51.5178 181.712 51.3245C181.518 51.1312 181.407 50.8687 181.406 50.5944C181.406 50.3189 181.515 50.0547 181.71 49.8599C181.905 49.6651 182.169 49.5557 182.444 49.5557H185.29C185.566 49.5557 185.83 49.6651 186.025 49.8599C186.22 50.0547 186.329 50.3189 186.329 50.5944C186.328 50.7308 186.301 50.8657 186.248 50.9914C186.194 51.1171 186.117 51.2311 186.02 51.3269C185.923 51.4227 185.808 51.4985 185.682 51.5498C185.555 51.6012 185.42 51.6272 185.284 51.6263Z" fill="#2211BB"/>
<path d="M201.183 55.7398H182.444C182.169 55.7398 181.905 55.6303 181.71 55.4355C181.515 55.2407 181.406 54.9765 181.406 54.701C181.407 54.4267 181.518 54.1643 181.712 53.971C181.907 53.7777 182.17 53.6692 182.444 53.6692H201.19C201.465 53.6692 201.728 53.7777 201.922 53.971C202.117 54.1643 202.227 54.4267 202.229 54.701C202.229 54.838 202.202 54.9737 202.149 55.1001C202.097 55.2266 202.02 55.3414 201.922 55.438C201.825 55.5345 201.71 55.6109 201.583 55.6627C201.456 55.7145 201.32 55.7407 201.183 55.7398Z" fill="#2211BB"/>
<path d="M193.947 59.8533H182.444C182.169 59.8533 181.905 59.7439 181.71 59.5491C181.515 59.3543 181.406 59.09 181.406 58.8145C181.407 58.5402 181.518 58.2778 181.712 58.0845C181.907 57.8912 182.17 57.7827 182.444 57.7827H193.954C194.228 57.7827 194.491 57.8912 194.686 58.0845C194.88 58.2778 194.991 58.5402 194.992 58.8145C194.992 58.9515 194.965 59.0872 194.913 59.2137C194.86 59.3402 194.783 59.455 194.686 59.5515C194.589 59.6481 194.473 59.7244 194.346 59.7762C194.22 59.828 194.084 59.8542 193.947 59.8533Z" fill="#2211BB"/>
<path d="M201.183 59.8533H198.109C197.834 59.8515 197.572 59.7412 197.379 59.5466C197.185 59.352 197.077 59.0888 197.077 58.8145C197.077 58.5409 197.186 58.2784 197.379 58.0849C197.573 57.8914 197.835 57.7827 198.109 57.7827H201.183C201.458 57.7827 201.721 57.8912 201.916 58.0845C202.11 58.2778 202.22 58.5402 202.222 58.8145C202.222 59.09 202.113 59.3543 201.918 59.5491C201.723 59.7439 201.459 59.8533 201.183 59.8533Z" fill="#2211BB"/>
<path d="M201.183 63.9666H182.444C182.169 63.9666 181.905 63.8571 181.71 63.6623C181.515 63.4675 181.406 63.2033 181.406 62.9278C181.407 62.6535 181.518 62.3911 181.712 62.1978C181.907 62.0045 182.17 61.896 182.444 61.896H201.19C201.465 61.896 201.728 62.0045 201.922 62.1978C202.117 62.3911 202.227 62.6535 202.229 62.9278C202.229 63.0648 202.202 63.2005 202.149 63.327C202.097 63.4534 202.02 63.5682 201.922 63.6648C201.825 63.7613 201.71 63.8377 201.583 63.8895C201.456 63.9413 201.32 63.9675 201.183 63.9666Z" fill="#2211BB"/>
<g opacity="0.5">
<path d="M197.132 68.0804H182.444C182.169 68.0804 181.905 67.9709 181.71 67.7761C181.515 67.5813 181.406 67.3171 181.406 67.0416C181.407 66.7673 181.518 66.5049 181.712 66.3116C181.907 66.1182 182.17 66.0098 182.444 66.0098H197.139C197.414 66.0098 197.677 66.1182 197.871 66.3116C198.066 66.5049 198.176 66.7673 198.178 67.0416C198.176 67.3177 198.065 67.5819 197.869 67.7765C197.673 67.9711 197.408 68.0804 197.132 68.0804Z" fill="white"/>
</g>
<g opacity="0.5">
<path d="M190.207 39.2859H182.444C182.17 39.2859 181.907 39.1774 181.712 38.9841C181.518 38.7908 181.407 38.5284 181.406 38.2541C181.406 37.9786 181.515 37.7144 181.71 37.5196C181.905 37.3248 182.169 37.2153 182.444 37.2153H190.214C190.49 37.2153 190.754 37.3248 190.949 37.5196C191.144 37.7144 191.253 37.9786 191.253 38.2541C191.252 38.3905 191.224 38.5254 191.171 38.6511C191.118 38.7768 191.041 38.8908 190.944 38.9866C190.847 39.0824 190.732 39.1581 190.605 39.2095C190.479 39.2609 190.344 39.2868 190.207 39.2859Z" fill="white"/>
</g>
<g opacity="0.5">
<path d="M195.283 43.3994H182.444C182.17 43.3995 181.907 43.291 181.712 43.0977C181.518 42.9043 181.407 42.6419 181.406 42.3676C181.406 42.0921 181.515 41.8279 181.71 41.6331C181.905 41.4383 182.169 41.3289 182.444 41.3289H195.29C195.565 41.3307 195.827 41.4409 196.02 41.6355C196.214 41.8301 196.322 42.0933 196.322 42.3676C196.322 42.5037 196.295 42.6384 196.243 42.7641C196.191 42.8897 196.114 43.0038 196.017 43.0997C195.921 43.1956 195.806 43.2715 195.68 43.3229C195.554 43.3743 195.419 43.4004 195.283 43.3994Z" fill="white"/>
</g>
<g opacity="0.5">
<path d="M201.183 47.5127H182.444C182.17 47.5127 181.907 47.4042 181.712 47.2109C181.518 47.0176 181.407 46.7552 181.406 46.4809C181.406 46.2054 181.515 45.9412 181.71 45.7464C181.905 45.5516 182.169 45.4421 182.444 45.4421H201.19C201.466 45.4421 201.73 45.5516 201.925 45.7464C202.12 45.9412 202.229 46.2054 202.229 46.4809C202.228 46.6173 202.2 46.7522 202.147 46.8779C202.094 47.0036 202.017 47.1176 201.92 47.2134C201.823 47.3092 201.708 47.385 201.582 47.4363C201.455 47.4877 201.32 47.5136 201.183 47.5127Z" fill="white"/>
</g>
<g opacity="0.5">
<path d="M201.183 51.6263H190.283C190.009 51.6263 189.746 51.5178 189.551 51.3245C189.357 51.1312 189.246 50.8687 189.245 50.5944C189.245 50.3189 189.354 50.0547 189.549 49.8599C189.744 49.6651 190.008 49.5557 190.283 49.5557H201.183C201.459 49.5557 201.723 49.6651 201.918 49.8599C202.113 50.0547 202.222 50.3189 202.222 50.5944C202.22 50.8687 202.11 51.1312 201.915 51.3245C201.721 51.5178 201.458 51.6263 201.183 51.6263Z" fill="white"/>
</g>
<g opacity="0.5">
<path d="M185.284 51.6263H182.444C182.17 51.6263 181.907 51.5178 181.712 51.3245C181.518 51.1312 181.407 50.8687 181.406 50.5944C181.406 50.3189 181.515 50.0547 181.71 49.8599C181.905 49.6651 182.169 49.5557 182.444 49.5557H185.29C185.566 49.5557 185.83 49.6651 186.025 49.8599C186.22 50.0547 186.329 50.3189 186.329 50.5944C186.328 50.7308 186.301 50.8657 186.248 50.9914C186.194 51.1171 186.117 51.2311 186.02 51.3269C185.923 51.4227 185.808 51.4985 185.682 51.5498C185.555 51.6012 185.42 51.6272 185.284 51.6263Z" fill="white"/>
</g>
<g opacity="0.5">
<path d="M201.183 55.7398H182.444C182.169 55.7398 181.905 55.6303 181.71 55.4355C181.515 55.2407 181.406 54.9765 181.406 54.701C181.407 54.4267 181.518 54.1643 181.712 53.971C181.907 53.7777 182.17 53.6692 182.444 53.6692H201.19C201.465 53.6692 201.728 53.7777 201.922 53.971C202.117 54.1643 202.227 54.4267 202.229 54.701C202.229 54.838 202.202 54.9737 202.149 55.1001C202.097 55.2266 202.02 55.3414 201.922 55.438C201.825 55.5345 201.71 55.6109 201.583 55.6627C201.456 55.7145 201.32 55.7407 201.183 55.7398Z" fill="white"/>
</g>
<g opacity="0.5">
<path d="M193.947 59.8533H182.444C182.169 59.8533 181.905 59.7439 181.71 59.5491C181.515 59.3543 181.406 59.09 181.406 58.8145C181.407 58.5402 181.518 58.2778 181.712 58.0845C181.907 57.8912 182.17 57.7827 182.444 57.7827H193.954C194.228 57.7827 194.491 57.8912 194.686 58.0845C194.88 58.2778 194.991 58.5402 194.992 58.8145C194.992 58.9515 194.965 59.0872 194.913 59.2137C194.86 59.3402 194.783 59.455 194.686 59.5515C194.589 59.6481 194.473 59.7244 194.346 59.7762C194.22 59.828 194.084 59.8542 193.947 59.8533Z" fill="white"/>
</g>
<g opacity="0.5">
<path d="M201.183 59.8533H198.109C197.834 59.8515 197.572 59.7412 197.379 59.5466C197.185 59.352 197.077 59.0888 197.077 58.8145C197.077 58.5409 197.186 58.2784 197.379 58.0849C197.573 57.8914 197.835 57.7827 198.109 57.7827H201.183C201.458 57.7827 201.721 57.8912 201.916 58.0845C202.11 58.2778 202.22 58.5402 202.222 58.8145C202.222 59.09 202.113 59.3543 201.918 59.5491C201.723 59.7439 201.459 59.8533 201.183 59.8533Z" fill="white"/>
</g>
<g opacity="0.5">
<path d="M201.183 63.9666H182.444C182.169 63.9666 181.905 63.8571 181.71 63.6623C181.515 63.4675 181.406 63.2033 181.406 62.9278C181.407 62.6535 181.518 62.3911 181.712 62.1978C181.907 62.0045 182.17 61.896 182.444 61.896H201.19C201.465 61.896 201.728 62.0045 201.922 62.1978C202.117 62.3911 202.227 62.6535 202.229 62.9278C202.229 63.0648 202.202 63.2005 202.149 63.327C202.097 63.4534 202.02 63.5682 201.922 63.6648C201.825 63.7613 201.71 63.8377 201.583 63.8895C201.456 63.9413 201.32 63.9675 201.183 63.9666Z" fill="white"/>
</g>
<path d="M198.171 33.9329V38.8774C198.17 39.1895 198.231 39.4988 198.35 39.7874C198.469 40.076 198.644 40.3382 198.865 40.559C199.086 40.7797 199.348 40.9547 199.636 41.0737C199.925 41.1927 200.234 41.2536 200.546 41.2526H205.484L198.171 33.9329Z" fill="#2211BB"/>
<path opacity="0.5" d="M198.171 33.9329V38.8774C198.17 39.1895 198.231 39.4988 198.35 39.7874C198.469 40.076 198.644 40.3382 198.865 40.559C199.086 40.7797 199.348 40.9547 199.636 41.0737C199.925 41.1927 200.234 41.2536 200.546 41.2526H205.484L198.171 33.9329Z" fill="white"/>
</svg>
