<svg width="285" height="212" viewBox="0 0 285 212" fill="none" xmlns="http://www.w3.org/2000/svg">
<path d="M0.482056 186.302H285V186.445H0.482056V186.302Z" fill="#EBEBEB"/>
<path d="M28.9907 195.458H47.8372V195.601H28.9907V195.458Z" fill="#EBEBEB"/>
<path d="M96.5241 197.006H101.469V197.148H96.5241V197.006Z" fill="#EBEBEB"/>
<path d="M48.4064 190.177H59.3262V190.32H48.4064V190.177Z" fill="#EBEBEB"/>
<path d="M230.572 191.133H255.148V191.276H230.572V191.133Z" fill="#EBEBEB"/>
<path d="M221.9 191.133H225.502V191.276H221.9V191.133Z" fill="#EBEBEB"/>
<path d="M156.882 193.535H210.189V193.677H156.882V193.535Z" fill="#EBEBEB"/>
<path d="M150.138 160.923H260.014C260.874 160.922 261.699 160.579 262.307 159.97C262.916 159.361 263.257 158.535 263.257 157.674V3.22074C263.25 2.36493 262.905 1.54663 262.297 0.943586C261.69 0.340544 260.869 0.00146606 260.014 0H150.138C149.277 0 148.45 0.342325 147.841 0.951667C147.232 1.56101 146.889 2.38745 146.889 3.24919V157.674C146.889 158.536 147.232 159.362 147.841 159.972C148.45 160.581 149.277 160.923 150.138 160.923ZM260.014 0.113808C260.837 0.115315 261.625 0.443316 262.207 1.02582C262.788 1.60832 263.115 2.39772 263.115 3.22074V157.674C263.115 158.497 262.788 159.287 262.207 159.869C261.625 160.452 260.837 160.78 260.014 160.781H150.138C149.315 160.78 148.525 160.452 147.943 159.869C147.361 159.287 147.033 158.498 147.031 157.674V3.22074C147.033 2.39719 147.361 1.60781 147.943 1.02547C148.525 0.443131 149.315 0.115312 150.138 0.113808H260.014Z" fill="#EBEBEB"/>
<path d="M27.0504 160.923H136.931C137.793 160.922 138.618 160.579 139.227 159.97C139.836 159.361 140.179 158.535 140.18 157.674V3.22074C140.171 2.36441 139.825 1.54611 139.217 0.94323C138.609 0.340345 137.788 0.00145007 136.931 0H27.0504C26.1955 0.00296155 25.3763 0.342701 24.7702 0.945583C24.1641 1.54846 23.8201 2.36591 23.8126 3.22074V157.674C23.8126 158.534 24.1533 159.359 24.7602 159.968C25.3671 160.577 26.1906 160.92 27.0504 160.923ZM136.931 0.113808C137.755 0.115312 138.544 0.443131 139.127 1.02547C139.709 1.60781 140.037 2.39719 140.038 3.22074V157.674C140.037 158.498 139.709 159.287 139.127 159.869C138.544 160.452 137.755 160.78 136.931 160.781H27.0504C26.2268 160.78 25.4375 160.452 24.8551 159.869C24.2728 159.287 23.945 158.498 23.9435 157.674V3.22074C23.945 2.39719 24.2728 1.60781 24.8551 1.02547C25.4375 0.443131 26.2268 0.115312 27.0504 0.113808H136.931Z" fill="#EBEBEB"/>
<path d="M30.5044 47.5771H104.729V51.3897H30.5044V47.5771Z" fill="#E0E0E0"/>
<path d="M98.0432 33.522H101.315V47.5772H98.0432V33.522Z" fill="#EBEBEB"/>
<path d="M82.2298 33.522H85.5017V47.5772H82.2298V33.522Z" fill="#EBEBEB"/>
<path d="M64.2775 33.1612L67.502 33.717L65.1145 47.568L61.8901 47.0122L64.2775 33.1612Z" fill="#EBEBEB"/>
<path d="M93.9917 35.377H97.2637V47.5828H93.9917V35.377Z" fill="#EBEBEB"/>
<path d="M86.4749 35.377H89.7468V47.5828H86.4749V35.377Z" fill="#EBEBEB"/>
<path d="M67.5032 35.377H70.7751V47.5828H67.5032V35.377Z" fill="#EBEBEB"/>
<path d="M77.9359 34.9466L81.1299 35.6565L78.4818 47.5716L75.2878 46.8617L77.9359 34.9466Z" fill="#EBEBEB"/>
<path d="M91.1637 32.822H92.7969V47.5771H91.1637V32.822Z" fill="#EBEBEB"/>
<path d="M71.714 32.822H73.3472V47.5771H71.714V32.822Z" fill="#EBEBEB"/>
<path d="M37.6288 36.4524H53.5618V47.4519H37.6288V36.4524Z" fill="#EBEBEB"/>
<path d="M104.729 79.8584L30.5044 79.8584V76.0459L104.729 76.0459V79.8584Z" fill="#E0E0E0"/>
<path d="M37.1963 76.0518H33.9243V61.9966H37.1963V76.0518Z" fill="#EBEBEB"/>
<path d="M53.0041 76.0518H49.7322V61.9966H53.0041V76.0518Z" fill="#EBEBEB"/>
<path d="M73.3392 75.4925L70.1147 76.0483L67.7273 62.1974L70.9517 61.6416L73.3392 75.4925Z" fill="#EBEBEB"/>
<path d="M41.2478 76.0457H37.9758V63.8398H41.2478V76.0457Z" fill="#EBEBEB"/>
<path d="M48.759 76.0457H45.4871V63.8398H48.759V76.0457Z" fill="#EBEBEB"/>
<path d="M67.7307 76.0457H64.4587V63.8398H67.7307V76.0457Z" fill="#EBEBEB"/>
<path d="M59.9382 75.3299L56.7441 76.0398L54.0961 64.1247L57.2901 63.4148L59.9382 75.3299Z" fill="#EBEBEB"/>
<path d="M44.0701 76.0457H42.437V61.2906H44.0701V76.0457Z" fill="#EBEBEB"/>
<path d="M63.5198 76.0457H61.8867V61.2906H63.5198V76.0457Z" fill="#EBEBEB"/>
<path d="M97.6107 75.9263H81.6777V64.9268H97.6107V75.9263Z" fill="#EBEBEB"/>
<path d="M254.841 120.066V186.644H251.427V126.895H191.109V186.644H187.126V120.066H254.841Z" fill="#E0E0E0"/>
<path d="M217.285 120.066V186.644H213.87V126.895H153.553V186.644H149.569V120.066H217.285Z" fill="#F5F5F5"/>
<path d="M195.73 95.2566C196.492 94.0047 197.744 95.0973 197.744 95.0973C197.568 92.6902 199.776 91.0514 199.776 91.0514C199.776 91.0514 197.209 91.0514 196.851 88.5989C196.492 86.1463 197.744 87.2901 198.922 87.273C200.1 87.256 201.329 90.6872 199.776 92.622C198.222 94.5567 198.638 97.8571 202.222 101.027C203.08 101.828 203.724 102.832 204.095 103.946C203.821 101.032 203.668 96.9239 204.527 94.1868C205.984 89.5264 203.207 88.2745 202.405 85.9472C201.602 83.6198 204.527 81.6453 204.527 81.6453C204.527 81.6453 201.773 80.3934 203.122 78.9594C204.47 77.5254 207.236 77.7189 207.236 79.5967C207.236 81.4746 205.358 82.1858 205.358 82.1858C205.358 82.1858 203.207 84.4222 203.207 85.6001C203.207 86.778 205.358 89.2703 205.358 89.2703C205.358 89.2703 204.373 87.1251 206.342 87.034C208.311 86.943 208.943 89.5378 208.135 90.7043C207.327 91.8708 205.984 90.8807 205.984 90.8807C205.902 92.2395 205.696 93.588 205.369 94.9095C205.17 95.5809 205.261 98.2099 205.432 100.941C205.806 99.9549 206.404 99.0686 207.179 98.3522C210.758 95.1826 211.162 91.8822 209.626 89.9475C208.089 88.0128 209.301 84.5815 210.479 84.5986C211.657 84.6156 212.909 83.4605 212.55 85.9244C212.192 88.3883 209.626 88.377 209.626 88.377C209.626 88.377 211.833 90.0158 211.651 92.4228C211.651 92.4228 212.909 91.3303 213.671 92.5821C215.026 94.8241 211.879 96.2126 211.35 95.1087C211.35 95.1087 204.669 99.8373 206.28 106.643L205.904 107.212C205.955 107.781 205.984 108.094 205.984 108.094L205.46 107.872L204.891 108.748C204.912 109.737 204.86 110.726 204.738 111.707L203.144 109.346C204.755 102.518 198.074 97.8116 198.074 97.8116C197.522 98.8871 194.37 97.4986 195.73 95.2566Z" fill="#E0E0E0"/>
<path d="M199.776 120.067L201.932 107.724L201.323 104.134H208.112L207.503 107.724L209.654 120.067H199.776Z" fill="#EBEBEB"/>
<path d="M142.741 212C81.8074 212 32.4108 209.116 32.4108 205.558C32.4108 202.001 81.8074 199.117 142.741 199.117C203.675 199.117 253.072 202.001 253.072 205.558C253.072 209.116 203.675 212 142.741 212Z" fill="#F5F5F5"/>
<path d="M113.871 29.755L131.4 20.2888L143.762 43.1805L126.233 52.6467L113.871 29.755Z" fill="#2211BB"/>
<path opacity="0.6" d="M113.871 29.755L131.4 20.2888L143.762 43.1805L126.233 52.6467L113.871 29.755Z" fill="white"/>
<path d="M118.236 31.5869L130.533 24.9463L131.201 26.183L118.904 32.8237L118.236 31.5869Z" fill="#2211BB"/>
<path d="M119.405 33.7539L131.702 27.1133L132.37 28.35L120.072 34.9907L119.405 33.7539Z" fill="#2211BB"/>
<path d="M120.576 35.9192L132.873 29.2786L133.541 30.5153L121.244 37.1559L120.576 35.9192Z" fill="#2211BB"/>
<path d="M121.75 38.083L134.047 31.4424L134.715 32.6791L122.418 39.3198L121.75 38.083Z" fill="#2211BB"/>
<path d="M122.916 40.2451L135.213 33.6045L135.881 34.8412L123.584 41.4819L122.916 40.2451Z" fill="#2211BB"/>
<path d="M124.084 42.4153L136.381 35.7747L137.049 37.0114L124.752 43.652L124.084 42.4153Z" fill="#2211BB"/>
<path d="M125.25 44.5772L137.547 37.9365L138.215 39.1732L125.918 45.8139L125.25 44.5772Z" fill="#2211BB"/>
<path d="M130.762 44.4026L138.723 40.1035L139.391 41.3402L131.43 45.6393L130.762 44.4026Z" fill="#2211BB"/>
<path d="M160.444 29.9258C162.924 29.672 165.273 28.6885 167.194 27.0997C169.115 25.5109 170.521 23.3882 171.236 20.9999C171.951 18.6117 171.941 16.0652 171.208 13.6824C170.475 11.2997 169.053 9.18771 167.12 7.6136C165.187 6.0395 162.83 5.07395 160.348 4.83905C157.867 4.60415 155.371 5.11045 153.177 6.29394C150.983 7.47742 149.189 9.28493 148.022 11.4879C146.856 13.6909 146.368 16.1903 146.622 18.6702C146.967 21.9939 148.615 25.0452 151.206 27.1552C153.797 29.2651 157.119 30.2615 160.444 29.9258Z" fill="#2211BB"/>
<path opacity="0.3" d="M158.275 28.8402C151.942 28.3529 147.203 22.8242 147.691 16.4915C148.178 10.1589 153.707 5.42024 160.039 5.90751C166.372 6.39478 171.111 11.9234 170.623 18.2561C170.136 24.5888 164.607 29.3274 158.275 28.8402Z" fill="white"/>
<path d="M155.26 13.657C156.586 12.7181 158.435 9.50877 158.435 9.4917L159.63 21.1228C159.602 20.861 160.637 20.5936 161.337 20.5538C163.004 20.3774 164.41 21.1626 164.524 22.2609C164.638 23.3591 163.386 24.4516 161.679 24.6224C159.972 24.7931 158.623 24.0078 158.503 22.8811C158.503 22.7104 158.623 22.5283 158.606 22.3747L157.69 13.4124C157.005 14.2005 156.164 14.838 155.22 15.2845C153.963 15.8535 153.513 17.6005 153.513 17.6005C153.451 16.8495 153.579 16.0951 153.884 15.4062C154.189 14.7173 154.662 14.1159 155.26 13.657Z" fill="white"/>
<path opacity="0.5" d="M157.025 21.413C152.578 19.1068 150.522 14.2497 152.433 10.5643C154.344 6.87884 159.499 5.76069 163.946 8.06681C168.393 10.3729 170.449 15.2301 168.538 18.9155C166.626 22.6009 161.472 23.7191 157.025 21.413Z" fill="white"/>
<path d="M183.833 1.02429L210.915 3.22705L209.265 23.5031L182.183 21.3004L183.833 1.02429Z" fill="#2211BB"/>
<path d="M185.036 2.44727L209.424 4.43091L207.994 22.013L183.606 20.0293L185.036 2.44727Z" fill="#2211BB"/>
<path opacity="0.5" d="M185.036 2.44727L209.424 4.43091L207.994 22.013L183.606 20.0293L185.036 2.44727Z" fill="white"/>
<path d="M183.803 17.6401L183.609 20.0301L207.998 22.016L208.692 13.4691L204.021 8.65503L195.957 15.3298L192.236 12.1261L183.803 17.6401Z" fill="#2211BB"/>
<path opacity="0.3" d="M183.803 17.6401L183.609 20.0301L207.998 22.016L208.692 13.4691L204.021 8.65503L195.957 15.3298L192.236 12.1261L183.803 17.6401Z" fill="white"/>
<path d="M188.725 7.39727C188.694 7.78535 188.778 8.174 188.967 8.51411C189.157 8.85421 189.443 9.1305 189.79 9.30803C190.136 9.48557 190.527 9.55639 190.914 9.51153C191.301 9.46668 191.666 9.30817 191.962 9.05603C192.259 8.8039 192.474 8.46947 192.581 8.09502C192.688 7.72056 192.681 7.3229 192.561 6.9523C192.442 6.5817 192.216 6.25481 191.911 6.01293C191.605 5.77106 191.235 5.62507 190.847 5.59343C190.59 5.5724 190.33 5.60239 190.084 5.68168C189.838 5.76097 189.609 5.888 189.412 6.05552C189.215 6.22304 189.053 6.42777 188.935 6.65799C188.817 6.88822 188.746 7.13943 188.725 7.39727Z" fill="#2211BB"/>
<path opacity="0.3" d="M188.725 7.39727C188.694 7.78535 188.778 8.174 188.967 8.51411C189.157 8.85421 189.443 9.1305 189.79 9.30803C190.136 9.48557 190.527 9.55639 190.914 9.51153C191.301 9.46668 191.666 9.30817 191.962 9.05603C192.259 8.8039 192.474 8.46947 192.581 8.09502C192.688 7.72056 192.681 7.3229 192.561 6.9523C192.442 6.5817 192.216 6.25481 191.911 6.01293C191.605 5.77106 191.235 5.62507 190.847 5.59343C190.59 5.5724 190.33 5.60239 190.084 5.68168C189.838 5.76097 189.609 5.888 189.412 6.05552C189.215 6.22304 189.053 6.42777 188.935 6.65799C188.817 6.88822 188.746 7.13943 188.725 7.39727Z" fill="white"/>
<path d="M235.841 24.9634L236.888 24.3204C237.074 24.2056 237.284 24.1361 237.501 24.1173C237.719 24.0985 237.937 24.131 238.14 24.2123L242.789 26.1754C242.984 26.2548 243.156 26.3836 243.287 26.5492C243.417 26.7148 243.503 26.9115 243.534 27.12L243.705 28.2581C243.734 28.4662 243.818 28.6628 243.948 28.8278C244.078 28.9928 244.249 29.1202 244.445 29.197L247.222 30.3351C247.38 30.3995 247.524 30.4965 247.643 30.6198C247.761 30.7431 247.853 30.8899 247.911 31.0508C247.97 31.2117 247.994 31.3831 247.982 31.5538C247.97 31.7246 247.922 31.891 247.842 32.0422L240.445 47.2013C240.288 47.5155 240.019 47.7594 239.692 47.8848C239.364 48.0102 239.001 48.008 238.675 47.8785L216.676 38.6942C216.516 38.6311 216.372 38.5349 216.252 38.412C216.132 38.2891 216.039 38.1422 215.98 37.981C215.921 37.8198 215.897 37.6479 215.909 37.4766C215.921 37.3053 215.969 37.1385 216.05 36.9871L223.447 21.8337C223.603 21.5185 223.871 21.2733 224.199 21.1468C224.527 21.0203 224.89 21.0218 225.217 21.1509L234.589 25.0715C234.792 25.1527 235.011 25.1853 235.228 25.1665C235.445 25.1477 235.655 25.0781 235.841 24.9634Z" fill="#2211BB"/>
<path d="M222.406 21.7144L242.556 30.1588C242.967 30.3366 243.298 30.6591 243.487 31.065C243.676 31.471 243.709 31.9322 243.58 32.361L239.17 46.3195C239.108 46.5195 239.004 46.7041 238.865 46.861C238.726 47.0179 238.556 47.1435 238.365 47.2296C238.174 47.3156 237.967 47.3602 237.757 47.3602C237.548 47.3603 237.341 47.3159 237.15 47.2299L216.995 38.7968C216.585 38.6171 216.255 38.2944 216.067 37.889C215.878 37.4836 215.844 37.0235 215.97 36.5946L220.386 22.6362C220.446 22.4346 220.549 22.2482 220.687 22.0895C220.825 21.9309 220.995 21.8036 221.187 21.7163C221.378 21.6289 221.586 21.5836 221.796 21.5833C222.007 21.5829 222.215 21.6276 222.406 21.7144Z" fill="#2211BB"/>
<path opacity="0.5" d="M222.406 21.7144L242.556 30.1588C242.967 30.3366 243.298 30.6591 243.487 31.065C243.676 31.471 243.709 31.9322 243.58 32.361L239.17 46.3195C239.108 46.5195 239.004 46.7041 238.865 46.861C238.726 47.0179 238.556 47.1435 238.365 47.2296C238.174 47.3156 237.967 47.3602 237.757 47.3602C237.548 47.3603 237.341 47.3159 237.15 47.2299L216.995 38.7968C216.585 38.6171 216.255 38.2944 216.067 37.889C215.878 37.4836 215.844 37.0235 215.97 36.5946L220.386 22.6362C220.446 22.4346 220.549 22.2482 220.687 22.0895C220.825 21.9309 220.995 21.8036 221.187 21.7163C221.378 21.6289 221.586 21.5836 221.796 21.5833C222.007 21.5829 222.215 21.6276 222.406 21.7144Z" fill="white"/>
<path d="M149.296 55.1964C149.046 54.0217 148.92 52.8239 148.921 51.6229C148.921 49.3945 149.36 47.188 150.212 45.1293C151.065 43.0705 152.315 41.1999 153.891 39.6242C155.466 38.0486 157.337 36.7987 159.396 35.9459C161.455 35.0931 163.661 34.6542 165.889 34.6542C166.941 34.6553 167.991 34.7525 169.025 34.9444C169.457 34.8648 169.895 34.9444 170.345 34.8932C171.944 31.4182 174.513 28.4786 177.742 26.4275C180.971 24.3765 184.723 23.301 188.548 23.3304H194.808C197.428 23.3177 200.024 23.8219 202.449 24.8143C204.873 25.8066 207.078 27.2675 208.937 29.1134C210.796 30.9592 212.273 33.1537 213.282 35.5711C214.292 37.9885 214.815 40.5814 214.821 43.2012C214.821 43.3491 214.821 43.4231 214.821 43.571C218.96 44.3021 222.674 46.5627 225.224 49.9043C227.774 53.2458 228.975 57.424 228.589 61.6098C228.202 65.7956 226.255 69.6829 223.136 72.5005C220.016 75.318 215.951 76.8597 211.748 76.8198H150.292C147.425 76.9503 144.623 75.9365 142.503 74.0012C140.383 72.0659 139.119 69.3678 138.988 66.5003C138.858 63.6329 139.872 60.831 141.807 58.7111C143.742 56.5913 146.44 55.327 149.308 55.1964H149.296Z" fill="#2211BB"/>
<path opacity="0.5" d="M149.296 55.1964C149.046 54.0217 148.92 52.8239 148.921 51.6229C148.921 49.3945 149.36 47.188 150.212 45.1293C151.065 43.0705 152.315 41.1999 153.891 39.6242C155.466 38.0486 157.337 36.7987 159.396 35.9459C161.455 35.0931 163.661 34.6542 165.889 34.6542C166.941 34.6553 167.991 34.7525 169.025 34.9444C169.457 34.8648 169.895 34.9444 170.345 34.8932C171.944 31.4182 174.513 28.4786 177.742 26.4275C180.971 24.3765 184.723 23.301 188.548 23.3304H194.808C197.428 23.3177 200.024 23.8219 202.449 24.8143C204.873 25.8066 207.078 27.2675 208.937 29.1134C210.796 30.9592 212.273 33.1537 213.282 35.5711C214.292 37.9885 214.815 40.5814 214.821 43.2012C214.821 43.3491 214.821 43.4231 214.821 43.571C218.96 44.3021 222.674 46.5627 225.224 49.9043C227.774 53.2458 228.975 57.424 228.589 61.6098C228.202 65.7956 226.255 69.6829 223.136 72.5005C220.016 75.318 215.951 76.8597 211.748 76.8198H150.292C147.425 76.9503 144.623 75.9365 142.503 74.0012C140.383 72.0659 139.119 69.3678 138.988 66.5003C138.858 63.6329 139.872 60.831 141.807 58.7111C143.742 56.5913 146.44 55.327 149.308 55.1964H149.296Z" fill="white"/>
<path opacity="0.4" d="M149.296 55.1964C149.046 54.0217 148.921 52.8239 148.921 51.6229C148.921 49.3945 149.36 47.188 150.213 45.1293C151.065 43.0705 152.315 41.1999 153.891 39.6242C155.467 38.0486 157.337 36.7987 159.396 35.9459C161.455 35.0931 163.661 34.6542 165.89 34.6542C166.941 34.6553 167.991 34.7525 169.025 34.9444C169.457 34.8648 169.896 34.9444 170.345 34.8932C171.944 31.4182 174.513 28.4786 177.742 26.4275C180.971 24.3765 184.723 23.301 188.549 23.3304C191.168 23.3177 193.765 23.8219 196.189 24.8143C198.614 25.8066 200.819 27.2675 202.678 29.1134C204.537 30.9592 206.014 33.1537 207.023 35.5711C208.033 37.9885 208.556 40.5814 208.562 43.2012C208.562 43.3491 208.562 43.4231 208.562 43.571C212.701 44.3021 216.414 46.5627 218.965 49.9043C221.515 53.2458 222.716 57.424 222.329 61.6098C221.942 65.7956 219.996 69.6829 216.877 72.5005C213.757 75.318 209.692 76.8597 205.489 76.8198H150.292C147.425 76.9503 144.623 75.9365 142.503 74.0012C140.383 72.0659 139.119 69.3678 138.988 66.5003C138.858 63.6329 139.872 60.831 141.807 58.7111C143.742 56.5913 146.44 55.327 149.308 55.1964H149.296Z" fill="white"/>
<path d="M132.686 104.702H151.846C159.389 104.693 166.62 101.693 171.954 96.3591C177.288 91.0253 180.288 83.7938 180.297 76.2507V70.5603H185.988V76.2507C185.977 85.3025 182.377 93.9806 175.976 100.381C169.576 106.782 160.897 110.382 151.846 110.393H132.686V104.702Z" fill="#2211BB"/>
<path d="M183.211 66.7708L188.144 71.6986H178.283L183.211 66.7708Z" fill="#2211BB"/>
<path d="M225.661 177.727L229.075 167.296C227.391 165.859 225.408 164.816 223.27 164.242C221.132 163.668 218.893 163.578 216.716 163.979L213.871 173.744L225.661 177.727Z" fill="#2211BB"/>
<path opacity="0.7" d="M225.661 177.727L229.075 167.296C227.391 165.859 225.408 164.816 223.27 164.242C221.132 163.668 218.893 163.578 216.716 163.979L213.871 173.744L225.661 177.727Z" fill="white"/>
<g opacity="0.2">
<path d="M227.448 169.76C227.04 169.305 226.588 168.892 226.099 168.526C225.6 168.14 225.071 167.793 224.517 167.49C224.216 167.331 223.897 167.16 223.561 167.012C223.226 166.864 222.89 166.722 222.531 166.614C222.182 166.496 221.827 166.397 221.467 166.318L220.938 166.198L220.409 166.136C220.238 166.136 220.067 166.084 219.902 166.073H219.413C219.113 166.056 218.812 166.066 218.514 166.102C218.241 166.13 217.99 166.153 217.768 166.193L217.199 166.323L216.716 166.449C216.716 166.449 216.904 166.449 217.216 166.449L217.786 166.42H218.525C218.813 166.427 219.1 166.45 219.385 166.488C219.704 166.518 220.021 166.565 220.335 166.631L220.836 166.722L221.336 166.853C221.679 166.934 222.018 167.035 222.349 167.154C222.696 167.245 223.021 167.399 223.351 167.518C223.681 167.638 223.988 167.792 224.29 167.934C224.591 168.076 224.859 168.218 225.155 168.372C225.45 168.526 225.684 168.656 225.917 168.793C226.384 169.066 226.771 169.299 227.055 169.482L227.448 169.76Z" fill="black"/>
<path d="M227.146 170.711C227.146 170.711 227.015 170.597 226.765 170.42C226.515 170.244 226.162 169.988 225.712 169.726C225.202 169.418 224.676 169.137 224.136 168.884C223.567 168.6 222.89 168.349 222.235 168.11C221.9 168.013 221.564 167.9 221.234 167.809C220.904 167.718 220.568 167.638 220.244 167.587C219.919 167.535 219.607 167.461 219.305 167.439C219.003 167.416 218.736 167.376 218.457 167.37C218.035 167.358 217.613 167.374 217.194 167.416L216.716 167.473C216.716 167.473 216.892 167.501 217.194 167.53C217.342 167.53 217.524 167.53 217.729 167.587L218.423 167.695C218.679 167.735 218.946 167.809 219.237 167.86C219.527 167.911 219.806 168.008 220.13 168.076C220.454 168.144 220.756 168.258 221.08 168.338C221.405 168.417 221.723 168.548 222.048 168.651C223.345 169.083 224.614 169.607 225.564 170.011C226.037 170.221 226.441 170.381 226.702 170.512L227.146 170.711Z" fill="black"/>
<path d="M226.344 172.657C226.232 172.546 226.115 172.441 225.991 172.344C225.763 172.156 225.422 171.889 225.012 171.598C224.532 171.268 224.032 170.965 223.516 170.694C222.925 170.376 222.315 170.097 221.689 169.857C221.059 169.62 220.412 169.43 219.754 169.288C219.45 169.225 219.142 169.179 218.832 169.152C218.537 169.152 218.263 169.089 218.002 169.095L217.302 169.123C217.091 169.123 216.915 169.174 216.767 169.191L216.306 169.271C216.306 169.271 216.477 169.271 216.773 169.299C216.921 169.299 217.097 169.299 217.296 169.334L217.979 169.425C218.224 169.453 218.485 169.521 218.77 169.567C219.054 169.612 219.339 169.715 219.641 169.777C219.942 169.84 220.244 169.965 220.557 170.051C220.87 170.136 221.177 170.267 221.49 170.375C221.803 170.483 222.11 170.608 222.412 170.739C222.713 170.87 223.015 170.984 223.294 171.12C223.863 171.376 224.392 171.638 224.841 171.86C225.291 172.082 225.672 172.276 225.928 172.429L226.344 172.657Z" fill="black"/>
<path d="M225.866 173.983C225.471 173.592 225.043 173.238 224.585 172.924C224.116 172.6 223.626 172.307 223.117 172.048C222.833 171.911 222.548 171.775 222.235 171.65C221.922 171.524 221.615 171.405 221.291 171.314C220.971 171.214 220.646 171.13 220.318 171.063C220.001 170.991 219.68 170.94 219.356 170.91C219.054 170.871 218.75 170.853 218.445 170.859C218.176 170.849 217.906 170.861 217.637 170.893L216.955 170.984L216.442 171.109C216.164 171.183 216.004 171.234 216.004 171.234C216.004 171.234 216.175 171.234 216.46 171.234H216.977H217.643C217.904 171.233 218.164 171.249 218.423 171.28C218.713 171.304 219.002 171.344 219.288 171.399C219.584 171.439 219.857 171.524 220.198 171.593C220.54 171.661 220.813 171.758 221.12 171.849C221.727 172.033 222.323 172.25 222.907 172.497C223.476 172.736 223.982 172.981 224.42 173.197C224.859 173.414 225.223 173.607 225.473 173.766L225.866 173.983Z" fill="black"/>
<path d="M225.206 175.758C225.1 175.647 224.988 175.542 224.87 175.445C224.648 175.257 224.335 174.99 223.931 174.699C223.47 174.369 222.989 174.067 222.492 173.795C222.224 173.641 221.922 173.493 221.638 173.356C221.353 173.22 221.029 173.1 220.722 172.964C220.415 172.827 220.09 172.748 219.777 172.651C219.464 172.554 219.146 172.486 218.833 172.429C218.537 172.374 218.239 172.334 217.939 172.309C217.649 172.309 217.37 172.264 217.126 172.275L216.443 172.321C216.243 172.321 216.067 172.389 215.925 172.412L215.481 172.514H215.936C216.078 172.514 216.255 172.514 216.448 172.514L217.108 172.577C217.347 172.605 217.609 172.668 217.877 172.702C218.144 172.736 218.446 172.839 218.724 172.896C219.003 172.952 219.294 173.078 219.618 173.157C219.942 173.237 220.221 173.362 220.523 173.476C220.824 173.59 221.126 173.704 221.416 173.834C221.706 173.965 221.985 174.079 222.27 174.216C222.839 174.472 223.322 174.733 223.76 174.955C224.199 175.177 224.563 175.365 224.807 175.524L225.206 175.758Z" fill="black"/>
</g>
<path d="M227.14 177.801L220.13 172.486C220.044 172.42 219.946 172.374 219.841 172.349C219.736 172.325 219.627 172.323 219.521 172.344L211.515 173.863C211.358 173.892 211.214 173.969 211.102 174.083C210.991 174.198 210.918 174.344 210.894 174.501C210.87 174.659 210.895 174.82 210.966 174.963C211.038 175.105 211.152 175.222 211.293 175.297L217.899 178.876C218.007 178.932 218.125 178.963 218.246 178.967L226.668 179.184C226.83 179.186 226.989 179.137 227.122 179.044C227.254 178.95 227.354 178.817 227.407 178.664C227.459 178.51 227.461 178.344 227.414 178.189C227.366 178.034 227.27 177.898 227.14 177.801Z" fill="#2211BB"/>
<path d="M214.502 180.954C214.502 180.954 203.725 154.875 201.824 153.259C199.923 151.643 187.883 158.647 187.883 158.647L198.603 186.172L214.502 180.954Z" fill="#2211BB"/>
<path opacity="0.2" d="M211.407 180.766C211.407 180.766 201.084 155.853 199.548 154.778C198.011 153.702 189.214 158.289 189.214 158.289C189.214 158.289 198.381 152.689 201.192 153.64C204.003 154.59 213.586 180.197 213.586 180.197L211.407 180.766Z" fill="black"/>
<path d="M189.686 178.393H235.46V205.422H189.686V178.393Z" fill="#263238"/>
<path opacity="0.2" d="M189.686 178.393H235.46V205.422H189.686V178.393Z" fill="white"/>
<path opacity="0.4" d="M189.687 178.393H218.104V205.422H189.687V178.393Z" fill="white"/>
<path d="M218.104 178.677L207.327 170L183.285 171.638L189.687 178.677H218.104Z" fill="#263238"/>
<path d="M218.104 178.677L226.247 169.288L243.46 171.137L235.46 178.393L218.104 178.677Z" fill="#263238"/>
<path opacity="0.1" d="M218.104 178.677L226.247 169.288L243.46 171.137L235.46 178.393L218.104 178.677Z" fill="white"/>
<path opacity="0.4" d="M218.104 178.677L207.327 170L183.285 171.638L189.687 178.677H218.104Z" fill="white"/>
<path d="M198.353 190.832C199.791 190.832 201.197 191.258 202.393 192.057C203.589 192.856 204.521 193.992 205.072 195.321C205.622 196.65 205.766 198.112 205.486 199.523C205.205 200.934 204.512 202.229 203.495 203.246C202.478 204.263 201.182 204.956 199.772 205.237C198.361 205.517 196.899 205.373 195.57 204.823C194.241 204.272 193.105 203.34 192.306 202.144C191.507 200.948 191.081 199.542 191.081 198.104C191.081 196.175 191.847 194.326 193.211 192.962C194.575 191.598 196.424 190.832 198.353 190.832ZM198.353 201C198.927 201 199.488 200.83 199.966 200.511C200.443 200.192 200.815 199.738 201.035 199.208C201.254 198.677 201.311 198.093 201.199 197.53C201.086 196.967 200.809 196.45 200.403 196.044C199.997 195.639 199.479 195.363 198.916 195.251C198.352 195.14 197.769 195.198 197.238 195.419C196.708 195.639 196.255 196.012 195.937 196.49C195.619 196.968 195.45 197.53 195.451 198.104C195.451 198.485 195.526 198.862 195.672 199.214C195.818 199.566 196.032 199.885 196.301 200.154C196.571 200.423 196.891 200.636 197.243 200.782C197.595 200.927 197.972 201.001 198.353 201Z" fill="#2211BB"/>
<path opacity="0.7" d="M191.798 194.946C191.929 194.677 192.077 194.417 192.241 194.167C192.454 193.828 192.698 193.51 192.97 193.216C194.212 191.839 195.939 190.995 197.79 190.861C197.978 190.839 198.168 190.83 198.359 190.832C199.463 190.834 200.552 191.087 201.545 191.572C202.537 192.058 203.405 192.762 204.085 193.633C204.764 194.504 205.236 195.518 205.466 196.598C205.695 197.678 205.676 198.797 205.409 199.868C205.342 200.147 205.254 200.421 205.147 200.688C204.995 201.085 204.804 201.466 204.578 201.826C203.988 202.811 203.173 203.641 202.2 204.25C201.226 204.858 200.122 205.227 198.979 205.325C198.768 205.325 198.558 205.354 198.347 205.354C197.117 205.353 195.908 205.04 194.832 204.445C193.756 203.849 192.848 202.991 192.193 201.95C191.539 200.909 191.158 199.719 191.088 198.491C191.018 197.264 191.26 196.038 191.792 194.929L191.798 194.946ZM198.353 201.001C198.444 201.006 198.535 201.006 198.626 201.001C199.152 200.953 199.654 200.761 200.079 200.447C200.503 200.133 200.833 199.708 201.033 199.22C201.101 199.054 201.154 198.882 201.192 198.708C201.212 198.598 201.225 198.488 201.232 198.377C201.238 198.292 201.238 198.207 201.232 198.121C201.233 197.741 201.159 197.363 201.013 197.011C200.868 196.659 200.655 196.339 200.386 196.07C200.117 195.8 199.797 195.586 199.446 195.44C199.094 195.294 198.717 195.219 198.336 195.219C198.268 195.214 198.199 195.214 198.131 195.219C197.534 195.257 196.963 195.48 196.498 195.857C196.383 195.952 196.277 196.057 196.179 196.17C196.095 196.26 196.019 196.357 195.952 196.46C195.612 196.943 195.431 197.52 195.434 198.11C195.434 198.492 195.511 198.87 195.658 199.222C195.805 199.574 196.021 199.894 196.292 200.163C196.563 200.431 196.885 200.644 197.239 200.787C197.592 200.931 197.971 201.004 198.353 201.001Z" fill="white"/>
<path opacity="0.2" d="M198.626 200.984L198.985 205.343C200.128 205.244 201.232 204.875 202.206 204.267C203.179 203.658 203.994 202.828 204.584 201.843L201.033 199.203C200.833 199.691 200.503 200.116 200.079 200.43C199.654 200.744 199.152 200.936 198.626 200.984Z" fill="white"/>
<path opacity="0.2" d="M192.97 193.216L196.515 195.851C196.98 195.474 197.551 195.251 198.148 195.213L197.79 190.86C195.939 190.995 194.213 191.839 192.97 193.216Z" fill="white"/>
<path opacity="0.2" d="M201.192 198.69L205.142 200.687C205.248 200.421 205.336 200.147 205.403 199.868L201.232 198.36C201.225 198.471 201.212 198.581 201.192 198.69Z" fill="white"/>
<path opacity="0.2" d="M191.798 194.946L195.969 196.454C196.036 196.351 196.112 196.254 196.196 196.164L192.241 194.166C192.077 194.416 191.929 194.677 191.798 194.946Z" fill="white"/>
<path d="M193.044 192.852C197.027 192.852 199.206 195.658 197.841 199.112C196.475 202.566 192.122 205.371 188.11 205.371C184.099 205.371 181.942 202.571 183.308 199.112C184.673 195.652 189.026 192.852 193.044 192.852ZM189.59 201.61C190.404 201.592 191.198 201.349 191.883 200.908C192.567 200.467 193.117 199.846 193.471 199.112C194.04 197.735 193.158 196.614 191.559 196.614C190.745 196.633 189.952 196.876 189.267 197.317C188.582 197.758 188.032 198.379 187.678 199.112C187.126 200.489 187.991 201.61 189.59 201.61Z" fill="#2211BB"/>
<path opacity="0.1" d="M185.094 196.391C185.316 196.164 185.55 195.936 185.8 195.72C186.133 195.426 186.484 195.154 186.853 194.906C188.509 193.738 190.449 193.036 192.469 192.875C192.668 192.875 192.856 192.875 193.038 192.875C197.021 192.875 199.201 195.674 197.835 199.134C197.624 199.67 197.351 200.18 197.021 200.653C196.848 200.901 196.657 201.136 196.452 201.359C196.161 201.714 195.843 202.047 195.502 202.355C193.632 204.075 191.249 205.135 188.719 205.371C188.503 205.371 188.287 205.371 188.076 205.371C184.059 205.371 181.908 202.565 183.268 199.111C183.697 198.096 184.317 197.173 185.094 196.391ZM189.596 201.609H189.874C191.034 201.495 192.109 200.948 192.885 200.078C193.006 199.94 193.117 199.791 193.215 199.635C193.271 199.543 193.323 199.448 193.368 199.35C193.407 199.278 193.441 199.204 193.471 199.128C194.04 197.745 193.158 196.63 191.559 196.63C191.491 196.624 191.422 196.624 191.354 196.63C190.703 196.679 190.071 196.874 189.504 197.199C189.357 197.281 189.214 197.373 189.078 197.472C188.963 197.548 188.855 197.631 188.753 197.723C188.279 198.096 187.907 198.584 187.672 199.14C187.126 200.488 187.991 201.609 189.596 201.609Z" fill="white"/>
<path opacity="0.2" d="M189.874 201.593L188.736 205.348C191.266 205.112 193.649 204.053 195.519 202.332L192.868 200.056C192.097 200.924 191.029 201.473 189.874 201.593Z" fill="white"/>
<path opacity="0.2" d="M186.853 194.906L189.505 197.182C190.071 196.857 190.703 196.663 191.354 196.613L192.492 192.863C190.463 193.024 188.514 193.73 186.853 194.906Z" fill="white"/>
<path opacity="0.2" d="M193.215 199.618L196.487 201.325C196.692 201.102 196.882 200.867 197.056 200.619L193.385 199.333C193.334 199.431 193.277 199.526 193.215 199.618Z" fill="white"/>
<path opacity="0.2" d="M185.094 196.391L188.753 197.694C188.855 197.603 188.963 197.519 189.078 197.444L185.8 195.737C185.55 195.936 185.316 196.164 185.094 196.391Z" fill="white"/>
<path d="M73.0911 156.485L72.8862 165.345L71.953 205.422H68.8745L67.947 165.345L67.7421 156.485H73.0911Z" fill="#2211BB"/>
<path opacity="0.4" d="M73.0911 156.485L72.8862 165.345L71.953 205.422H68.8745L67.947 165.345L67.7421 156.485H73.0911Z" fill="white"/>
<path opacity="0.2" d="M73.0911 156.485L72.8862 165.589H67.947L67.7421 156.485H73.0911Z" fill="black"/>
<path d="M89.8093 205.279L86.9641 157.111H82.3151L86.2984 205.279H89.8093Z" fill="#2211BB"/>
<path opacity="0.5" d="M86.2868 205.28H89.8035L87.22 161.436L86.964 157.054H82.315L82.6734 161.436L86.2868 205.28Z" fill="white"/>
<path opacity="0.2" d="M82.3151 157.054L82.6736 161.606H87.2202L86.9642 157.054H82.3151Z" fill="black"/>
<path d="M54.529 205.279L58.5122 157.111H53.8632L51.018 205.279H54.529Z" fill="#2211BB"/>
<path opacity="0.5" d="M54.5403 205.28L58.1537 161.436L58.5122 157.054H53.8632L53.6071 161.436L51.0237 205.28H54.5403Z" fill="white"/>
<path opacity="0.2" d="M58.5122 157.054L58.1537 161.606H53.6071L53.8632 157.054H58.5122Z" fill="black"/>
<path d="M51.3765 158.778H89.4564V154.982C89.4564 154.228 89.1566 153.504 88.623 152.971C88.0894 152.437 87.3658 152.137 86.6112 152.137H54.2216C53.4671 152.137 52.7434 152.437 52.2098 152.971C51.6762 153.504 51.3765 154.228 51.3765 154.982V158.789V158.778Z" fill="#2211BB"/>
<path d="M90.1337 158.772H50.6938C50.0621 158.772 49.55 158.26 49.55 157.628V156.593C49.55 155.961 50.0621 155.449 50.6938 155.449H90.1337C90.7654 155.449 91.2774 155.961 91.2774 156.593V157.628C91.2774 158.26 90.7654 158.772 90.1337 158.772Z" fill="#2211BB"/>
<path opacity="0.6" d="M90.1337 158.772H50.6938C50.0621 158.772 49.55 158.26 49.55 157.628V156.593C49.55 155.961 50.0621 155.449 50.6938 155.449H90.1337C90.7654 155.449 91.2774 155.961 91.2774 156.593V157.628C91.2774 158.26 90.7654 158.772 90.1337 158.772Z" fill="white"/>
<path d="M84.0791 98.1588C84.0791 98.1588 84.2385 98.5913 84.5287 99.2969C84.8189 100.002 85.2627 101.078 85.8033 102.25C87.1121 105.095 89.0127 108.714 90.9986 110.666C91.4974 111.191 92.0975 111.609 92.7626 111.895C94.8794 112.709 100.189 112.857 104.929 112.811C109.669 112.766 113.72 112.527 113.72 112.527V108.936L98.1343 104.782C98.1343 104.782 89.9174 89.9533 85.0465 87.7568L84.0791 98.1588Z" fill="#263238"/>
<path opacity="0.2" d="M84.5285 99.3024C84.8244 100.042 85.2626 101.084 85.8031 102.256C87.1119 105.101 89.0125 108.72 90.9984 110.672C93.0185 103.229 85.5471 96.1443 85.5471 96.1443L84.5285 99.3024Z" fill="black"/>
<path d="M86.5429 201.314L91.0782 200.693L91.7041 189.916L87.1803 190.542L86.5429 201.314Z" fill="#EBB376"/>
<path opacity="0.2" d="M87.1803 190.542L91.7041 189.921L91.3456 196.078L86.8218 196.477L87.1803 190.542Z" fill="black"/>
<path d="M86.7251 137.968L85.6212 131.038L60.2308 129.518C60.2308 129.518 57.5279 143.938 59.6048 147.779C63.3093 154.636 83.2824 151.193 89.1321 151.847C85.6155 166.159 85.9569 194.041 85.9569 194.041L94.3047 194.679C94.3047 194.679 100.723 164.594 102.026 150.294C102.908 140.666 94.9078 140.905 86.7251 137.968Z" fill="#2211BB"/>
<path d="M84.9783 194.457L95.0104 195.111L95.8696 190.815L84.8474 190.309L84.9783 194.457Z" fill="#2211BB"/>
<path d="M97.0019 197.29L101.566 197.626L104.422 187.218L99.8641 186.888L97.0019 197.29Z" fill="#EBB376"/>
<path d="M102.18 197.78H102.26C102.26 197.711 102.493 196.431 103.045 196.13C103.116 196.094 103.194 196.076 103.273 196.076C103.352 196.076 103.43 196.094 103.5 196.13C103.587 196.156 103.662 196.212 103.713 196.288C103.764 196.364 103.787 196.454 103.779 196.545C103.669 196.922 103.432 197.25 103.108 197.472C103.523 197.33 103.975 197.342 104.382 197.507C104.437 197.548 104.481 197.602 104.508 197.665C104.536 197.728 104.548 197.797 104.542 197.865C104.549 197.973 104.525 198.08 104.474 198.175C104.423 198.269 104.345 198.347 104.251 198.4C103.966 198.511 103.649 198.511 103.364 198.4C102.968 198.282 102.587 198.122 102.226 197.922H102.186C102.186 197.922 102.186 197.922 102.186 197.888C102.173 197.873 102.166 197.854 102.165 197.835C102.164 197.815 102.169 197.796 102.18 197.78ZM103.552 196.505C103.552 196.442 103.551 196.363 103.398 196.306H103.347C103.306 196.292 103.263 196.287 103.221 196.292C103.179 196.297 103.138 196.312 103.102 196.334C102.772 196.511 102.533 197.205 102.436 197.62L102.539 197.592C102.988 197.324 103.512 196.812 103.552 196.505ZM104.149 198.178C104.205 198.14 104.251 198.088 104.282 198.027C104.313 197.966 104.328 197.899 104.325 197.831C104.328 197.798 104.323 197.764 104.31 197.734C104.297 197.703 104.277 197.676 104.251 197.655C103.99 197.461 103.159 197.626 102.544 197.808C103.301 198.184 103.882 198.32 104.149 198.178Z" fill="#2211BB"/>
<path opacity="0.2" d="M99.8641 186.888L104.422 187.224L102.789 193.17L98.2822 192.618L99.8641 186.888Z" fill="black"/>
<path d="M105.97 192.436L97.935 190.058C97.935 190.058 102.732 162.983 107.609 153.594C107.244 153.474 106.761 153.321 106.163 153.144C105.088 152.82 103.66 152.416 101.981 151.949C90.3042 148.712 66.638 142.64 66.638 142.64L77.4497 132.551C77.4497 132.551 120.514 139.118 121.408 150.464C121.823 155.916 105.97 192.436 105.97 192.436Z" fill="#2211BB"/>
<path d="M96.8994 190.251L106.573 192.988L108.309 188.965L97.6335 186.171L96.8994 190.251Z" fill="#2211BB"/>
<path opacity="0.2" d="M106.152 153.162C105.076 152.838 103.648 152.434 101.969 151.967C102.305 149.213 102.311 146.055 100.985 144.444C98.3504 141.235 91.5732 139.351 87.7151 138.669C84.4887 138.1 73.6485 136.961 73.6485 136.961C73.6485 136.961 87.7151 135.613 102.1 139.807C109.202 141.889 107.819 148.837 106.152 153.162Z" fill="black"/>
<path d="M58.7968 136.762C57.0897 135.459 58.7285 123.339 57.8579 111.417C56.5321 93.2651 57.8579 87.4325 59.1952 86.8692C61.6643 86.4409 64.1614 86.1937 66.6666 86.1294C70.3308 85.9984 73.9996 86.0782 77.6547 86.3684C80.156 86.6751 82.6294 87.1774 85.0521 87.8707C85.0521 87.8707 91.0384 106.933 87.2145 134.389L58.7968 136.762Z" fill="#263238"/>
<path opacity="0.8" d="M57.3856 102.074C57.4596 104.743 57.6189 107.838 57.8807 111.412C58.7513 123.333 57.1239 135.453 58.8196 136.757L87.243 134.384C88.94 122.466 88.9496 110.369 87.2714 98.449C84.9611 94.8413 80.4771 90.7272 78.4172 88.9234C77.7335 89.6726 76.8058 90.1546 75.7996 90.2834C73.5861 90.7158 71.0596 89.7143 68.9712 88.4397C67.321 90.0842 64.1913 93.4131 62.8199 96.2184C62.6768 96.5091 62.5495 96.8073 62.4387 97.1118C61.5681 99.5473 58.9107 96.5428 57.5563 92.6278C57.3239 95.7708 57.2669 98.9244 57.3856 102.074Z" fill="white"/>
<path d="M68.0152 73.8098C68.6354 77.3606 69.1874 83.8476 66.6665 86.1579C67.69 87.2569 68.9208 88.1425 70.2881 88.7636C71.6554 89.3848 73.1321 89.7292 74.633 89.777C79.1853 89.9761 77.6489 86.3627 77.6489 86.3627C73.7226 85.3385 73.8933 82.4136 74.6387 79.6823L68.0152 73.8098Z" fill="#EBB376"/>
<path opacity="0.2" d="M70.718 76.2168L74.6387 79.7107C74.4549 80.345 74.3273 80.9944 74.2574 81.6511C72.7552 81.4064 70.7237 79.705 70.5928 78.1231C70.5175 77.4853 70.56 76.8392 70.718 76.2168Z" fill="black"/>
<path d="M76.6248 64.6198C74.6616 65.9514 75.555 68.2047 79.9935 71.7385C81.7916 69.4225 82.0932 64.8702 80.6592 63.7321C79.2253 62.594 78.3319 63.4647 76.6248 64.6198Z" fill="#263238"/>
<path d="M68.1971 68.2841C68.4077 73.0811 68.2939 75.8922 70.6668 78.3959C74.2403 82.1572 80.1924 80.0632 81.4159 75.3004C82.5084 71.0212 81.9849 63.9196 77.3245 61.9109C76.3006 61.4672 75.1802 61.2929 74.0699 61.4047C72.9596 61.5164 71.8964 61.9105 70.9815 62.5493C70.0666 63.1882 69.3304 64.0506 68.843 65.0544C68.3556 66.0582 68.1333 67.1701 68.1971 68.2841Z" fill="#EBB376"/>
<path d="M75.3159 69.707C75.3159 70.0996 75.5094 70.4183 75.7654 70.424C76.0215 70.4297 76.2264 70.1167 76.2321 69.7241C76.2377 69.3314 76.0443 69.0185 75.7882 69.0128C75.5321 69.0071 75.3501 69.3257 75.3159 69.707Z" fill="#263238"/>
<path d="M79.7487 69.7922C79.7487 70.1791 79.9422 70.4978 80.1982 70.5035C80.4543 70.5092 80.6648 70.2019 80.6705 69.8036C80.6762 69.4053 80.4771 69.0923 80.221 69.0923C79.9649 69.0923 79.7544 69.4223 79.7487 69.7922Z" fill="#263238"/>
<path d="M78.2977 69.9517C78.7413 71.1504 79.3483 72.2821 80.1016 73.3147C79.8316 73.4986 79.5251 73.6223 79.203 73.6773C78.881 73.7323 78.5509 73.7173 78.2351 73.6333L78.2977 69.9517Z" fill="#D58745"/>
<path d="M74.1266 68.2841C74.0766 68.2906 74.0259 68.2784 73.9843 68.2499C73.9604 68.232 73.9402 68.2095 73.925 68.1838C73.9098 68.1581 73.8998 68.1296 73.8955 68.1C73.8913 68.0705 73.893 68.0403 73.9004 68.0114C73.9078 67.9824 73.9208 67.9552 73.9388 67.9313C74.1564 67.6389 74.4411 67.4031 74.7689 67.2437C75.0966 67.0843 75.4579 67.0059 75.8223 67.0151C75.8512 67.0166 75.8795 67.0238 75.9056 67.0364C75.9317 67.049 75.955 67.0667 75.9741 67.0884C75.9932 67.1102 76.0077 67.1356 76.0168 67.1631C76.026 67.1905 76.0295 67.2196 76.0271 67.2484C76.02 67.3073 75.9907 67.3612 75.9453 67.3992C75.8998 67.4373 75.8416 67.4566 75.7824 67.4533C75.4948 67.4501 75.2105 67.5156 74.9532 67.6442C74.6959 67.7729 74.473 67.961 74.303 68.193C74.2813 68.2194 74.2545 68.2411 74.2242 68.2568C74.1938 68.2725 74.1606 68.2817 74.1266 68.2841Z" fill="#263238"/>
<path d="M81.7916 68.3299C81.7478 68.3301 81.7048 68.3179 81.6675 68.2948C81.6303 68.2716 81.6003 68.2385 81.5811 68.1991C81.4692 67.9343 81.2957 67.7001 81.0749 67.516C80.8542 67.3319 80.5927 67.2032 80.3121 67.1407C80.2521 67.1308 80.1983 67.098 80.1622 67.0491C80.1261 67.0002 80.1105 66.9391 80.1187 66.8789C80.1271 66.8194 80.1588 66.7656 80.2068 66.7294C80.2548 66.6931 80.3151 66.6773 80.3747 66.6854C80.7309 66.7598 81.064 66.9185 81.3462 67.1482C81.6284 67.3779 81.8514 67.6719 81.9965 68.0056C82.0218 68.06 82.0247 68.1222 82.0045 68.1786C81.9842 68.2351 81.9425 68.2813 81.8884 68.3072C81.8589 68.3236 81.8254 68.3315 81.7916 68.3299Z" fill="#263238"/>
<path d="M70.1662 64.062C72.3912 64.87 72.0725 67.2771 68.6355 71.7838C66.3139 69.9572 64.9084 65.6269 66.0294 64.1758C67.1504 62.7248 68.1974 63.3621 70.1662 64.062Z" fill="#263238"/>
<path d="M65.8358 72.0685C65.9905 72.6463 66.2576 73.188 66.6218 73.6625C66.986 74.137 67.4402 74.5351 67.9583 74.834C69.3524 75.6193 70.4279 74.4642 70.3653 72.9562C70.3027 71.5905 69.5061 69.542 67.9526 69.3713C66.3991 69.2006 65.4602 70.6345 65.8358 72.0685Z" fill="#EBB376"/>
<path d="M74.6388 74.4241C74.9757 74.9394 75.4483 75.3518 76.0045 75.6159C76.5607 75.8799 77.179 75.9854 77.7913 75.9206" stroke="#263238" stroke-width="0.0748696" stroke-linecap="round" stroke-linejoin="round"/>
<path d="M75.0256 63.2998C75.0256 63.2998 74.3086 68.1025 69.6824 68.4211C65.0561 68.7398 64.066 65.8661 64.066 65.8661C64.443 65.921 64.8231 65.9514 65.2041 65.9572C65.2041 65.9572 63.8497 63.6298 65.2041 61.4049C66.5584 59.18 71.1676 56.8014 74.5875 57.9907C75.6517 57.643 76.7763 57.5191 77.8907 57.6268C79.0051 57.7345 80.0852 58.0715 81.0631 58.6166C84.2668 60.4774 83.6977 64.5346 83.6977 64.5346C83.6977 64.5346 83.84 62.0707 82.3434 61.3821C82.3434 61.3821 84.1928 66.4523 81.4216 67.8066C81.4273 67.7895 81.1541 62.799 75.0256 63.2998Z" fill="#263238"/>
<path d="M82.8953 108.686C82.8953 108.686 99.3974 108.31 100.331 108.219C101.264 108.128 105.173 105.943 106.021 105.824C106.869 105.704 109.082 109.238 109.361 110.057C109.64 110.877 103.102 113.096 102.47 112.999C101.739 112.804 101.028 112.54 100.348 112.208L83.5042 114.376L82.8953 108.686Z" fill="#EBB376"/>
<path d="M130.791 112.1V113.608C130.791 114.058 130.017 114.376 129.568 114.376H94.4071C93.9519 114.376 93.2349 114.058 93.2349 113.608V112.1H130.791Z" fill="#263238"/>
<path opacity="0.6" d="M130.791 112.1V113.608C130.791 114.058 130.017 114.376 129.568 114.376H94.4071C93.9519 114.376 93.2349 114.058 93.2349 113.608V112.1H130.791Z" fill="white"/>
<path opacity="0.2" d="M130.791 112.1V113.608C130.791 114.058 130.017 114.376 129.568 114.376H106.38C105.924 114.376 105.185 114.058 105.185 113.608V112.1H130.791Z" fill="black"/>
<path d="M136.43 93.6118L132.242 112.669C132.168 112.98 131.996 113.258 131.751 113.463C131.506 113.668 131.201 113.789 130.882 113.807H108.03C107.883 113.794 107.741 113.748 107.614 113.673C107.488 113.598 107.379 113.496 107.297 113.374C107.214 113.252 107.16 113.113 107.139 112.967C107.117 112.822 107.128 112.673 107.171 112.532L111.353 93.6857C111.438 93.3978 111.62 93.1478 111.867 92.9779C112.115 92.808 112.414 92.7284 112.713 92.7525H135.565C136.18 92.7525 136.567 92.9915 136.43 93.6118Z" fill="#263238"/>
<path opacity="0.6" d="M136.43 93.6118L132.242 112.669C132.168 112.98 131.996 113.258 131.751 113.463C131.506 113.668 131.201 113.789 130.882 113.807H108.03C107.883 113.794 107.741 113.748 107.614 113.673C107.488 113.598 107.379 113.496 107.297 113.374C107.214 113.252 107.16 113.113 107.139 112.967C107.117 112.822 107.128 112.673 107.171 112.532L111.353 93.6857C111.438 93.3978 111.62 93.1478 111.867 92.9779C112.115 92.808 112.414 92.7284 112.713 92.7525H135.565C136.18 92.7525 136.567 92.9915 136.43 93.6118Z" fill="white"/>
<path opacity="0.4" d="M136.43 93.6118L132.242 112.669C132.168 112.98 131.996 113.258 131.751 113.463C131.506 113.668 131.201 113.789 130.882 113.807H108.798C108.651 113.794 108.509 113.748 108.382 113.673C108.255 113.598 108.147 113.496 108.064 113.374C107.981 113.252 107.926 113.114 107.904 112.968C107.881 112.822 107.891 112.673 107.933 112.532L112.115 93.6857C112.201 93.3978 112.382 93.1478 112.63 92.9779C112.878 92.808 113.176 92.7284 113.475 92.7525H135.565C136.18 92.7525 136.567 92.9915 136.43 93.6118Z" fill="white"/>
<path opacity="0.2" d="M122.978 105.841C124.042 105.841 125.135 104.702 125.414 103.291C125.693 101.88 125.05 100.719 123.963 100.719C123.768 100.723 123.575 100.762 123.394 100.833C123.295 101.336 123.079 101.809 122.764 102.213C122.449 102.618 122.042 102.942 121.578 103.16C121.566 103.198 121.557 103.236 121.55 103.274C121.265 104.702 121.908 105.841 122.978 105.841Z" fill="black"/>
<path opacity="0.2" d="M57.3856 102.074C59.8381 106.057 63.2694 110.296 66.6893 110.097C70.2685 109.887 66.6608 102.58 62.8142 96.2185C62.671 96.5092 62.5437 96.8075 62.4329 97.1119C61.5623 99.5474 58.9049 96.5429 57.5506 92.6279C57.3201 95.7711 57.265 98.9246 57.3856 102.074Z" fill="black"/>
<path d="M59.1951 86.8691C50.7563 89.9078 65.5683 112.76 70.1718 115.116C74.7753 117.472 86.873 114.758 86.873 114.758L86.1219 107.696C86.1219 107.696 76.545 108.345 74.6388 107.861C72.7325 107.377 68.203 97.6182 65.5968 93.0375C64.1505 90.3701 61.9144 88.2155 59.1951 86.8691Z" fill="#263238"/>
<path opacity="0.2" d="M84.9783 194.457L95.0104 195.111L95.8696 190.815L84.8474 190.309L84.9783 194.457Z" fill="white"/>
<path opacity="0.2" d="M96.8994 190.251L106.573 192.988L108.309 188.965L97.6335 186.171L96.8994 190.251Z" fill="white"/>
<path d="M102.009 197.16L97.0702 195.783C96.9886 195.757 96.9004 195.764 96.824 195.802C96.7476 195.841 96.689 195.907 96.6605 195.988L95.3232 199.834C95.2674 200.042 95.2959 200.263 95.4025 200.449C95.5091 200.636 95.6852 200.773 95.8923 200.83C97.6278 201.28 98.4757 201.399 100.655 202.002C101.992 202.372 104.599 203.226 106.505 203.442C108.411 203.658 108.57 201.769 107.785 201.513C105.919 200.887 103.682 198.941 102.715 197.621C102.538 197.392 102.29 197.23 102.009 197.16Z" fill="#263238"/>
<path d="M91.5278 200.699C91.5278 200.619 91.6075 199.328 92.0969 198.918C92.1695 198.864 92.2524 198.826 92.3405 198.805C92.4286 198.785 92.52 198.782 92.609 198.799C92.7013 198.807 92.7885 198.845 92.8581 198.906C92.9276 198.968 92.9759 199.049 92.9959 199.14C92.9756 199.531 92.8162 199.903 92.5464 200.187C92.9271 199.964 93.3743 199.881 93.8097 199.954C93.8716 199.984 93.9253 200.028 93.966 200.084C94.0067 200.14 94.0331 200.204 94.043 200.272C94.0697 200.374 94.0679 200.481 94.0378 200.581C94.0076 200.681 93.9504 200.771 93.8723 200.841C93.6156 201.005 93.3068 201.066 93.0073 201.012C92.6011 200.979 92.2002 200.898 91.8123 200.773C91.8061 200.776 91.7993 200.778 91.7924 200.778C91.7855 200.778 91.7787 200.776 91.7725 200.773V200.739C91.7725 200.739 91.6644 200.739 91.6587 200.699C91.653 200.659 91.562 200.699 91.562 200.699H91.5278ZM92.7854 199.163C92.7854 199.1 92.7456 199.021 92.5976 198.992H92.5464C92.5036 198.988 92.4605 198.994 92.4202 199.008C92.3798 199.023 92.3432 199.047 92.3131 199.077C92.0229 199.316 91.9432 200.039 91.9262 200.472L92.0172 200.42C92.4133 200.105 92.6854 199.659 92.7854 199.163ZM93.7186 200.671C93.7625 200.621 93.7933 200.561 93.8082 200.497C93.8231 200.432 93.8216 200.365 93.804 200.301C93.8005 200.267 93.7881 200.235 93.7681 200.208C93.7481 200.181 93.7211 200.16 93.6902 200.147C93.3999 200.011 92.6204 200.346 92.0684 200.648C92.8878 200.87 93.491 200.87 93.7186 200.693V200.671Z" fill="#2211BB"/>
<path d="M91.4196 200.147L86.2983 199.828C86.256 199.823 86.213 199.826 86.1719 199.837C86.1307 199.848 86.0923 199.868 86.0588 199.894C86.0254 199.921 85.9976 199.954 85.9772 199.992C85.9568 200.029 85.944 200.07 85.9398 200.113L85.4391 204.153C85.4313 204.258 85.4446 204.364 85.4779 204.464C85.5113 204.564 85.5642 204.656 85.6336 204.735C85.7029 204.815 85.7873 204.879 85.8819 204.926C85.9764 204.973 86.0793 205 86.1845 205.006C87.9713 205.092 88.8305 205.04 91.0839 205.166C92.4667 205.245 95.1923 205.541 97.1043 205.353C99.0163 205.166 98.7773 203.288 97.9522 203.197C96.0004 202.975 93.3999 201.541 92.1878 200.448C91.9723 200.265 91.7021 200.159 91.4196 200.147Z" fill="#263238"/>
<path d="M114.227 205.422H110.744L110.169 118.218H114.796L114.227 205.422Z" fill="#2211BB"/>
<path opacity="0.4" d="M114.801 118.359L114.71 132.432L114.232 205.422H110.744L110.266 132.432L110.175 118.359H114.801Z" fill="white"/>
<path opacity="0.2" d="M114.801 118.359L114.71 132.585H110.266L110.175 118.359H114.801Z" fill="black"/>
<path d="M151.237 205.422H147.754L141.489 118.218H146.115L151.237 205.422Z" fill="#2211BB"/>
<path opacity="0.5" d="M151.242 205.422H147.754L141.796 122.553L141.489 118.359H146.115L146.366 122.553L151.242 205.422Z" fill="white"/>
<path opacity="0.2" d="M146.366 122.343H141.796L141.489 118.359H146.115L146.366 122.343Z" fill="black"/>
<path d="M77.2164 205.422H73.7339L78.8552 118.218H83.4814L77.2164 205.422Z" fill="#2211BB"/>
<path opacity="0.5" d="M83.4814 118.359L83.1742 122.553L77.2164 205.422H73.7339L78.6048 122.553L78.8552 118.359H83.4814Z" fill="white"/>
<path opacity="0.2" d="M78.8552 118.359H83.4814L83.1742 122.343H78.6048L78.8552 118.359Z" fill="black"/>
<path d="M76.4198 120.402L148.551 120.402C148.712 120.402 148.872 120.37 149.021 120.309C149.17 120.247 149.306 120.156 149.42 120.042C149.534 119.928 149.625 119.792 149.686 119.643C149.748 119.494 149.78 119.334 149.78 119.173V116.038L75.1907 116.038V119.173C75.1907 119.499 75.3202 119.812 75.5507 120.042C75.7812 120.273 76.0938 120.402 76.4198 120.402Z" fill="#2211BB"/>
<path opacity="0.6" d="M76.4198 120.402L148.551 120.402C148.712 120.402 148.872 120.37 149.021 120.309C149.17 120.247 149.306 120.156 149.42 120.042C149.534 119.928 149.625 119.792 149.686 119.643C149.748 119.494 149.78 119.334 149.78 119.173V116.038L75.1907 116.038V119.173C75.1907 119.499 75.3202 119.812 75.5507 120.042C75.7812 120.273 76.0938 120.402 76.4198 120.402Z" fill="white"/>
<path opacity="0.2" d="M149.78 118.218L75.1907 118.218V116.032L149.78 116.032V118.218Z" fill="black"/>
<path d="M151.942 116.607H73.0284C72.7019 116.605 72.3892 116.474 72.1589 116.243C71.9286 116.012 71.7992 115.698 71.7992 115.372C71.7992 115.046 71.9287 114.733 72.1593 114.503C72.3898 114.272 72.7024 114.143 73.0284 114.143H151.942C152.268 114.143 152.581 114.272 152.811 114.503C153.042 114.733 153.171 115.046 153.171 115.372C153.171 115.698 153.042 116.012 152.812 116.243C152.581 116.474 152.269 116.605 151.942 116.607Z" fill="#2211BB"/>
<path opacity="0.6" d="M151.942 116.607H73.0284C72.7019 116.605 72.3892 116.474 72.1589 116.243C71.9286 116.012 71.7992 115.698 71.7992 115.372C71.7992 115.046 71.9287 114.733 72.1593 114.503C72.3898 114.272 72.7024 114.143 73.0284 114.143H151.942C152.268 114.143 152.581 114.272 152.811 114.503C153.042 114.733 153.171 115.046 153.171 115.372C153.171 115.698 153.042 116.012 152.812 116.243C152.581 116.474 152.269 116.605 151.942 116.607Z" fill="white"/>
</svg>
